<svg id="Layer_1" data-name="Layer 1" xmlns="http://www.w3.org/2000/svg" viewBox="0 0 231.54 155.03"><defs><style>.cls-1{fill:#fff;}.cls-2{fill:#007c91;}.cls-3{opacity:0.25;}.cls-4{fill:#3f7538;}</style></defs><rect class="cls-1" x="0.77" y="0.85" width="229.98" height="153.32" rx="9.04"/><path class="cls-2" d="M230.77,37.7l-113.48,0A1.25,1.25,0,0,1,116,37a48.35,48.35,0,0,1-4.41-12.34c-.3-1.45-.89-2.26-2.35-2.24a27.88,27.88,0,0,0-6.32.68c-6.12,1.54-11.46,4.74-16.49,8.46-2.4,1.77-4.65,3.77-7,5.64a10.23,10.23,0,0,1-1.33.78V.85H60.55v35.5a11.87,11.87,0,0,1-2.12-.74c-1.19-.71-2.31-1.53-3.44-2.33-6.61-4.69-14.46-6.62-22.21-8.49A9.64,9.64,0,0,0,31,24.57c-3.26-.17-4.32.41-5.43,3.44-.92,2.53-1.26,6.29-2.07,8.86-.11.33-.51.8-.78.8l-21.91,0V55.15H35.88c-.77.83-1.37,1.53-2,2.17-2.37,2.36-3.52,3.48-5.92,5.8a2.93,2.93,0,0,0-.73,2.79c1.07,7.34.71,15.93.64,23.37,0,1.34-.11,2.69-.18,4.27.38-.21.68-.29.84-.49,1.4-1.7,2.63-3.56,4.18-5.1C38,82.67,43.48,77.55,48.77,72.25c3.81-3.82,7.42-7.83,11.11-11.76l.67-.71v94.37H78.09V56.94c3.67,4.28,7.14,8.51,10.82,12.55,3.46,3.79,7.25,7.28,10.73,11.05s9,10.17,12.41,14.1l.72.83a11,11,0,0,0,.19-1.09c.67-8.71,1.33-17.41,2-26.11a2.62,2.62,0,0,0-.72-2.25c-2.64-2.55-7.4-7.43-10-10-.27-.25-.55-.48-1-.86H230.77Z"/><path class="cls-3" d="M32.17,38.61s15-5,28.39,7.67C60.56,46.28,40.61,45.51,32.17,38.61Z"/><path class="cls-3" d="M106.47,38.61s-15-5-28.38,7.67C78.09,46.28,98,45.51,106.47,38.61Z"/><path class="cls-4" d="M125.14,123.71h4.68a6.58,6.58,0,0,0,1.82,4,6.89,6.89,0,0,0,3,1.51V118.92q-8.33-1.5-8.32-9.46a11.66,11.66,0,0,1,.67-4,8.66,8.66,0,0,1,2-3.23,9.54,9.54,0,0,1,5.62-2.65v-3h4.57v3a10.22,10.22,0,0,1,6.76,3.64,13.08,13.08,0,0,1,2.6,6.86l-.1.06h-4.53a7.88,7.88,0,0,0-1.09-3.33,5.46,5.46,0,0,0-3.64-2.55v10.45a16.2,16.2,0,0,1,5.67,2c2.5,1.59,3.74,4,3.74,7.38a9.65,9.65,0,0,1-.75,3.77,9.23,9.23,0,0,1-2.16,3.15,11.11,11.11,0,0,1-6.5,3.07V137h-4.57v-3a11,11,0,0,1-6.14-2.91A11.83,11.83,0,0,1,125.14,123.71Zm9.47-9.57v-9.83a5.2,5.2,0,0,0-3.15,1.74,4.69,4.69,0,0,0-1.07,3,5.25,5.25,0,0,0,4.22,5.1Zm4.57,5.36v9.82a6.36,6.36,0,0,0,3.56-2,5,5,0,0,0,1.38-3.38,4.45,4.45,0,0,0-.93-2.71C142.56,120.48,141.23,119.91,139.18,119.5Z"/><path class="cls-4" d="M162.48,120.8a5.15,5.15,0,0,0-3.77,2.78,14.67,14.67,0,0,0-.91,5.8h12.89v4.68H153.48a37.09,37.09,0,0,1-.21-4.11q0-11.65,8.17-13.68a10.25,10.25,0,0,0,4.16-1.82,5.22,5.22,0,0,0,2.18-4.26,6.05,6.05,0,0,0-1.71-4.27,5.46,5.46,0,0,0-4.11-1.76h-7.85V99.48H162a9.65,9.65,0,0,1,4,.83,10.88,10.88,0,0,1,3.33,2.29,10.3,10.3,0,0,1,2.26,3.43,10.86,10.86,0,0,1,.81,4.16,9.34,9.34,0,0,1-3.17,7.23A15.21,15.21,0,0,1,162.48,120.8Z"/><path class="cls-4" d="M177.3,134.06v-4.68h8.32a5.7,5.7,0,0,0,4.16-1.77,6.17,6.17,0,0,0,0-8.53,5.93,5.93,0,0,0-4.16-1.77H177V99.48h17.31v4.68H181.61v8.47h4a10,10,0,0,1,4,.83,10.88,10.88,0,0,1,6.37,9.88,10.82,10.82,0,0,1-.81,4.16,10.7,10.7,0,0,1-2.21,3.44,10.82,10.82,0,0,1-3.35,2.28,9.87,9.87,0,0,1-4,.84Z"/></svg>