<svg id="Layer_1" data-name="Layer 1" xmlns="http://www.w3.org/2000/svg" viewBox="0 0 231.54 155.03"><defs><style>.cls-1{fill:#fff;}.cls-2{fill:#007c91;}.cls-3{opacity:0.25;}.cls-4{fill:#3f7538;}</style></defs><rect class="cls-1" x="0.77" y="0.85" width="229.98" height="153.32" rx="9.04"/><path class="cls-2" d="M230.77,37.7l-113.48,0A1.25,1.25,0,0,1,116,37a48.35,48.35,0,0,1-4.41-12.34c-.3-1.45-.89-2.26-2.35-2.24a27.88,27.88,0,0,0-6.32.68c-6.12,1.54-11.46,4.74-16.49,8.46-2.4,1.77-4.65,3.77-7,5.64a10.23,10.23,0,0,1-1.33.78V.85H60.55v35.5a11.87,11.87,0,0,1-2.12-.74c-1.19-.71-2.31-1.53-3.44-2.33-6.61-4.69-14.46-6.62-22.21-8.49A9.64,9.64,0,0,0,31,24.57c-3.26-.17-4.32.41-5.43,3.44-.92,2.53-1.26,6.29-2.07,8.86-.11.33-.51.8-.78.8l-21.91,0V55.15H35.88c-.77.83-1.37,1.53-2,2.17-2.37,2.36-3.52,3.48-5.92,5.8a2.93,2.93,0,0,0-.73,2.79c1.07,7.34.71,15.93.64,23.37,0,1.34-.11,2.69-.18,4.27.38-.21.68-.29.84-.49,1.4-1.7,2.63-3.56,4.18-5.1C38,82.67,43.48,77.55,48.77,72.25c3.81-3.82,7.42-7.83,11.11-11.76l.67-.71v94.37H78.09V56.94c3.67,4.28,7.14,8.51,10.82,12.55,3.46,3.79,7.25,7.28,10.73,11.05s9,10.17,12.41,14.1l.72.83a11,11,0,0,0,.19-1.09c.67-8.71,1.33-17.41,2-26.11a2.62,2.62,0,0,0-.72-2.25c-2.64-2.55-7.4-7.43-10-10-.27-.25-.55-.48-1-.86H230.77Z"/><path class="cls-3" d="M32.17,38.61s15-5,28.39,7.67C60.56,46.28,40.61,45.51,32.17,38.61Z"/><path class="cls-3" d="M106.47,38.61s-15-5-28.38,7.67C78.09,46.28,98,45.51,106.47,38.61Z"/><path class="cls-4" d="M125.26,123.8h4.68a6.55,6.55,0,0,0,1.82,4,7,7,0,0,0,3,1.51V119q-8.33-1.5-8.32-9.46a11.53,11.53,0,0,1,.68-4,8.68,8.68,0,0,1,2-3.22,9.48,9.48,0,0,1,5.62-2.65v-3h4.57v3a10.21,10.21,0,0,1,6.77,3.64,13.17,13.17,0,0,1,2.6,6.86l-.11,0H144a8.12,8.12,0,0,0-1.09-3.32,5.44,5.44,0,0,0-3.65-2.55V114.8a16.2,16.2,0,0,1,5.67,2,8.13,8.13,0,0,1,3.75,7.38,9.69,9.69,0,0,1-.76,3.77,9.23,9.23,0,0,1-2.16,3.15,11.07,11.07,0,0,1-6.5,3.06v2.92h-4.57v-3a11.16,11.16,0,0,1-6.14-2.91A11.77,11.77,0,0,1,125.26,123.8Zm9.46-9.57V104.4a5.2,5.2,0,0,0-3.15,1.74,4.66,4.66,0,0,0-1.06,3,5.23,5.23,0,0,0,4.21,5.1Zm4.57,5.35v9.83a6.4,6.4,0,0,0,3.57-2,5,5,0,0,0,1.38-3.38,4.43,4.43,0,0,0-.94-2.7C142.68,120.57,141.34,120,139.29,119.58Z"/><path class="cls-4" d="M154.17,134.14v-4.68h8.32a5.73,5.73,0,0,0,4.16-1.76,6.17,6.17,0,0,0,0-8.53,5.93,5.93,0,0,0-4.16-1.77h-8.58V99.56h17.31v4.68H158.48v8.48h4a10,10,0,0,1,4,.83,10.85,10.85,0,0,1,6.37,9.88,10.86,10.86,0,0,1-.81,4.16,10.65,10.65,0,0,1-2.21,3.43,10.85,10.85,0,0,1-3.35,2.29,9.86,9.86,0,0,1-4,.83Z"/><path class="cls-4" d="M187.13,134.4a9.52,9.52,0,0,1-3.87-.8,10.69,10.69,0,0,1-3.25-2.21,10.56,10.56,0,0,1-2.18-3.33,10.19,10.19,0,0,1-.78-4V109.6a10.16,10.16,0,0,1,.78-3.95,10.1,10.1,0,0,1,5.43-5.54,9.52,9.52,0,0,1,3.87-.81H189a9.74,9.74,0,0,1,3.9.81,10.38,10.38,0,0,1,3.27,2.21,9.66,9.66,0,0,1,2.16,3.28,10.62,10.62,0,0,1,.75,4v14.51a10.66,10.66,0,0,1-.75,4,9.66,9.66,0,0,1-2.16,3.28,10.55,10.55,0,0,1-3.27,2.21,9.73,9.73,0,0,1-3.9.8Zm7.39-24.8a5.49,5.49,0,0,0-1.61-3.95A5.25,5.25,0,0,0,189,104h-1.88a5.23,5.23,0,0,0-3.87,1.69,5.49,5.49,0,0,0-1.64,3.93v14.51a5.46,5.46,0,0,0,1.64,3.92,5.19,5.19,0,0,0,3.87,1.69H189a5.24,5.24,0,0,0,3.9-1.66,5.51,5.51,0,0,0,1.61-4Z"/></svg>