<svg id="Layer_1" data-name="Layer 1" xmlns="http://www.w3.org/2000/svg" viewBox="0 0 63.5 63.5"><defs><style>.cls-1{fill:#fff;}.cls-2{fill:#004568;}</style></defs><path class="cls-1" d="M31.75,2A29.79,29.79,0,1,0,61.54,31.75,29.82,29.82,0,0,0,31.75,2Z"/><path class="cls-2" d="M54,9.49a31.48,31.48,0,1,0,9.24,22.26A31.26,31.26,0,0,0,54,9.49ZM31.75,59.84A28.07,28.07,0,1,1,59.84,31.75,28.12,28.12,0,0,1,31.75,59.84Z"/><path class="cls-2" d="M42.83,15,28.27,11.63a1.49,1.49,0,0,0-1.2.25A1.38,1.38,0,0,0,26.55,13v1.94H19.31a1.44,1.44,0,0,0-1.42,1.42v31.4a1.43,1.43,0,0,0,1.42,1.42h7.24v1.94a1.62,1.62,0,0,0,.52,1.12,1.35,1.35,0,0,0,.86.3.8.8,0,0,0,.3,0l14.56-3.36a1.39,1.39,0,0,0,1.07-1.38V16.36A1.24,1.24,0,0,0,42.83,15ZM26.55,46.34H20.69V17.74h5.82v28.6Zm5-12.79A1.51,1.51,0,1,1,33.05,32,1.55,1.55,0,0,1,31.55,33.55Z"/></svg>