<svg id="Layer_1" data-name="Layer 1" xmlns="http://www.w3.org/2000/svg" viewBox="0 0 63.5 63.5"><defs><style>.cls-1{fill:#fff;}.cls-2{fill:#3f7538;}</style></defs><path class="cls-1" d="M31.75,2A29.79,29.79,0,1,0,61.54,31.75,29.82,29.82,0,0,0,31.75,2Z"/><path class="cls-2" d="M31.75,63.25a31.48,31.48,0,1,1,31.5-31.5A31.53,31.53,0,0,1,31.75,63.25Zm0-59.59A28.13,28.13,0,1,0,51.6,11.9,28.12,28.12,0,0,0,31.75,3.66Z"/><path class="cls-2" d="M44,14.26H39.26V17a2.73,2.73,0,0,1-2.73,2.73H27A2.73,2.73,0,0,1,24.24,17V14.26H19.47A2.73,2.73,0,0,0,16.74,17V47a2.73,2.73,0,0,0,2.73,2.73H44A2.73,2.73,0,0,0,46.76,47V17A2.73,2.73,0,0,0,44,14.26ZM23.59,42.92a1.37,1.37,0,0,1,0-2.73h0a1.37,1.37,0,0,1,0,2.73Zm0-8.19a1.37,1.37,0,0,1,0-2.73h0a1.37,1.37,0,0,1,0,2.73Zm0-8.19a1.37,1.37,0,0,1,0-2.73h0a1.37,1.37,0,0,1,0,2.73ZM39.94,42.79H27.66a1.24,1.24,0,1,1,0-2.47H39.94a1.24,1.24,0,1,1,0,2.47Zm0-8.14H27.66a1.28,1.28,0,1,1,0-2.56H39.94a1.28,1.28,0,1,1,0,2.56Zm0-8.19H27.66a1.28,1.28,0,1,1,0-2.56H39.94a1.28,1.28,0,1,1,0,2.56ZM36.53,17H27V11.53h9.56Z"/></svg>