<svg id="Layer_1" data-name="Layer 1" xmlns="http://www.w3.org/2000/svg" viewBox="0 0 63.5 63.5"><defs><style>.cls-1{fill:#fff;}.cls-2{fill:#007c91;}</style></defs><path class="cls-1" d="M31.75,2A29.79,29.79,0,1,0,61.54,31.75,29.82,29.82,0,0,0,31.75,2Z"/><path class="cls-2" d="M54,9.49a31.48,31.48,0,1,0,9.24,22.26A31.26,31.26,0,0,0,54,9.49ZM31.75,59.84A28.07,28.07,0,1,1,59.84,31.75,28.12,28.12,0,0,1,31.75,59.84Z"/><path class="cls-2" d="M37.67,34.66h6.65v8a3.54,3.54,0,0,1-3.53,3.53H27.08V13H40.79a3.53,3.53,0,0,1,3.53,3.53v8H37.67a5.1,5.1,0,1,0,0,10.19Zm7.43-8.07v5.95a.71.71,0,0,1-.71.71H37.67a3.69,3.69,0,0,1,0-7.37h6.72A.71.71,0,0,1,45.1,26.59Zm-6.55,3a.71.71,0,0,0-.71-.7.71.71,0,0,0,0,1.41A.71.71,0,0,0,38.55,29.56ZM25.67,13H21.52A2.12,2.12,0,0,0,19.4,15.1V44a2.12,2.12,0,0,0,2.12,2.12h4.15ZM23.48,53.21a.71.71,0,0,0,.7.71.68.68,0,0,0,.49-.18l1.52-1.42,1.54,1.42a.74.74,0,0,0,.77.12.71.71,0,0,0,.42-.65V47.57H23.48Z"/></svg>