<svg id="Layer_1" data-name="Layer 1" xmlns="http://www.w3.org/2000/svg" viewBox="0 0 63.5 63.5"><defs><style>.cls-1,.cls-3{fill:#fff;}.cls-2{fill:#3f7538;}.cls-3{fill-rule:evenodd;}</style></defs><path class="cls-1" d="M31.75,2A29.79,29.79,0,1,0,61.54,31.75,29.82,29.82,0,0,0,31.75,2Z"/><path class="cls-2" d="M54,9.49a31.48,31.48,0,1,0,9.24,22.26A31.26,31.26,0,0,0,54,9.49ZM31.75,59.84A28.07,28.07,0,1,1,59.84,31.75,28.12,28.12,0,0,1,31.75,59.84Z"/><path class="cls-2" d="M40.58,20.19h5.67L39.7,13.63V19.3A.88.88,0,0,0,40.58,20.19Z"/><path class="cls-2" d="M40.58,22a2.65,2.65,0,0,1-2.65-2.65V13.12H19.39a2.65,2.65,0,0,0-2.65,2.65V47.56a2.64,2.64,0,0,0,2.65,2.65H44.11a2.64,2.64,0,0,0,2.65-2.65V22Z"/><path class="cls-3" d="M32.88,28.53a.72.72,0,0,1,.53-.88l1.27-.31A7.49,7.49,0,0,0,25,37.94h0a.73.73,0,0,1-.25,1,.74.74,0,0,1-1-.25A8.94,8.94,0,0,1,35.38,26.07l-.3-1.2a.73.73,0,0,1,1.41-.34l.73,2.92a.74.74,0,0,1-.09.55.67.67,0,0,1-.45.33l-2.92.73A.72.72,0,0,1,32.88,28.53ZM25.56,40.68a.74.74,0,0,1,.08-.55.77.77,0,0,1,.45-.34L29,39.07a.72.72,0,0,1,.88.53.74.74,0,0,1-.53.88l-1.28.31A7.49,7.49,0,0,0,37.8,30.18h0A.73.73,0,0,1,39,29.44h0A8.94,8.94,0,0,1,27.4,42.06l.29,1.19a.72.72,0,0,1-.53.88.71.71,0,0,1-.87-.53Z"/></svg>