<svg id="Layer_1" data-name="Layer 1" xmlns="http://www.w3.org/2000/svg" viewBox="0 0 63.5 63.5"><defs><style>.cls-1{fill:#fff;}.cls-2{fill:#3f7538;}</style></defs><path class="cls-1" d="M31.75,2A29.79,29.79,0,1,0,61.54,31.75,29.82,29.82,0,0,0,31.75,2Z"/><path class="cls-2" d="M54,9.49a31.48,31.48,0,1,0,9.24,22.26A31.26,31.26,0,0,0,54,9.49ZM31.75,59.84A28.07,28.07,0,1,1,59.84,31.75,28.12,28.12,0,0,1,31.75,59.84Z"/><path class="cls-2" d="M40.58,20.19h5.67L39.7,13.63V19.3A.88.88,0,0,0,40.58,20.19Z"/><path class="cls-2" d="M40.58,22a2.65,2.65,0,0,1-2.65-2.65V13.12H19.39a2.65,2.65,0,0,0-2.65,2.65V47.56a2.64,2.64,0,0,0,2.65,2.65H44.11a2.64,2.64,0,0,0,2.65-2.65V22Zm-9.7,23a2.62,2.62,0,1,1,2.5-2.73A2.63,2.63,0,0,1,30.88,45ZM38,30.53a4.53,4.53,0,0,1-.94,1.59,8,8,0,0,1-1.32,1.13c-.46.32-1,.63-1.45.93a9.41,9.41,0,0,0-1.18.84,2.79,2.79,0,0,0-.77,1.09,4.47,4.47,0,0,0-.24,1.94l0,.64a3.59,3.59,0,0,0-1.51-.27,3.36,3.36,0,0,0-1.3.32l0-.55a8.18,8.18,0,0,1,.19-2.36,5.24,5.24,0,0,1,.84-1.8,5.45,5.45,0,0,1,1.49-1.36c.34-.24.77-.51,1.25-.79A8,8,0,0,0,34.28,31a3.62,3.62,0,0,0,.84-1.12,3.11,3.11,0,0,0,.28-1.52,3.17,3.17,0,0,0-.55-1.76,3.05,3.05,0,0,0-1.29-1,4,4,0,0,0-1.71-.3,4.31,4.31,0,0,0-1.7.43,5,5,0,0,0-1.41,1,5.23,5.23,0,0,0-1,1.42l-.26.55-2.36-1.36.18-.46a6.7,6.7,0,0,1,1.54-2.29,7,7,0,0,1,2.26-1.49,7.49,7.49,0,0,1,4.91-.33,5.83,5.83,0,0,1,2.06,1.05,5.92,5.92,0,0,1,1.51,1.84,6.51,6.51,0,0,1,.65,2.66A5.65,5.65,0,0,1,38,30.53Z"/></svg>