<svg id="Layer_1" data-name="Layer 1" xmlns="http://www.w3.org/2000/svg" viewBox="0 0 97 88"><defs><style>.cls-1{fill:#007bbc;}</style></defs><path class="cls-1" d="M25.83.54A1.47,1.47,0,0,0,24.5,2V63.78A1.47,1.47,0,0,0,26,65.25H73a1.47,1.47,0,0,0,1.47-1.47V15.25a1.46,1.46,0,0,0-.44-1.06L60.83,1a1.53,1.53,0,0,0-1-.41h-34Zm1.61,2.94H58.32V15.25a1.47,1.47,0,0,0,1.47,1.47H71.56V62.31H27.44ZM61.26,5.55l8.23,8.23H61.26ZM35,38A1.47,1.47,0,0,0,35.1,41H64.51a1.48,1.48,0,0,0,1.32-2.19A1.41,1.41,0,0,0,64.54,38H35Zm0-20.59a1.47,1.47,0,0,0,.14,2.94H52.74a1.49,1.49,0,0,0,1.33-2.19,1.43,1.43,0,0,0-1.29-.75H35Zm0,30.88a1.48,1.48,0,0,0,.14,3H64.51a1.49,1.49,0,0,0,1.32-2.2,1.41,1.41,0,0,0-1.29-.75H35ZM40.5,70.49l-2.83,2.83,3.42,3.42C20.32,75.45,4.5,68.89,4.5,61c0-4.25,4.57-8.11,12-11V46.07C6.68,49.74.5,55.05.5,61,.5,71,18.35,79.34,41.56,80.74l-3.89,3.89,2.83,2.83,5.66-5.65L49,79l-2.82-2.83Zm40-24.42V50c7.43,2.87,12,6.73,12,11,0,7.84-15.52,14.36-36,15.73v4c22.7-1.59,40-9.82,40-19.72C96.5,55.05,90.32,49.74,80.5,46.07ZM35,28A1.47,1.47,0,0,0,35.1,31H64.51a1.48,1.48,0,0,0,1.32-2.19A1.41,1.41,0,0,0,64.54,28H35Z"/></svg>