<svg width="96" height="87" viewBox="0 0 96 87" fill="none" xmlns="http://www.w3.org/2000/svg">
<g clip-path="url(#clip0)">
<path d="M25.3 0C24.6 0.1 24 0.7 24 1.5V63.3C24 64.1 24.7 64.8 25.5 64.8H72.5C73.3 64.8 74 64.1 74 63.3V14.7C74 14.3 73.8 13.9 73.6 13.6L60.3 0.5C60 0.2 59.7 0.1 59.3 0.1L25.3 0ZM26.9 2.9H57.8V14.7C57.8 15.5 58.5 16.2 59.3 16.2H71.1V61.8H26.9V2.9ZM60.8 5L69 13.2H60.8V5ZM34.5 37.5C33.7 37.5 33 38.2 33 39C33 39.8 33.7 40.5 34.5 40.5H64C64.8 40.5 65.5 39.9 65.5 39C65.5 38.7 65.4 38.5 65.3 38.3C65.1 37.8 64.6 37.5 64 37.5H34.5ZM34.5 16.9C33.7 16.9 33.1 17.6 33.1 18.4C33.1 19.2 33.8 19.8 34.6 19.8H52.2C53 19.8 53.7 19.1 53.7 18.3C53.7 18.1 53.6 17.8 53.5 17.6C53.2 17.1 52.7 16.8 52.2 16.8H34.5V16.9ZM34.5 47.8C33.7 47.8 33 48.5 33.1 49.4C33.2 50.3 33.8 50.9 34.7 50.8H64C64.8 50.8 65.5 50.1 65.5 49.3C65.5 49 65.4 48.8 65.3 48.6C65 48.1 64.5 47.8 64 47.8H34.5ZM40 69.9L37.2 72.7L40.6 76.1C19.8 74.9 4 68.3 4 60.5C4 56.3 8.6 52.4 16 49.5V45.6C6.2 49.3 0 54.6 0 60.5C0 70.5 17.9 78.8 41.1 80.2L37.2 84.1L40 86.9L45.7 81.2L48.5 78.4L45.7 75.6L40 69.9ZM80 45.5V49.4C87.4 52.3 92 56.1 92 60.4C92 68.2 76.5 74.8 56 76.1V80.1C78.7 78.5 96 70.3 96 60.4C96 54.5 89.8 49.2 80 45.5ZM34.5 27.5C33.7 27.5 33 28.2 33 29C33 29.8 33.7 30.5 34.5 30.5H64C64.8 30.5 65.5 29.9 65.5 29C65.5 28.7 65.4 28.5 65.3 28.3C65.1 27.8 64.6 27.5 64 27.5H34.5Z" fill="#1E1C84"/>
</g>
<defs>
<clipPath id="clip0">
<rect width="96" height="86.9" fill="white"/>
</clipPath>
</defs>
</svg>
