<?xml version="1.0" encoding="UTF-8"?><svg id="Layer_1" xmlns="http://www.w3.org/2000/svg" viewBox="0 0 15.08 12.04"><defs><style>.cls-1{fill:#611c35;}</style></defs><path class="cls-1" d="M12.34,6.04h-.67c-.15,0-.3,.06-.41,.17-.11,.11-.17,.26-.17,.41v4.82c0,.15,.06,.3,.17,.41,.11,.11,.26,.17,.41,.17h.86c.67,0,1.31-.26,1.78-.74,.47-.47,.74-1.11,.74-1.78v-.95c0-.5-.15-.98-.42-1.39-.28-.41-.67-.74-1.12-.93h0v-.26c0-1.58-.63-3.09-1.74-4.21C10.64,.65,9.12,.02,7.54,.02S4.45,.65,3.33,1.77c-1.12,1.12-1.74,2.63-1.74,4.21v.26c-.46,.19-.85,.51-1.12,.93-.28,.41-.42,.9-.42,1.39v.95c0,.67,.26,1.31,.74,1.78,.47,.47,1.11,.74,1.78,.74h.86c.15,0,.3-.06,.41-.17,.11-.11,.17-.26,.17-.41V6.62c0-.15-.06-.3-.17-.41-.11-.11-.26-.17-.41-.17h-.67v-.07c0-1.71,.91-3.3,2.4-4.15,1.48-.86,3.31-.86,4.8,0,1.48,.86,2.4,2.44,2.4,4.15v.07Z"/></svg>