<svg id="Layer_1" data-name="Layer 1" xmlns="http://www.w3.org/2000/svg" viewBox="0 0 385 81"><defs><style>.cls-1{fill:#fff;}.cls-2{fill:#007cb8;}</style></defs><path class="cls-1" d="M100.6,53.83h3.83c3.46,0,7.35,1.82,7.35,6.71s-3.83,6.83-7.54,6.83H100.6ZM103,65.32h.44c3.44,0,5.8-1.18,5.8-4.6,0-3.16-1.91-4.84-5.14-4.84H103Zm26.91-8.47V67.37h2.4V53.83h-3.58l-3.92,9.92L121,53.83h-3.62V67.37h2.4V56.81l4.18,10.56h1.7Zm8.58,10.52h2.4V53.83h-2.4Zm19.82,0V53.83h-2.4V63l-6.73-9.17h-2.11V67.37h2.4V58.22l6.69,9.15Zm6.18,0h2.4V53.83h-2.4Zm13.09-11.7a4.49,4.49,0,0,1,2.82,1.16l1.42-1.72a7,7,0,0,0-4.37-1.51c-2.23,0-4.28,1.2-4.28,3.77,0,2.34,1.92,3.23,3.73,3.89,1.42.5,2.79,1,2.79,2.28s-1.2,2-2.4,2a4.58,4.58,0,0,1-3.46-1.66l-1.62,1.56a6.76,6.76,0,0,0,5.06,2.17c2.24,0,4.95-1.22,4.95-4.2,0-2.72-2.24-3.61-4.23-4.29-1.09-.37-2.42-.79-2.42-1.85s.89-1.59,2-1.59m17.75.21V53.83h-9v2.05h3.28V67.37H192V55.88Zm9-2.05c2.14,0,4.81,1.1,4.81,4A3.87,3.87,0,0,1,206,61.61l4.19,5.76h-3l-3.87-5.53h-.85v5.53h-2.4V53.83Zm-.45,6c1.57,0,2.73-.56,2.73-1.92a2.07,2.07,0,0,0-2.34-2h-1.72v3.91Zm34.38-3.91V53.83h-9v2.05h3.29V67.37H235V55.88Zm4.81,11.49h2.4V53.83h-2.4Zm15,.23a7,7,0,1,1,7-7,6.94,6.94,0,0,1-7,7m0-11.89a4.91,4.91,0,1,0,4.51,4.89,4.6,4.6,0,0,0-4.51-4.89m23.86,11.66V53.83h-2.4V63l-6.73-9.17h-2.11V67.37h2.4V58.22l6.69,9.15Zm-189,0h2.74L90.59,53.83h-2L83.2,67.37h2.63l1-2.67h3.71l-.71-2H87.53l1.9-5.2h0Zm130.93,0h2.75l-5.13-13.54h-2l-5.39,13.54h2.63l1-2.67h3.72l-.72-2h-2.26l1.89-5.2h0Zm-129.55-27h0a9.16,9.16,0,0,0,9.4-9.48V13.51H98.5V30.45a4.52,4.52,0,0,1-1.16,3.34,4,4,0,0,1-3,1.18,3.87,3.87,0,0,1-3-1.19,4.44,4.44,0,0,1-1.19-3.32v-17H84.94V30.87a9,9,0,0,0,2.77,6.83,9.3,9.3,0,0,0,6.64,2.64M111.52,35h-5.07v5.16h5.07Zm32,0h-5.06v5.16h5.06Zm15,5.11h5.27V29.38h7.86v-5h-7.86v-5.8h11.81V13.45H158.47Zm37.41-21.89a9.13,9.13,0,0,0-8.31-5,9,9,0,0,0-5.21,1.55,9.21,9.21,0,0,0-3.05,3.32,7.66,7.66,0,0,0-.92,2.67,42.53,42.53,0,0,0-.26,6,42.25,42.25,0,0,0,.26,5.93,7.84,7.84,0,0,0,.38,1.52c.15.36.31.73.51,1.14a9,9,0,0,0,3.07,3.34,9.1,9.1,0,0,0,5.22,1.59h0a9.28,9.28,0,0,0,5.26-1.58,8.69,8.69,0,0,0,3-3.27,6.55,6.55,0,0,0,1-2.75,49.71,49.71,0,0,0,.23-5.92,49.82,49.82,0,0,0-.23-6,6.47,6.47,0,0,0-.92-2.61m-4.12,8.57a31,31,0,0,1-.24,4.85,3.72,3.72,0,0,1-.85,1.81,3.38,3.38,0,0,1-1.22,1,3.88,3.88,0,0,1-3.74,0,3.65,3.65,0,0,1-1.3-1.07,3.49,3.49,0,0,1-.76-1.75,29.52,29.52,0,0,1-.25-4.85,30.37,30.37,0,0,1,.25-4.89,3.5,3.5,0,0,1,.8-1.75,3.91,3.91,0,0,1,1.27-1.06,4.18,4.18,0,0,1,1.86-.44,4.43,4.43,0,0,1,1.89.43,3.82,3.82,0,0,1,1.25,1.12,3.55,3.55,0,0,1,.8,1.7,32,32,0,0,1,.24,4.89m27.16-8.57a9.13,9.13,0,0,0-8.31-5,9,9,0,0,0-5.21,1.55,9.21,9.21,0,0,0-3.05,3.32,7.66,7.66,0,0,0-.92,2.67,42.53,42.53,0,0,0-.26,6,42.25,42.25,0,0,0,.26,5.93,7.84,7.84,0,0,0,.38,1.52c.15.36.31.73.51,1.14a9,9,0,0,0,3.07,3.34,9.09,9.09,0,0,0,5.21,1.59h0a9.28,9.28,0,0,0,5.26-1.58,8.69,8.69,0,0,0,3-3.27,6.55,6.55,0,0,0,1-2.75,49.71,49.71,0,0,0,.23-5.92,49.82,49.82,0,0,0-.23-6,6.47,6.47,0,0,0-.92-2.61m-4.12,8.57a31,31,0,0,1-.24,4.85,3.72,3.72,0,0,1-.85,1.81,3.38,3.38,0,0,1-1.22,1,3.9,3.9,0,0,1-3.75,0,3.7,3.7,0,0,1-1.29-1.07,3.49,3.49,0,0,1-.76-1.75,29.16,29.16,0,0,1-.26-4.85,30,30,0,0,1,.26-4.89,3.5,3.5,0,0,1,.8-1.75,3.91,3.91,0,0,1,1.27-1.06,4.15,4.15,0,0,1,1.86-.44,4.43,4.43,0,0,1,1.89.43,3.82,3.82,0,0,1,1.25,1.12,3.55,3.55,0,0,1,.8,1.7,32,32,0,0,1,.24,4.89m27.59-8.69a8.91,8.91,0,0,0-8.08-4.62H225V40.08h9a9,9,0,0,0,5-1.35,9.34,9.34,0,0,0,3.23-3.2,12.43,12.43,0,0,0,.74-1.38,7.51,7.51,0,0,0,.45-1.62,39.12,39.12,0,0,0,.29-5.77,52.28,52.28,0,0,0-.19-5.45,8.46,8.46,0,0,0-1.21-3.24m-12.09.55h3.76a4.08,4.08,0,0,1,3.56,1.83,3.7,3.7,0,0,1,.76,1.86c.09.9.14,2.45.14,4.59s-.05,3.7-.14,4.47a3.51,3.51,0,0,1-.66,1.72,4.17,4.17,0,0,1-3.83,1.82H230.3Zm82.77-.55A8.9,8.9,0,0,0,305,13.45h-9.28V40.08h9a9,9,0,0,0,5-1.35,9.34,9.34,0,0,0,3.23-3.2,12.43,12.43,0,0,0,.74-1.38,7.51,7.51,0,0,0,.45-1.62,37.74,37.74,0,0,0,.29-5.77,52.28,52.28,0,0,0-.19-5.45,8.46,8.46,0,0,0-1.21-3.24M301,18.62h3.76a4.08,4.08,0,0,1,3.56,1.83,3.7,3.7,0,0,1,.76,1.86c.1.9.14,2.45.14,4.59a43.46,43.46,0,0,1-.14,4.47,3.51,3.51,0,0,1-.66,1.72,4.15,4.15,0,0,1-3.82,1.82H301Zm36.89,2.59a7.52,7.52,0,0,0-2.68-5.92,8.12,8.12,0,0,0-5.46-1.84H319.45V40.08h5.27V29.38h3.4l5,10.7h6.17l-5.82-11.52a7.67,7.67,0,0,0,4.39-7.35m-13.15-2.8h5a3.43,3.43,0,0,1,2.23.62,2.61,2.61,0,0,1,.89,2.2,3.16,3.16,0,0,1-.83,2.23,3.13,3.13,0,0,1-2.49,1h-4.77Zm30.89,12a4.61,4.61,0,0,1-1.17,3.35,4,4,0,0,1-3,1.17,3.87,3.87,0,0,1-3-1.19,4.38,4.38,0,0,1-1.18-3.32V13.45h-5.27V30.81a9,9,0,0,0,2.77,6.83,9.26,9.26,0,0,0,6.63,2.64h0a9.18,9.18,0,0,0,9.41-9.48V13.45h-5.27Zm-86.36-4.82c1.51,1.78,3,3.55,4.52,5.35a6.2,6.2,0,0,0,1-2.24,13.29,13.29,0,0,0,.35-2.44h4.63c-.05.51-.08,1-.14,1.48a16.66,16.66,0,0,1-.75,3.43A9.31,9.31,0,0,1,277,34.37l-.13.17,4.77,5.62c-.06.08-.12.05-.18.05H275.7a.35.35,0,0,1-.31-.14L273.67,38a1.7,1.7,0,0,1-.1-.14c-.42.31-.81.62-1.21.9a9.08,9.08,0,0,1-4.18,1.57,12.77,12.77,0,0,1-5-.32,6.84,6.84,0,0,1-5.28-5.85,8.35,8.35,0,0,1,0-3.34,7.58,7.58,0,0,1,1.73-3.26,13.76,13.76,0,0,1,2.69-2.3l.21-.14c-.23-.29-.46-.56-.69-.84a8.37,8.37,0,0,1-1.8-3.44,6,6,0,0,1,3.62-7,9.15,9.15,0,0,1,4.66-.5A6.51,6.51,0,0,1,272,14.91a5.54,5.54,0,0,1,1.73,2.94,5.82,5.82,0,0,1-.17,3.62,5.68,5.68,0,0,1-1.4,1.89,27,27,0,0,1-2.57,2l-.33.23m1.33,8.84-5.34-6.28a11.44,11.44,0,0,0-1.73,1.5,3.55,3.55,0,0,0-1,2.58,3.66,3.66,0,0,0,2.66,3.57,5.31,5.31,0,0,0,4-.37,6.15,6.15,0,0,0,1.41-1m-4-11.84a12.5,12.5,0,0,0,2-1.51,2.12,2.12,0,0,0,.61-2,2.3,2.3,0,0,0-3.55-1.3,2.27,2.27,0,0,0-.67,2.64,10.93,10.93,0,0,0,1.59,2.19m108.26,2.14v5.17H379v.5a4.54,4.54,0,0,1-1.22,3.27,3.81,3.81,0,0,1-3,1.26,3.52,3.52,0,0,1-1.87-.48,3.62,3.62,0,0,1-1.29-1.07,3.49,3.49,0,0,1-.77-1.75,30.74,30.74,0,0,1-.25-4.85,30,30,0,0,1,.26-4.89,3.34,3.34,0,0,1,.8-1.75A3.71,3.71,0,0,1,373,19.06a4,4,0,0,1,1.83-.44,3.9,3.9,0,0,1,2.48.84,4.79,4.79,0,0,1,1.4,2.22l.17.58h5.45l-.17-1a10.39,10.39,0,0,0-3-5.7,9.51,9.51,0,0,0-11.5-.81,9.34,9.34,0,0,0-3.05,3.33,8.11,8.11,0,0,0-.92,2.66,44.12,44.12,0,0,0-.26,6,43.92,43.92,0,0,0,.26,5.93,7.8,7.8,0,0,0,.39,1.52c.14.36.31.73.5,1.14a9.51,9.51,0,0,0,8.29,4.93h0a9.52,9.52,0,0,0,4.61-1.2v1h4.85V24.71h-9.46ZM126.87,18a8.82,8.82,0,0,1,5.42,2.36l3.06-3.82a13.58,13.58,0,0,0-8.67-3.1c-4.33,0-8.56,2.36-8.56,7.33s3.82,6.5,7.22,7.77c2.65,1,5,1.83,5,4.07s-2,3.33-4.15,3.33c-2.72,0-4.37-1.23-6.5-3.29l-3.55,3.48a13.5,13.5,0,0,0,10,4.37c4.56,0,9.9-2.43,9.9-8.11,0-5.49-4.45-7.21-8.15-8.48-2-.71-4.48-1.28-4.48-3.29,0-1.72,1.61-2.62,3.4-2.62"/><rect class="cls-1" x="0.66" y="0.5" width="66.83" height="80"/><polygon class="cls-2" points="47.2 33.15 52.57 33.15 51.47 29.31 48.42 29.31 51.13 21.32 56.78 38.29 61.58 38.29 53.22 16.02 48.8 16.02 40.44 38.29 45.43 38.29 47.2 33.15"/><path class="cls-2" d="M12,29.11h6.27v-4H12V20H30.81a6.79,6.79,0,0,1,2.41.47,4.8,4.8,0,0,1,1.86,1.41,5.69,5.69,0,0,1,1,2.23,12.13,12.13,0,0,1,.33,2.94,10.9,10.9,0,0,1-.37,3,6.13,6.13,0,0,1-1.17,2.29,5.15,5.15,0,0,1-2.08,1.49,8.31,8.31,0,0,1-3.08.51h-3V25.15H22.1V38.29h7.55a15.34,15.34,0,0,0,4.87-.72,9.28,9.28,0,0,0,5.94-5.67A13.7,13.7,0,0,0,41.25,27q0-5.46-2.85-8.23A10.55,10.55,0,0,0,31.26,16H7.33V38.29H12Z"/></svg>