<?xml version="1.0" encoding="UTF-8"?><svg id="Layer_1" xmlns="http://www.w3.org/2000/svg" viewBox="0 0 9.29 12.04"><defs><style>.cls-1{fill:#611c35;}</style></defs><path class="cls-1" d="M1.88,.02C.86,.02,.03,.85,.03,1.87V10.18c0,1.02,.83,1.85,1.85,1.85H7.42c1.02,0,1.85-.83,1.85-1.85V3.71c0-.49-.45-.96-1.25-1.75-.11-.11-.23-.23-.35-.35s-.24-.22-.35-.33C6.52,.48,6.06,.02,5.57,.02H1.88Zm0,.92h3.36c.33,.08,.33,.48,.33,.89v1.41c0,.25,.21,.46,.46,.46h1.38c.46,0,.92,0,.92,.46v6c0,.51-.41,.92-.92,.92H1.88c-.51,0-.92-.41-.92-.92V1.87c0-.51,.41-.92,.92-.92Zm.38,3.69c-.25,.02-.44,.25-.42,.5s.25,.44,.5,.42H6.95c.17,0,.32-.08,.41-.23,.08-.14,.08-.32,0-.47-.08-.14-.24-.23-.41-.23H2.25Zm0,1.85c-.25,.02-.44,.25-.42,.5s.25,.44,.5,.42h3.69c.17,0,.32-.08,.41-.23,.08-.14,.08-.32,0-.47-.08-.14-.24-.23-.41-.23H2.25Zm0,1.85c-.25,.02-.44,.25-.42,.5s.25,.44,.5,.42H6.95c.17,0,.32-.08,.41-.23,.08-.14,.08-.32,0-.47-.08-.14-.24-.23-.41-.23H2.25Z"/></svg>