<svg id="Layer_1" data-name="Layer 1" xmlns="http://www.w3.org/2000/svg" viewBox="0 0 121 22"><defs><style>.cls-1{fill:#626366;}</style></defs><path d="M6,16.09,1.41,2.63h2.9L7.76,13.2h0L11.21,2.63h2.68L9.36,16.09ZM16.82,6.16l2.39,7.25h0l2.39-7.25h2.62L20.54,16c0,.1-.1.25-.17.46-.17.45-.3.79-.39,1s-.22.52-.4.89a3.86,3.86,0,0,1-.53.83,6.58,6.58,0,0,1-.65.58,2.37,2.37,0,0,1-.88.45,4.18,4.18,0,0,1-1.11.13,6.54,6.54,0,0,1-1.83-.27l.18-1.91a4,4,0,0,0,1.33.18,1.6,1.6,0,0,0,1.22-.48,1.85,1.85,0,0,0,.45-1.3L14,6.16Zm15.64,0h2.46v9c0,3.49-1.74,5.24-5.24,5.24a8.71,8.71,0,0,1-3.43-.67l.21-2.2a8.45,8.45,0,0,0,1.47.61,5.12,5.12,0,0,0,1.42.26,3.7,3.7,0,0,0,1.41-.25,2.11,2.11,0,0,0,1.35-1.53,5,5,0,0,0,.2-1c0-.29,0-.64,0-1.07h0a3,3,0,0,1-1.21,1.13,3.89,3.89,0,0,1-1.87.45,3.48,3.48,0,0,1-3.06-1.41,6.17,6.17,0,0,1-1-3.6,7,7,0,0,1,.41-2.4A4.51,4.51,0,0,1,27,6.74a3.64,3.64,0,0,1,2.39-.81,3.35,3.35,0,0,1,3.05,1.58h0Zm-2.4,7.93a1.91,1.91,0,0,0,1.72-.86A4,4,0,0,0,32.34,11,4.15,4.15,0,0,0,31.8,8.8a1.79,1.79,0,0,0-1.62-.86,1.89,1.89,0,0,0-1.76.91,4.24,4.24,0,0,0-.55,2.23,3.88,3.88,0,0,0,.57,2.07A1.81,1.81,0,0,0,30.06,14.09Zm15.49-.66v2.1a6.92,6.92,0,0,1-3.42.79A5.18,5.18,0,0,1,38.31,15,5.08,5.08,0,0,1,37,11.18a5.84,5.84,0,0,1,1.19-3.76,4.15,4.15,0,0,1,3.42-1.49,5.52,5.52,0,0,1,2.28.43A3.37,3.37,0,0,1,45.3,7.64a6.27,6.27,0,0,1,.75,1.88,11.46,11.46,0,0,1,.23,2.41H39.42a2.54,2.54,0,0,0,.84,1.84,3,3,0,0,0,2,.66A6.86,6.86,0,0,0,45.55,13.43Zm-6.13-3.28h4.39a2.91,2.91,0,0,0-.57-1.68,1.83,1.83,0,0,0-1.53-.65,2.07,2.07,0,0,0-1.62.64A2.76,2.76,0,0,0,39.42,10.15Zm8.88,5.94V6.16h2.45V7.51h0a3.75,3.75,0,0,1,3.26-1.58A3,3,0,0,1,56.59,7a4.44,4.44,0,0,1,.83,2.84v6.26H54.84v-5.3c0-.32,0-.58,0-.77a5.27,5.27,0,0,0-.1-.74,2.29,2.29,0,0,0-.27-.71A1.52,1.52,0,0,0,54,8.13a1.57,1.57,0,0,0-.81-.19A2,2,0,0,0,52,8.26a2,2,0,0,0-.72.86A5.75,5.75,0,0,0,51,10.17a6.23,6.23,0,0,0-.09,1.06v4.86Z"/><path class="cls-1" d="M60.39,2.63h3.32c2.53,0,4.17,1.27,4.17,3.82s-1.89,3.82-4.3,3.82H61.72v5.82H60.39Zm1.33,6.48h.93c2,0,3.9-.23,3.9-2.66a2.42,2.42,0,0,0-2.67-2.66H61.72ZM69.9,1.63h1.21V7.91h0A3.34,3.34,0,0,1,74.22,6c2.64,0,3.36,1.76,3.36,4.19v5.88H76.36V10.23c0-1.7-.33-3.16-2.33-3.16-2.16,0-2.92,2-2.92,3.76v5.26H69.9ZM86.27,14.51h0a3.45,3.45,0,0,1-3.12,1.81c-2.8,0-3.24-1.89-3.24-2.77,0-3.3,3.51-3.46,6-3.46h.23v-.5c0-1.68-.59-2.52-2.23-2.52a5.25,5.25,0,0,0-2.9.81V6.7A7.75,7.75,0,0,1,83.92,6c2.43,0,3.45,1.1,3.45,3.67V14a13.41,13.41,0,0,0,.1,2.06h-1.2Zm-.12-3.37h-.34c-2.11,0-4.61.21-4.61,2.37,0,1.29.92,1.77,2,1.77,2.86,0,2.91-2.49,2.91-3.55Zm4.11-2.69a16.88,16.88,0,0,0-.08-2.19H91.4V8.15h0A2.92,2.92,0,0,1,94,6a3.48,3.48,0,0,1,.85.12V7.41a3.5,3.5,0,0,0-.89-.11c-1.92,0-2.44,2.16-2.44,3.93v4.86H90.26Zm18.3,7.64V9.55c0-1.38-.52-2.48-2.08-2.48-1.33,0-2.65,1.13-2.65,3.58v5.44h-1.21V9.55c0-1.38-.52-2.48-2.08-2.48-1.33,0-2.64,1.13-2.64,3.58v5.44H96.68V8.57a22.68,22.68,0,0,0-.08-2.31h1.18V7.91l0,0A3.08,3.08,0,0,1,100.88,6a2.49,2.49,0,0,1,2.61,2.09h0A3.3,3.3,0,0,1,106.67,6a3,3,0,0,1,3.11,3.3v6.77Zm9.83-1.58h0a3.45,3.45,0,0,1-3.12,1.81c-2.8,0-3.24-1.89-3.24-2.77,0-3.3,3.51-3.46,6.05-3.46h.24v-.5c0-1.68-.6-2.52-2.24-2.52a5.19,5.19,0,0,0-2.89.81V6.7A7.65,7.65,0,0,1,116,6c2.43,0,3.45,1.1,3.45,3.67V14a13.41,13.41,0,0,0,.1,2.06h-1.2Zm-.11-3.37h-.35c-2.1,0-4.61.21-4.61,2.37,0,1.29.92,1.77,2,1.77,2.86,0,2.92-2.49,2.92-3.55Z"/></svg>