<svg id="Layer_1" data-name="Layer 1" xmlns="http://www.w3.org/2000/svg" viewBox="0 0 290 125"><defs><style>.cls-1{fill:#203c9a;}.cls-2{fill:#203c9b;}.cls-3{fill:#c13293;}</style></defs><path class="cls-1" d="M51.66,1.25l-29.59,36H43.85l-1.17,7.85H2.08L31.67,9.07H10.26l1.17-7.82Z"/><path class="cls-1" d="M83.16,13.34,78.32,45.13H67.9l.5-2.91a19.43,19.43,0,0,1-3.54,2.55,9.16,9.16,0,0,1-4.39.93,9.86,9.86,0,0,1-6-1.91,12.36,12.36,0,0,1-4-5.11,17,17,0,0,1-1.42-7,21.47,21.47,0,0,1,1-6.41A17.31,17.31,0,0,1,53.69,19a18.54,18.54,0,0,1,7.41-4.85,33,33,0,0,1,11.8-1.85,42.69,42.69,0,0,1,4.85.22Q79.64,12.77,83.16,13.34ZM71.83,20.09h-2A9,9,0,0,0,64.7,21.7,11,11,0,0,0,61,26.07a13.48,13.48,0,0,0-1.33,6,6.21,6.21,0,0,0,1.11,3.72A3.63,3.63,0,0,0,64,37.28a6.12,6.12,0,0,0,2.29-.52,21.62,21.62,0,0,0,3.25-1.82Z"/><path class="cls-1" d="M121.66,12.9,98.84,59.8H88.7l8.44-17.33L86.91,12.9h9.73l6.2,17.89,8.62-17.89Z"/><path class="cls-2" d="M155.31,22.11c0,.64-.11,1.83-.32,3.58l-2.86,19.44H141.71l2.9-20.1a7.69,7.69,0,0,0,.06-1.11c0-2-.88-3-2.64-3a5.54,5.54,0,0,0-3.2,1.08,38.59,38.59,0,0,0-4.29,3.67l-2.84,19.5H121.19L126,12.9h10.45l-.53,3.77A41.43,41.43,0,0,1,141,13.45a11.93,11.93,0,0,1,5.43-1.12q4.92,0,6.91,3.06A12,12,0,0,1,155.31,22.11Z"/><path class="cls-1" d="M194.75,27.81A18.63,18.63,0,0,1,193.37,35a16.79,16.79,0,0,1-9.54,9.4,18.64,18.64,0,0,1-7,1.31,17.47,17.47,0,0,1-8.09-1.91,14.78,14.78,0,0,1-5.95-5.49,15.33,15.33,0,0,1-2.2-8.21A16.82,16.82,0,0,1,162,23.33a18.28,18.28,0,0,1,9.89-9.61,19.13,19.13,0,0,1,7.27-1.39,17.23,17.23,0,0,1,7.62,1.73,13.87,13.87,0,0,1,5.76,5.21A15.65,15.65,0,0,1,194.75,27.81Zm-10.7-.19A6.42,6.42,0,0,0,182.49,23a5.27,5.27,0,0,0-4-1.64,5.82,5.82,0,0,0-4.12,1.48,8.71,8.71,0,0,0-2.35,3.6,12,12,0,0,0-.74,3.94,6.57,6.57,0,0,0,1.54,4.43A5.14,5.14,0,0,0,177,36.65a5.67,5.67,0,0,0,3.68-1.33,8.66,8.66,0,0,0,2.52-3.44A11.05,11.05,0,0,0,184.05,27.62Z"/><path class="cls-1" d="M216.75,1.25,210.3,45.13H199.66l6.45-43.88Z"/><polygon class="cls-1" points="266.65 28.06 272.47 24.98 278.29 28.06 277.18 21.54 281.89 16.92 275.38 15.97 272.47 10.04 269.56 15.97 263.05 16.92 267.76 21.54 266.65 28.06"/><polygon class="cls-3" points="252.04 17.82 255.58 13.29 261.3 13.66 258.11 8.87 260.23 3.51 254.71 5.08 250.3 1.4 250.08 7.16 245.24 10.24 250.62 12.23 252.04 17.82"/><path class="cls-1" d="M244.12,36.08a48.16,48.16,0,0,1,13.8-9.44c1.34-.62,3.19-.94,4.28-2a1.52,1.52,0,0,0,.45-.9,1.71,1.71,0,0,0-1.1-1.79,4.06,4.06,0,0,0-2.48.11q-1.12.3-2.22.69A33.47,33.47,0,0,0,243.16,32a25.8,25.8,0,0,0-4.73,6.85c-1.28,3-2.18,6.26-3.29,9.36q-.27.75-.51,1.5a28.75,28.75,0,0,1,4.08-7.16A46.17,46.17,0,0,1,244.12,36.08Z"/><path class="cls-3" d="M247,16.54a1.56,1.56,0,0,0,.11-1,1.7,1.7,0,0,0-1.65-1.3,4.07,4.07,0,0,0-2.29,1c-.63.45-1.25.93-1.84,1.43a33.5,33.5,0,0,0-8,9.94A23.27,23.27,0,0,0,231,32.52a55.89,55.89,0,0,0-1.19,14.64,36,36,0,0,1,1.41-5.63A46.54,46.54,0,0,1,234,33.6a48.52,48.52,0,0,1,9.67-13.68C244.75,18.87,246.38,17.92,247,16.54Z"/><path class="cls-3" d="M13.25,85.38V83.55a6.34,6.34,0,0,1-1.94,1.52,6.06,6.06,0,0,1-2.85.62,6.72,6.72,0,0,1-2-.3,4.79,4.79,0,0,1-1.66-.87,4.25,4.25,0,0,1-1.15-1.43,4.38,4.38,0,0,1-.43-2v0a4.73,4.73,0,0,1,.45-2.12,4.07,4.07,0,0,1,1.24-1.49,5.71,5.71,0,0,1,1.91-.89,9.49,9.49,0,0,1,2.39-.29,13.44,13.44,0,0,1,2.28.17,12.8,12.8,0,0,1,1.8.45v-.37a3,3,0,0,0-.93-2.36,4,4,0,0,0-2.7-.82,8.84,8.84,0,0,0-2.24.26,13.31,13.31,0,0,0-2,.67l-.92-2.73A14.77,14.77,0,0,1,7,70.63a12.21,12.21,0,0,1,3.11-.34A6.55,6.55,0,0,1,15,71.94a6.39,6.39,0,0,1,1.59,4.63v8.81Zm.08-6.31a10.34,10.34,0,0,0-1.53-.42,10,10,0,0,0-1.86-.17,4.37,4.37,0,0,0-2.49.62,2,2,0,0,0-.89,1.78v.05a1.86,1.86,0,0,0,.82,1.64,3.56,3.56,0,0,0,2,.56A5.2,5.2,0,0,0,11,82.9a4,4,0,0,0,1.24-.63,2.93,2.93,0,0,0,.83-1A2.83,2.83,0,0,0,13.33,80Z"/><path class="cls-3" d="M20.27,73.3V70.52H32.81v2.33l-8.54,9.74h8.54v2.79H20V83L28.5,73.3Z"/><path class="cls-3" d="M39.92,82a4.14,4.14,0,0,0,2.79,1,5,5,0,0,0,2.19-.45,7.27,7.27,0,0,0,1.82-1.32l2,1.77a8.16,8.16,0,0,1-2.53,2,7.51,7.51,0,0,1-3.51.76,7.9,7.9,0,0,1-3-.56,7.18,7.18,0,0,1-4-4A8.2,8.2,0,0,1,35.07,78a8.38,8.38,0,0,1,.54-3A7.68,7.68,0,0,1,37.1,72.5a7.38,7.38,0,0,1,2.28-1.67,6.66,6.66,0,0,1,2.91-.62,7,7,0,0,1,3.1.64A6.58,6.58,0,0,1,47.6,72.6a7.6,7.6,0,0,1,1.33,2.56,10.75,10.75,0,0,1,.44,3.07c0,.15,0,.3,0,.45s0,.31,0,.48H38.46A4.5,4.5,0,0,0,39.92,82Zm6.1-5a5.88,5.88,0,0,0-.37-1.54,4,4,0,0,0-.75-1.24,3.8,3.8,0,0,0-1.14-.83A3.51,3.51,0,0,0,42.27,73a3.41,3.41,0,0,0-2.59,1.09,4.9,4.9,0,0,0-1.25,2.83Z"/><path class="cls-3" d="M53,85.38V64.83H56.4V85.38Z"/><path class="cls-3" d="M69.83,85.38V83.55a6.29,6.29,0,0,1-1.93,1.52,6.06,6.06,0,0,1-2.85.62,6.67,6.67,0,0,1-2-.3,4.7,4.7,0,0,1-1.66-.87,4.25,4.25,0,0,1-1.15-1.43,4.38,4.38,0,0,1-.43-2v0a4.73,4.73,0,0,1,.44-2.12,4.19,4.19,0,0,1,1.25-1.49,5.66,5.66,0,0,1,1.9-.89,9.6,9.6,0,0,1,2.39-.29,13.27,13.27,0,0,1,2.28.17,12.94,12.94,0,0,1,1.81.45v-.37a2.94,2.94,0,0,0-.94-2.36,4,4,0,0,0-2.7-.82,9,9,0,0,0-2.24.26,13.59,13.59,0,0,0-2,.67l-.93-2.73a14.57,14.57,0,0,1,2.52-.9,12.16,12.16,0,0,1,3.11-.34,6.51,6.51,0,0,1,4.89,1.65,6.36,6.36,0,0,1,1.6,4.63v8.81Zm.09-6.31a10.34,10.34,0,0,0-1.53-.42,10.13,10.13,0,0,0-1.86-.17A4.37,4.37,0,0,0,64,79.1a2,2,0,0,0-.9,1.78v.05A1.87,1.87,0,0,0,64,82.57a3.56,3.56,0,0,0,2,.56,5.09,5.09,0,0,0,1.55-.23,4.08,4.08,0,0,0,1.25-.63,2.79,2.79,0,0,0,.82-1,2.72,2.72,0,0,0,.3-1.28Z"/><path class="cls-3" d="M77.28,68.24V65h3.66v3.24Zm.13,17.14V70.52h3.42V85.38Z"/><path class="cls-3" d="M95.63,84.94a7.21,7.21,0,0,1-3.55.78,7.49,7.49,0,0,1-3-.61,7.35,7.35,0,0,1-2.43-1.66A7.72,7.72,0,0,1,84.41,78a7.81,7.81,0,0,1,2.19-5.49,7.56,7.56,0,0,1,5.51-2.31,7.62,7.62,0,0,1,3.48.7A8.29,8.29,0,0,1,98,72.77l-2.1,2.28a7.94,7.94,0,0,0-1.66-1.34,4.18,4.18,0,0,0-2.17-.52,3.93,3.93,0,0,0-1.71.38,4.25,4.25,0,0,0-1.34,1,4.86,4.86,0,0,0-.88,1.5A5.14,5.14,0,0,0,87.83,78a5.36,5.36,0,0,0,.32,1.89,4.66,4.66,0,0,0,.91,1.52,4.22,4.22,0,0,0,1.4,1,4,4,0,0,0,1.79.38,4.15,4.15,0,0,0,2.11-.52,7.63,7.63,0,0,0,1.72-1.34l2,2A8.89,8.89,0,0,1,95.63,84.94Z"/><path class="cls-3" d="M118.64,85.38V83.55a6.41,6.41,0,0,1-1.93,1.52,6.13,6.13,0,0,1-2.86.62,6.6,6.6,0,0,1-2-.3,4.75,4.75,0,0,1-1.67-.87,4.2,4.2,0,0,1-1.58-3.42v0a4.73,4.73,0,0,1,.45-2.12,4.17,4.17,0,0,1,1.24-1.49,5.81,5.81,0,0,1,1.91-.89,9.49,9.49,0,0,1,2.39-.29,13.44,13.44,0,0,1,2.28.17,13.3,13.3,0,0,1,1.81.45v-.37a3,3,0,0,0-.94-2.36,4,4,0,0,0-2.7-.82,8.89,8.89,0,0,0-2.24.26,13.31,13.31,0,0,0-2,.67l-.92-2.73a14.57,14.57,0,0,1,2.52-.9,12.13,12.13,0,0,1,3.1-.34,6.53,6.53,0,0,1,4.9,1.65,6.4,6.4,0,0,1,1.6,4.63v8.81Zm.08-6.31a10.53,10.53,0,0,0-1.52-.42,10.16,10.16,0,0,0-1.87-.17,4.37,4.37,0,0,0-2.49.62,2.06,2.06,0,0,0-.89,1.78v.05a1.86,1.86,0,0,0,.82,1.64,3.56,3.56,0,0,0,2,.56,5.2,5.2,0,0,0,1.56-.23,4,4,0,0,0,1.24-.63A2.77,2.77,0,0,0,118.72,80Z"/><path class="cls-3" d="M136.44,84.94a7.27,7.27,0,0,1-3.56.78,7.58,7.58,0,0,1-5.48-2.27A7.67,7.67,0,0,1,125.79,81a7.85,7.85,0,0,1-.58-3,8,8,0,0,1,.58-3,7.76,7.76,0,0,1,1.61-2.47,7.56,7.56,0,0,1,5.51-2.31,7.62,7.62,0,0,1,3.48.7,8.33,8.33,0,0,1,2.43,1.86l-2.1,2.28a8.26,8.26,0,0,0-1.67-1.34,4.18,4.18,0,0,0-2.17-.52,4,4,0,0,0-1.71.38,4.25,4.25,0,0,0-1.34,1,4.86,4.86,0,0,0-.88,1.5,5.37,5.37,0,0,0-.32,1.85,5.6,5.6,0,0,0,.32,1.89,4.66,4.66,0,0,0,.91,1.52,4.32,4.32,0,0,0,1.4,1,4.08,4.08,0,0,0,1.79.38,4.13,4.13,0,0,0,2.11-.52,7.63,7.63,0,0,0,1.72-1.34l2.05,2A9.18,9.18,0,0,1,136.44,84.94Z"/><path class="cls-3" d="M142.06,68.24V65h3.67v3.24Zm.14,17.14V70.52h3.41V85.38Z"/><path class="cls-3" d="M161.12,85.38V82.9a7.62,7.62,0,0,1-2,2,5.22,5.22,0,0,1-3,.82,6.58,6.58,0,0,1-2.54-.51,6.31,6.31,0,0,1-2.18-1.5,7.8,7.8,0,0,1-1.53-2.44,8.62,8.62,0,0,1-.59-3.29,8.82,8.82,0,0,1,.57-3.29,7.62,7.62,0,0,1,1.53-2.44,6.2,6.2,0,0,1,2.19-1.51,6.85,6.85,0,0,1,2.55-.5,5.36,5.36,0,0,1,3,.79,8,8,0,0,1,2,1.83v-8h3.41V85.38Zm-.3-9.4a4.8,4.8,0,0,0-.93-1.51,4,4,0,0,0-1.37-1,4.11,4.11,0,0,0-3.25,0,3.92,3.92,0,0,0-1.35.94,4.56,4.56,0,0,0-.92,1.51,5.73,5.73,0,0,0-.33,2,5.63,5.63,0,0,0,.33,2,4.46,4.46,0,0,0,.92,1.51,4.27,4.27,0,0,0,1.35,1,4.17,4.17,0,0,0,3.25,0,4,4,0,0,0,1.37-1,4.92,4.92,0,0,0,.93-1.51,5.72,5.72,0,0,0,0-3.94Z"/><path class="cls-3" d="M178.22,65.67h11.72v3.07h-8.76l-.3,4.62a11.38,11.38,0,0,1,1.41-.41A8.35,8.35,0,0,1,184,72.8a9,9,0,0,1,2.68.38,6.16,6.16,0,0,1,2.18,1.15,5.41,5.41,0,0,1,1.45,1.94,6.68,6.68,0,0,1,.52,2.75,7,7,0,0,1-.52,2.76,6,6,0,0,1-1.48,2.11,6.77,6.77,0,0,1-2.31,1.35,8.73,8.73,0,0,1-3,.48,9.57,9.57,0,0,1-4-.82,11.78,11.78,0,0,1-3.16-2.17l2.13-2.5A10.53,10.53,0,0,0,180.89,82a5.72,5.72,0,0,0,2.62.63,4.13,4.13,0,0,0,2.82-.93,3.18,3.18,0,0,0,1.07-2.52,2.93,2.93,0,0,0-1.11-2.41,4.53,4.53,0,0,0-2.95-.89,7.16,7.16,0,0,0-2,.25,10.29,10.29,0,0,0-1.65.62l-2.07-1.38Z"/><path class="cls-3" d="M202.68,72.42a5,5,0,0,1-1,1.6,4.69,4.69,0,0,1-1.47,1.1,4.36,4.36,0,0,1-1.89.41,4.32,4.32,0,0,1-3.32-1.48,5.13,5.13,0,0,1-.94-1.61,5.57,5.57,0,0,1-.33-1.92,5.72,5.72,0,0,1,.33-2,5,5,0,0,1,.95-1.6,4.81,4.81,0,0,1,1.47-1.1,4.36,4.36,0,0,1,1.89-.41,4.24,4.24,0,0,1,3.32,1.48,5.2,5.2,0,0,1,.94,1.6,5.63,5.63,0,0,1,.33,1.93A5.76,5.76,0,0,1,202.68,72.42Zm-4.14,13h-2.78l14.33-19.71h2.77Zm1.38-16.93a1.82,1.82,0,0,0-1.55-.83,1.74,1.74,0,0,0-1.54.83,3.88,3.88,0,0,0,0,4.08,1.85,1.85,0,0,0,1.55.83,1.76,1.76,0,0,0,1.54-.83,3.47,3.47,0,0,0,.56-2A3.43,3.43,0,0,0,199.92,68.45Zm14.6,14a5.05,5.05,0,0,1-1,1.6,4.58,4.58,0,0,1-1.47,1.1,4.32,4.32,0,0,1-1.88.41,4.39,4.39,0,0,1-1.88-.4,4.27,4.27,0,0,1-1.44-1.08,5.25,5.25,0,0,1-.94-1.61,5.62,5.62,0,0,1-.33-1.92,5.72,5.72,0,0,1,.33-2,5.08,5.08,0,0,1,1-1.61,4.55,4.55,0,0,1,1.47-1.09,4.22,4.22,0,0,1,1.89-.41,4.42,4.42,0,0,1,1.88.39A4.29,4.29,0,0,1,213.58,77a5.2,5.2,0,0,1,.94,1.6,5.63,5.63,0,0,1,.33,1.93A5.76,5.76,0,0,1,214.52,82.5Zm-2.76-4a1.82,1.82,0,0,0-1.55-.83,1.74,1.74,0,0,0-1.54.83,3.88,3.88,0,0,0,0,4.08,1.85,1.85,0,0,0,1.55.83,1.77,1.77,0,0,0,1.54-.83,3.57,3.57,0,0,0,.56-2A3.43,3.43,0,0,0,211.76,78.53Z"/><path class="cls-3" d="M235.76,85.38V83.55a6.34,6.34,0,0,1-1.94,1.52,6.06,6.06,0,0,1-2.85.62,6.6,6.6,0,0,1-2-.3,4.75,4.75,0,0,1-1.67-.87,4.25,4.25,0,0,1-1.15-1.43,4.38,4.38,0,0,1-.43-2v0a4.73,4.73,0,0,1,.45-2.12,4.07,4.07,0,0,1,1.24-1.49,5.75,5.75,0,0,1,1.9-.89,9.62,9.62,0,0,1,2.4-.29,13.44,13.44,0,0,1,2.28.17,13.16,13.16,0,0,1,1.8.45v-.37a2.94,2.94,0,0,0-.94-2.36,3.93,3.93,0,0,0-2.69-.82,8.89,8.89,0,0,0-2.24.26,13.31,13.31,0,0,0-2,.67L227,71.53a14.77,14.77,0,0,1,2.51-.9,12.21,12.21,0,0,1,3.11-.34,6.53,6.53,0,0,1,4.9,1.65,6.39,6.39,0,0,1,1.59,4.63v8.81Zm.08-6.31a10.34,10.34,0,0,0-1.53-.42,10,10,0,0,0-1.86-.17,4.37,4.37,0,0,0-2.49.62,2.06,2.06,0,0,0-.89,1.78v.05a1.86,1.86,0,0,0,.82,1.64,3.56,3.56,0,0,0,2,.56,5.09,5.09,0,0,0,1.55-.23,4.08,4.08,0,0,0,1.25-.63,2.93,2.93,0,0,0,.83-1,2.83,2.83,0,0,0,.29-1.28Z"/><path class="cls-3" d="M246.56,85.38h-3.42V70.52h3.42v2.33a7.82,7.82,0,0,1,.79-1,5.57,5.57,0,0,1,1-.84,4.93,4.93,0,0,1,2.8-.79A4.87,4.87,0,0,1,255,71.76a6.06,6.06,0,0,1,1.37,4.16v9.46H253V77a4,4,0,0,0-.81-2.68,2.94,2.94,0,0,0-2.32-.94,3.16,3.16,0,0,0-2.39,1,3.8,3.8,0,0,0-.91,2.71Z"/><path class="cls-3" d="M271.6,85.38V82.9a7.58,7.58,0,0,1-2,2,5.22,5.22,0,0,1-3,.82,6.55,6.55,0,0,1-2.54-.51,6.22,6.22,0,0,1-2.18-1.5,7.8,7.8,0,0,1-1.53-2.44,8.43,8.43,0,0,1-.59-3.29,8.82,8.82,0,0,1,.57-3.29,7.6,7.6,0,0,1,1.52-2.44A6.38,6.38,0,0,1,264,70.71a6.86,6.86,0,0,1,2.56-.5,5.33,5.33,0,0,1,3,.79,8,8,0,0,1,2,1.83v-8H275V85.38Zm-.29-9.4a4.8,4.8,0,0,0-.93-1.51,4.11,4.11,0,0,0-4.62-1,3.92,3.92,0,0,0-1.35.94,4.41,4.41,0,0,0-.92,1.51,5.5,5.5,0,0,0-.34,2,5.41,5.41,0,0,0,.34,2,4.25,4.25,0,0,0,2.27,2.47,4.08,4.08,0,0,0,4.62-1,4.92,4.92,0,0,0,.93-1.51,5.72,5.72,0,0,0,0-3.94Z"/><path class="cls-3" d="M8.24,115.74a4.14,4.14,0,0,0,2.79,1,5,5,0,0,0,2.19-.45A7.27,7.27,0,0,0,15,114.94l2,1.77a8.16,8.16,0,0,1-2.53,2,7.51,7.51,0,0,1-3.51.76,7.94,7.94,0,0,1-3-.56,7.2,7.2,0,0,1-4-4,8.88,8.88,0,0,1,0-6.18,7.62,7.62,0,0,1,1.49-2.47,7.38,7.38,0,0,1,2.28-1.67,6.81,6.81,0,0,1,2.91-.62,7,7,0,0,1,3.1.65,6.43,6.43,0,0,1,2.21,1.74,7.6,7.6,0,0,1,1.33,2.56A10.75,10.75,0,0,1,17.7,112c0,.15,0,.3,0,.45s0,.31,0,.48H6.78A4.47,4.47,0,0,0,8.24,115.74Zm6.1-5a6,6,0,0,0-.37-1.54,3.9,3.9,0,0,0-.75-1.23,3.49,3.49,0,0,0-1.14-.83,3.36,3.36,0,0,0-1.49-.31A3.4,3.4,0,0,0,8,107.86a4.93,4.93,0,0,0-1.25,2.83Z"/><path class="cls-3" d="M24.52,119.16H21.11V104.3h3.41v3.35a6.49,6.49,0,0,1,2-2.7,4.71,4.71,0,0,1,3.25-.93v3.6h-.2a5.33,5.33,0,0,0-2,.37,4.3,4.3,0,0,0-1.6,1.09,5.09,5.09,0,0,0-1,1.85,8,8,0,0,0-.37,2.57Z"/><path class="cls-3" d="M40.56,119.59a14.23,14.23,0,0,1-.92,1.94,5.31,5.31,0,0,1-1.07,1.28,3.75,3.75,0,0,1-1.29.72,5.14,5.14,0,0,1-1.59.22,6.78,6.78,0,0,1-1.89-.24,7.73,7.73,0,0,1-1.61-.67l1.15-2.55a6.59,6.59,0,0,0,1,.41,3.52,3.52,0,0,0,1,.15,1.94,1.94,0,0,0,1.2-.36,3.41,3.41,0,0,0,.89-1.35L31.27,104.3h3.61l4.2,11,3.83-11h3.53Z"/><path class="cls-3" d="M53.46,114.51a1.85,1.85,0,0,0,.48,1.43,1.9,1.9,0,0,0,1.34.44,4.58,4.58,0,0,0,2.1-.51v2.79a6.07,6.07,0,0,1-1.37.56,6.56,6.56,0,0,1-1.68.2,6.27,6.27,0,0,1-1.72-.23,3.55,3.55,0,0,1-1.37-.73,3.27,3.27,0,0,1-.88-1.34,6,6,0,0,1-.31-2.08V107.2H48.17v-2.9h1.88v-4.08h3.41v4.08h4v2.9h-4Z"/><path class="cls-3" d="M64.23,119.16H60.82V98.61h3.41v8a8.88,8.88,0,0,1,.8-1,5.49,5.49,0,0,1,1-.84,5.18,5.18,0,0,1,1.26-.58,5.24,5.24,0,0,1,1.55-.21,4.92,4.92,0,0,1,3.88,1.55,6.06,6.06,0,0,1,1.37,4.16v9.46H70.67v-8.42a3.92,3.92,0,0,0-.82-2.68,2.88,2.88,0,0,0-2.31-1,3.16,3.16,0,0,0-2.39,1,3.8,3.8,0,0,0-.92,2.71Z"/><path class="cls-3" d="M81.59,119.16H78.17V104.3h3.42v3.35a6.39,6.39,0,0,1,2-2.7,4.71,4.71,0,0,1,3.25-.93v3.6h-.2a5.37,5.37,0,0,0-2,.37,4.3,4.3,0,0,0-1.6,1.09,5.09,5.09,0,0,0-1,1.85,8.35,8.35,0,0,0-.36,2.57Z"/><path class="cls-3" d="M103.57,114.74a7.63,7.63,0,0,1-4.16,4.14,8.39,8.39,0,0,1-6.28,0A7.58,7.58,0,0,1,89,114.78a7.85,7.85,0,0,1,0-6,7.65,7.65,0,0,1,4.14-4.15,7.94,7.94,0,0,1,3.15-.62,8.1,8.1,0,0,1,3.14.6,7.64,7.64,0,0,1,4.13,4.13,7.77,7.77,0,0,1,.59,3A7.59,7.59,0,0,1,103.57,114.74Zm-3.15-4.81a4.76,4.76,0,0,0-.93-1.53A4.24,4.24,0,0,0,96.25,107a4.29,4.29,0,0,0-1.82.38,4.43,4.43,0,0,0-1.41,1,4.57,4.57,0,0,0-.89,1.51,5.5,5.5,0,0,0-.3,1.84,5.29,5.29,0,0,0,.33,1.87,4.47,4.47,0,0,0,2.35,2.57,4.3,4.3,0,0,0,1.8.37,4.35,4.35,0,0,0,1.84-.37,4.33,4.33,0,0,0,2.3-2.54,5.55,5.55,0,0,0,.3-1.84A5.2,5.2,0,0,0,100.42,109.93Z"/><path class="cls-3" d="M122,104.71a5.62,5.62,0,0,1,2.9-.72,4.93,4.93,0,0,1,3.81,1.48,6,6,0,0,1,1.37,4.21v9.48H126.7v-8.42a4.1,4.1,0,0,0-.78-2.7,2.72,2.72,0,0,0-2.2-.93,3,3,0,0,0-2.27,1,3.81,3.81,0,0,0-.88,2.73v8.37h-3.42v-8.45a4,4,0,0,0-.78-2.67,2.71,2.71,0,0,0-2.2-.93,2.89,2.89,0,0,0-2.28,1,4,4,0,0,0-.86,2.72v8.34h-3.42V104.3H111v2.27a9.07,9.07,0,0,1,.78-1,6,6,0,0,1,1-.83,5,5,0,0,1,1.23-.58,5.24,5.24,0,0,1,1.53-.21,4.61,4.61,0,0,1,4.39,2.64A7.54,7.54,0,0,1,122,104.71Z"/><path class="cls-3" d="M141.67,119.59a14.23,14.23,0,0,1-.92,1.94,5.31,5.31,0,0,1-1.07,1.28,3.8,3.8,0,0,1-1.28.72,5.25,5.25,0,0,1-1.6.22,6.78,6.78,0,0,1-1.89-.24,7.73,7.73,0,0,1-1.61-.67l1.15-2.55a6.26,6.26,0,0,0,1,.41,3.4,3.4,0,0,0,1,.15,1.94,1.94,0,0,0,1.2-.36,3.42,3.42,0,0,0,.9-1.35l-6.16-14.84H136l4.2,11,3.83-11h3.53Z"/><path class="cls-3" d="M160,118.73a7.35,7.35,0,0,1-3.55.77,7.52,7.52,0,0,1-5.49-2.26,7.8,7.8,0,0,1-1.6-2.46,7.59,7.59,0,0,1-.58-3A7.86,7.86,0,0,1,151,106.3a7.41,7.41,0,0,1,2.45-1.69,7.57,7.57,0,0,1,3.06-.62,7.69,7.69,0,0,1,3.49.7,8.29,8.29,0,0,1,2.42,1.86l-2.1,2.28a8,8,0,0,0-1.67-1.34,4.24,4.24,0,0,0-2.16-.52,3.9,3.9,0,0,0-1.71.38,4.41,4.41,0,0,0-1.35,1,5.12,5.12,0,0,0-.88,1.51,5.27,5.27,0,0,0-.32,1.84,5.51,5.51,0,0,0,.32,1.89,4.73,4.73,0,0,0,.91,1.52,4.5,4.5,0,0,0,1.4,1,4.22,4.22,0,0,0,1.79.37,4.13,4.13,0,0,0,2.11-.52,8.17,8.17,0,0,0,1.73-1.33l2,2A9.41,9.41,0,0,1,160,118.73Z"/><path class="cls-3" d="M165.65,102V98.78h3.67V102Zm.14,17.14V104.3h3.42v14.86Z"/><path class="cls-3" d="M177,119.16H173.6V104.3H177v2.33a7.82,7.82,0,0,1,.79-1,5.49,5.49,0,0,1,1-.84,5.55,5.55,0,0,1,1.26-.58,5.28,5.28,0,0,1,1.55-.21,4.92,4.92,0,0,1,3.88,1.55,6.06,6.06,0,0,1,1.37,4.16v9.46h-3.42v-8.42a3.92,3.92,0,0,0-.82-2.68,2.88,2.88,0,0,0-2.31-1,3.16,3.16,0,0,0-2.39,1,3.8,3.8,0,0,0-.91,2.71Z"/><path class="cls-3" d="M203.48,103a10.52,10.52,0,0,0-2.17,2.23l-2.44-1.92a16.52,16.52,0,0,1,1.43-1.76,7.21,7.21,0,0,1,3.46-2.12,8.7,8.7,0,0,1,2.33-.28,8,8,0,0,1,2.66.42,5.62,5.62,0,0,1,2,1.21,5.5,5.5,0,0,1,1.31,1.87,6.24,6.24,0,0,1,.46,2.41,6.84,6.84,0,0,1-.31,2.11,6.75,6.75,0,0,1-.94,1.8,12.55,12.55,0,0,1-1.59,1.77c-.65.6-1.4,1.26-2.26,2l-4,3.38h9.32v3H198.59v-2.72l6.75-5.77c.67-.56,1.24-1.07,1.7-1.53a9.13,9.13,0,0,0,1.14-1.3,4.69,4.69,0,0,0,.63-1.21,4.07,4.07,0,0,0,.19-1.27,2.84,2.84,0,0,0-.91-2.26,3.28,3.28,0,0,0-2.25-.8A3.91,3.91,0,0,0,203.48,103Z"/><path class="cls-3" d="M224.62,106.2a5,5,0,0,1-1,1.6,4.69,4.69,0,0,1-1.47,1.1,4.36,4.36,0,0,1-1.89.41,4.24,4.24,0,0,1-3.32-1.48,5.2,5.2,0,0,1-.94-1.6,5.9,5.9,0,0,1,0-3.89,5.05,5.05,0,0,1,1-1.6,4.65,4.65,0,0,1,1.46-1.1,4.36,4.36,0,0,1,1.89-.41,4.32,4.32,0,0,1,3.32,1.48,5.2,5.2,0,0,1,.94,1.6,5.9,5.9,0,0,1,0,3.89Zm-4.14,13H217.7L232,99.46h2.77Zm1.38-16.93a1.85,1.85,0,0,0-1.55-.83,1.76,1.76,0,0,0-1.54.83,3.88,3.88,0,0,0,0,4.08,1.82,1.82,0,0,0,1.55.83,1.74,1.74,0,0,0,1.54-.83,3.88,3.88,0,0,0,0-4.08Zm14.6,14a5.05,5.05,0,0,1-1,1.6A4.58,4.58,0,0,1,234,119a4.57,4.57,0,0,1-3.76,0,4.27,4.27,0,0,1-1.44-1.08,5.2,5.2,0,0,1-.94-1.6,5.9,5.9,0,0,1,0-3.89,5,5,0,0,1,1-1.6,4.58,4.58,0,0,1,1.47-1.1,4.36,4.36,0,0,1,1.89-.41,4.24,4.24,0,0,1,3.32,1.48,5.2,5.2,0,0,1,.94,1.6,5.9,5.9,0,0,1,0,3.89Zm-2.76-4a1.85,1.85,0,0,0-1.55-.83,1.76,1.76,0,0,0-1.54.83,3.88,3.88,0,0,0,0,4.08,1.85,1.85,0,0,0,1.55.83,1.77,1.77,0,0,0,1.54-.83,3.52,3.52,0,0,0,.56-2A3.43,3.43,0,0,0,233.7,112.31Z"/><path class="cls-3" d="M261.11,121.89a8.59,8.59,0,0,1-5.88,1.83,12.45,12.45,0,0,1-6.6-1.77l1.26-2.56a11,11,0,0,0,2.46,1.15,9,9,0,0,0,2.8.42,4.81,4.81,0,0,0,3.47-1.15,4.57,4.57,0,0,0,1.2-3.43v-1.16a7.8,7.8,0,0,1-2.15,2,5.59,5.59,0,0,1-3.05.77,6.91,6.91,0,0,1-2.52-.46,6.37,6.37,0,0,1-2.14-1.37,6.51,6.51,0,0,1-1.5-2.2,7.39,7.39,0,0,1-.56-3,7.48,7.48,0,0,1,.56-3,6.56,6.56,0,0,1,1.5-2.19,6.5,6.5,0,0,1,2.15-1.38,6.79,6.79,0,0,1,2.51-.48,5.8,5.8,0,0,1,3.09.75,8.48,8.48,0,0,1,2.08,1.81V104.3h3.39v11.82Q263.18,120.07,261.11,121.89Zm-1.61-12.58a3.75,3.75,0,0,0-.94-1.3,4.17,4.17,0,0,0-1.38-.83,4.93,4.93,0,0,0-1.67-.29,4.69,4.69,0,0,0-1.65.29,4.15,4.15,0,0,0-1.33.83,3.64,3.64,0,0,0-.89,1.28,4.19,4.19,0,0,0-.32,1.68,4,4,0,0,0,1.23,3,3.87,3.87,0,0,0,1.33.84,4.62,4.62,0,0,0,1.63.29,4.93,4.93,0,0,0,1.67-.29,4.19,4.19,0,0,0,1.38-.84,3.93,3.93,0,0,0,1.29-3A4.05,4.05,0,0,0,259.5,109.31Z"/><path class="cls-3" d="M271.44,115.74a4.15,4.15,0,0,0,2.8,1,4.93,4.93,0,0,0,2.18-.45,7.1,7.1,0,0,0,1.82-1.32l2,1.77a8,8,0,0,1-2.53,2,7.51,7.51,0,0,1-3.51.76,7.94,7.94,0,0,1-3-.56,7.2,7.2,0,0,1-4-4,8.88,8.88,0,0,1-.05-6.18,7.62,7.62,0,0,1,1.49-2.47,7.31,7.31,0,0,1,2.29-1.67,6.74,6.74,0,0,1,2.91-.62,7,7,0,0,1,3.09.65,6.43,6.43,0,0,1,2.21,1.74,7.6,7.6,0,0,1,1.33,2.56,10.41,10.41,0,0,1,.45,3.07c0,.15,0,.3,0,.45s0,.31,0,.48H270A4.47,4.47,0,0,0,271.44,115.74Zm6.1-5a6,6,0,0,0-.37-1.54,3.73,3.73,0,0,0-.75-1.23,3.56,3.56,0,0,0-1.13-.83,3.44,3.44,0,0,0-1.5-.31,3.4,3.4,0,0,0-2.59,1.08,4.93,4.93,0,0,0-1.25,2.83Z"/><path class="cls-3" d="M284.51,119.16V98.61h3.41v20.55Z"/><path class="cls-1" d="M225.79,2.46a5,5,0,1,1-4.91,5A4.94,4.94,0,0,1,225.79,2.46Zm0,9a4.06,4.06,0,1,0-4-4.05A4,4,0,0,0,225.79,11.47Zm-1-1.41h-1.12V4.76h2.46c.31,0,2,0,2,1.58a1.43,1.43,0,0,1-1,1.42l1,2.3H227L226.12,8h-1.29Zm0-3H226c.38,0,1-.09,1-.74,0-.31-.21-.7-.9-.7h-1.27Z"/></svg>