<svg id="Layer_1" data-name="Layer 1" xmlns="http://www.w3.org/2000/svg" viewBox="0 0 52 36"><defs><style>.cls-1{fill:#fff;}</style></defs><title>Contact_icon</title><polygon class="cls-1" points="51.11 33.43 51.11 33.44 51.5 33.79 51.5 5.22 35.46 19.5 51.11 33.43"/><path class="cls-1" d="M18.22,21,2.19,35.5H50.06L33.78,21,32.7,22a9.9,9.9,0,0,1-13.42,0Z"/><path class="cls-1" d="M.58,33.94a1.28,1.28,0,0,1,.31-.51L16.52,19.5.5,5.22V34Z"/><path class="cls-1" d="M51.11,2.57,31.35,20.16A8,8,0,0,1,26,22.27a8.12,8.12,0,0,1-5.37-2.11L.89,2.57A1.23,1.23,0,0,1,.56,1.28a1.08,1.08,0,0,1,1-.78H50.44a1.08,1.08,0,0,1,1,.78A1.25,1.25,0,0,1,51.11,2.57Z"/></svg>