<svg id="Layer_1" data-name="Layer 1" xmlns="http://www.w3.org/2000/svg" viewBox="0 0 17.09 18.13"><defs><style>.cls-1{fill:#007c91;}</style></defs><path class="cls-1" d="M.05,10C.05,4,4.41.06,9.55.06,14.13.06,17,3.15,17,7.6c0,3.92-2.54,5.91-4.68,5.91A2.18,2.18,0,0,1,10,11.84h0a3.53,3.53,0,0,1-2.64,1.49c-1.6,0-2.76-1.2-2.76-3.19,0-2.5,1.77-5.24,4.31-5.24A1.83,1.83,0,0,1,10.52,6h0l.29-.89h1.59L11.5,9.7c-.37,1.49,0,2.21,1.1,2.21,1.36,0,2.78-1.62,2.78-4.23,0-3.32-1.88-6-6-6C5.53,1.64,1.8,4.9,1.8,9.92c0,4.31,2.89,6.54,6.46,6.54a7.47,7.47,0,0,0,3.44-.89l.59,1.4a8.35,8.35,0,0,1-4.22,1.09C3.73,18.06.05,15.35.05,10Zm9.46.55.57-3.22a1.36,1.36,0,0,0-1.2-.76C7.36,6.57,6.44,8.52,6.44,10c0,1.19.53,1.71,1.34,1.71C8.31,11.69,8.85,11.36,9.51,10.55Z"/></svg>