<svg xmlns="http://www.w3.org/2000/svg" viewBox="0 0 41.43 62.33"><defs><style>.cls-1{opacity:0.15;}.cls-2{fill:#fff;fill-rule:evenodd;}</style></defs><g id="Layer_1" data-name="Layer 1"><g class="cls-1"><path class="cls-2" d="M35.61,33.48c7.68-7.85,7-20.11-1-27.66A22,22,0,0,0,8.09,3.62,19.57,19.57,0,0,0,.41,12.74l11.52,4.71A8.28,8.28,0,0,1,15.13,14,8.83,8.83,0,0,1,26,14.94c2.88,2.83,3.2,7.23.32,10.06a6.88,6.88,0,0,1-5.44,2.51,8.48,8.48,0,0,0-7.36,8.17v9.23h0A11.19,11.19,0,0,1,19.76,43a12.16,12.16,0,0,1,6.57,1.9V39.14A21.65,21.65,0,0,0,35.61,33.48Z"/><path class="cls-2" d="M19.83,46.76a7.71,7.71,0,1,1,0,15.41,7.71,7.71,0,0,1,0-15.41Z"/></g></g></svg>