<svg id="Layer_1" data-name="Layer 1" xmlns="http://www.w3.org/2000/svg" viewBox="0 0 1366 842.51"><defs><style>.cls-1{fill:#c5ae8a;}</style></defs><polygon class="cls-1" points="248.54 564.24 389 386.15 231.6 279.5 501.59 183.17 721.26 419.7 721.48 419.78 945.68 508.63 946.13 507.9 1102.66 254.67 1306.12 115.72 1304.97 114.03 1101.15 253.22 1101.04 253.41 944.84 506.09 722.45 417.96 502.17 180.78 501.53 181.01 227.1 278.93 386.02 386.61 248.48 561 71.08 352.24 61.16 551.84 63.21 551.94 72.87 357.51 248.54 564.24"/><polygon class="cls-1" points="1260.13 549.14 1260.39 547.1 945.92 506.41 808.71 244.28 806.89 245.23 944.6 508.31 945.13 508.38 1260.13 549.14"/><polygon class="cls-1" points="310.62 748.13 501.55 571.52 685.2 680.95 686.25 679.19 501.29 568.98 500.72 569.5 309.22 746.62 310.62 748.13"/><rect class="cls-1" x="379.55" y="-6.05" width="2.05" height="266.29" transform="translate(107.79 421.33) rotate(-65.63)"/><polygon class="cls-1" points="722.11 420.62 722.77 419.28 808.43 245.8 1101.87 254.97 1101.94 252.92 807.17 243.71 806.88 244.3 721.59 417.04 503.95 182.7 691.99 154.72 692.08 154.68 939.75 65.86 939.05 63.93 691.48 152.72 499.8 181.25 501.13 182.67 722.11 420.62"/><path class="cls-1" d="M385.55,385.16l339.2,32.92L501.11,571.71Zm3.92,2.44L501.72,568.8,719,419.58Z"/><rect class="cls-1" x="327.58" y="283.15" width="234.22" height="2.05" transform="translate(-20.44 533.49) rotate(-60.77)"/><rect class="cls-1" x="373.94" y="439.93" width="2.05" height="253.02" transform="translate(-202.68 923.89) rotate(-88.25)"/><path class="cls-1" d="M917.64,177l123-61.38,60.59,136.32Zm7.44-.28,170.24,69.49-56.18-126.4Z"/><path class="cls-1" d="M808.68,240.65l3.57,103.51,0,.5-93.48,78.06Zm-1.76,8.21-82,166.07,85.27-71.2Z"/><path class="cls-1" d="M633.67,582.38l29.47-68.25,99.59,56.47.44-.15,182.58-62.17.13-.1,101.24-76.26,80.54,40.86L1199,403.61l82.72-69.68-.15-.62-25-103.81c10.81.67,81.41,5.16,92.15,9.57l.78-1.89c-11.89-4.89-90.83-9.61-94.19-9.81l-1.38-.08,25.55,105.89-81.8,68.91-70.31,68.2-80.39-40.78L944.78,506.44,762.94,568.36,662.16,511.22l-29,67.09L547.44,463l-75.57-26,53.7-100.65,136.66-60.71.12-.1,110.21-96.41-.62-118.8h-2.05l.61,117.86-109.39,95.7-137,60.86-.17.31-55,103.09,77.25,26.54Z"/><polygon class="cls-1" points="1099.12 249.63 1185.26 127.97 1148.31 37.39 1146.41 38.17 1182.94 127.71 1097.44 248.44 1099.12 249.63"/><rect class="cls-1" x="1264" y="346.15" width="2.05" height="135.32" transform="translate(652.67 1595.57) rotate(-80.72)"/><polygon class="cls-1" points="229 280.18 229.7 278.25 158.13 252.15 125.35 141.59 47.64 220.97 49.1 222.41 124.37 145.51 156.46 253.72 229 280.18"/><rect class="cls-1" x="122.57" y="53.26" width="2.05" height="90.31" transform="translate(-2.71 3.51) rotate(-1.61)"/><polygon class="cls-1" points="258.74 73.33 356.2 57.48 355.88 55.46 259.8 71.08 220.75 4.16 218.98 5.19 258.74 73.33"/><polygon class="cls-1" points="503.94 183.72 475.83 78.71 472.86 79.5 499.82 180.23 350.35 165.65 350.23 165.65 248.39 171.25 248.56 174.32 350.28 168.73 503.94 183.72"/><polygon class="cls-1" points="193.77 749.45 196.84 749.27 190.98 648.34 321.98 644.68 365.53 510.52 499.84 571.23 496.53 658.29 569.65 671.66 634.27 581.82 762.33 571.07 851.63 646.26 851.95 646.36 967.48 679.14 1072.01 584.61 1160.03 685.01 1162.35 682.98 1072.27 580.23 966.68 675.72 853.11 643.49 763.34 567.9 632.6 578.87 568.29 668.28 499.71 655.74 502.99 569.28 363.67 506.3 363.14 507.93 319.73 641.67 187.72 645.36 193.77 749.45"/><polygon class="cls-1" points="727.22 826.26 728.66 824.79 653.94 751.23 686.19 681.5 777.64 732.26 778.64 730.46 685.26 678.64 651.47 751.68 727.22 826.26"/><rect class="cls-1" x="910.07" y="-0.8" width="2.05" height="77.9" transform="translate(257.56 674.11) rotate(-46.62)"/><rect class="cls-1" x="-13.01" y="399.13" width="109.65" height="3.07" transform="translate(-315.78 215.19) rotate(-56.63)"/><polygon class="cls-1" points="241.47 480.84 253.55 411.56 387.77 387.89 387.24 384.86 250.89 408.9 238.44 480.31 241.47 480.84"/><rect class="cls-1" x="561.78" y="310.02" width="3.08" height="83.52" transform="translate(20.64 734.62) rotate(-67.19)"/><rect class="cls-1" x="938.05" y="328.37" width="3.08" height="179.17" transform="translate(-24.52 60.18) rotate(-3.62)"/><rect class="cls-1" x="758.27" y="686.58" width="113.97" height="3.07" transform="translate(-237.88 858.57) rotate(-49.36)"/><path class="cls-1" d="M795.94,239.88a12.82,12.82,0,1,0,16.73-7A12.81,12.81,0,0,0,795.94,239.88Z"/><path class="cls-1" d="M759.06,55.49a12.82,12.82,0,1,0,16.73-7A12.81,12.81,0,0,0,759.06,55.49Z"/><circle class="cls-1" cx="921.36" cy="176.82" r="12.82" transform="translate(332.55 907.22) rotate(-61.99)"/><path class="cls-1" d="M1337.16,233.25a12.83,12.83,0,1,0,16.74-7A12.83,12.83,0,0,0,1337.16,233.25Z"/><circle class="cls-1" cx="727.94" cy="825.53" r="12.82" transform="translate(-330.07 522.19) rotate(-32.6)"/><path class="cls-1" d="M650.79,507.8a12.82,12.82,0,1,0,16.74-7A12.84,12.84,0,0,0,650.79,507.8Z"/><circle class="cls-1" cx="501.42" cy="570.25" r="30.39" transform="translate(-254.67 499.95) rotate(-43.36)"/><path class="cls-1" d="M908.77,318.22a27.17,27.17,0,1,0,35.46-14.81A27.16,27.16,0,0,0,908.77,318.22Z"/><circle class="cls-1" cx="852.37" cy="644.88" r="27.18" transform="translate(-50.53 72.89) rotate(-4.76)"/><circle class="cls-1" cx="1127.47" cy="471.53" r="27.18" transform="translate(-54.2 783.27) rotate(-37.47)"/><path class="cls-1" d="M343.47,51.3a13.59,13.59,0,1,0,17.73-7.4A13.6,13.6,0,0,0,343.47,51.3Z"/><path class="cls-1" d="M217.49,274.34a12.82,12.82,0,1,0,16.74-7A12.83,12.83,0,0,0,217.49,274.34Z"/><path class="cls-1" d="M110.46,48.4a12.82,12.82,0,1,0,16.74-7A12.83,12.83,0,0,0,110.46,48.4Z"/><path class="cls-1" d="M486.26,652.14a12.82,12.82,0,1,0,16.74-7A12.84,12.84,0,0,0,486.26,652.14Z"/><path class="cls-1" d="M594.86,365.12a7.51,7.51,0,1,0,9.81-4.1A7.52,7.52,0,0,0,594.86,365.12Z"/><path class="cls-1" d="M463.45,434.75a7.51,7.51,0,1,0,9.8-4.09A7.51,7.51,0,0,0,463.45,434.75Z"/><path class="cls-1" d="M233,477.72a7.51,7.51,0,1,0,9.8-4.1A7.51,7.51,0,0,0,233,477.72Z"/><path class="cls-1" d="M4.71,443.59a7.51,7.51,0,1,0,9.81-4.09A7.53,7.53,0,0,0,4.71,443.59Z"/><path class="cls-1" d="M676.05,676.09a10.46,10.46,0,1,0,13.65-5.7A10.46,10.46,0,0,0,676.05,676.09Z"/><path class="cls-1" d="M1295.87,110.9a10.46,10.46,0,1,0,13.65-5.7A10.45,10.45,0,0,0,1295.87,110.9Z"/><path class="cls-1" d="M377.44,382.24a10.89,10.89,0,1,0,14.2-5.93A10.89,10.89,0,0,0,377.44,382.24Z"/><path class="cls-1" d="M366.36,377.69a22.87,22.87,0,1,1,12.46,29.84A22.88,22.88,0,0,1,366.36,377.69Zm1.56.64a21.17,21.17,0,1,0,27.63-11.54A21.2,21.2,0,0,0,367.92,378.33Z"/><path class="cls-1" d="M242.15,406.09a10.89,10.89,0,1,0,14.21-5.93A10.9,10.9,0,0,0,242.15,406.09Z"/><path class="cls-1" d="M231.07,401.54a22.87,22.87,0,1,1,12.46,29.84A22.89,22.89,0,0,1,231.07,401.54Zm1.57.64a21.17,21.17,0,1,0,27.63-11.54A21.19,21.19,0,0,0,232.64,402.18Z"/><path class="cls-1" d="M179.28,642.71a10.89,10.89,0,1,0,14.21-5.93A10.89,10.89,0,0,0,179.28,642.71Z"/><path class="cls-1" d="M168.2,638.16A22.87,22.87,0,1,1,180.66,668,22.88,22.88,0,0,1,168.2,638.16Zm1.56.64a21.17,21.17,0,1,0,27.64-11.54A21.2,21.2,0,0,0,169.76,638.8Z"/><path class="cls-1" d="M1065.89,579.85a6.76,6.76,0,1,0,8.82-3.68A6.76,6.76,0,0,0,1065.89,579.85Z"/><path class="cls-1" d="M1059,577a14.2,14.2,0,1,1,7.74,18.52A14.22,14.22,0,0,1,1059,577Zm1,.4a13.14,13.14,0,1,0,17.14-7.16A13.14,13.14,0,0,0,1060,577.42Z"/><path class="cls-1" d="M775,730.08a3.38,3.38,0,1,0,4.41-1.85A3.37,3.37,0,0,0,775,730.08Z"/><path class="cls-1" d="M771.58,728.66a7.1,7.1,0,1,1,3.86,9.26A7.09,7.09,0,0,1,771.58,728.66Zm.48.2a6.57,6.57,0,1,0,8.58-3.58A6.59,6.59,0,0,0,772.06,728.86Z"/><path class="cls-1" d="M192.18,748.07a3.38,3.38,0,1,0,4.41-1.84A3.38,3.38,0,0,0,192.18,748.07Z"/><path class="cls-1" d="M188.74,746.66a7.1,7.1,0,1,1,3.87,9.26A7.11,7.11,0,0,1,188.74,746.66Zm.49.2a6.57,6.57,0,1,0,8.57-3.58A6.57,6.57,0,0,0,189.23,746.86Z"/><path class="cls-1" d="M1176.22,124.6a8.52,8.52,0,1,0,11.11-4.63A8.51,8.51,0,0,0,1176.22,124.6Z"/><path class="cls-1" d="M1167.55,121a17.89,17.89,0,1,1,9.75,23.34A17.9,17.9,0,0,1,1167.55,121Zm1.23.51a16.56,16.56,0,1,0,21.61-9A16.58,16.58,0,0,0,1168.78,121.55Z"/><path class="cls-1" d="M761.46,174.56a10.89,10.89,0,1,0,14.21-5.94A10.87,10.87,0,0,0,761.46,174.56Z"/><path class="cls-1" d="M750.38,170a22.87,22.87,0,1,1,12.46,29.85A22.89,22.89,0,0,1,750.38,170Zm1.56.65a21.17,21.17,0,1,0,27.64-11.54A21.2,21.2,0,0,0,751.94,170.65Z"/><path class="cls-1" d="M641.57,746.88a12,12,0,1,0,15.71-6.56A12,12,0,0,0,641.57,746.88Z"/><path class="cls-1" d="M629.31,741.84a25.29,25.29,0,1,1,13.78,33A25.32,25.32,0,0,1,629.31,741.84Zm1.73.71a23.42,23.42,0,1,0,30.57-12.76A23.46,23.46,0,0,0,631,742.55Z"/><circle class="cls-1" cx="633.43" cy="580.35" r="17.82" transform="translate(-186.9 835.49) rotate(-59.77)"/><path class="cls-1" d="M633.67,617.78a37.43,37.43,0,1,1,37.19-37.67A37.49,37.49,0,0,1,633.67,617.78Zm0-2.78a34.66,34.66,0,1,0-34.87-34.44A34.69,34.69,0,0,0,633.65,615Z"/><path class="cls-1" d="M956.3,673a11.66,11.66,0,1,0,15.21-6.36A11.65,11.65,0,0,0,956.3,673Z"/><path class="cls-1" d="M944.43,668.12a24.49,24.49,0,1,1,13.34,32A24.51,24.51,0,0,1,944.43,668.12Zm1.68.69a22.68,22.68,0,1,0,29.59-12.36A22.71,22.71,0,0,0,946.11,668.81Z"/><path class="cls-1" d="M801.16,340.06a10.89,10.89,0,1,0,14.21-5.93A10.88,10.88,0,0,0,801.16,340.06Z"/><path class="cls-1" d="M790.08,335.5a22.87,22.87,0,1,1,12.46,29.85A22.89,22.89,0,0,1,790.08,335.5Zm1.56.65a21.17,21.17,0,1,0,27.64-11.54A21.2,21.2,0,0,0,791.64,336.15Z"/><path class="cls-1" d="M56.05,549.37a6.63,6.63,0,1,0,8.65-3.62A6.64,6.64,0,0,0,56.05,549.37Z"/><path class="cls-1" d="M49.3,546.59a13.93,13.93,0,1,1,7.59,18.18A13.95,13.95,0,0,1,49.3,546.59Zm1,.4a12.9,12.9,0,1,0,16.84-7A12.92,12.92,0,0,0,50.25,547Z"/><path class="cls-1" d="M118.73,141a6.63,6.63,0,1,0,8.65-3.61A6.63,6.63,0,0,0,118.73,141Z"/><path class="cls-1" d="M112,138.26a13.93,13.93,0,1,1,7.59,18.18A13.93,13.93,0,0,1,112,138.26Zm1,.39a12.9,12.9,0,1,0,16.83-7A12.91,12.91,0,0,0,112.93,138.65Z"/><circle class="cls-1" cx="501.88" cy="181.98" r="26.14" transform="translate(62.48 485.17) rotate(-54.54)"/><path class="cls-1" d="M451.09,161.11A54.9,54.9,0,1,1,481,232.76,55,55,0,0,1,451.09,161.11Zm3.76,1.54A50.84,50.84,0,1,0,521.2,135,50.9,50.9,0,0,0,454.85,162.65Z"/><path class="cls-1" d="M347.74,501.48a18.23,18.23,0,1,0,23.79-9.94A18.23,18.23,0,0,0,347.74,501.48Z"/><path class="cls-1" d="M329.17,493.85a38.3,38.3,0,1,1,20.87,50A38.35,38.35,0,0,1,329.17,493.85Zm2.63,1.08a35.47,35.47,0,1,0,46.28-19.33A35.51,35.51,0,0,0,331.8,494.93Z"/><path class="cls-1" d="M234.34,167a15.28,15.28,0,1,0,19.94-8.33A15.29,15.29,0,0,0,234.34,167Z"/><path class="cls-1" d="M218.78,160.58a32.1,32.1,0,1,1,17.49,41.9A32.14,32.14,0,0,1,218.78,160.58Zm2.2.9a29.73,29.73,0,1,0,38.79-16.2A29.76,29.76,0,0,0,221,161.48Z"/><circle class="cls-1" cx="524.83" cy="335.58" r="18.1" transform="translate(-97.46 364.21) rotate(-35.23)"/><path class="cls-1" d="M489.67,321.14a38,38,0,1,1,20.71,49.6A38.05,38.05,0,0,1,489.67,321.14Zm2.6,1.07A35.2,35.2,0,1,0,538.2,303,35.24,35.24,0,0,0,492.27,322.21Z"/><path class="cls-1" d="M343.66,164.45a7.2,7.2,0,1,0,9.39-3.91A7.2,7.2,0,0,0,343.66,164.45Z"/><path class="cls-1" d="M336.34,161.45a15.11,15.11,0,1,1,8.23,19.71A15.13,15.13,0,0,1,336.34,161.45Zm1,.42a14,14,0,1,0,18.26-7.62A14,14,0,0,0,337.37,161.87Z"/><path class="cls-1" d="M41.72,219A7.19,7.19,0,1,0,51.11,215,7.18,7.18,0,0,0,41.72,219Z"/><path class="cls-1" d="M34.4,216a15.11,15.11,0,1,1,8.23,19.72A15.12,15.12,0,0,1,34.4,216Zm1,.42a14,14,0,1,0,18.26-7.62A14,14,0,0,0,35.43,216.37Z"/><path class="cls-1" d="M1242.68,540.89a19,19,0,1,0,24.81-10.36A19,19,0,0,0,1242.68,540.89Z"/><path class="cls-1" d="M1223.32,532.94a39.94,39.94,0,1,1,21.76,52.12A40,40,0,0,1,1223.32,532.94Zm2.74,1.12a37,37,0,1,0,48.26-20.15A37,37,0,0,0,1226.06,534.06Z"/><path class="cls-1" d="M1263,326.33A19,19,0,1,0,1287.77,316,19,19,0,0,0,1263,326.33Z"/><path class="cls-1" d="M1243.6,318.38a39.94,39.94,0,1,1,21.77,52.12A40,40,0,0,1,1243.6,318.38Zm2.74,1.12a37,37,0,1,0,48.26-20.15A37,37,0,0,0,1246.34,319.5Z"/><path class="cls-1" d="M685.86,151.31a6.35,6.35,0,1,0,8.29-3.46A6.35,6.35,0,0,0,685.86,151.31Z"/><path class="cls-1" d="M679.4,148.65a13.34,13.34,0,1,1,7.27,17.4A13.36,13.36,0,0,1,679.4,148.65Zm.91.38a12.35,12.35,0,1,0,16.12-6.73A12.37,12.37,0,0,0,680.31,149Z"/><path class="cls-1" d="M1249.3,226a6.35,6.35,0,1,0,8.28-3.46A6.36,6.36,0,0,0,1249.3,226Z"/><path class="cls-1" d="M1242.84,223.33a13.33,13.33,0,1,1,7.26,17.4A13.35,13.35,0,0,1,1242.84,223.33Zm.91.37a12.35,12.35,0,1,0,16.11-6.72A12.37,12.37,0,0,0,1243.75,223.7Z"/><path class="cls-1" d="M1137.41,33.69a10.76,10.76,0,1,1,5.86,14.05A10.76,10.76,0,0,1,1137.41,33.69Zm.73.3a10,10,0,1,0,13-5.43A10,10,0,0,0,1138.14,34Z"/><path class="cls-1" d="M1042.27,428.77A5.12,5.12,0,1,0,1049,426,5.12,5.12,0,0,0,1042.27,428.77Z"/><path class="cls-1" d="M1037.05,426.63a10.76,10.76,0,1,1,5.87,14A10.79,10.79,0,0,1,1037.05,426.63Zm.74.3a10,10,0,1,0,13-5.43A10,10,0,0,0,1037.79,426.93Z"/><circle class="cls-1" cx="1331.8" cy="424.75" r="6.35" transform="translate(786.83 1712.04) rotate(-84.74)"/><path class="cls-1" d="M1319.46,419.68a13.34,13.34,0,1,1,7.27,17.4A13.36,13.36,0,0,1,1319.46,419.68Zm.92.38a12.35,12.35,0,1,0,16.11-6.73A12.36,12.36,0,0,0,1320.38,420.06Z"/><path class="cls-1" d="M929.21,60.71a11,11,0,1,0,14.38-6A11,11,0,0,0,929.21,60.71Z"/><path class="cls-1" d="M918,56.1A23.15,23.15,0,1,1,930.6,86.31,23.17,23.17,0,0,1,918,56.1Zm1.58.65a21.44,21.44,0,1,0,28-11.68A21.47,21.47,0,0,0,919.57,56.75Z"/><circle class="cls-1" cx="721.85" cy="418.83" r="26.34" transform="translate(223.35 1088.15) rotate(-83.44)"/><path class="cls-1" d="M703.28,472h0a3.1,3.1,0,0,1-1.74-3.86h0l.07-.15h0a3,3,0,0,1,3.84-1.74h0a3.08,3.08,0,0,1,1.91,3.91h0l-.06.15h0a3.08,3.08,0,0,1-3.86,1.74A.49.49,0,0,1,703.28,472Zm-11.15-5.37h0a2.68,2.68,0,0,1-.47-.25h0a3.1,3.1,0,0,1-1.21-3.75h0a2.27,2.27,0,0,1,.27-.48h0a3,3,0,0,1,4.22-.95h0a3.08,3.08,0,0,1,1.22,3.76h0a2.42,2.42,0,0,1-.26.47A3.07,3.07,0,0,1,692.13,466.66Zm23.22,8h0a3.12,3.12,0,0,1-1.9-3.15h0a3.09,3.09,0,0,1,.21-.82h0a3.11,3.11,0,0,1,3.16-1.94h0a3.09,3.09,0,0,1,2.75,3.39h0a2.74,2.74,0,0,1-.19.81h0a3.06,3.06,0,0,1-4,1.71Zm-32.82-15.81h0a3.27,3.27,0,0,1-1-.69h0a3.13,3.13,0,0,1-.64-3.34h0a3.56,3.56,0,0,1,.7-1h0a3.06,3.06,0,0,1,4.34.07h0a3,3,0,0,1,.63,3.32h0a3.06,3.06,0,0,1-4,1.66Zm45.19,15.62h0a3.11,3.11,0,0,1-1.88-2.43h0a3,3,0,0,1,.21-1.58h0a3.06,3.06,0,0,1,2.43-1.88h0a3.07,3.07,0,0,1,3.46,2.64h0a3,3,0,0,1-.21,1.57h0a3.06,3.06,0,0,1-2.45,1.88h0A3.32,3.32,0,0,1,727.72,474.5ZM675,449.09h0a3.14,3.14,0,0,1-1.45-1.26h0a3.09,3.09,0,0,1-.2-2.75h0a3,3,0,0,1,1.25-1.48h0a3.05,3.05,0,0,1,4.21,1.07h0a3,3,0,0,1,.22,2.75h0a3,3,0,0,1-1.26,1.45A3.07,3.07,0,0,1,675,449.09Zm64.72,22.36h0a3,3,0,0,1-1.69-1.76h0a3,3,0,0,1,0-2.27h0a3.06,3.06,0,0,1,1.74-1.7h0a3.1,3.1,0,0,1,4,1.78h0a3,3,0,0,1,0,2.29h0a3,3,0,0,1-1.73,1.68A3.12,3.12,0,0,1,739.7,471.45Zm-69.79-33.64h0a3.08,3.08,0,0,1-1.76-1.9h0a3.11,3.11,0,0,1,.07-2.07h0a3.16,3.16,0,0,1,1.92-1.81h0a3.11,3.11,0,0,1,3.87,2h0a3,3,0,0,1-.08,2.08h0a3.09,3.09,0,0,1-4,1.69Zm80.76,27.91h0a3,3,0,0,1-1.38-1.12h0a3,3,0,0,1-.3-2.87h0a3,3,0,0,1,1.13-1.4v0a3,3,0,0,1,4.26.8h0a3.13,3.13,0,0,1,.32,2.88h0a3.17,3.17,0,0,1-1.13,1.39h0A3.06,3.06,0,0,1,750.67,465.72Zm-83.12-40.05h0a3.05,3.05,0,0,1-1.9-2.59h0a3.15,3.15,0,0,1,.23-1.44h0a3.08,3.08,0,0,1,2.61-1.87h0a3.07,3.07,0,0,1,3.29,2.83h0a3.22,3.22,0,0,1-.23,1.42h0a3.06,3.06,0,0,1-2.61,1.87A2.85,2.85,0,0,1,667.55,425.67Zm92.46,32h0a2.75,2.75,0,0,1-.9-.59h0a3.06,3.06,0,0,1-.77-3.42h0a3.23,3.23,0,0,1,.58-.92h0a3.07,3.07,0,0,1,4.35-.18h0A3.11,3.11,0,0,1,764,456h0a3.37,3.37,0,0,1-.57.89h0A3.07,3.07,0,0,1,760,457.64Zm-92-44.32h0a3,3,0,0,1-1.87-3.31h0a2.44,2.44,0,0,1,.19-.68h0a3,3,0,0,1,3.32-1.89h0a3.09,3.09,0,0,1,2.56,3.53h0a4.57,4.57,0,0,1-.18.66h0a3.1,3.1,0,0,1-3.35,1.88A2.57,2.57,0,0,1,668.06,413.32Zm99.18,34.29h0c-.11-.05-.22-.12-.33-.16h0a3.05,3.05,0,0,1-1.35-3.84h0a2.14,2.14,0,0,1,.16-.35h0a3.06,3.06,0,0,1,4.17-1.19h0a3.09,3.09,0,0,1,1.38,3.82h0l-.17.35A3.07,3.07,0,0,1,767.24,447.61ZM671.4,401.42h0a3.07,3.07,0,0,1-1.68-4h0l0-.09h0l0-.12h0a3.09,3.09,0,0,1,4-1.66h0a3.07,3.07,0,0,1,1.65,4h0l-.07.15h0v0A3.07,3.07,0,0,1,671.4,401.42ZM772,436.17h0a3.09,3.09,0,0,1-1.79-3.69h0a3.82,3.82,0,0,1,.13-.36h0a3.09,3.09,0,0,1,3.67-1.75h0a3.07,3.07,0,0,1,2.11,3.81h0c0,.12-.08.23-.13.37h0a3.06,3.06,0,0,1-3.66,1.73C772.17,436.25,772.06,436.2,772,436.17Zm-94.45-45.75h0a2.33,2.33,0,0,1-.63-.35h0a3.09,3.09,0,0,1-1-3.68h0a4.53,4.53,0,0,1,.34-.61h0a3.11,3.11,0,0,1,4.3-.69h0a3.07,3.07,0,0,1,1,3.68h0a2.27,2.27,0,0,1-.34.61A3.07,3.07,0,0,1,677.51,390.42ZM773.92,424h0a3.1,3.1,0,0,1-1.9-3h0a2.84,2.84,0,0,1,.25-1.05h0a3.06,3.06,0,0,1,3-1.88h0a3.07,3.07,0,0,1,2.93,3.2h0a3,3,0,0,1-.22,1h0a3.15,3.15,0,0,1-3,1.9A3.28,3.28,0,0,1,773.92,424Zm-88-42.65h0a3,3,0,0,1-1.16-.83h0a3.08,3.08,0,0,1-.51-3.18h0a3,3,0,0,1,.83-1.16h0a3.08,3.08,0,0,1,4.34.32h0a3.07,3.07,0,0,1,.51,3.18h0a2.86,2.86,0,0,1-.85,1.15A3,3,0,0,1,685.88,381.32ZM773,411.64h0a3.08,3.08,0,0,1-1.85-2.27h0a3.08,3.08,0,0,1,.17-1.73h0a3.06,3.06,0,0,1,2.26-1.88h0a3.08,3.08,0,0,1,3.6,2.45h0a3.19,3.19,0,0,1-.15,1.71h0a3.11,3.11,0,0,1-4,1.72Zm-76.91-37.26h0a3,3,0,0,1-1.55-1.41h0a3.07,3.07,0,0,1-.14-2.56h0a3.11,3.11,0,0,1,1.44-1.58h0a3,3,0,0,1,4.14,1.3h0a3,3,0,0,1,.13,2.56h0a3,3,0,0,1-1.43,1.58A3.06,3.06,0,0,1,696.11,374.38Zm73.19,25.47h0a3.11,3.11,0,0,1-1.66-1.59h0a3.08,3.08,0,0,1,0-2.42h0a3,3,0,0,1,1.58-1.64h0a3,3,0,0,1,4.06,1.54h0a3,3,0,0,1,0,2.41h0a3,3,0,0,1-1.6,1.65A3.06,3.06,0,0,1,769.3,399.85ZM707.68,370h0a3.06,3.06,0,0,1-1.82-2.1h0A3.09,3.09,0,0,1,706,366h0a3.09,3.09,0,0,1,2.07-1.81h0a3.1,3.1,0,0,1,3.74,2.22h0a3.11,3.11,0,0,1-.13,1.94h0a3.12,3.12,0,0,1-2.09,1.8A3,3,0,0,1,707.68,370Zm55.26,19.21h0a3.25,3.25,0,0,1-1.26-1h0a3,3,0,0,1-.39-3.06h0a3,3,0,0,1,1-1.26h0a3.07,3.07,0,0,1,4.3.57h0a3.11,3.11,0,0,1,.4,3.07h0a3,3,0,0,1-1,1.24A3.1,3.1,0,0,1,762.94,389.22Zm-43-20.84h0a3.1,3.1,0,0,1-1.9-2.8h0a2.9,2.9,0,0,1,.22-1.19h0a3.1,3.1,0,0,1,2.81-1.93h0a3.1,3.1,0,0,1,3.12,3h0a3.11,3.11,0,0,1-.23,1.19h0a3.08,3.08,0,0,1-2.81,1.93A3.29,3.29,0,0,1,719.93,368.38Zm34.41,12h0a3,3,0,0,1-.77-.45h0a3.12,3.12,0,0,1-.92-3.54h0a3.11,3.11,0,0,1,.48-.78h0a3.06,3.06,0,0,1,4.32-.44h0a3.06,3.06,0,0,1,.91,3.52h0a3,3,0,0,1-.47.8A3.08,3.08,0,0,1,754.34,380.34Zm-22.1-10.7h0a3.06,3.06,0,0,1-1.83-3.52h0a4.2,4.2,0,0,1,.16-.51h0a3.09,3.09,0,0,1,3.51-1.81h0a3.09,3.09,0,0,1,2.33,3.68h0c0,.16-.1.34-.17.51h0a3.09,3.09,0,0,1-3.49,1.82h0A2.81,2.81,0,0,1,732.24,369.64Zm11.68,4.07h0l-.19-.07h0a3.1,3.1,0,0,1-1.49-4h0a.44.44,0,0,1,.08-.15h0a3,3,0,0,1,4.08-1.42h0a3,3,0,0,1,1.5,4h0l0,.13A3.07,3.07,0,0,1,743.92,373.71Z"/><circle class="cls-1" cx="661.67" cy="274.8" r="21.16" transform="translate(-54.79 276.16) rotate(-22.66)"/><path class="cls-1" d="M646.75,317.54h0a2.48,2.48,0,0,1-1.39-3.1h0l0-.13h0a2.45,2.45,0,0,1,3.08-1.4h0a2.48,2.48,0,0,1,1.54,3.14h0l0,.13h0a2.47,2.47,0,0,1-3.1,1.39A.61.61,0,0,1,646.75,317.54Zm-9-4.32h0a1.74,1.74,0,0,1-.38-.2h0a2.48,2.48,0,0,1-1-3h0a1.83,1.83,0,0,1,.21-.39h0a2.44,2.44,0,0,1,3.39-.76h0a2.48,2.48,0,0,1,1,3h0a2,2,0,0,1-.21.38A2.47,2.47,0,0,1,637.8,313.22Zm18.65,6.45h0a2.5,2.5,0,0,1-1.53-2.53h0a2.37,2.37,0,0,1,.17-.66h0a2.5,2.5,0,0,1,2.54-1.56h0a2.49,2.49,0,0,1,2.21,2.73h0a2.23,2.23,0,0,1-.16.64h0a2.48,2.48,0,0,1-2.54,1.56A2.59,2.59,0,0,1,656.45,319.67ZM630.08,307h0a2.57,2.57,0,0,1-.82-.55h0a2.52,2.52,0,0,1-.52-2.69h0a2.88,2.88,0,0,1,.57-.82h0a2.44,2.44,0,0,1,3.48.06h0a2.43,2.43,0,0,1,.51,2.67h0a2.63,2.63,0,0,1-.55.82A2.5,2.5,0,0,1,630.08,307Zm36.31,12.55h0a2.45,2.45,0,0,1-1.51-2h0a2.31,2.31,0,0,1,.16-1.26h0a2.45,2.45,0,0,1,2-1.51h0a2.46,2.46,0,0,1,2.77,2.12h0a2.45,2.45,0,0,1-.16,1.26h0a2.48,2.48,0,0,1-2,1.51h0A2.65,2.65,0,0,1,666.39,319.52ZM624,299.11h0a2.46,2.46,0,0,1-1.17-1h0a2.46,2.46,0,0,1-.17-2.2h0a2.43,2.43,0,0,1,1-1.19h0a2.44,2.44,0,0,1,3.38.86h0a2.42,2.42,0,0,1,.18,2.21h0a2.41,2.41,0,0,1-1,1.16A2.5,2.5,0,0,1,624,299.11Zm52,17.95h0a2.4,2.4,0,0,1-1.36-1.41h0a2.39,2.39,0,0,1,0-1.82h0a2.49,2.49,0,0,1,1.39-1.37h0a2.49,2.49,0,0,1,3.19,1.43h0a2.44,2.44,0,0,1,0,1.84h0a2.4,2.4,0,0,1-1.39,1.35A2.43,2.43,0,0,1,676,317.06Zm-56.06-27h0a2.51,2.51,0,0,1-1.42-1.53h0a2.54,2.54,0,0,1,.06-1.66h0a2.51,2.51,0,0,1,1.54-1.45h0a2.49,2.49,0,0,1,3.11,1.61h0a2.45,2.45,0,0,1-.06,1.67h0a2.51,2.51,0,0,1-1.55,1.43A2.42,2.42,0,0,1,620,290.05Zm64.87,22.41h0a2.41,2.41,0,0,1-1.11-.89h0a2.42,2.42,0,0,1-.24-2.31h0a2.37,2.37,0,0,1,.9-1.12h0a2.45,2.45,0,0,1,3.42.64h0a2.52,2.52,0,0,1,.26,2.31h0a2.56,2.56,0,0,1-.91,1.13h0A2.45,2.45,0,0,1,684.82,312.46ZM618.05,280.3h0a2.46,2.46,0,0,1-1.53-2.09h0a2.61,2.61,0,0,1,.19-1.15h0a2.47,2.47,0,0,1,2.1-1.5h0a2.45,2.45,0,0,1,2.64,2.27h0a2.54,2.54,0,0,1-.18,1.14h0a2.45,2.45,0,0,1-2.1,1.5A2.36,2.36,0,0,1,618.05,280.3ZM692.32,306h0a2.43,2.43,0,0,1-.73-.48h0a2.48,2.48,0,0,1-.61-2.75h0a2.48,2.48,0,0,1,.46-.73h0a2.47,2.47,0,0,1,3.5-.15h0a2.49,2.49,0,0,1,.61,2.76h0a2.52,2.52,0,0,1-.46.72h0A2.49,2.49,0,0,1,692.32,306Zm-73.86-35.6h0a2.47,2.47,0,0,1-1.5-2.67h0a2.26,2.26,0,0,1,.15-.54h0a2.45,2.45,0,0,1,2.67-1.52h0a2.49,2.49,0,0,1,2.06,2.84h0a3.21,3.21,0,0,1-.15.53h0a2.47,2.47,0,0,1-2.69,1.51A2.07,2.07,0,0,1,618.46,270.38Zm79.67,27.54h0l-.27-.13h0a2.45,2.45,0,0,1-1.08-3.08h0a1.38,1.38,0,0,1,.13-.28h0a2.44,2.44,0,0,1,3.35-1h0a2.48,2.48,0,0,1,1.1,3.07h0c0,.11-.1.19-.13.28A2.48,2.48,0,0,1,698.13,297.92Zm-77-37.1h0a2.46,2.46,0,0,1-1.34-3.22h0l0-.08h0l0-.09h0a2.48,2.48,0,0,1,3.23-1.34h0a2.47,2.47,0,0,1,1.33,3.23h0l0,.13h0v0A2.47,2.47,0,0,1,621.14,260.82Zm80.78,27.91h0a2.48,2.48,0,0,1-1.44-3h0c0-.1.07-.2.11-.3h0a2.47,2.47,0,0,1,2.94-1.4h0a2.47,2.47,0,0,1,1.7,3.06h0a2.22,2.22,0,0,1-.11.3h0a2.45,2.45,0,0,1-2.93,1.39A1.71,1.71,0,0,1,701.92,288.73ZM626.06,252h0a1.72,1.72,0,0,1-.51-.28h0a2.47,2.47,0,0,1-.83-2.95h0a2.34,2.34,0,0,1,.27-.49h0a2.49,2.49,0,0,1,3.45-.56h0a2.47,2.47,0,0,1,.83,3h0a2,2,0,0,1-.27.5A2.47,2.47,0,0,1,626.06,252Zm77.43,27h0a2.49,2.49,0,0,1-1.53-2.39h0a2.31,2.31,0,0,1,.21-.84h0a2.46,2.46,0,0,1,2.38-1.52h0a2.47,2.47,0,0,1,2.36,2.58h0a2.57,2.57,0,0,1-.18.83h0a2.53,2.53,0,0,1-2.39,1.53A2.93,2.93,0,0,1,703.49,278.93Zm-70.71-34.25h0a2.67,2.67,0,0,1-.94-.67h0a2.51,2.51,0,0,1-.41-2.56h0a2.54,2.54,0,0,1,.67-.93h0a2.48,2.48,0,0,1,3.49.26h0a2.46,2.46,0,0,1,.41,2.55h0a2.36,2.36,0,0,1-.68.93A2.48,2.48,0,0,1,632.78,244.68Zm70,24.34h0a2.48,2.48,0,0,1-1.49-1.82h0a2.47,2.47,0,0,1,.14-1.38h0a2.46,2.46,0,0,1,1.82-1.52h0a2.48,2.48,0,0,1,2.89,2h0a2.58,2.58,0,0,1-.12,1.38h0a2.48,2.48,0,0,1-3.24,1.37ZM641,239.1h0a2.43,2.43,0,0,1-1.24-1.13h0a2.48,2.48,0,0,1-.11-2.06h0a2.47,2.47,0,0,1,1.16-1.27h0a2.44,2.44,0,0,1,3.32,1.05h0a2.42,2.42,0,0,1,.1,2.05h0a2.3,2.3,0,0,1-1.15,1.27A2.45,2.45,0,0,1,641,239.1Zm58.79,20.46h0a2.52,2.52,0,0,1-1.33-1.28h0a2.49,2.49,0,0,1,0-1.95h0A2.36,2.36,0,0,1,699.7,255h0a2.46,2.46,0,0,1,3.27,1.24h0a2.45,2.45,0,0,1,0,1.93h0a2.52,2.52,0,0,1-3.23,1.37Zm-49.5-24h0a2.49,2.49,0,0,1-1.46-1.69h0a2.48,2.48,0,0,1,.13-1.55h0a2.43,2.43,0,0,1,1.66-1.45h0a2.47,2.47,0,0,1,3,1.78h0a2.5,2.5,0,0,1-.1,1.56h0a2.5,2.5,0,0,1-3.23,1.35ZM694.67,251h0a2.61,2.61,0,0,1-1-.78h0a2.44,2.44,0,0,1-.31-2.46h0a2.49,2.49,0,0,1,.77-1h0a2.47,2.47,0,0,1,3.46.46h0a2.5,2.5,0,0,1,.33,2.46h0a2.45,2.45,0,0,1-.79,1A2.5,2.5,0,0,1,694.67,251Zm-34.54-16.74h0A2.49,2.49,0,0,1,658.6,232h0a2.35,2.35,0,0,1,.18-1h0a2.5,2.5,0,0,1,2.25-1.55h0a2.49,2.49,0,0,1,2.51,2.44h0a2.52,2.52,0,0,1-.18,1h0a2.49,2.49,0,0,1-2.26,1.54A2.43,2.43,0,0,1,660.13,234.28Zm27.63,9.61h0a3,3,0,0,1-.61-.36h0a2.53,2.53,0,0,1-.74-2.85h0a2.46,2.46,0,0,1,.38-.63h0a2.48,2.48,0,0,1,3.48-.35h0a2.46,2.46,0,0,1,.72,2.83h0a2.42,2.42,0,0,1-.37.64A2.5,2.5,0,0,1,687.76,243.89ZM670,235.29h0a2.47,2.47,0,0,1-1.47-2.82h0c0-.13.08-.27.13-.41h0a2.49,2.49,0,0,1,2.83-1.46h0a2.48,2.48,0,0,1,1.86,3h0c0,.12-.08.27-.13.41h0a2.49,2.49,0,0,1-2.81,1.46h0A2.67,2.67,0,0,1,670,235.29Zm9.39,3.27h0l-.15-.06h0a2.49,2.49,0,0,1-1.21-3.18h0l.07-.11h0a2.44,2.44,0,0,1,3.28-1.15h0a2.43,2.43,0,0,1,1.2,3.18h0l0,.11A2.46,2.46,0,0,1,679.4,238.56Z"/><path class="cls-1" d="M1030.88,113.9a9.77,9.77,0,1,0,12.75-5.33A9.77,9.77,0,0,0,1030.88,113.9Z"/><path class="cls-1" d="M1033,137.35h0a1.14,1.14,0,0,1-.65-1.43h0l0,0h0a1.13,1.13,0,0,1,1.42-.65h0a1.14,1.14,0,0,1,.71,1.45h0l0,.06h0a1.15,1.15,0,0,1-1.43.64Zm-4.14-2h0a.7.7,0,0,1-.17-.09h0a1.15,1.15,0,0,1-.45-1.39h0a.52.52,0,0,1,.1-.18h0a1.12,1.12,0,0,1,1.56-.35h0a1.14,1.14,0,0,1,.46,1.39h0a1,1,0,0,1-.1.17A1.13,1.13,0,0,1,1028.89,135.36Zm8.62,3h0a1.17,1.17,0,0,1-.71-1.17h0a1.32,1.32,0,0,1,.08-.3h0a1.15,1.15,0,0,1,1.17-.72h0a1.14,1.14,0,0,1,1,1.26h0a1,1,0,0,1-.07.29h0a1.13,1.13,0,0,1-1.17.72A1.16,1.16,0,0,1,1037.51,138.34Zm-12.18-5.87h0a1,1,0,0,1-.38-.25h0a1.15,1.15,0,0,1-.24-1.24h0a1.22,1.22,0,0,1,.26-.38h0a1.13,1.13,0,0,1,1.61,0h0a1.11,1.11,0,0,1,.23,1.23h0a1,1,0,0,1-.25.38A1.14,1.14,0,0,1,1025.33,132.47Zm16.77,5.8h0a1.13,1.13,0,0,1-.7-.9h0a1.07,1.07,0,0,1,.08-.59h0a1.15,1.15,0,0,1,.9-.7h0a1.15,1.15,0,0,1,1.28,1h0a1.18,1.18,0,0,1-.07.59h0a1.14,1.14,0,0,1-.91.69h0A1.24,1.24,0,0,1,1042.1,138.27Zm-19.57-9.43h0a1.12,1.12,0,0,1-.54-.47h0a1.15,1.15,0,0,1-.07-1h0a1,1,0,0,1,.46-.54h0a1.13,1.13,0,0,1,1.56.39h0a1.09,1.09,0,0,1,.08,1h0a1,1,0,0,1-.46.54A1.14,1.14,0,0,1,1022.53,128.84Zm24,8.3h0a1.14,1.14,0,0,1-.63-.66h0a1.16,1.16,0,0,1,0-.84h0a1.15,1.15,0,0,1,.65-.63h0a1.15,1.15,0,0,1,1.47.66h0a1.13,1.13,0,0,1,0,.85h0a1.15,1.15,0,0,1-.65.63A1.21,1.21,0,0,1,1046.54,137.14Zm-25.89-12.48h0a1.19,1.19,0,0,1-.66-.71h0a1.19,1.19,0,0,1,0-.77h0a1.18,1.18,0,0,1,.71-.67h0a1.15,1.15,0,0,1,1.44.75h0a1.13,1.13,0,0,1,0,.77h0a1.15,1.15,0,0,1-.72.66A1.13,1.13,0,0,1,1020.65,124.66Zm30,10.35h0a1.13,1.13,0,0,1-.51-.41h0a1.14,1.14,0,0,1-.11-1.07h0a1.1,1.1,0,0,1,.42-.52h0a1.14,1.14,0,0,1,1.58.29h0a1.15,1.15,0,0,1,.12,1.07h0a1.06,1.06,0,0,1-.42.52h0A1.11,1.11,0,0,1,1050.61,135Zm-30.84-14.86h0a1.14,1.14,0,0,1-.71-1h0a1.16,1.16,0,0,1,.09-.53h0a1.15,1.15,0,0,1,1-.7h0a1.15,1.15,0,0,1,1.22,1.05h0a1.31,1.31,0,0,1-.08.53h0a1.12,1.12,0,0,1-1,.69A1,1,0,0,1,1019.77,120.15ZM1054.08,132h0a1,1,0,0,1-.34-.22h0a1.11,1.11,0,0,1-.28-1.26h0a1.2,1.2,0,0,1,.21-.34h0a1.14,1.14,0,0,1,1.62-.07h0a1.16,1.16,0,0,1,.28,1.27h0a1.36,1.36,0,0,1-.21.34h0A1.15,1.15,0,0,1,1054.08,132ZM1020,115.57h0a1.13,1.13,0,0,1-.69-1.23h0a.72.72,0,0,1,.07-.25h0a1.12,1.12,0,0,1,1.23-.7h0a1.14,1.14,0,0,1,.95,1.31h0a2.17,2.17,0,0,1-.07.24h0a1.14,1.14,0,0,1-1.24.7A1,1,0,0,1,1020,115.57Zm36.8,12.72h0l-.12-.06h0a1.12,1.12,0,0,1-.5-1.42h0a.38.38,0,0,1,.06-.13h0a1.13,1.13,0,0,1,1.54-.44h0a1.14,1.14,0,0,1,.51,1.42h0l-.06.13A1.14,1.14,0,0,1,1056.76,128.29Zm-35.56-17.14h0a1.12,1.12,0,0,1-.62-1.48h0v0h0l0,0h0a1.15,1.15,0,0,1,1.49-.62h0a1.15,1.15,0,0,1,.62,1.49h0l0,.06h0A1.14,1.14,0,0,1,1021.2,111.15Zm37.31,12.9h0a1.15,1.15,0,0,1-.66-1.37h0a1.21,1.21,0,0,1,.05-.14h0a1.16,1.16,0,0,1,1.36-.65h0a1.14,1.14,0,0,1,.78,1.42h0a1.21,1.21,0,0,1,0,.14h0a1.14,1.14,0,0,1-1.36.64Zm-35-17h0a.94.94,0,0,1-.24-.13h0a1.14,1.14,0,0,1-.38-1.36h0a1,1,0,0,1,.13-.23h0a1.16,1.16,0,0,1,1.59-.26h0a1.15,1.15,0,0,1,.38,1.37h0a1,1,0,0,1-.12.23A1.14,1.14,0,0,1,1023.47,107.07Zm35.77,12.45h0a1.16,1.16,0,0,1-.71-1.1h0a1,1,0,0,1,.1-.39h0a1.12,1.12,0,0,1,1.1-.7h0a1.14,1.14,0,0,1,1.09,1.19h0a1.24,1.24,0,0,1-.09.38h0a1.16,1.16,0,0,1-1.1.71A1.24,1.24,0,0,1,1059.24,119.52Zm-32.67-15.82h0a1.18,1.18,0,0,1-.43-.31h0a1.14,1.14,0,0,1-.19-1.18h0a1.18,1.18,0,0,1,.31-.43h0a1.14,1.14,0,0,1,1.61.12h0a1.13,1.13,0,0,1,.19,1.18h0a1.07,1.07,0,0,1-.32.42A1.12,1.12,0,0,1,1026.57,103.7Zm32.34,11.24h0a1.1,1.1,0,0,1-.69-.84h0a1.16,1.16,0,0,1,.06-.64h0a1.17,1.17,0,0,1,.84-.7h0a1.15,1.15,0,0,1,1.34.91h0a1.25,1.25,0,0,1-.06.64h0a1.15,1.15,0,0,1-.84.7A1.08,1.08,0,0,1,1058.91,114.94Zm-28.54-13.82h0a1.13,1.13,0,0,1-.58-.52h0a1.17,1.17,0,0,1,0-.95h0a1.15,1.15,0,0,1,.54-.59h0a1.12,1.12,0,0,1,1.53.49h0a1.08,1.08,0,0,1,0,.94h0a1.13,1.13,0,0,1-.53.59A1.12,1.12,0,0,1,1030.37,101.12Zm27.15,9.45h0a1.21,1.21,0,0,1-.61-.59h0a1.17,1.17,0,0,1,0-.9h0a1.08,1.08,0,0,1,.59-.6h0a1.13,1.13,0,0,1,1.51.57h0a1.1,1.1,0,0,1,0,.89h0a1.1,1.1,0,0,1-.59.61A1.13,1.13,0,0,1,1057.52,110.57ZM1034.66,99.5h0a1.16,1.16,0,0,1-.68-.78h0A1.17,1.17,0,0,1,1034,98h0a1.13,1.13,0,0,1,.77-.67h0a1.15,1.15,0,0,1,1.39.83h0a1.17,1.17,0,0,1,0,.72h0a1.15,1.15,0,0,1-.78.66A1.07,1.07,0,0,1,1034.66,99.5Zm20.51,7.13h0a1.26,1.26,0,0,1-.47-.36h0a1.15,1.15,0,0,1-.15-1.14h0a1.24,1.24,0,0,1,.36-.47h0a1.15,1.15,0,0,1,1.6.22h0a1.13,1.13,0,0,1,.15,1.13h0a1.07,1.07,0,0,1-.36.46A1.14,1.14,0,0,1,1055.17,106.63Zm-16-7.74h0a1.13,1.13,0,0,1-.71-1h0a1.32,1.32,0,0,1,.08-.44h0a1.15,1.15,0,0,1,1-.71h0a1.14,1.14,0,0,1,1.16,1.12h0a1.23,1.23,0,0,1-.08.44h0a1.12,1.12,0,0,1-1.49.63Zm12.76,4.44h0a1.12,1.12,0,0,1-.28-.16h0a1.17,1.17,0,0,1-.34-1.32h0a1.22,1.22,0,0,1,.17-.29h0a1.14,1.14,0,0,1,1.61-.16h0a1.13,1.13,0,0,1,.33,1.31h0a1,1,0,0,1-.17.29A1.13,1.13,0,0,1,1052,103.33Zm-8.2-4h0a1.14,1.14,0,0,1-.68-1.3h0l.06-.19h0a1.15,1.15,0,0,1,1.31-.67h0a1.13,1.13,0,0,1,.86,1.36h0l-.06.19h0a1.16,1.16,0,0,1-1.3.68h0A.76.76,0,0,1,1043.77,99.36Zm4.34,1.51h0l-.07,0h0a1.16,1.16,0,0,1-.56-1.47h0a.33.33,0,0,1,0-.06h0a1.14,1.14,0,0,1,1.52-.53h0a1.12,1.12,0,0,1,.55,1.47h0l0,0A1.12,1.12,0,0,1,1048.11,100.87Z"/><path class="cls-1" d="M536.34,459.57a11.31,11.31,0,1,0,14.76-6.17A11.3,11.3,0,0,0,536.34,459.57Z"/><path class="cls-1" d="M538.83,486.72h0a1.33,1.33,0,0,1-.75-1.66h0l0-.06h0a1.3,1.3,0,0,1,1.65-.75h0a1.33,1.33,0,0,1,.82,1.68h0l0,.06h0a1.33,1.33,0,0,1-1.66.75ZM534,484.41h0l-.21-.1h0a1.36,1.36,0,0,1-.52-1.62h0a.82.82,0,0,1,.12-.2h0a1.3,1.3,0,0,1,1.81-.41h0a1.31,1.31,0,0,1,.53,1.61h0a1,1,0,0,1-.11.2A1.32,1.32,0,0,1,534,484.41Zm10,3.45h0a1.34,1.34,0,0,1-.82-1.35h0a2.11,2.11,0,0,1,.09-.36h0a1.35,1.35,0,0,1,1.36-.83h0a1.33,1.33,0,0,1,1.18,1.46h0a1.21,1.21,0,0,1-.08.34h0a1.32,1.32,0,0,1-1.36.83A1.12,1.12,0,0,1,544,487.86Zm-14.1-6.79h0a1.56,1.56,0,0,1-.44-.3h0a1.34,1.34,0,0,1-.28-1.43h0a1.67,1.67,0,0,1,.31-.44h0a1.3,1.3,0,0,1,1.86,0h0a1.32,1.32,0,0,1,.27,1.43h0a1.43,1.43,0,0,1-.3.44A1.33,1.33,0,0,1,529.91,481.07Zm19.41,6.71h0a1.31,1.31,0,0,1-.8-1h0a1.25,1.25,0,0,1,.08-.67h0a1.34,1.34,0,0,1,1-.81h0a1.31,1.31,0,0,1,1.48,1.13h0a1.42,1.42,0,0,1-.08.68h0a1.32,1.32,0,0,1-1.06.8h0A1.54,1.54,0,0,1,549.32,487.78Zm-22.65-10.92h0a1.29,1.29,0,0,1-.62-.54h0a1.3,1.3,0,0,1-.09-1.18h0a1.22,1.22,0,0,1,.54-.63h0a1.31,1.31,0,0,1,1.81.46h0a1.27,1.27,0,0,1,.09,1.18h0a1.33,1.33,0,0,1-1.73.71Zm27.8,9.61h0a1.3,1.3,0,0,1-.73-.76h0a1.3,1.3,0,0,1,0-1h0a1.34,1.34,0,0,1,.75-.73h0a1.32,1.32,0,0,1,1.7.76h0a1.35,1.35,0,0,1,0,1h0a1.33,1.33,0,0,1-.75.72A1.35,1.35,0,0,1,554.47,486.47Zm-30-14.45h0a1.32,1.32,0,0,1-.76-.82h0a1.35,1.35,0,0,1,0-.89h0a1.28,1.28,0,0,1,.82-.77h0a1.33,1.33,0,0,1,1.66.86h0a1.29,1.29,0,0,1,0,.89h0a1.32,1.32,0,0,1-1.73.73Zm34.69,12h0a1.26,1.26,0,0,1-.59-.48h0a1.29,1.29,0,0,1-.13-1.24h0a1.31,1.31,0,0,1,.48-.6h0a1.32,1.32,0,0,1,1.83.34h0a1.35,1.35,0,0,1,.14,1.24h0a1.3,1.3,0,0,1-.49.6h0A1.32,1.32,0,0,1,559.18,484Zm-35.7-17.2h0a1.33,1.33,0,0,1-.82-1.12h0a1.29,1.29,0,0,1,.1-.62h0a1.34,1.34,0,0,1,1.12-.8h0a1.31,1.31,0,0,1,1.41,1.22h0a1.33,1.33,0,0,1-.09.6h0a1.33,1.33,0,0,1-1.72.72Zm39.71,13.73h0a1.33,1.33,0,0,1-.39-.26h0a1.33,1.33,0,0,1-.33-1.47h0a1.84,1.84,0,0,1,.25-.39h0a1.32,1.32,0,0,1,1.87-.08h0a1.33,1.33,0,0,1,.33,1.48h0a1.32,1.32,0,0,1-.25.38h0A1.32,1.32,0,0,1,563.19,480.54Zm-39.49-19h0a1.31,1.31,0,0,1-.81-1.42h0a2,2,0,0,1,.08-.29h0a1.32,1.32,0,0,1,1.43-.82h0a1.33,1.33,0,0,1,1.1,1.52h0a1.29,1.29,0,0,1-.08.28h0a1.33,1.33,0,0,1-1.43.81A1,1,0,0,1,523.7,461.5Zm42.6,14.73h0l-.15-.07h0a1.33,1.33,0,0,1-.58-1.65h0a.55.55,0,0,1,.08-.15h0a1.3,1.3,0,0,1,1.79-.51h0a1.34,1.34,0,0,1,.59,1.64h0l-.07.15A1.33,1.33,0,0,1,566.3,476.23Zm-41.17-19.84h0a1.31,1.31,0,0,1-.72-1.72h0l0,0h0l0-.05h0a1.33,1.33,0,0,1,1.73-.72h0a1.33,1.33,0,0,1,.71,1.73h0l0,.06h0v0A1.31,1.31,0,0,1,525.13,456.39Zm43.2,14.92h0a1.31,1.31,0,0,1-.77-1.58h0a1,1,0,0,1,.05-.16h0a1.33,1.33,0,0,1,1.58-.75h0a1.32,1.32,0,0,1,.9,1.64h0a1.42,1.42,0,0,1-.05.16h0a1.31,1.31,0,0,1-1.57.74Zm-40.57-19.64h0a1.43,1.43,0,0,1-.27-.15h0a1.33,1.33,0,0,1-.45-1.59h0a1.35,1.35,0,0,1,.15-.26h0a1.33,1.33,0,0,1,1.84-.3h0a1.32,1.32,0,0,1,.45,1.58h0a1.17,1.17,0,0,1-.15.27A1.34,1.34,0,0,1,527.76,451.67Zm41.41,14.4h0a1.32,1.32,0,0,1-.82-1.28h0a1.19,1.19,0,0,1,.11-.45h0a1.3,1.3,0,0,1,1.27-.8h0a1.31,1.31,0,0,1,1.26,1.37h0a1.34,1.34,0,0,1-.09.45h0a1.35,1.35,0,0,1-1.28.81A1.1,1.1,0,0,1,569.17,466.07Zm-37.82-18.31h0a1.36,1.36,0,0,1-.5-.36h0a1.35,1.35,0,0,1-.22-1.37h0a1.55,1.55,0,0,1,.36-.5h0a1.32,1.32,0,0,1,1.86.14h0a1.3,1.3,0,0,1,.22,1.37h0a1.2,1.2,0,0,1-.36.49A1.31,1.31,0,0,1,531.35,447.76Zm37.43,13h0a1.34,1.34,0,0,1-.8-1h0a1.42,1.42,0,0,1,.08-.74h0a1.32,1.32,0,0,1,1-.81h0a1.34,1.34,0,0,1,1.55,1.06h0a1.39,1.39,0,0,1-.07.73h0a1.33,1.33,0,0,1-1,.81A1.35,1.35,0,0,1,568.78,460.78Zm-33-16h0a1.34,1.34,0,0,1-.66-.61h0a1.33,1.33,0,0,1-.06-1.1h0a1.32,1.32,0,0,1,.62-.68h0a1.31,1.31,0,0,1,1.78.56h0a1.29,1.29,0,0,1,.05,1.1h0a1.27,1.27,0,0,1-.61.68A1.37,1.37,0,0,1,535.74,444.78Zm31.44,10.93h0a1.31,1.31,0,0,1-.71-.68h0a1.34,1.34,0,0,1,0-1h0a1.26,1.26,0,0,1,.68-.7h0a1.31,1.31,0,0,1,1.75.66h0a1.34,1.34,0,0,1,0,1h0a1.35,1.35,0,0,1-.69.7A1.3,1.3,0,0,1,567.18,455.71ZM540.71,442.9h0a1.36,1.36,0,0,1-.78-.9h0a1.3,1.3,0,0,1,.07-.83h0a1.27,1.27,0,0,1,.89-.78h0a1.32,1.32,0,0,1,1.6.95h0a1.33,1.33,0,0,1,0,.84h0a1.35,1.35,0,0,1-1.73.72Zm23.74,8.25h0a1.44,1.44,0,0,1-.54-.42h0a1.3,1.3,0,0,1-.17-1.31h0a1.28,1.28,0,0,1,.42-.54h0a1.32,1.32,0,0,1,1.85.24h0a1.37,1.37,0,0,1,.17,1.32h0a1.26,1.26,0,0,1-.42.53A1.33,1.33,0,0,1,564.45,451.15ZM546,442.2h0a1.34,1.34,0,0,1-.82-1.21h0a1.44,1.44,0,0,1,.09-.51h0a1.35,1.35,0,0,1,1.21-.83h0A1.33,1.33,0,0,1,547.8,441h0a1.25,1.25,0,0,1-.1.51h0a1.32,1.32,0,0,1-1.2.83A1.5,1.5,0,0,1,546,442.2Zm14.78,5.14h0a1.12,1.12,0,0,1-.33-.2h0a1.34,1.34,0,0,1-.4-1.52h0a1.31,1.31,0,0,1,.21-.33h0a1.3,1.3,0,0,1,1.85-.19h0a1.3,1.3,0,0,1,.39,1.51h0a1.17,1.17,0,0,1-.2.34A1.32,1.32,0,0,1,560.76,447.34Zm-9.5-4.6h0a1.31,1.31,0,0,1-.78-1.51h0a.94.94,0,0,1,.07-.22h0a1.32,1.32,0,0,1,1.51-.78h0a1.33,1.33,0,0,1,1,1.58h0a1.87,1.87,0,0,1-.07.22h0a1.32,1.32,0,0,1-1.5.78h0Zm5,1.75h0l-.08,0h0a1.34,1.34,0,0,1-.64-1.71h0l0-.06h0a1.31,1.31,0,0,1,1.76-.61h0a1.31,1.31,0,0,1,.64,1.7h0l0,.06A1.33,1.33,0,0,1,556.28,444.49Z"/><path class="cls-1" d="M561.29,666.81a8.3,8.3,0,1,0,10.83-4.52A8.3,8.3,0,0,0,561.29,666.81Z"/><path class="cls-1" d="M563.11,686.74h0a1,1,0,0,1-.54-1.21h0v0h0a1,1,0,0,1,1.22-.55h0a1,1,0,0,1,.6,1.23h0l0,.05h0a1,1,0,0,1-1.22.55Zm-3.51-1.69h0a.55.55,0,0,1-.15-.08h0a1,1,0,0,1-.38-1.18h0a1.09,1.09,0,0,1,.08-.15h0a1,1,0,0,1,1.33-.3h0a1,1,0,0,1,.39,1.18h0a.71.71,0,0,1-.08.15A1,1,0,0,1,559.6,685.05Zm7.32,2.53h0a1,1,0,0,1-.6-1h0a1.1,1.1,0,0,1,.06-.26h0a1,1,0,0,1,1-.61h0a1,1,0,0,1,.87,1.07h0a1,1,0,0,1-.06.25h0a1,1,0,0,1-1,.61A.83.83,0,0,1,566.92,687.58Zm-10.35-5h0a1.14,1.14,0,0,1-.32-.22h0a1,1,0,0,1-.21-1h0a1,1,0,0,1,.23-.32h0a1,1,0,0,1,1.36,0h0a.94.94,0,0,1,.2,1h0a1,1,0,0,1-.22.33A1,1,0,0,1,556.57,682.6Zm14.25,4.92h0a1,1,0,0,1-.59-.77h0a.9.9,0,0,1,.06-.49h0a1,1,0,0,1,.77-.59h0a1,1,0,0,1,1.09.83h0a.91.91,0,0,1-.07.49h0a.94.94,0,0,1-.77.59h0A1,1,0,0,1,570.82,687.52Zm-16.63-8h0a1,1,0,0,1-.46-.4h0a1,1,0,0,1-.06-.86h0a.9.9,0,0,1,.39-.47h0a1,1,0,0,1,1.33.34h0a.94.94,0,0,1,.07.86h0a.89.89,0,0,1-.4.46A1,1,0,0,1,554.19,679.51Zm20.4,7h0a1,1,0,0,1-.53-.55h0a.94.94,0,0,1,0-.72h0a1,1,0,0,1,.55-.54h0a1,1,0,0,1,1.25.57h0a1,1,0,0,1,0,.72h0a1,1,0,0,1-1.27.52Zm-22-10.61h0a1,1,0,0,1-.55-.59h0a1,1,0,0,1,0-.66h0a1,1,0,0,1,.6-.57h0a1,1,0,0,1,1.22.64h0a1,1,0,0,1,0,.65h0a1,1,0,0,1-.61.56A.89.89,0,0,1,552.59,676Zm25.46,8.8h0a1,1,0,0,1-.43-.35h0a.94.94,0,0,1-.1-.9h0a1,1,0,0,1,.36-.45h0a1,1,0,0,1,1.34.25h0a1,1,0,0,1,.1.91h0a1,1,0,0,1-.36.44h0A1,1,0,0,1,578.05,684.75Zm-26.2-12.62h0a1,1,0,0,1-.6-.82h0a1,1,0,0,1,.07-.45h0a1,1,0,0,1,.82-.59h0a1,1,0,0,1,1,.89h0a1,1,0,0,1-.07.45h0a1,1,0,0,1-.82.59A1,1,0,0,1,551.85,672.13ZM581,682.21h0a1,1,0,0,1-.29-.19h0a1,1,0,0,1-.24-1.08h0a1,1,0,0,1,.18-.29h0a1,1,0,0,1,1.37,0h0a1,1,0,0,1,.24,1.08h0a.84.84,0,0,1-.18.28h0A1,1,0,0,1,581,682.21Zm-29-14h0a.94.94,0,0,1-.59-1h0a.65.65,0,0,1,.06-.21h0a1,1,0,0,1,1-.6h0a1,1,0,0,1,.8,1.11h0a.83.83,0,0,1-.06.21h0a1,1,0,0,1-1,.59A.51.51,0,0,1,552,668.23ZM583.28,679h0l-.11,0h0a1,1,0,0,1-.42-1.21h0l0-.11h0a1,1,0,0,1,1.31-.37h0a1,1,0,0,1,.44,1.2h0a.54.54,0,0,1-.06.11A1,1,0,0,1,583.28,679Zm-30.22-14.56h0a1,1,0,0,1-.53-1.26h0v0h0l0,0h0a1,1,0,0,1,1.27-.52h0a1,1,0,0,1,.52,1.27h0l0,0h0v0A1,1,0,0,1,553.06,664.48Zm31.71,11h0a1,1,0,0,1-.57-1.16h0s0-.08,0-.12h0a1,1,0,0,1,1.16-.55h0a1,1,0,0,1,.66,1.2h0a.84.84,0,0,1,0,.12h0a1,1,0,0,1-1.15.54ZM555,661h0l-.2-.11h0a1,1,0,0,1-.33-1.17h0l.11-.19h0a1,1,0,0,1,1.35-.22h0a1,1,0,0,1,.33,1.16h0a.78.78,0,0,1-.11.2A1,1,0,0,1,555,661Zm30.39,10.57h0a1,1,0,0,1-.6-.94h0a1.23,1.23,0,0,1,.08-.33h0a1,1,0,0,1,.94-.59h0a1,1,0,0,1,.92,1h0a.88.88,0,0,1-.07.32h0a1,1,0,0,1-.93.6A.94.94,0,0,1,585.38,671.59Zm-27.75-13.44h0a1,1,0,0,1-.37-.27h0a1,1,0,0,1-.16-1h0a.93.93,0,0,1,.26-.37h0a1,1,0,0,1,1.37.11h0a.94.94,0,0,1,.16,1h0a.86.86,0,0,1-.27.36A1,1,0,0,1,557.63,658.15Zm27.47,9.55h0a1,1,0,0,1-.59-.71h0a1,1,0,0,1,.06-.55h0a1,1,0,0,1,.71-.59h0a1,1,0,0,1,1.14.77h0a1.09,1.09,0,0,1,0,.54h0a1,1,0,0,1-.72.6A1,1,0,0,1,585.1,667.7ZM560.85,656h0a1,1,0,0,1-.49-.45h0a1,1,0,0,1,0-.8h0a1,1,0,0,1,.45-.5h0a1,1,0,0,1,1.31.41h0a.94.94,0,0,1,0,.8h0a.89.89,0,0,1-.45.5A1,1,0,0,1,560.85,656Zm23.08,8h0a1,1,0,0,1-.53-.5h0a1,1,0,0,1,0-.77h0a.91.91,0,0,1,.49-.51h0a1,1,0,0,1,1.29.48h0a1,1,0,0,1,0,.76h0a.94.94,0,0,1-.5.52A1,1,0,0,1,583.93,664Zm-19.43-9.41h0a1,1,0,0,1-.58-.66h0a1,1,0,0,1,.05-.61h0a1,1,0,0,1,.66-.57h0a1,1,0,0,1,1.17.7h0a.91.91,0,0,1,0,.61h0a1,1,0,0,1-.66.57A.94.94,0,0,1,564.5,654.58Zm17.42,6.06h0a1.08,1.08,0,0,1-.4-.31h0a1,1,0,0,1-.12-1h0a.91.91,0,0,1,.31-.4h0a1,1,0,0,1,1.35.18h0a1,1,0,0,1,.13,1h0a1,1,0,0,1-.31.39A1,1,0,0,1,581.92,660.64Zm-13.56-6.58h0a1,1,0,0,1-.6-.88h0a1.11,1.11,0,0,1,.07-.37h0a1,1,0,0,1,.89-.61h0a1,1,0,0,1,1,.95h0a.92.92,0,0,1-.07.38h0a1,1,0,0,1-1.27.53Zm10.85,3.78h0a1.49,1.49,0,0,1-.24-.14h0a1,1,0,0,1-.29-1.12h0a.83.83,0,0,1,.15-.25h0a1,1,0,0,1,1.36-.14h0a1,1,0,0,1,.29,1.11h0a.84.84,0,0,1-.15.26A1,1,0,0,1,579.21,657.84Zm-7-3.38h0a1,1,0,0,1-.58-1.11h0a1.66,1.66,0,0,1,.06-.16h0a1,1,0,0,1,1.1-.57h0a1,1,0,0,1,.74,1.16h0a1,1,0,0,1-.06.16h0a1,1,0,0,1-1.1.58h0Zm3.69,1.29h0l-.06,0h0a1,1,0,0,1-.48-1.25h0l0,0h0a1,1,0,0,1,1.29-.45h0a1,1,0,0,1,.47,1.25h0l0,0A1,1,0,0,1,575.93,655.75Z"/><path class="cls-1" d="M299.63,743.14a11.13,11.13,0,1,0,14.52-6.06A11.13,11.13,0,0,0,299.63,743.14Z"/><path class="cls-1" d="M302.07,769.85h0a1.31,1.31,0,0,1-.73-1.63h0l0-.06h0a1.28,1.28,0,0,1,1.62-.74h0a1.3,1.3,0,0,1,.81,1.65h0l0,.06h0a1.3,1.3,0,0,1-1.63.74Zm-4.71-2.27h0l-.2-.1h0a1.33,1.33,0,0,1-.51-1.59h0a.82.82,0,0,1,.12-.2h0a1.27,1.27,0,0,1,1.78-.4h0a1.31,1.31,0,0,1,.52,1.58h0a1,1,0,0,1-.11.2A1.31,1.31,0,0,1,297.36,767.58Zm9.81,3.39h0a1.31,1.31,0,0,1-.8-1.33h0a1.13,1.13,0,0,1,.09-.35h0a1.3,1.3,0,0,1,1.34-.81h0a1.31,1.31,0,0,1,1.16,1.43h0a1,1,0,0,1-.09.34h0a1.3,1.3,0,0,1-1.33.82A1.44,1.44,0,0,1,307.17,771Zm-13.87-6.68h0a1.31,1.31,0,0,1-.43-.29h0a1.33,1.33,0,0,1-.27-1.41h0a1.28,1.28,0,0,1,.3-.43h0a1.29,1.29,0,0,1,1.83,0h0a1.29,1.29,0,0,1,.27,1.4h0a1.6,1.6,0,0,1-.29.44A1.33,1.33,0,0,1,293.3,764.29Zm19.1,6.6h0a1.3,1.3,0,0,1-.8-1h0a1.33,1.33,0,0,1,.09-.66h0a1.3,1.3,0,0,1,1-.8h0a1.3,1.3,0,0,1,1.46,1.12h0a1.23,1.23,0,0,1-.09.66h0a1.31,1.31,0,0,1-1,.8h0A1.48,1.48,0,0,1,312.4,770.89Zm-22.28-10.73h0a1.35,1.35,0,0,1-.62-.54h0a1.29,1.29,0,0,1-.08-1.16h0a1.27,1.27,0,0,1,.53-.62h0a1.29,1.29,0,0,1,1.78.45h0a1.29,1.29,0,0,1,.09,1.16h0a1.27,1.27,0,0,1-.53.62A1.31,1.31,0,0,1,290.12,760.16Zm27.34,9.44h0a1.28,1.28,0,0,1-.72-.74h0a1.32,1.32,0,0,1,0-1h0a1.34,1.34,0,0,1,.74-.72h0a1.3,1.3,0,0,1,1.67.75h0a1.25,1.25,0,0,1,0,1h0a1.28,1.28,0,0,1-.73.71A1.32,1.32,0,0,1,317.46,769.6ZM288,755.39h0a1.3,1.3,0,0,1-.75-.8h0a1.32,1.32,0,0,1,0-.88h0a1.35,1.35,0,0,1,.81-.76h0a1.32,1.32,0,0,1,1.64.85h0a1.27,1.27,0,0,1,0,.88h0a1.29,1.29,0,0,1-.81.75A1.26,1.26,0,0,1,288,755.39Zm34.11,11.79h0a1.26,1.26,0,0,1-.58-.47h0a1.28,1.28,0,0,1-.13-1.21h0a1.3,1.3,0,0,1,.48-.59h0a1.28,1.28,0,0,1,1.79.34h0a1.31,1.31,0,0,1,.14,1.22h0a1.28,1.28,0,0,1-.47.59h0A1.32,1.32,0,0,1,322.09,767.18ZM287,750.26h0a1.3,1.3,0,0,1-.81-1.09h0a1.54,1.54,0,0,1,.1-.61h0a1.31,1.31,0,0,1,1.1-.79h0a1.29,1.29,0,0,1,1.39,1.2h0a1.29,1.29,0,0,1-.09.59h0a1.28,1.28,0,0,1-1.1.8A1.17,1.17,0,0,1,287,750.26ZM326,763.77h0a1.32,1.32,0,0,1-.38-.25h0a1.29,1.29,0,0,1-.33-1.44h0a1.36,1.36,0,0,1,.25-.39h0a1.3,1.3,0,0,1,1.84-.08h0a1.32,1.32,0,0,1,.32,1.45h0a1.52,1.52,0,0,1-.24.38h0A1.31,1.31,0,0,1,326,763.77Zm-38.85-18.72h0a1.3,1.3,0,0,1-.79-1.4h0a2,2,0,0,1,.08-.29h0a1.29,1.29,0,0,1,1.41-.8h0a1.31,1.31,0,0,1,1.08,1.49h0a1.29,1.29,0,0,1-.08.28h0a1.32,1.32,0,0,1-1.41.8Zm41.9,14.48h0l-.14-.07h0a1.3,1.3,0,0,1-.57-1.62h0l.07-.14h0a1.29,1.29,0,0,1,1.76-.51h0a1.3,1.3,0,0,1,.58,1.62h0l-.07.15A1.3,1.3,0,0,1,329.09,759.53ZM288.6,740h0a1.29,1.29,0,0,1-.7-1.7h0v0h0l0,0h0a1.31,1.31,0,0,1,1.7-.71h0a1.29,1.29,0,0,1,.7,1.7h0l0,.07h0A1.3,1.3,0,0,1,288.6,740Zm42.49,14.68h0a1.31,1.31,0,0,1-.76-1.56h0l.06-.15h0a1.3,1.3,0,0,1,1.55-.74h0a1.3,1.3,0,0,1,.89,1.61h0a.47.47,0,0,1-.06.15h0a1.29,1.29,0,0,1-1.54.74Zm-39.9-19.33h0a.91.91,0,0,1-.27-.15h0a1.31,1.31,0,0,1-.44-1.55h0a1.35,1.35,0,0,1,.15-.26h0a1.3,1.3,0,0,1,1.81-.29h0a1.29,1.29,0,0,1,.44,1.55h0a1.1,1.1,0,0,1-.15.26A1.28,1.28,0,0,1,291.19,735.37Zm40.73,14.17h0a1.32,1.32,0,0,1-.81-1.25h0a1.35,1.35,0,0,1,.11-.45h0a1.27,1.27,0,0,1,1.25-.79h0a1.29,1.29,0,0,1,1.24,1.35h0a1.28,1.28,0,0,1-.09.44h0a1.34,1.34,0,0,1-1.26.8A1.29,1.29,0,0,1,331.92,749.54Zm-37.2-18h0a1.38,1.38,0,0,1-.49-.35h0a1.32,1.32,0,0,1-.22-1.35h0a1.41,1.41,0,0,1,.36-.49h0a1.3,1.3,0,0,1,1.83.14h0a1.29,1.29,0,0,1,.22,1.34h0a1.32,1.32,0,0,1-1.7.71Zm36.82,12.8h0a1.32,1.32,0,0,1-.79-1h0a1.25,1.25,0,0,1,.08-.72h0a1.28,1.28,0,0,1,.95-.8h0a1.3,1.3,0,0,1,1.52,1h0a1.35,1.35,0,0,1-.06.72h0a1.31,1.31,0,0,1-1,.79A1.22,1.22,0,0,1,331.54,744.33ZM299,728.6h0a1.35,1.35,0,0,1-.65-.6h0a1.28,1.28,0,0,1-.06-1.08h0a1.32,1.32,0,0,1,.61-.67h0a1.29,1.29,0,0,1,1.75.55h0a1.28,1.28,0,0,1,.05,1.08h0a1.3,1.3,0,0,1-.6.67A1.33,1.33,0,0,1,299,728.6ZM330,739.35h0a1.34,1.34,0,0,1-.7-.67h0a1.29,1.29,0,0,1,0-1h0a1.21,1.21,0,0,1,.66-.69h0a1.29,1.29,0,0,1,1.72.65h0a1.29,1.29,0,0,1,0,1h0a1.28,1.28,0,0,1-.68.69A1.25,1.25,0,0,1,330,739.35Zm-26-12.6h0a1.31,1.31,0,0,1-.77-.89h0a1.28,1.28,0,0,1,.07-.82h0a1.3,1.3,0,0,1,.87-.76h0a1.3,1.3,0,0,1,1.58.94h0a1.27,1.27,0,0,1-.06.82h0a1.29,1.29,0,0,1-.88.76A1.31,1.31,0,0,1,303.93,726.75Zm23.35,8.11h0a1.39,1.39,0,0,1-.54-.4h0a1.3,1.3,0,0,1-.16-1.3h0a1.23,1.23,0,0,1,.41-.53h0a1.3,1.3,0,0,1,1.82.24h0a1.33,1.33,0,0,1,.17,1.3h0a1.28,1.28,0,0,1-.41.52A1.32,1.32,0,0,1,327.28,734.86Zm-18.17-8.8h0a1.32,1.32,0,0,1-.81-1.18h0a1.22,1.22,0,0,1,.1-.51h0a1.29,1.29,0,0,1,1.18-.81h0a1.3,1.3,0,0,1,1.32,1.28h0a1.35,1.35,0,0,1-.09.5h0a1.32,1.32,0,0,1-1.19.82A1.45,1.45,0,0,1,309.11,726.06Zm14.53,5.05h0a1.08,1.08,0,0,1-.32-.19h0a1.31,1.31,0,0,1-.39-1.49h0a1.12,1.12,0,0,1,.2-.33h0a1.3,1.3,0,0,1,1.83-.19h0a1.29,1.29,0,0,1,.38,1.49h0a1.08,1.08,0,0,1-.2.34A1.29,1.29,0,0,1,323.64,731.11Zm-9.33-4.52h0a1.29,1.29,0,0,1-.78-1.48h0a1.87,1.87,0,0,1,.07-.22h0a1.3,1.3,0,0,1,1.49-.76h0a1.3,1.3,0,0,1,1,1.55h0a1.72,1.72,0,0,1-.07.21h0a1.3,1.3,0,0,1-1.48.77h0Zm4.93,1.72h0l-.08,0h0a1.31,1.31,0,0,1-.63-1.67h0a.13.13,0,0,1,0-.06h0a1.27,1.27,0,0,1,1.72-.6h0a1.27,1.27,0,0,1,.63,1.67h0l0,.06A1.29,1.29,0,0,1,319.24,728.31Z"/><circle class="cls-1" cx="1101.94" cy="253.86" r="27.46" transform="translate(-12.73 444.18) rotate(-22.66)"/><path class="cls-1" d="M1082.57,309.34h0a3.23,3.23,0,0,1-1.81-4h0l.07-.15h0a3.17,3.17,0,0,1,4-1.82h0a3.21,3.21,0,0,1,2,4.07h0l-.07.16h0a3.21,3.21,0,0,1-4,1.81A.47.47,0,0,1,1082.57,309.34ZM1071,303.73h0a2.34,2.34,0,0,1-.5-.25h0a3.24,3.24,0,0,1-1.25-3.91h0a2.49,2.49,0,0,1,.27-.51h0a3.19,3.19,0,0,1,4.41-1h0a3.22,3.22,0,0,1,1.27,3.92h0a2,2,0,0,1-.27.49A3.19,3.19,0,0,1,1071,303.73Zm24.21,8.37h0a3.22,3.22,0,0,1-2-3.28h0a3.49,3.49,0,0,1,.21-.86h0a3.24,3.24,0,0,1,3.31-2h0a3.22,3.22,0,0,1,2.86,3.53h0a3.33,3.33,0,0,1-.2.84h0a3.21,3.21,0,0,1-3.3,2A3.32,3.32,0,0,1,1095.16,312.1Zm-34.23-16.48h0a3.5,3.5,0,0,1-1.06-.72h0a3.22,3.22,0,0,1-.67-3.48h0a3.65,3.65,0,0,1,.73-1.06h0a3.17,3.17,0,0,1,4.52.07h0a3.16,3.16,0,0,1,.66,3.46h0a3.18,3.18,0,0,1-4.18,1.73Zm47.13,16.29h0a3.19,3.19,0,0,1-2-2.54h0a3.09,3.09,0,0,1,.21-1.64h0a3.19,3.19,0,0,1,2.54-2h0a3.18,3.18,0,0,1,3.6,2.75h0a3.26,3.26,0,0,1-.21,1.64h0a3.21,3.21,0,0,1-2.56,2h0A3.31,3.31,0,0,1,1108.06,311.91Zm-55-26.5h0a3.18,3.18,0,0,1-1.51-1.31h0a3.2,3.2,0,0,1-.22-2.86h0a3.08,3.08,0,0,1,1.31-1.55h0a3.19,3.19,0,0,1,4.39,1.12h0a3.1,3.1,0,0,1,.23,2.86h0a3.16,3.16,0,0,1-1.31,1.52A3.19,3.19,0,0,1,1053.07,285.41Zm67.47,23.32h0a3.14,3.14,0,0,1-1.76-1.84h0a3.13,3.13,0,0,1,0-2.37h0a3.18,3.18,0,0,1,1.81-1.77h0a3.22,3.22,0,0,1,4.13,1.86h0a3.14,3.14,0,0,1,0,2.39h0a3.18,3.18,0,0,1-1.81,1.75A3.23,3.23,0,0,1,1120.54,308.73Zm-72.76-35.08h0a3.2,3.2,0,0,1-1.84-2h0a3.25,3.25,0,0,1,.08-2.16h0a3.27,3.27,0,0,1,2-1.88h0a3.24,3.24,0,0,1,4,2.1h0a3.19,3.19,0,0,1-.09,2.16h0a3.18,3.18,0,0,1-2,1.85A3.11,3.11,0,0,1,1047.78,273.65Zm84.2,29.1h0a3.11,3.11,0,0,1-1.43-1.16h0a3.14,3.14,0,0,1-.32-3h0a3.18,3.18,0,0,1,1.18-1.46v0a3.19,3.19,0,0,1,4.44.84h0a3.23,3.23,0,0,1,.33,3h0a3.3,3.3,0,0,1-1.17,1.46h0A3.21,3.21,0,0,1,1132,302.75ZM1045.32,261h0a3.21,3.21,0,0,1-2-2.71h0a3.37,3.37,0,0,1,.25-1.49h0a3.2,3.2,0,0,1,2.72-2h0a3.21,3.21,0,0,1,3.43,3h0a3.15,3.15,0,0,1-.24,1.47h0a3.18,3.18,0,0,1-2.72,2A3.1,3.1,0,0,1,1045.32,261Zm96.41,33.33h0a2.89,2.89,0,0,1-1-.62h0a3.18,3.18,0,0,1-.8-3.56h0a3.35,3.35,0,0,1,.6-1h0a3.22,3.22,0,0,1,4.54-.19h0a3.24,3.24,0,0,1,.79,3.58h0a3.45,3.45,0,0,1-.59.94h0A3.2,3.2,0,0,1,1141.73,294.33Zm-95.88-46.21h0a3.18,3.18,0,0,1-1.95-3.45h0a3,3,0,0,1,.2-.71h0a3.17,3.17,0,0,1,3.46-2h0a3.21,3.21,0,0,1,2.67,3.68h0a3.9,3.9,0,0,1-.19.69h0a3.23,3.23,0,0,1-3.49,2A2.81,2.81,0,0,1,1045.85,248.12Zm103.41,35.75h0l-.35-.17h0a3.18,3.18,0,0,1-1.4-4h0a1.91,1.91,0,0,1,.17-.36h0a3.17,3.17,0,0,1,4.34-1.24h0a3.21,3.21,0,0,1,1.44,4h0c-.06.14-.13.25-.18.37A3.2,3.2,0,0,1,1149.26,283.87Zm-99.93-48.15h0a3.22,3.22,0,0,1-1.75-4.19h0l0-.09h0l.05-.12h0a3.24,3.24,0,0,1,4.2-1.74h0a3.18,3.18,0,0,1,1.72,4.19h0l-.06.16h0l0,0A3.2,3.2,0,0,1,1049.33,235.72Zm104.85,36.22h0a3.2,3.2,0,0,1-1.86-3.84h0a2.84,2.84,0,0,1,.13-.38h0a3.23,3.23,0,0,1,3.83-1.83h0a3.22,3.22,0,0,1,2.2,4h0a2.22,2.22,0,0,1-.14.38h0a3.18,3.18,0,0,1-3.81,1.81A2.38,2.38,0,0,1,1154.18,271.94Zm-98.47-47.69h0a2.9,2.9,0,0,1-.66-.37h0a3.22,3.22,0,0,1-1.08-3.83h0a4,4,0,0,1,.35-.64h0a3.24,3.24,0,0,1,4.48-.73h0a3.21,3.21,0,0,1,1.08,3.84h0a2.65,2.65,0,0,1-.36.64A3.2,3.2,0,0,1,1055.71,224.25Zm100.51,35h0a3.24,3.24,0,0,1-2-3.1h0a3,3,0,0,1,.26-1.09h0a3.19,3.19,0,0,1,3.1-2h0a3.19,3.19,0,0,1,3.06,3.34h0a3.16,3.16,0,0,1-.24,1.08h0a3.24,3.24,0,0,1-3.1,2A3.14,3.14,0,0,1,1156.22,259.22Zm-91.79-44.46h0a3.2,3.2,0,0,1-1.21-.87h0a3.22,3.22,0,0,1-.54-3.31h0a3.34,3.34,0,0,1,.87-1.22h0a3.23,3.23,0,0,1,4.53.34h0a3.17,3.17,0,0,1,.53,3.31h0a3,3,0,0,1-.88,1.21A3.18,3.18,0,0,1,1064.43,214.76Zm90.86,31.61h0a3.25,3.25,0,0,1-1.94-2.37h0a3.23,3.23,0,0,1,.19-1.8h0a3.18,3.18,0,0,1,2.35-2h0a3.2,3.2,0,0,1,3.75,2.56h0a3.25,3.25,0,0,1-.15,1.78h0a3.24,3.24,0,0,1-4.2,1.79Zm-80.19-38.85h0a3.09,3.09,0,0,1-1.62-1.47h0a3.25,3.25,0,0,1-.15-2.67h0a3.21,3.21,0,0,1,1.51-1.64h0a3.18,3.18,0,0,1,4.32,1.35h0a3.17,3.17,0,0,1,.13,2.67h0a3.11,3.11,0,0,1-1.49,1.65A3.2,3.2,0,0,1,1075.1,207.52Zm76.3,26.55h0a3.22,3.22,0,0,1-1.72-1.65h0a3.18,3.18,0,0,1,0-2.53h0a3,3,0,0,1,1.64-1.7h0a3.19,3.19,0,0,1,4.24,1.6h0a3.16,3.16,0,0,1,0,2.52h0a3.24,3.24,0,0,1-4.19,1.76ZM1087.16,203h0a3.21,3.21,0,0,1-1.9-2.19h0a3.2,3.2,0,0,1,.16-2h0a3.15,3.15,0,0,1,2.16-1.88h0a3.22,3.22,0,0,1,3.9,2.31h0a3.33,3.33,0,0,1-.14,2h0a3.28,3.28,0,0,1-2.18,1.87A3.09,3.09,0,0,1,1087.16,203Zm57.62,20h0a3.34,3.34,0,0,1-1.32-1h0a3.19,3.19,0,0,1-.4-3.19h0a3.1,3.1,0,0,1,1-1.32h0a3.21,3.21,0,0,1,4.49.59h0a3.26,3.26,0,0,1,.42,3.2h0a3,3,0,0,1-1,1.29A3.22,3.22,0,0,1,1144.78,223Zm-44.84-21.73h0a3.22,3.22,0,0,1-2-2.92h0a3.15,3.15,0,0,1,.23-1.24h0a3.23,3.23,0,0,1,2.93-2h0a3.23,3.23,0,0,1,3.25,3.16h0a3.43,3.43,0,0,1-.23,1.25h0a3.21,3.21,0,0,1-2.93,2A3.14,3.14,0,0,1,1099.94,201.26Zm35.87,12.48h0a3.64,3.64,0,0,1-.8-.47h0a3.26,3.26,0,0,1-1-3.7h0a3.36,3.36,0,0,1,.5-.81h0a3.21,3.21,0,0,1,4.51-.46h0A3.18,3.18,0,0,1,1140,212h0a3,3,0,0,1-.49.84A3.22,3.22,0,0,1,1135.81,213.74Zm-23-11.16h0a3.18,3.18,0,0,1-1.91-3.67h0a3,3,0,0,1,.17-.53h0a3.22,3.22,0,0,1,3.66-1.89h0a3.21,3.21,0,0,1,2.42,3.84h0a4.6,4.6,0,0,1-.17.53h0a3.24,3.24,0,0,1-3.64,1.9h0A3.81,3.81,0,0,1,1112.77,202.58Zm12.18,4.25h0l-.2-.08h0a3.23,3.23,0,0,1-1.56-4.13h0a.46.46,0,0,1,.09-.15h0a3.16,3.16,0,0,1,4.25-1.49h0a3.18,3.18,0,0,1,1.57,4.13h0l-.06.14A3.21,3.21,0,0,1,1125,206.83Z"/><circle class="cls-1" cx="762.84" cy="569.48" r="23.9" transform="translate(-160.53 337.89) rotate(-22.66)"/><path class="cls-1" d="M746,617.76h0a2.81,2.81,0,0,1-1.57-3.5h0l.05-.14h0a2.77,2.77,0,0,1,3.49-1.58h0a2.81,2.81,0,0,1,1.74,3.55h0l-.06.14h0a2.79,2.79,0,0,1-3.5,1.57A.37.37,0,0,1,746,617.76Zm-10.11-4.88h0a2.2,2.2,0,0,1-.44-.21h0a2.84,2.84,0,0,1-1.09-3.41h0a2.11,2.11,0,0,1,.24-.44h0a2.77,2.77,0,0,1,3.83-.86h0a2.79,2.79,0,0,1,1.11,3.41h0a1.78,1.78,0,0,1-.23.43A2.79,2.79,0,0,1,735.87,612.88Zm21.06,7.29h0a2.82,2.82,0,0,1-1.72-2.85h0a2.67,2.67,0,0,1,.19-.75h0a2.82,2.82,0,0,1,2.87-1.76h0a2.81,2.81,0,0,1,2.5,3.08h0a2.89,2.89,0,0,1-.18.73h0a2.78,2.78,0,0,1-2.87,1.75A3.06,3.06,0,0,1,756.93,620.17Zm-29.78-14.35h0a2.81,2.81,0,0,1-.93-.62h0a2.81,2.81,0,0,1-.58-3h0a3.09,3.09,0,0,1,.64-.93h0a2.76,2.76,0,0,1,3.93.07h0a2.74,2.74,0,0,1,.57,3h0a2.86,2.86,0,0,1-.62.93A2.8,2.8,0,0,1,727.15,605.82Zm41,14.18h0a2.79,2.79,0,0,1-1.7-2.21h0a2.73,2.73,0,0,1,.18-1.43h0a2.8,2.8,0,0,1,2.21-1.7h0a2.78,2.78,0,0,1,3.14,2.39h0a2.77,2.77,0,0,1-.19,1.43h0a2.77,2.77,0,0,1-2.22,1.7h0A3,3,0,0,1,768.16,620ZM720.3,596.94h0A2.77,2.77,0,0,1,719,595.8h0a2.76,2.76,0,0,1-.19-2.49h0a2.67,2.67,0,0,1,1.14-1.35h0a2.78,2.78,0,0,1,3.82,1h0a2.75,2.75,0,0,1,.2,2.5h0a2.81,2.81,0,0,1-3.66,1.51ZM779,617.23h0a2.69,2.69,0,0,1-1.53-1.6h0a2.72,2.72,0,0,1,0-2.06h0A2.81,2.81,0,0,1,779.1,612h0a2.8,2.8,0,0,1,3.59,1.62h0a2.72,2.72,0,0,1,0,2.08h0a2.73,2.73,0,0,1-1.57,1.52A2.82,2.82,0,0,1,779,617.23ZM715.7,586.71h0a2.83,2.83,0,0,1-1.6-1.73h0a2.81,2.81,0,0,1,.07-1.88h0a2.81,2.81,0,0,1,1.74-1.63h0a2.81,2.81,0,0,1,3.51,1.82h0a2.75,2.75,0,0,1-.07,1.88h0a2.78,2.78,0,0,1-1.75,1.61A2.69,2.69,0,0,1,715.7,586.71ZM789,612h0a2.63,2.63,0,0,1-1.25-1h0a2.72,2.72,0,0,1-.28-2.61h0a2.77,2.77,0,0,1,1-1.27v0a2.77,2.77,0,0,1,3.86.72h0a2.83,2.83,0,0,1,.29,2.62h0a2.78,2.78,0,0,1-1,1.27h0A2.77,2.77,0,0,1,789,612Zm-75.43-36.34h0a2.78,2.78,0,0,1-1.73-2.35h0A2.94,2.94,0,0,1,712,572h0a2.77,2.77,0,0,1,2.37-1.7h0a2.77,2.77,0,0,1,3,2.57h0a2.74,2.74,0,0,1-.2,1.28h0a2.76,2.76,0,0,1-2.37,1.7A2.56,2.56,0,0,1,713.56,575.69Zm83.91,29h0a2.48,2.48,0,0,1-.83-.54h0a2.77,2.77,0,0,1-.69-3.1h0a2.81,2.81,0,0,1,.52-.83h0a2.8,2.8,0,0,1,3.95-.16h0a2.8,2.8,0,0,1,.69,3.11h0a2.85,2.85,0,0,1-.52.82h0A2.8,2.8,0,0,1,797.47,604.7ZM714,564.49h0a2.79,2.79,0,0,1-1.7-3h0a3.49,3.49,0,0,1,.17-.62h0a2.77,2.77,0,0,1,3-1.71h0a2.79,2.79,0,0,1,2.32,3.2h0a3.77,3.77,0,0,1-.16.6h0a2.82,2.82,0,0,1-3,1.71A3.05,3.05,0,0,1,714,564.49Zm90,31.11h0l-.3-.15h0a2.78,2.78,0,0,1-1.23-3.48h0c0-.1.09-.2.16-.32h0a2.77,2.77,0,0,1,3.78-1.08h0a2.82,2.82,0,0,1,1.25,3.47h0c0,.12-.11.22-.16.32A2.79,2.79,0,0,1,804,595.6Zm-87-41.91h0a2.78,2.78,0,0,1-1.52-3.64h0l0-.09h0l0-.1h0a2.8,2.8,0,0,1,3.65-1.51h0a2.79,2.79,0,0,1,1.5,3.65h0l-.06.14h0v0A2.79,2.79,0,0,1,717.05,553.69Zm91.26,31.53h0a2.82,2.82,0,0,1-1.63-3.35h0c0-.1.08-.23.12-.33h0a2.81,2.81,0,0,1,3.33-1.59h0a2.78,2.78,0,0,1,1.91,3.46h0a1.67,1.67,0,0,1-.11.34h0a2.78,2.78,0,0,1-3.32,1.57ZM722.6,543.71h0a2.79,2.79,0,0,1-.58-.32h0a2.82,2.82,0,0,1-.93-3.34h0a3.37,3.37,0,0,1,.3-.56h0a2.83,2.83,0,0,1,3.9-.63h0a2.79,2.79,0,0,1,.94,3.34h0a2.18,2.18,0,0,1-.31.56A2.79,2.79,0,0,1,722.6,543.71Zm87.48,30.43h0a2.79,2.79,0,0,1-1.72-2.7h0a2.37,2.37,0,0,1,.23-1h0a2.74,2.74,0,0,1,2.69-1.7h0a2.78,2.78,0,0,1,2.67,2.9h0a2.87,2.87,0,0,1-.21.94h0a2.86,2.86,0,0,1-2.7,1.73A3.06,3.06,0,0,1,810.08,574.14Zm-79.89-38.69h0a2.75,2.75,0,0,1-1.05-.76h0a2.78,2.78,0,0,1-.47-2.88h0a2.71,2.71,0,0,1,.76-1.06h0a2.82,2.82,0,0,1,3.94.29h0a2.79,2.79,0,0,1,.46,2.89h0a2.67,2.67,0,0,1-.77,1.05A2.78,2.78,0,0,1,730.19,535.45ZM809.27,563h0a2.79,2.79,0,0,1-1.68-2.06h0a2.87,2.87,0,0,1,.15-1.57h0a2.78,2.78,0,0,1,2.06-1.71h0a2.79,2.79,0,0,1,3.26,2.23h0a2.9,2.9,0,0,1-.13,1.55h0a2.84,2.84,0,0,1-2.07,1.71A2.91,2.91,0,0,1,809.27,563Zm-69.8-33.81h0a2.72,2.72,0,0,1-1.4-1.28h0a2.78,2.78,0,0,1-.13-2.32h0a2.82,2.82,0,0,1,1.31-1.44h0A2.77,2.77,0,0,1,743,525.3h0a2.68,2.68,0,0,1,.11,2.31h0a2.67,2.67,0,0,1-1.29,1.44A2.83,2.83,0,0,1,739.47,529.15Zm66.42,23.11h0a2.81,2.81,0,0,1-1.5-1.44h0a2.8,2.8,0,0,1,0-2.2h0a2.63,2.63,0,0,1,1.43-1.48h0a2.77,2.77,0,0,1,3.69,1.39h0a2.78,2.78,0,0,1,0,2.19h0a2.84,2.84,0,0,1-3.65,1.54ZM750,525.18h0a2.78,2.78,0,0,1-1.65-1.9h0a2.84,2.84,0,0,1,.14-1.76h0a2.74,2.74,0,0,1,1.88-1.63h0a2.8,2.8,0,0,1,3.39,2h0a2.84,2.84,0,0,1-.12,1.76h0a2.81,2.81,0,0,1-1.9,1.63A2.71,2.71,0,0,1,750,525.18Zm50.15,17.43h0a2.91,2.91,0,0,1-1.15-.87h0a2.78,2.78,0,0,1-.34-2.78h0a2.74,2.74,0,0,1,.87-1.15h0a2.81,2.81,0,0,1,3.91.52h0a2.82,2.82,0,0,1,.36,2.79h0a2.64,2.64,0,0,1-.88,1.12A2.79,2.79,0,0,1,800.12,542.61Zm-39-18.91h0a2.82,2.82,0,0,1-1.73-2.54h0a2.74,2.74,0,0,1,.21-1.08h0a2.8,2.8,0,0,1,2.54-1.75h0a2.8,2.8,0,0,1,2.83,2.75h0a2.7,2.7,0,0,1-.2,1.08h0a2.79,2.79,0,0,1-2.55,1.75A3,3,0,0,1,761.09,523.7Zm31.22,10.86h0a2.92,2.92,0,0,1-.69-.41h0a2.83,2.83,0,0,1-.83-3.21h0a2.64,2.64,0,0,1,.43-.71h0a2.77,2.77,0,0,1,3.92-.4h0A2.76,2.76,0,0,1,796,533h0a2.66,2.66,0,0,1-.42.73A2.81,2.81,0,0,1,792.31,534.56Zm-20-9.71h0a2.78,2.78,0,0,1-1.66-3.19h0a3.18,3.18,0,0,1,.15-.47h0a2.8,2.8,0,0,1,3.19-1.64h0a2.79,2.79,0,0,1,2.1,3.34h0a3.49,3.49,0,0,1-.15.46h0a2.79,2.79,0,0,1-3.17,1.65h0A3.73,3.73,0,0,1,772.26,524.85Zm10.6,3.69h0l-.17-.07h0a2.81,2.81,0,0,1-1.36-3.59h0a.91.91,0,0,1,.08-.13h0a2.75,2.75,0,0,1,3.7-1.29h0a2.75,2.75,0,0,1,1.36,3.59h0l-.05.12A2.78,2.78,0,0,1,782.86,528.54Z"/><path class="cls-1" d="M330.84,284.8A19.3,19.3,0,1,0,356,274.28,19.3,19.3,0,0,0,330.84,284.8Z"/><path class="cls-1" d="M335.08,331.13h0a2.27,2.27,0,0,1-1.27-2.83h0l.05-.11h0a2.22,2.22,0,0,1,2.81-1.28h0a2.27,2.27,0,0,1,1.41,2.86h0l-.05.12h0a2.26,2.26,0,0,1-2.83,1.27A.53.53,0,0,1,335.08,331.13Zm-8.17-3.94h0a2.34,2.34,0,0,1-.35-.18h0a2.29,2.29,0,0,1-.88-2.75h0a2.16,2.16,0,0,1,.2-.36h0a2.23,2.23,0,0,1,3.09-.69h0a2.25,2.25,0,0,1,.9,2.75h0a1.7,1.7,0,0,1-.19.35A2.26,2.26,0,0,1,326.91,327.19Zm17,5.88h0a2.27,2.27,0,0,1-1.39-2.3h0a2.1,2.1,0,0,1,.15-.61h0a2.28,2.28,0,0,1,2.32-1.42h0a2.27,2.27,0,0,1,2,2.49h0a2,2,0,0,1-.14.59h0a2.26,2.26,0,0,1-2.32,1.42A2.54,2.54,0,0,1,343.93,333.07Zm-24.06-11.59h0a2.24,2.24,0,0,1-.75-.5h0a2.28,2.28,0,0,1-.47-2.45h0a2.54,2.54,0,0,1,.52-.74h0a2.22,2.22,0,0,1,3.17,0h0a2.21,2.21,0,0,1,.47,2.43h0a2.38,2.38,0,0,1-.51.75A2.26,2.26,0,0,1,319.87,321.48ZM353,332.93h0a2.21,2.21,0,0,1-1.38-1.78h0a2.25,2.25,0,0,1,.15-1.16h0a2.25,2.25,0,0,1,1.78-1.37h0a2.25,2.25,0,0,1,2.54,1.93h0a2.39,2.39,0,0,1-.15,1.16h0a2.27,2.27,0,0,1-1.8,1.37h0A2.31,2.31,0,0,1,353,332.93Zm-38.65-18.62h0a2.27,2.27,0,0,1-1.07-.92h0a2.25,2.25,0,0,1-.15-2h0a2.17,2.17,0,0,1,.92-1.09h0a2.25,2.25,0,0,1,3.09.78h0a2.23,2.23,0,0,1,.16,2h0a2.21,2.21,0,0,1-.93,1.06A2.24,2.24,0,0,1,314.35,314.31Zm47.42,16.39h0a2.22,2.22,0,0,1-1.24-1.29h0a2.24,2.24,0,0,1,0-1.67h0a2.29,2.29,0,0,1,1.28-1.24h0a2.26,2.26,0,0,1,2.9,1.3h0a2.22,2.22,0,0,1,0,1.68h0a2.27,2.27,0,0,1-2.94,1.22Zm-51.14-24.65h0a2.24,2.24,0,0,1-1.29-1.4h0a2.26,2.26,0,0,1,.05-1.52h0a2.31,2.31,0,0,1,1.41-1.32h0a2.27,2.27,0,0,1,2.83,1.47h0a2.26,2.26,0,0,1-.05,1.52h0a2.28,2.28,0,0,1-1.42,1.31A2.23,2.23,0,0,1,310.63,306.05Zm59.18,20.45h0a2.24,2.24,0,0,1-1-.82h0a2.24,2.24,0,0,1-.22-2.11h0a2.2,2.2,0,0,1,.83-1h0a2.24,2.24,0,0,1,3.12.59h0a2.26,2.26,0,0,1,.24,2.11h0a2.27,2.27,0,0,1-.83,1h0A2.24,2.24,0,0,1,369.81,326.5ZM308.9,297.15h0a2.24,2.24,0,0,1-1.4-1.9h0a2.3,2.3,0,0,1,.17-1.05h0a2.27,2.27,0,0,1,1.92-1.38h0a2.25,2.25,0,0,1,2.4,2.08h0a2.26,2.26,0,0,1-.16,1h0a2.24,2.24,0,0,1-1.91,1.37A2.17,2.17,0,0,1,308.9,297.15Zm67.76,23.43h0a2,2,0,0,1-.66-.44h0a2.23,2.23,0,0,1-.56-2.5h0a2.16,2.16,0,0,1,.42-.67h0a2.26,2.26,0,0,1,3.19-.14h0a2.28,2.28,0,0,1,.55,2.52h0a2.08,2.08,0,0,1-.41.66h0A2.27,2.27,0,0,1,376.66,320.58ZM309.27,288.1h0a2.25,2.25,0,0,1-1.37-2.43h0a1.94,1.94,0,0,1,.14-.5h0a2.23,2.23,0,0,1,2.43-1.38h0a2.26,2.26,0,0,1,1.88,2.59h0a4.27,4.27,0,0,1-.13.48h0a2.28,2.28,0,0,1-2.46,1.38A2,2,0,0,1,309.27,288.1ZM382,313.22h0l-.25-.11h0a2.26,2.26,0,0,1-1-2.81h0a2.1,2.1,0,0,1,.13-.26h0a2.23,2.23,0,0,1,3-.87h0a2.27,2.27,0,0,1,1,2.8h0c0,.1-.09.17-.12.26A2.25,2.25,0,0,1,382,313.22Zm-70.24-33.84h0a2.25,2.25,0,0,1-1.23-2.94h0l0-.07h0l0-.08h0a2.27,2.27,0,0,1,2.95-1.23h0a2.25,2.25,0,0,1,1.21,2.95h0l0,.11h0v0A2.26,2.26,0,0,1,311.72,279.38Zm73.7,25.46h0a2.25,2.25,0,0,1-1.31-2.7h0c0-.09.06-.18.09-.27h0a2.27,2.27,0,0,1,2.69-1.28h0a2.26,2.26,0,0,1,1.55,2.79h0a1.48,1.48,0,0,1-.1.27h0a2.22,2.22,0,0,1-2.68,1.27ZM316.2,271.32h0a2.75,2.75,0,0,1-.47-.26h0a2.27,2.27,0,0,1-.75-2.7h0a2.85,2.85,0,0,1,.25-.45h0a2.27,2.27,0,0,1,3.14-.51h0a2.27,2.27,0,0,1,.76,2.7h0a1.63,1.63,0,0,1-.25.45A2.27,2.27,0,0,1,316.2,271.32Zm70.65,24.58h0a2.26,2.26,0,0,1-1.39-2.18h0a2,2,0,0,1,.18-.77h0a2.25,2.25,0,0,1,2.18-1.38h0a2.26,2.26,0,0,1,2.15,2.35h0a2.4,2.4,0,0,1-.16.76h0a2.31,2.31,0,0,1-2.18,1.39A2.22,2.22,0,0,1,386.85,295.9Zm-64.52-31.25h0a2.2,2.2,0,0,1-.85-.61h0a2.27,2.27,0,0,1-.38-2.33h0a2.42,2.42,0,0,1,.61-.86h0a2.27,2.27,0,0,1,3.19.24h0a2.26,2.26,0,0,1,.37,2.33h0a2.12,2.12,0,0,1-.62.85A2.25,2.25,0,0,1,322.33,264.65Zm63.87,22.21h0a2.25,2.25,0,0,1-1.36-1.66h0a2.24,2.24,0,0,1,.12-1.26h0a2.23,2.23,0,0,1,1.66-1.38h0a2.25,2.25,0,0,1,2.64,1.79h0a2.44,2.44,0,0,1-.11,1.26h0a2.27,2.27,0,0,1-1.67,1.37A2.2,2.2,0,0,1,386.2,286.86Zm-56.37-27.3h0a2.23,2.23,0,0,1-1.14-1h0a2.26,2.26,0,0,1-.1-1.88h0a2.26,2.26,0,0,1,1.06-1.16h0a2.23,2.23,0,0,1,3,1h0a2.2,2.2,0,0,1,.09,1.87h0a2.14,2.14,0,0,1-1,1.16A2.23,2.23,0,0,1,329.83,259.56Zm53.63,18.66h0a2.28,2.28,0,0,1-1.21-1.16h0a2.25,2.25,0,0,1,0-1.78h0a2.1,2.1,0,0,1,1.15-1.19h0a2.24,2.24,0,0,1,3,1.12h0a2.23,2.23,0,0,1,0,1.77h0a2.25,2.25,0,0,1-1.18,1.21A2.23,2.23,0,0,1,383.46,278.22ZM338.3,256.36h0a2.32,2.32,0,0,1-1.33-1.54h0a2.36,2.36,0,0,1,.11-1.42h0a2.24,2.24,0,0,1,1.52-1.32h0a2.26,2.26,0,0,1,2.74,1.63h0a2.21,2.21,0,0,1-.1,1.42h0a2.28,2.28,0,0,1-1.53,1.32A2.33,2.33,0,0,1,338.3,256.36Zm40.51,14.07h0a2.41,2.41,0,0,1-.93-.7h0a2.24,2.24,0,0,1-.28-2.25h0a2.15,2.15,0,0,1,.71-.92h0a2.25,2.25,0,0,1,3.15.42h0a2.28,2.28,0,0,1,.3,2.24h0a2.18,2.18,0,0,1-.72.91A2.23,2.23,0,0,1,378.81,270.43Zm-31.52-15.27h0a2.26,2.26,0,0,1-1.4-2h0a2.55,2.55,0,0,1,.16-.88h0a2.28,2.28,0,0,1,2.06-1.41h0A2.28,2.28,0,0,1,350.4,253h0a2.34,2.34,0,0,1-.17.88h0a2.25,2.25,0,0,1-2.05,1.41A2.43,2.43,0,0,1,347.29,255.16Zm25.21,8.77h0a2.49,2.49,0,0,1-.56-.33h0a2.29,2.29,0,0,1-.67-2.6h0a2,2,0,0,1,.35-.57h0a2.25,2.25,0,0,1,3.17-.32h0a2.24,2.24,0,0,1,.66,2.58h0a2.2,2.2,0,0,1-.34.59A2.29,2.29,0,0,1,372.5,263.93Zm-16.19-7.84h0a2.26,2.26,0,0,1-1.35-2.58h0a2.65,2.65,0,0,1,.12-.37h0a2.26,2.26,0,0,1,2.58-1.33h0a2.25,2.25,0,0,1,1.7,2.69h0a3.3,3.3,0,0,1-.12.38h0a2.27,2.27,0,0,1-2.56,1.33h0Zm8.56,3h0l-.14-.06h0a2.27,2.27,0,0,1-1.1-2.9h0a.33.33,0,0,1,.06-.1h0a2.23,2.23,0,0,1,3-1h0a2.23,2.23,0,0,1,1.09,2.91h0l0,.09A2.23,2.23,0,0,1,364.87,259.07Z"/><path class="cls-1" d="M1151.59,680a10.41,10.41,0,1,0,13.59-5.68A10.41,10.41,0,0,0,1151.59,680Z"/><path class="cls-1" d="M1153.88,705h0a1.22,1.22,0,0,1-.69-1.53h0l0-.06h0a1.22,1.22,0,0,1,1.52-.69h0a1.23,1.23,0,0,1,.76,1.55h0l0,.06h0a1.22,1.22,0,0,1-1.52.69Zm-4.41-2.13h0a.82.82,0,0,1-.19-.09h0a1.23,1.23,0,0,1-.48-1.48h0a1.28,1.28,0,0,1,.11-.2h0a1.21,1.21,0,0,1,1.67-.37h0a1.22,1.22,0,0,1,.48,1.49h0a1.62,1.62,0,0,1-.1.18A1.2,1.2,0,0,1,1149.47,702.83Zm9.18,3.18h0a1.23,1.23,0,0,1-.75-1.24h0a1.14,1.14,0,0,1,.08-.33h0a1.21,1.21,0,0,1,1.25-.76h0a1.22,1.22,0,0,1,1.09,1.33h0a1,1,0,0,1-.08.32h0a1.22,1.22,0,0,1-1.25.77A1.69,1.69,0,0,1,1158.65,706Zm-13-6.25h0a1.33,1.33,0,0,1-.41-.27h0a1.23,1.23,0,0,1-.25-1.32h0a1.42,1.42,0,0,1,.28-.41h0a1.2,1.2,0,0,1,1.71,0h0a1.17,1.17,0,0,1,.25,1.31h0a1.19,1.19,0,0,1-1.58.66Zm17.87,6.18h0a1.21,1.21,0,0,1-.74-1h0a1.08,1.08,0,0,1,.08-.62h0a1.2,1.2,0,0,1,1-.74h0a1.21,1.21,0,0,1,1.37,1h0a1.3,1.3,0,0,1-.09.62h0a1.17,1.17,0,0,1-1,.74h0A1.42,1.42,0,0,1,1163.54,705.94Zm-20.85-10.05h0a1.27,1.27,0,0,1-.58-.5h0a1.22,1.22,0,0,1-.08-1.08h0a1.11,1.11,0,0,1,.5-.59h0a1.2,1.2,0,0,1,1.66.42h0a1.21,1.21,0,0,1,.09,1.09h0a1.19,1.19,0,0,1-.5.57A1.21,1.21,0,0,1,1142.69,695.89Zm25.58,8.84h0a1.15,1.15,0,0,1-.66-.7h0a1.14,1.14,0,0,1,0-.89h0a1.28,1.28,0,0,1,.69-.68h0a1.23,1.23,0,0,1,1.57.71h0a1.22,1.22,0,0,1,0,.9h0a1.2,1.2,0,0,1-.69.67A1.27,1.27,0,0,1,1168.27,704.73Zm-27.59-13.3h0a1.24,1.24,0,0,1-.7-.75h0a1.27,1.27,0,0,1,0-.82h0a1.24,1.24,0,0,1,.76-.71h0a1.23,1.23,0,0,1,1.53.79h0a1.15,1.15,0,0,1,0,.82h0a1.2,1.2,0,0,1-.76.7A1.18,1.18,0,0,1,1140.68,691.43Zm31.93,11h0a1.11,1.11,0,0,1-.54-.44h0a1.18,1.18,0,0,1-.12-1.13h0a1.13,1.13,0,0,1,.44-.56h0a1.21,1.21,0,0,1,1.68.32h0a1.21,1.21,0,0,1,.13,1.13h0a1.28,1.28,0,0,1-.45.56h0A1.2,1.2,0,0,1,1172.61,702.46Zm-32.86-15.83h0a1.21,1.21,0,0,1-.75-1h0a1.16,1.16,0,0,1,.09-.56h0a1.19,1.19,0,0,1,1-.74h0a1.21,1.21,0,0,1,1.3,1.12h0a1.32,1.32,0,0,1-.09.56h0a1.22,1.22,0,0,1-1,.74A1.28,1.28,0,0,1,1139.75,686.63Zm36.56,12.64h0a1.05,1.05,0,0,1-.36-.23h0a1.24,1.24,0,0,1-.31-1.36h0a1.56,1.56,0,0,1,.23-.36h0a1.22,1.22,0,0,1,1.72-.07h0a1.22,1.22,0,0,1,.3,1.36h0a1.29,1.29,0,0,1-.22.35h0A1.22,1.22,0,0,1,1176.31,699.27ZM1140,681.75h0a1.22,1.22,0,0,1-.74-1.31h0a1.07,1.07,0,0,1,.07-.27h0a1.22,1.22,0,0,1,1.32-.75h0a1.22,1.22,0,0,1,1,1.4h0a2,2,0,0,1-.07.26h0a1.23,1.23,0,0,1-1.32.74A1.07,1.07,0,0,1,1140,681.75Zm39.21,13.55h0l-.13-.06h0a1.21,1.21,0,0,1-.53-1.52h0a.75.75,0,0,1,.06-.13h0a1.22,1.22,0,0,1,1.65-.48h0a1.23,1.23,0,0,1,.54,1.52h0l-.06.13A1.23,1.23,0,0,1,1179.16,695.3ZM1141.27,677h0a1.2,1.2,0,0,1-.66-1.58h0v0h0l0,0h0a1.22,1.22,0,0,1,1.59-.66h0a1.22,1.22,0,0,1,.66,1.59h0l0,.06h0A1.22,1.22,0,0,1,1141.27,677ZM1181,690.78h0a1.22,1.22,0,0,1-.71-1.46h0s0-.1,0-.14h0a1.22,1.22,0,0,1,1.45-.69h0a1.2,1.2,0,0,1,.84,1.5h0a.88.88,0,0,1-.05.15h0a1.21,1.21,0,0,1-1.45.68Zm-37.34-18.09h0a.85.85,0,0,1-.25-.13h0a1.23,1.23,0,0,1-.41-1.46h0a1.12,1.12,0,0,1,.13-.24h0a1.23,1.23,0,0,1,1.7-.28h0a1.21,1.21,0,0,1,.41,1.46h0a1,1,0,0,1-.14.24A1.19,1.19,0,0,1,1143.69,672.69ZM1181.8,686h0a1.25,1.25,0,0,1-.75-1.18h0a1.08,1.08,0,0,1,.1-.41h0a1.21,1.21,0,0,1,1.17-.75h0a1.22,1.22,0,0,1,1.17,1.27h0a1.43,1.43,0,0,1-.09.41h0a1.25,1.25,0,0,1-1.18.75A1.43,1.43,0,0,1,1181.8,686ZM1147,669.1h0a1.15,1.15,0,0,1-.46-.33h0a1.22,1.22,0,0,1-.21-1.26h0a1.23,1.23,0,0,1,.33-.46h0a1.22,1.22,0,0,1,1.72.13h0a1.2,1.2,0,0,1,.2,1.25h0a1.09,1.09,0,0,1-.34.46A1.21,1.21,0,0,1,1147,669.1Zm34.45,12h0a1.21,1.21,0,0,1-.73-.9h0a1.21,1.21,0,0,1,.06-.68h0a1.22,1.22,0,0,1,.9-.74h0a1.21,1.21,0,0,1,1.42,1h0a1.27,1.27,0,0,1-.06.67h0a1.21,1.21,0,0,1-1.59.68ZM1151,666.35h0a1.11,1.11,0,0,1-.61-.56h0a1.2,1.2,0,0,1-.06-1h0a1.23,1.23,0,0,1,.57-.62h0a1.2,1.2,0,0,1,1.64.51h0a1.2,1.2,0,0,1,.05,1h0a1.17,1.17,0,0,1-.57.63A1.22,1.22,0,0,1,1151,666.35ZM1180,676.42h0a1.27,1.27,0,0,1-.66-.63h0a1.23,1.23,0,0,1,0-1h0a1.16,1.16,0,0,1,.63-.64h0a1.2,1.2,0,0,1,1.6.61h0a1.17,1.17,0,0,1,0,1h0a1.15,1.15,0,0,1-.63.65A1.21,1.21,0,0,1,1180,676.42Zm-24.37-11.8h0a1.23,1.23,0,0,1-.72-.83h0a1.3,1.3,0,0,1,.06-.76h0a1.19,1.19,0,0,1,.82-.71h0a1.21,1.21,0,0,1,1.48.87h0a1.25,1.25,0,0,1,0,.77h0a1.26,1.26,0,0,1-.83.71A1.16,1.16,0,0,1,1155.61,664.62Zm21.85,7.6h0a1.39,1.39,0,0,1-.5-.38h0a1.21,1.21,0,0,1-.15-1.21h0a1.16,1.16,0,0,1,.38-.5h0a1.21,1.21,0,0,1,1.7.22h0a1.23,1.23,0,0,1,.16,1.22h0a1.19,1.19,0,0,1-.38.49A1.23,1.23,0,0,1,1177.46,672.22Zm-17-8.24h0a1.23,1.23,0,0,1-.76-1.11h0a1.19,1.19,0,0,1,.09-.47h0a1.24,1.24,0,0,1,1.11-.76h0a1.23,1.23,0,0,1,1.24,1.2h0a1.23,1.23,0,0,1-.09.47h0a1.21,1.21,0,0,1-1.11.76A1.28,1.28,0,0,1,1160.46,664Zm13.6,4.73h0a1.19,1.19,0,0,1-.3-.18h0a1.23,1.23,0,0,1-.36-1.4h0a1.24,1.24,0,0,1,.18-.31h0a1.22,1.22,0,0,1,1.71-.17h0a1.2,1.2,0,0,1,.36,1.39h0a1.45,1.45,0,0,1-.18.32A1.23,1.23,0,0,1,1174.06,668.71Zm-8.74-4.23h0a1.21,1.21,0,0,1-.72-1.39h0l.06-.2h0a1.22,1.22,0,0,1,1.39-.72h0a1.21,1.21,0,0,1,.92,1.45h0l-.06.2h0a1.22,1.22,0,0,1-1.39.72h0Zm4.62,1.61h0l-.07,0h0a1.23,1.23,0,0,1-.59-1.57h0s0,0,0,0h0a1.2,1.2,0,0,1,1.61-.57h0a1.21,1.21,0,0,1,.6,1.57h0l0,0A1.21,1.21,0,0,1,1169.94,666.09Z"/><circle class="cls-1" cx="320.85" cy="643.17" r="23.9" transform="translate(-358.02 407.05) rotate(-44.31)"/><path class="cls-1" d="M304,691.45h0a2.81,2.81,0,0,1-1.58-3.5h0l.06-.14h0a2.77,2.77,0,0,1,3.49-1.58h0a2.8,2.8,0,0,1,1.73,3.55h0l-.05.14h0a2.8,2.8,0,0,1-3.51,1.57A.37.37,0,0,1,304,691.45Zm-10.12-4.88h0a2,2,0,0,1-.43-.22h0a2.8,2.8,0,0,1-1.09-3.4h0a2.11,2.11,0,0,1,.24-.44h0a2.76,2.76,0,0,1,3.83-.86h0a2.81,2.81,0,0,1,1.11,3.41h0a2.55,2.55,0,0,1-.23.43A2.8,2.8,0,0,1,293.88,686.57ZM315,693.86h0a2.82,2.82,0,0,1-1.72-2.86h0a2.6,2.6,0,0,1,.19-.74h0a2.82,2.82,0,0,1,2.87-1.76h0a2.8,2.8,0,0,1,2.49,3.08h0a2.3,2.3,0,0,1-.18.73h0a2.77,2.77,0,0,1-2.87,1.75A2.89,2.89,0,0,1,315,693.86Zm-29.79-14.35h0a2.87,2.87,0,0,1-.92-.62h0a2.82,2.82,0,0,1-.59-3h0a3.28,3.28,0,0,1,.64-.93h0a2.76,2.76,0,0,1,3.93.07h0a2.74,2.74,0,0,1,.58,3h0a2.74,2.74,0,0,1-.63.93A2.8,2.8,0,0,1,285.16,679.51Zm41,14.18h0a2.78,2.78,0,0,1-1.71-2.21h0a2.73,2.73,0,0,1,.19-1.43h0a2.82,2.82,0,0,1,2.21-1.71h0a2.78,2.78,0,0,1,3.13,2.4h0a2.89,2.89,0,0,1-.18,1.43h0a2.81,2.81,0,0,1-2.23,1.7h0A3,3,0,0,1,326.18,693.69Zm-47.86-23.06h0a2.84,2.84,0,0,1-1.32-1.14h0a2.79,2.79,0,0,1-.18-2.49h0a2.7,2.7,0,0,1,1.13-1.35h0a2.78,2.78,0,0,1,3.83,1h0a2.78,2.78,0,0,1,.2,2.5h0a2.74,2.74,0,0,1-1.15,1.31A2.8,2.8,0,0,1,278.32,670.63Zm58.73,20.29h0a2.71,2.71,0,0,1-1.54-1.6h0a2.72,2.72,0,0,1,0-2.06h0a2.85,2.85,0,0,1,1.58-1.54h0a2.81,2.81,0,0,1,3.6,1.62h0a2.72,2.72,0,0,1,0,2.08h0a2.76,2.76,0,0,1-1.57,1.52A2.81,2.81,0,0,1,337.05,690.92ZM273.72,660.4h0a2.81,2.81,0,0,1-1.6-1.73h0a2.75,2.75,0,0,1,.07-1.88h0a2.84,2.84,0,0,1,1.73-1.64h0a2.83,2.83,0,0,1,3.52,1.83h0a2.81,2.81,0,0,1-.07,1.88h0a2.8,2.8,0,0,1-1.75,1.61A2.69,2.69,0,0,1,273.72,660.4ZM347,685.72h0a2.74,2.74,0,0,1-1.25-1h0a2.74,2.74,0,0,1-.27-2.61h0a2.71,2.71,0,0,1,1-1.27v0a2.77,2.77,0,0,1,3.87.72h0a2.83,2.83,0,0,1,.29,2.62h0a2.89,2.89,0,0,1-1,1.26h0A2.76,2.76,0,0,1,347,685.72Zm-75.43-36.34h0a2.79,2.79,0,0,1-1.72-2.35h0a2.87,2.87,0,0,1,.21-1.31h0a2.8,2.8,0,0,1,2.37-1.7h0a2.79,2.79,0,0,1,3,2.58h0a2.9,2.9,0,0,1-.2,1.28h0a2.8,2.8,0,0,1-3.64,1.5Zm83.91,29h0a2.54,2.54,0,0,1-.82-.54h0a2.78,2.78,0,0,1-.7-3.1h0a3,3,0,0,1,.52-.83h0a2.79,2.79,0,0,1,3.95-.17h0a2.81,2.81,0,0,1,.69,3.12h0a3,3,0,0,1-.51.82h0A2.81,2.81,0,0,1,355.48,678.39ZM272,638.17h0a2.78,2.78,0,0,1-1.7-3h0a2.35,2.35,0,0,1,.17-.62h0a2.76,2.76,0,0,1,3-1.71h0a2.8,2.8,0,0,1,2.32,3.2h0a3.78,3.78,0,0,1-.17.6h0a2.8,2.8,0,0,1-3,1.71A2.52,2.52,0,0,1,272,638.17Zm90,31.12h0l-.3-.15h0a2.77,2.77,0,0,1-1.23-3.48h0c0-.1.09-.2.15-.32h0a2.78,2.78,0,0,1,3.78-1.08h0a2.79,2.79,0,0,1,1.25,3.47h0c-.05.12-.11.22-.15.32A2.79,2.79,0,0,1,362,669.29Zm-87-41.91h0a2.78,2.78,0,0,1-1.52-3.64h0l0-.09h0l0-.1h0a2.81,2.81,0,0,1,3.66-1.51h0a2.79,2.79,0,0,1,1.5,3.65h0a.81.81,0,0,0-.06.13h0v0A2.8,2.8,0,0,1,275.07,627.38Zm91.25,31.52h0a2.79,2.79,0,0,1-1.62-3.34h0a3.21,3.21,0,0,1,.12-.33h0a2.79,2.79,0,0,1,3.32-1.59h0a2.78,2.78,0,0,1,1.92,3.46h0a2.79,2.79,0,0,1-.12.34h0a2.77,2.77,0,0,1-3.32,1.57A2.09,2.09,0,0,1,366.32,658.9Zm-85.71-41.51h0a2.48,2.48,0,0,1-.57-.31h0a2.81,2.81,0,0,1-.94-3.34h0a4.4,4.4,0,0,1,.31-.56h0a2.83,2.83,0,0,1,3.9-.63h0a2.8,2.8,0,0,1,.94,3.34h0a2.52,2.52,0,0,1-.31.56A2.78,2.78,0,0,1,280.61,617.39Zm87.49,30.44h0a2.82,2.82,0,0,1-1.73-2.7h0a2.76,2.76,0,0,1,.23-1h0a2.78,2.78,0,0,1,2.7-1.71h0a2.79,2.79,0,0,1,2.66,2.91h0a2.92,2.92,0,0,1-.2.94h0a2.87,2.87,0,0,1-2.7,1.73A3,3,0,0,1,368.1,647.83Zm-79.89-38.69h0a2.81,2.81,0,0,1-1.06-.76h0a2.8,2.8,0,0,1-.46-2.88h0a2.78,2.78,0,0,1,.75-1.06h0a2.82,2.82,0,0,1,3.95.29h0a2.79,2.79,0,0,1,.46,2.89h0a2.67,2.67,0,0,1-.77,1A2.78,2.78,0,0,1,288.21,609.14Zm79.08,27.5h0a2.79,2.79,0,0,1-1.69-2.06h0a2.75,2.75,0,0,1,.16-1.56h0a2.78,2.78,0,0,1,2.05-1.71h0a2.8,2.8,0,0,1,3.27,2.23h0a2.9,2.9,0,0,1-.14,1.55h0a2.77,2.77,0,0,1-2.07,1.7A2.71,2.71,0,0,1,367.29,636.64Zm-69.8-33.8h0a2.72,2.72,0,0,1-1.4-1.28h0a2.8,2.8,0,0,1-.13-2.33h0a2.76,2.76,0,0,1,1.31-1.43h0A2.76,2.76,0,0,1,301,599h0a2.74,2.74,0,0,1,.12,2.32h0a2.69,2.69,0,0,1-1.3,1.44A2.81,2.81,0,0,1,297.49,602.84ZM363.9,626h0a2.85,2.85,0,0,1-1.5-1.44h0a2.8,2.8,0,0,1,0-2.2h0a2.64,2.64,0,0,1,1.44-1.48h0a2.77,2.77,0,0,1,3.69,1.39h0a2.78,2.78,0,0,1,0,2.19h0A2.84,2.84,0,0,1,363.9,626ZM308,598.87h0a2.78,2.78,0,0,1-1.65-1.9h0a2.84,2.84,0,0,1,.13-1.76h0a2.82,2.82,0,0,1,1.88-1.64h0a2.82,2.82,0,0,1,3.4,2h0a2.84,2.84,0,0,1-.12,1.76h0a2.86,2.86,0,0,1-1.9,1.63A2.71,2.71,0,0,1,308,598.87Zm50.15,17.43h0a3,3,0,0,1-1.15-.87h0a2.78,2.78,0,0,1-.35-2.78h0a2.85,2.85,0,0,1,.88-1.15h0a2.79,2.79,0,0,1,3.9.52h0a2.82,2.82,0,0,1,.37,2.79h0a2.72,2.72,0,0,1-.89,1.12A2.77,2.77,0,0,1,358.14,616.3Zm-39-18.91h0a2.8,2.8,0,0,1-1.73-2.54h0a2.92,2.92,0,0,1,.2-1.08h0a2.81,2.81,0,0,1,2.55-1.75h0a2.81,2.81,0,0,1,2.83,2.75h0a2.92,2.92,0,0,1-.2,1.08h0a2.79,2.79,0,0,1-2.55,1.75A2.91,2.91,0,0,1,319.11,597.39Zm31.22,10.86h0a3.36,3.36,0,0,1-.7-.41h0a2.86,2.86,0,0,1-.83-3.22h0a2.6,2.6,0,0,1,.43-.7h0a2.79,2.79,0,0,1,3.93-.4h0a2.77,2.77,0,0,1,.82,3.19h0a2.75,2.75,0,0,1-3.65,1.54Zm-20.05-9.71h0a2.79,2.79,0,0,1-1.67-3.2h0c0-.14.09-.3.15-.46h0a2.8,2.8,0,0,1,3.19-1.64h0a2.8,2.8,0,0,1,2.11,3.34h0c0,.14-.09.3-.15.46h0a2.81,2.81,0,0,1-3.17,1.65h0A3.22,3.22,0,0,1,330.28,598.54Zm10.6,3.69h0l-.17-.07h0a2.8,2.8,0,0,1-1.36-3.59h0a.54.54,0,0,1,.07-.13h0a2.76,2.76,0,0,1,3.71-1.29h0a2.75,2.75,0,0,1,1.36,3.59h0l-.05.12A2.79,2.79,0,0,1,340.88,602.23Z"/><path class="cls-1" d="M135.19,243.85a23.9,23.9,0,1,0,31.19-13A23.89,23.89,0,0,0,135.19,243.85Z"/><path class="cls-1" d="M140.44,301.22h0a2.82,2.82,0,0,1-1.57-3.51h0l0-.13h0a2.78,2.78,0,0,1,3.49-1.59h0a2.81,2.81,0,0,1,1.74,3.55h0l-.06.14h0a2.8,2.8,0,0,1-3.5,1.58Zm-10.11-4.88h0a2.19,2.19,0,0,1-.43-.22h0a2.83,2.83,0,0,1-1.1-3.41h0a3.75,3.75,0,0,1,.24-.44h0a2.77,2.77,0,0,1,3.83-.86h0a2.8,2.8,0,0,1,1.11,3.41h0a1.78,1.78,0,0,1-.23.43A2.79,2.79,0,0,1,130.33,296.34Zm21.07,7.29h0a2.81,2.81,0,0,1-1.72-2.86h0a2.66,2.66,0,0,1,.18-.75h0a2.8,2.8,0,0,1,2.87-1.75h0a2.8,2.8,0,0,1,2.5,3.07h0a2.52,2.52,0,0,1-.18.73h0a2.8,2.8,0,0,1-2.87,1.76A3.31,3.31,0,0,1,151.4,303.63Zm-29.79-14.35h0a3,3,0,0,1-.93-.63h0a2.83,2.83,0,0,1-.58-3h0a3.24,3.24,0,0,1,.64-.92h0a2.75,2.75,0,0,1,3.93.06h0a2.74,2.74,0,0,1,.57,3h0a2.76,2.76,0,0,1-.62.93A2.79,2.79,0,0,1,121.61,289.28Zm41,14.17h0a2.77,2.77,0,0,1-1.7-2.2h0a2.86,2.86,0,0,1,.18-1.44h0a2.8,2.8,0,0,1,2.21-1.7h0a2.78,2.78,0,0,1,3.14,2.39h0a2.77,2.77,0,0,1-.19,1.43h0a2.77,2.77,0,0,1-2.22,1.7h0A2.85,2.85,0,0,1,162.62,303.45Zm-47.85-23.06h0a2.75,2.75,0,0,1-1.32-1.14h0a2.76,2.76,0,0,1-.19-2.49h0a2.61,2.61,0,0,1,1.14-1.34h0a2.77,2.77,0,0,1,3.82,1h0a2.72,2.72,0,0,1,.2,2.49h0a2.8,2.8,0,0,1-1.14,1.32A2.77,2.77,0,0,1,114.77,280.39Zm58.72,20.29h0a2.7,2.7,0,0,1-1.53-1.59h0a2.72,2.72,0,0,1,0-2.06h0a2.8,2.8,0,0,1,1.58-1.55h0a2.8,2.8,0,0,1,3.59,1.62h0a2.72,2.72,0,0,1,0,2.08h0a2.77,2.77,0,0,1-3.63,1.5Zm-63.32-30.52h0a2.8,2.8,0,0,1-1.61-1.72h0a2.8,2.8,0,0,1,.07-1.88h0a2.86,2.86,0,0,1,1.74-1.64h0a2.8,2.8,0,0,1,3.51,1.82h0a2.75,2.75,0,0,1-.07,1.88h0a2.79,2.79,0,0,1-1.75,1.62A2.72,2.72,0,0,1,110.17,270.16Zm73.28,25.33h0a2.76,2.76,0,0,1-1.25-1h0a2.72,2.72,0,0,1-.28-2.61h0a2.75,2.75,0,0,1,1-1.26h0a2.76,2.76,0,0,1,3.86.73h0a2.78,2.78,0,0,1,.29,2.61h0a2.78,2.78,0,0,1-1,1.27h0A2.77,2.77,0,0,1,183.45,295.49ZM108,259.15h0a2.78,2.78,0,0,1-1.73-2.36h0a3,3,0,0,1,.21-1.3h0a2.8,2.8,0,0,1,2.37-1.7h0a2.79,2.79,0,0,1,3,2.57h0a2.86,2.86,0,0,1-.21,1.28h0a2.76,2.76,0,0,1-2.37,1.7A2.68,2.68,0,0,1,108,259.15Zm83.91,29h0a2.58,2.58,0,0,1-.83-.54h0a2.79,2.79,0,0,1-.69-3.1h0a3.09,3.09,0,0,1,.52-.84h0a2.8,2.8,0,0,1,3.95-.16h0a2.82,2.82,0,0,1,.69,3.12h0a2.73,2.73,0,0,1-.52.81h0A2.8,2.8,0,0,1,191.93,288.16Zm-83.45-40.22h0a2.78,2.78,0,0,1-1.7-3h0a3.49,3.49,0,0,1,.17-.62h0a2.77,2.77,0,0,1,3-1.71h0a2.8,2.8,0,0,1,2.32,3.21h0a3,3,0,0,1-.16.59h0a2.81,2.81,0,0,1-3,1.71A2.51,2.51,0,0,1,108.48,247.94Zm90,31.11h0l-.3-.14h0a2.78,2.78,0,0,1-1.22-3.48h0a1.54,1.54,0,0,1,.15-.32h0a2.77,2.77,0,0,1,3.78-1.08h0a2.81,2.81,0,0,1,1.25,3.47h0c0,.11-.11.21-.15.31A2.79,2.79,0,0,1,198.48,279.05Zm-87-41.91h0A2.78,2.78,0,0,1,110,233.5h0l0-.08h0l0-.11h0a2.81,2.81,0,0,1,3.66-1.51h0a2.79,2.79,0,0,1,1.49,3.65h0l-.06.14h0v0A2.78,2.78,0,0,1,111.51,237.14Zm91.26,31.53h0a2.79,2.79,0,0,1-1.62-3.34h0a2.24,2.24,0,0,1,.11-.34h0a2.81,2.81,0,0,1,3.33-1.59h0a2.79,2.79,0,0,1,1.91,3.47h0a1.6,1.6,0,0,1-.11.33h0a2.77,2.77,0,0,1-3.32,1.57A1.75,1.75,0,0,1,202.77,268.67Zm-85.71-41.51h0a2.5,2.5,0,0,1-.57-.32h0a2.81,2.81,0,0,1-.94-3.34h0a2.5,2.5,0,0,1,.31-.55h0a2.8,2.8,0,0,1,3.89-.63h0a2.78,2.78,0,0,1,.94,3.34h0a2.11,2.11,0,0,1-.31.55A2.79,2.79,0,0,1,117.06,227.16Zm87.48,30.44h0a2.8,2.8,0,0,1-1.72-2.7h0a2.46,2.46,0,0,1,.23-1h0a2.77,2.77,0,0,1,2.69-1.71h0a2.79,2.79,0,0,1,2.67,2.9h0a2.87,2.87,0,0,1-.21.94h0a2.83,2.83,0,0,1-2.7,1.73A3.11,3.11,0,0,1,204.54,257.6Zm-79.89-38.7h0a2.83,2.83,0,0,1-1.05-.75h0a2.82,2.82,0,0,1-.47-2.89h0a3.1,3.1,0,0,1,.76-1.06h0a2.81,2.81,0,0,1,3.94.3h0a2.77,2.77,0,0,1,.46,2.88h0a2.54,2.54,0,0,1-.77,1.05A2.78,2.78,0,0,1,124.65,218.9Zm79.08,27.51h0a2.79,2.79,0,0,1-1.68-2.06h0a2.74,2.74,0,0,1,.16-1.56h0a2.77,2.77,0,0,1,2-1.72h0a2.8,2.8,0,0,1,3.26,2.23h0a2.9,2.9,0,0,1-.13,1.55h0a2.84,2.84,0,0,1-2.07,1.71A2.74,2.74,0,0,1,203.73,246.41ZM133.94,212.6h0a2.7,2.7,0,0,1-1.41-1.28h0a2.78,2.78,0,0,1-.13-2.32h0a2.8,2.8,0,0,1,1.31-1.43h0a2.75,2.75,0,0,1,3.76,1.18h0a2.7,2.7,0,0,1,.11,2.32h0a2.65,2.65,0,0,1-1.29,1.43A2.77,2.77,0,0,1,133.94,212.6Zm66.41,23.11h0a2.81,2.81,0,0,1-1.5-1.44h0a2.8,2.8,0,0,1,0-2.2h0a2.66,2.66,0,0,1,1.43-1.48h0A2.77,2.77,0,0,1,204,232h0a2.78,2.78,0,0,1,.05,2.19h0a2.81,2.81,0,0,1-3.65,1.54Zm-55.92-27.08h0a2.78,2.78,0,0,1-1.65-1.9h0a2.81,2.81,0,0,1,.14-1.75h0a2.75,2.75,0,0,1,1.88-1.64h0a2.79,2.79,0,0,1,3.39,2h0a2.77,2.77,0,0,1-.12,1.76h0a2.85,2.85,0,0,1-1.89,1.64A2.81,2.81,0,0,1,144.43,208.63Zm50.15,17.43h0a3,3,0,0,1-1.15-.87h0a2.78,2.78,0,0,1-.34-2.78h0a2.74,2.74,0,0,1,.87-1.15h0a2.81,2.81,0,0,1,3.91.52h0a2.82,2.82,0,0,1,.36,2.79h0a2.58,2.58,0,0,1-.88,1.12A2.79,2.79,0,0,1,194.58,226.06Zm-39-18.91h0a2.82,2.82,0,0,1-1.73-2.54h0a2.77,2.77,0,0,1,.21-1.08h0a2.8,2.8,0,0,1,2.55-1.75h0a2.8,2.8,0,0,1,2.82,2.75h0a2.61,2.61,0,0,1-.2,1.09h0a2.8,2.8,0,0,1-2.55,1.74A2.76,2.76,0,0,1,155.55,207.15ZM186.77,218h0a2.92,2.92,0,0,1-.69-.41h0a2.82,2.82,0,0,1-.83-3.21h0a2.64,2.64,0,0,1,.43-.71h0a2.77,2.77,0,0,1,3.92-.4h0a2.76,2.76,0,0,1,.82,3.19h0a2.48,2.48,0,0,1-.42.74A2.81,2.81,0,0,1,186.77,218Zm-20.05-9.71h0a2.78,2.78,0,0,1-1.66-3.19h0a2.74,2.74,0,0,1,.15-.46h0A2.81,2.81,0,0,1,168.4,203h0a2.79,2.79,0,0,1,2.1,3.34h0a3.07,3.07,0,0,1-.15.46h0a2.79,2.79,0,0,1-3.17,1.65h0A3.81,3.81,0,0,1,166.72,208.3Zm10.6,3.7h0l-.17-.07h0a2.81,2.81,0,0,1-1.35-3.6h0a.42.42,0,0,1,.07-.13h0a2.76,2.76,0,0,1,3.71-1.29h0a2.76,2.76,0,0,1,1.35,3.6h0l-.05.12A2.78,2.78,0,0,1,177.32,212Z"/><path class="cls-1" d="M233.52,556.46a16.21,16.21,0,1,0,21.15-8.83A16.21,16.21,0,0,0,233.52,556.46Z"/><path class="cls-1" d="M237.09,595.36h0A1.91,1.91,0,0,1,236,593h0l0-.09h0a1.86,1.86,0,0,1,2.36-1.07h0a1.9,1.9,0,0,1,1.18,2.4h0l0,.1h0a1.88,1.88,0,0,1-2.37,1.06Zm-6.86-3.31h0a1.4,1.4,0,0,1-.3-.15h0a1.92,1.92,0,0,1-.74-2.31h0a2.28,2.28,0,0,1,.17-.3h0a1.87,1.87,0,0,1,2.59-.58h0a1.89,1.89,0,0,1,.76,2.31h0a2,2,0,0,1-.16.29A1.9,1.9,0,0,1,230.23,592.05ZM244.51,597h0a1.91,1.91,0,0,1-1.16-1.94h0a1.66,1.66,0,0,1,.12-.5h0a1.91,1.91,0,0,1,1.95-1.19h0a1.9,1.9,0,0,1,1.69,2.08h0a1.66,1.66,0,0,1-.12.5h0a1.9,1.9,0,0,1-2,1.19A2,2,0,0,1,244.51,597Zm-20.19-9.73h0a2,2,0,0,1-.63-.42h0a1.91,1.91,0,0,1-.4-2.06h0a2.06,2.06,0,0,1,.44-.62h0a1.86,1.86,0,0,1,2.66,0h0a1.86,1.86,0,0,1,.39,2h0a1.93,1.93,0,0,1-.42.63A1.89,1.89,0,0,1,224.32,587.26Zm27.8,9.61h0a1.87,1.87,0,0,1-1.15-1.49h0a1.84,1.84,0,0,1,.12-1h0a1.91,1.91,0,0,1,1.5-1.16h0a1.89,1.89,0,0,1,2.13,1.62h0a1.88,1.88,0,0,1-.13,1h0a1.9,1.9,0,0,1-1.51,1.16h0A2,2,0,0,1,252.12,596.87Zm-32.44-15.63h0a1.88,1.88,0,0,1-.9-.78h0a1.86,1.86,0,0,1-.12-1.68h0a1.71,1.71,0,0,1,.77-.91h0a1.87,1.87,0,0,1,2.59.65h0a1.85,1.85,0,0,1,.14,1.69h0a1.93,1.93,0,0,1-.78.9A1.9,1.9,0,0,1,219.68,581.24ZM259.49,595h0a1.89,1.89,0,0,1-1-1.09h0a1.81,1.81,0,0,1,0-1.39h0a1.87,1.87,0,0,1,1.07-1h0a1.91,1.91,0,0,1,2.44,1.1h0a1.91,1.91,0,0,1,0,1.41h0a1.9,1.9,0,0,1-1.07,1A1.93,1.93,0,0,1,259.49,595Zm-42.93-20.7h0a1.89,1.89,0,0,1-1.09-1.17h0a1.9,1.9,0,0,1,.05-1.27h0a1.89,1.89,0,0,1,1.18-1.11h0a1.91,1.91,0,0,1,2.38,1.23h0a1.93,1.93,0,0,1-.05,1.28h0a1.87,1.87,0,0,1-1.19,1.09A1.81,1.81,0,0,1,216.56,574.3Zm49.68,17.17h0a1.84,1.84,0,0,1-.85-.69h0a1.85,1.85,0,0,1-.18-1.76h0a1.84,1.84,0,0,1,.69-.86h0a1.87,1.87,0,0,1,2.62.49h0a1.94,1.94,0,0,1,.2,1.77h0a1.94,1.94,0,0,1-.7.86h0A1.9,1.9,0,0,1,266.24,591.47ZM215.1,566.83h0a1.88,1.88,0,0,1-1.17-1.59h0a2,2,0,0,1,.15-.89h0a1.86,1.86,0,0,1,1.6-1.15h0a1.88,1.88,0,0,1,2,1.74h0a1.8,1.8,0,0,1-.14.87h0A1.87,1.87,0,0,1,216,567,1.8,1.8,0,0,1,215.1,566.83ZM272,586.5h0a1.78,1.78,0,0,1-.56-.36h0A1.91,1.91,0,0,1,271,584h0a1.9,1.9,0,0,1,.36-.56h0a1.88,1.88,0,0,1,2.67-.11h0a1.89,1.89,0,0,1,.47,2.11h0a1.9,1.9,0,0,1-.35.55h0A1.9,1.9,0,0,1,272,586.5Zm-56.57-27.27h0a1.88,1.88,0,0,1-1.16-2h0a2.45,2.45,0,0,1,.12-.41h0a1.87,1.87,0,0,1,2.05-1.16h0a1.89,1.89,0,0,1,1.57,2.17h0a2.62,2.62,0,0,1-.11.4h0a1.9,1.9,0,0,1-2.06,1.16A1.39,1.39,0,0,1,215.42,559.23Zm61,21.1h0l-.21-.1h0a1.88,1.88,0,0,1-.83-2.36h0a2,2,0,0,1,.1-.21h0a1.88,1.88,0,0,1,2.57-.74h0a1.89,1.89,0,0,1,.84,2.35h0a2.35,2.35,0,0,1-.1.22A1.88,1.88,0,0,1,276.44,580.33Zm-59-28.42h0a1.88,1.88,0,0,1-1-2.46h0l0-.06h0l0-.07h0a1.92,1.92,0,0,1,2.48-1h0a1.91,1.91,0,0,1,1,2.48h0l0,.09h0v0A1.89,1.89,0,0,1,217.47,551.91Zm61.87,21.38h0a1.9,1.9,0,0,1-1.1-2.27h0a2,2,0,0,1,.08-.22h0a1.91,1.91,0,0,1,2.26-1.08h0a1.9,1.9,0,0,1,1.3,2.35h0c0,.07-.05.14-.08.22h0a1.88,1.88,0,0,1-2.25,1.07Zm-58.11-28.14h0a2.56,2.56,0,0,1-.39-.22h0a1.9,1.9,0,0,1-.63-2.26h0a2,2,0,0,1,.21-.38h0a1.91,1.91,0,0,1,2.64-.43h0a1.92,1.92,0,0,1,.64,2.27h0a1.88,1.88,0,0,1-.21.37A1.9,1.9,0,0,1,221.23,545.15Zm59.32,20.63h0a1.89,1.89,0,0,1-1.17-1.83h0a1.72,1.72,0,0,1,.15-.64h0a1.89,1.89,0,0,1,1.83-1.16h0a1.88,1.88,0,0,1,1.8,2h0a1.92,1.92,0,0,1-.13.64h0a1.88,1.88,0,0,1-2.48,1Zm-54.17-26.23h0a1.87,1.87,0,0,1-.71-.51h0a1.91,1.91,0,0,1-.32-2h0a2,2,0,0,1,.51-.72h0a1.91,1.91,0,0,1,2.67.2h0a1.88,1.88,0,0,1,.32,2h0a1.73,1.73,0,0,1-.53.71A1.87,1.87,0,0,1,226.38,539.55ZM280,558.2h0a1.94,1.94,0,0,1-1.15-1.4h0a2,2,0,0,1,.11-1.06h0a1.9,1.9,0,0,1,1.39-1.16h0a1.9,1.9,0,0,1,2.22,1.51h0a2,2,0,0,1-.1,1h0A1.9,1.9,0,0,1,280,558.2Zm-47.33-22.92h0a1.91,1.91,0,0,1-.95-.87h0a1.91,1.91,0,0,1-.09-1.58h0a2,2,0,0,1,.89-1h0a1.88,1.88,0,0,1,2.55.8h0a1.87,1.87,0,0,1,.08,1.58h0a1.85,1.85,0,0,1-.88,1A1.91,1.91,0,0,1,232.67,535.28Zm45,15.66h0a1.88,1.88,0,0,1-1-1h0a1.88,1.88,0,0,1,0-1.49h0a1.84,1.84,0,0,1,1-1h0a1.88,1.88,0,0,1,2.5.95h0a1.86,1.86,0,0,1,0,1.48h0a1.88,1.88,0,0,1-1,1A1.84,1.84,0,0,1,277.7,550.94Zm-37.91-18.35h0a1.89,1.89,0,0,1-1.12-1.29h0a1.92,1.92,0,0,1,.1-1.19h0A1.87,1.87,0,0,1,240,529h0a1.9,1.9,0,0,1,2.3,1.36h0a2,2,0,0,1-.08,1.2h0a1.91,1.91,0,0,1-1.29,1.1A1.82,1.82,0,0,1,239.79,532.59Zm34,11.81h0a2,2,0,0,1-.78-.59h0a1.88,1.88,0,0,1-.23-1.88h0a1.84,1.84,0,0,1,.59-.78h0a1.89,1.89,0,0,1,2.65.35h0a1.91,1.91,0,0,1,.25,1.89h0a1.83,1.83,0,0,1-.6.76A1.89,1.89,0,0,1,273.79,544.4Zm-26.46-12.82h0a1.91,1.91,0,0,1-1.17-1.72h0a1.94,1.94,0,0,1,.14-.73h0a1.9,1.9,0,0,1,1.72-1.19h0a1.9,1.9,0,0,1,1.92,1.87h0a1.94,1.94,0,0,1-.14.73h0a1.86,1.86,0,0,1-1.72,1.18A1.76,1.76,0,0,1,247.33,531.58Zm21.17,7.36h0a1.73,1.73,0,0,1-.47-.27h0a1.94,1.94,0,0,1-.57-2.18h0a1.91,1.91,0,0,1,.3-.48h0a1.88,1.88,0,0,1,2.66-.27h0a1.87,1.87,0,0,1,.55,2.16h0a2.06,2.06,0,0,1-.28.5A1.89,1.89,0,0,1,268.5,538.94Zm-13.6-6.58h0a1.87,1.87,0,0,1-1.12-2.16h0a1.46,1.46,0,0,1,.1-.32h0a1.9,1.9,0,0,1,2.16-1.11h0a1.89,1.89,0,0,1,1.43,2.26h0c0,.1-.06.21-.1.31h0a1.9,1.9,0,0,1-2.16,1.12h0Zm7.19,2.51h0l-.11,0h0a1.92,1.92,0,0,1-.93-2.44h0l.05-.09h0a1.88,1.88,0,0,1,2.52-.87h0a1.88,1.88,0,0,1,.92,2.44h0l0,.08A1.89,1.89,0,0,1,262.09,534.87Z"/><path class="cls-1" d="M1189.15,399.13a9.85,9.85,0,1,0,12.85-5.37A9.84,9.84,0,0,0,1189.15,399.13Z"/><path class="cls-1" d="M1191.31,422.76h0a1.16,1.16,0,0,1-.65-1.44h0l0-.06h0a1.14,1.14,0,0,1,1.43-.65h0a1.16,1.16,0,0,1,.72,1.46h0l0,.06h0a1.16,1.16,0,0,1-1.45.65Zm-4.17-2h0a.7.7,0,0,1-.17-.09h0a1.15,1.15,0,0,1-.45-1.4h0a.54.54,0,0,1,.1-.18h0a1.13,1.13,0,0,1,1.57-.36h0a1.15,1.15,0,0,1,.46,1.41h0a.54.54,0,0,1-.1.18A1.14,1.14,0,0,1,1187.14,420.75Zm8.69,3h0a1.15,1.15,0,0,1-.71-1.18h0a1.08,1.08,0,0,1,.07-.31h0a1.18,1.18,0,0,1,1.19-.72h0a1.16,1.16,0,0,1,1,1.27h0a1.11,1.11,0,0,1-.08.3h0a1.14,1.14,0,0,1-1.18.72A1.16,1.16,0,0,1,1195.83,423.76Zm-12.28-5.92h0a1.14,1.14,0,0,1-.38-.25h0a1.17,1.17,0,0,1-.24-1.25h0a1.22,1.22,0,0,1,.26-.38h0a1.13,1.13,0,0,1,1.62,0h0a1.13,1.13,0,0,1,.24,1.25h0a1.22,1.22,0,0,1-.26.38A1.16,1.16,0,0,1,1183.55,417.84Zm16.9,5.85h0a1.16,1.16,0,0,1-.7-.91h0a1.05,1.05,0,0,1,.08-.59h0a1.14,1.14,0,0,1,.91-.71h0a1.16,1.16,0,0,1,1.29,1h0a1.18,1.18,0,0,1-.08.59h0a1.17,1.17,0,0,1-.92.7h0A1.16,1.16,0,0,1,1200.45,423.69Zm-19.72-9.51h0a1.12,1.12,0,0,1-.54-.47h0a1.12,1.12,0,0,1-.08-1h0a1.16,1.16,0,0,1,.47-.56h0a1.15,1.15,0,0,1,1.58.4h0a1.14,1.14,0,0,1,.08,1h0a1.12,1.12,0,0,1-.47.54A1.13,1.13,0,0,1,1180.73,414.18Zm24.2,8.36h0a1.09,1.09,0,0,1-.63-.65h0a1.09,1.09,0,0,1,0-.85h0a1.11,1.11,0,0,1,.65-.64h0a1.15,1.15,0,0,1,1.48.67h0a1.16,1.16,0,0,1,0,.86h0a1.17,1.17,0,0,1-.65.62A1.13,1.13,0,0,1,1204.93,422.54ZM1178.84,410h0a1.16,1.16,0,0,1-.66-.71h0a1.16,1.16,0,0,1,0-.78h0a1.19,1.19,0,0,1,.72-.67h0a1.16,1.16,0,0,1,1.45.75h0a1.13,1.13,0,0,1,0,.77h0a1.17,1.17,0,0,1-.72.67A1.1,1.1,0,0,1,1178.84,410ZM1209,420.4h0a1.09,1.09,0,0,1-.51-.42h0a1.11,1.11,0,0,1-.12-1.07h0a1.13,1.13,0,0,1,.43-.52h0a1.14,1.14,0,0,1,1.59.3h0a1.17,1.17,0,0,1,.13,1.08h0a1.14,1.14,0,0,1-.43.52h0A1.13,1.13,0,0,1,1209,420.4Zm-31.08-15h0a1.14,1.14,0,0,1-.71-1h0a1.21,1.21,0,0,1,.09-.54h0a1.15,1.15,0,0,1,1-.7h0a1.14,1.14,0,0,1,1.23,1.06h0a1,1,0,0,1-.08.53h0a1.13,1.13,0,0,1-1,.7A1,1,0,0,1,1178,405.43Zm34.58,11.95h0a1,1,0,0,1-.34-.22h0a1.15,1.15,0,0,1-.29-1.28h0a1,1,0,0,1,.22-.34h0a1.14,1.14,0,0,1,1.62-.07h0a1.18,1.18,0,0,1,.29,1.29h0a1,1,0,0,1-.22.33h0A1.13,1.13,0,0,1,1212.53,417.38Zm-34.39-16.57h0a1.15,1.15,0,0,1-.7-1.24h0a1.82,1.82,0,0,1,.07-.25h0a1.15,1.15,0,0,1,1.25-.71h0a1.15,1.15,0,0,1,1,1.32h0a1.83,1.83,0,0,1-.06.25h0a1.16,1.16,0,0,1-1.51.63Zm37.09,12.82h0l-.13-.06h0a1.14,1.14,0,0,1-.5-1.43h0a.52.52,0,0,1,.06-.13h0a1.14,1.14,0,0,1,1.56-.45h0a1.15,1.15,0,0,1,.51,1.43h0l-.06.13A1.15,1.15,0,0,1,1215.23,413.63Zm-35.84-17.27h0a1.15,1.15,0,0,1-.63-1.5h0l0,0h0l0-.05h0a1.16,1.16,0,0,1,1.5-.62h0a1.14,1.14,0,0,1,.62,1.5h0l0,.06h0A1.15,1.15,0,0,1,1179.39,396.36Zm37.6,13h0a1.14,1.14,0,0,1-.66-1.37h0c0-.05,0-.1,0-.14h0a1.17,1.17,0,0,1,1.37-.66h0a1.15,1.15,0,0,1,.79,1.43h0a.74.74,0,0,1,0,.14h0a1.14,1.14,0,0,1-1.37.64Zm-35.31-17.1h0a1.41,1.41,0,0,1-.24-.13h0a1.18,1.18,0,0,1-.39-1.38h0l.13-.23h0a1.16,1.16,0,0,1,1.61-.26h0a1.15,1.15,0,0,1,.38,1.38h0a1,1,0,0,1-.12.23A1.15,1.15,0,0,1,1181.68,392.25Zm36,12.54h0a1.16,1.16,0,0,1-.72-1.11h0a1,1,0,0,1,.1-.39h0a1.14,1.14,0,0,1,1.11-.71h0a1.15,1.15,0,0,1,1.1,1.2h0a1.24,1.24,0,0,1-.09.39h0a1.16,1.16,0,0,1-1.11.71A1.24,1.24,0,0,1,1217.73,404.79Zm-32.92-15.94h0a1.13,1.13,0,0,1-.44-.32h0a1.14,1.14,0,0,1-.19-1.18h0a1.14,1.14,0,0,1,.31-.44h0a1.16,1.16,0,0,1,1.63.12h0a1.15,1.15,0,0,1,.19,1.19h0a1.1,1.1,0,0,1-.32.43A1.17,1.17,0,0,1,1184.81,388.85Zm32.58,11.33h0a1.12,1.12,0,0,1-.69-.85h0a1.16,1.16,0,0,1,.06-.64h0a1.16,1.16,0,0,1,.85-.71h0a1.15,1.15,0,0,1,1.34.92h0a1.26,1.26,0,0,1,0,.64h0a1.19,1.19,0,0,1-.85.7A1.12,1.12,0,0,1,1217.39,400.18Zm-28.76-13.93h0a1.15,1.15,0,0,1-.58-.53h0a1.15,1.15,0,0,1,0-1h0a1.19,1.19,0,0,1,.54-.59h0a1.15,1.15,0,0,1,1.55.49h0a1.12,1.12,0,0,1,0,1h0a1.09,1.09,0,0,1-.53.59A1.14,1.14,0,0,1,1188.63,386.25Zm27.37,9.52h0a1.19,1.19,0,0,1-.62-.59h0a1.15,1.15,0,0,1,0-.91h0a1.13,1.13,0,0,1,.59-.61h0a1.15,1.15,0,0,1,1.52.58h0a1.13,1.13,0,0,1,0,.9h0a1.12,1.12,0,0,1-.6.61A1.09,1.09,0,0,1,1216,395.77Zm-23-11.16h0a1.12,1.12,0,0,1-.68-.78h0a1.1,1.1,0,0,1,0-.72h0a1.16,1.16,0,0,1,.78-.68h0a1.16,1.16,0,0,1,1.4.83h0a1.2,1.2,0,0,1,0,.73h0a1.19,1.19,0,0,1-.79.67A1.08,1.08,0,0,1,1193,384.61Zm20.66,7.19h0a1.26,1.26,0,0,1-.47-.36h0a1.14,1.14,0,0,1-.14-1.15h0a1.14,1.14,0,0,1,.36-.47h0a1.16,1.16,0,0,1,1.61.21h0a1.19,1.19,0,0,1,.15,1.15h0a1.1,1.1,0,0,1-.37.46A1.15,1.15,0,0,1,1213.62,391.8Zm-16.08-7.8h0a1.14,1.14,0,0,1-.71-1h0a1,1,0,0,1,.08-.45h0a1.15,1.15,0,0,1,1-.72h0a1.17,1.17,0,0,1,1.17,1.13h0a1.1,1.1,0,0,1-.09.45h0a1.14,1.14,0,0,1-1.5.63Zm12.86,4.48h0a1.17,1.17,0,0,1-.28-.17h0a1.16,1.16,0,0,1-.34-1.32h0a1.14,1.14,0,0,1,.17-.3h0a1.16,1.16,0,0,1,1.62-.16h0a1.15,1.15,0,0,1,.34,1.32h0a1.19,1.19,0,0,1-.18.3A1.16,1.16,0,0,1,1210.4,388.48Zm-8.26-4h0a1.14,1.14,0,0,1-.68-1.32h0a.82.82,0,0,1,.06-.19h0a1.15,1.15,0,0,1,1.31-.68h0a1.16,1.16,0,0,1,.87,1.38h0l-.06.19h0a1.15,1.15,0,0,1-1.31.68h0Zm4.37,1.52h0l-.07,0h0a1.16,1.16,0,0,1-.56-1.48h0a.13.13,0,0,1,0-.05h0a1.12,1.12,0,0,1,1.53-.53h0a1.13,1.13,0,0,1,.56,1.48h0l0,.05A1.15,1.15,0,0,1,1206.51,386Z"/><circle class="cls-1" cx="945.26" cy="507.36" r="36.08" transform="translate(-127.49 518.76) rotate(-28.83)"/><path class="cls-1" d="M919.83,580.23h0a4.23,4.23,0,0,1-2.38-5.29h0l.08-.21h0a4.18,4.18,0,0,1,5.26-2.39h0a4.24,4.24,0,0,1,2.63,5.36h0l-.09.21h0a4.22,4.22,0,0,1-5.29,2.38A.73.73,0,0,1,919.83,580.23Zm-15.27-7.37h0a3.13,3.13,0,0,1-.66-.33h0a4.25,4.25,0,0,1-1.65-5.13h0a3.36,3.36,0,0,1,.37-.67h0a4.18,4.18,0,0,1,5.78-1.3h0a4.23,4.23,0,0,1,1.68,5.15h0a3.38,3.38,0,0,1-.36.64A4.2,4.2,0,0,1,904.56,572.86Zm31.79,11h0a4.23,4.23,0,0,1-2.59-4.31h0a3.9,3.9,0,0,1,.28-1.13h0a4.24,4.24,0,0,1,4.34-2.64h0a4.22,4.22,0,0,1,3.76,4.64h0a3.7,3.7,0,0,1-.27,1.1h0a4.21,4.21,0,0,1-4.33,2.65A4.74,4.74,0,0,1,936.35,583.86Zm-45-21.65h0a4.42,4.42,0,0,1-1.4-.94h0a4.26,4.26,0,0,1-.88-4.58h0a4.74,4.74,0,0,1,1-1.39h0a4.17,4.17,0,0,1,5.94.1h0a4.13,4.13,0,0,1,.86,4.54h0a4.17,4.17,0,0,1-5.48,2.27Zm61.9,21.4h0a4.21,4.21,0,0,1-2.57-3.34h0a4.1,4.1,0,0,1,.28-2.16h0a4.19,4.19,0,0,1,3.33-2.57h0a4.21,4.21,0,0,1,4.74,3.61h0a4.28,4.28,0,0,1-.29,2.16h0a4.2,4.2,0,0,1-3.36,2.57h0A4.56,4.56,0,0,1,953.3,583.61ZM881.07,548.8h0a4.2,4.2,0,0,1-2-1.73h0a4.17,4.17,0,0,1-.28-3.75h0a4.07,4.07,0,0,1,1.71-2h0a4.19,4.19,0,0,1,5.78,1.46h0a4.17,4.17,0,0,1,.3,3.77h0a4.25,4.25,0,0,1-5.52,2.28Zm88.63,30.62h0a4.08,4.08,0,0,1-2.31-2.41h0a4.1,4.1,0,0,1,0-3.1h0a4.26,4.26,0,0,1,2.38-2.33h0a4.23,4.23,0,0,1,5.43,2.44h0a4.16,4.16,0,0,1,0,3.14h0a4.18,4.18,0,0,1-2.38,2.3A4.22,4.22,0,0,1,969.7,579.42Zm-95.57-46.06h0a4.21,4.21,0,0,1-2.42-2.61h0a4.24,4.24,0,0,1,.1-2.84h0a4.33,4.33,0,0,1,2.62-2.47h0a4.27,4.27,0,0,1,5.31,2.76h0a4.25,4.25,0,0,1-.11,2.84h0a4.2,4.2,0,0,1-2.64,2.43A4.07,4.07,0,0,1,874.13,533.36Zm110.6,38.22h0a4.2,4.2,0,0,1-1.89-1.53h0a4.12,4.12,0,0,1-.41-3.94h0A4.1,4.1,0,0,1,984,564.2v0a4.18,4.18,0,0,1,5.83,1.1h0a4.23,4.23,0,0,1,.44,3.94h0a4.25,4.25,0,0,1-1.54,1.91h0A4.18,4.18,0,0,1,984.73,571.58ZM870.88,516.73h0a4.2,4.2,0,0,1-2.6-3.55h0a4.31,4.31,0,0,1,.32-2h0a4.2,4.2,0,0,1,3.57-2.56h0a4.2,4.2,0,0,1,4.51,3.88h0a4.27,4.27,0,0,1-.31,1.93h0a4.19,4.19,0,0,1-3.58,2.57A4,4,0,0,1,870.88,516.73Zm126.65,43.79h0a4.16,4.16,0,0,1-1.25-.82h0a4.2,4.2,0,0,1-1-4.68h0a4.87,4.87,0,0,1,.79-1.25h0a4.2,4.2,0,0,1,6-.25h0a4.21,4.21,0,0,1,1,4.7h0a4.26,4.26,0,0,1-.78,1.23h0A4.21,4.21,0,0,1,997.53,560.52Zm-125.95-60.7h0a4.2,4.2,0,0,1-2.56-4.54h0a3.61,3.61,0,0,1,.26-.93h0a4.17,4.17,0,0,1,4.55-2.59h0a4.22,4.22,0,0,1,3.51,4.84h0a5.73,5.73,0,0,1-.25.9h0a4.22,4.22,0,0,1-4.58,2.57A3.65,3.65,0,0,1,871.58,499.82Zm135.84,46.95h0c-.15-.06-.3-.15-.45-.22h0a4.18,4.18,0,0,1-1.85-5.25h0a3.44,3.44,0,0,1,.23-.48h0a4.18,4.18,0,0,1,5.7-1.63h0a4.23,4.23,0,0,1,1.89,5.24h0c-.08.18-.17.32-.23.48A4.22,4.22,0,0,1,1007.42,546.77ZM876.16,483.52h0a4.21,4.21,0,0,1-2.3-5.49h0l.06-.13h0l.06-.16h0a4.24,4.24,0,0,1,5.52-2.28h0a4.21,4.21,0,0,1,2.26,5.51h0l-.09.21h0l0,.05A4.21,4.21,0,0,1,876.16,483.52Zm137.73,47.58h0a4.21,4.21,0,0,1-2.45-5h0a4.24,4.24,0,0,1,.18-.5h0a4.23,4.23,0,0,1,5-2.4h0a4.2,4.2,0,0,1,2.89,5.22h0a2.84,2.84,0,0,1-.18.51h0a4.18,4.18,0,0,1-5,2.37A2.63,2.63,0,0,1,1013.89,531.1ZM884.53,468.45h0a4.13,4.13,0,0,1-.87-.47h0a4.25,4.25,0,0,1-1.41-5h0a6.19,6.19,0,0,1,.46-.84h0a4.26,4.26,0,0,1,5.89-1h0a4.21,4.21,0,0,1,1.41,5.05h0a3.6,3.6,0,0,1-.46.84A4.21,4.21,0,0,1,884.53,468.45Zm132,45.94h0a4.23,4.23,0,0,1-2.6-4.07h0a3.75,3.75,0,0,1,.34-1.43h0a4.18,4.18,0,0,1,4.07-2.58h0a4.19,4.19,0,0,1,4,4.38h0a4.14,4.14,0,0,1-.31,1.42h0a4.19,4.19,0,0,1-5.52,2.28ZM896,456h0a4.18,4.18,0,0,1-1.59-1.14h0a4.22,4.22,0,0,1-.7-4.35h0a4.22,4.22,0,0,1,1.14-1.6h0a4.24,4.24,0,0,1,5.95.44h0a4.22,4.22,0,0,1,.7,4.36h0a4,4,0,0,1-1.17,1.58A4.18,4.18,0,0,1,896,456Zm119.36,41.52h0a4.25,4.25,0,0,1-2.55-3.11h0A4.19,4.19,0,0,1,1013,492h0a4.2,4.2,0,0,1,3.1-2.58h0a4.21,4.21,0,0,1,4.93,3.36h0a4.4,4.4,0,0,1-.21,2.34h0a4.23,4.23,0,0,1-3.12,2.57A4.09,4.09,0,0,1,1015.35,497.51ZM910,446.48h0a4.09,4.09,0,0,1-2.12-1.93h0a4.24,4.24,0,0,1-.19-3.51h0a4.24,4.24,0,0,1,2-2.16h0a4.17,4.17,0,0,1,5.67,1.79h0a4.14,4.14,0,0,1,.17,3.5h0a4.07,4.07,0,0,1-2,2.17A4.25,4.25,0,0,1,910,446.48Zm100.24,34.88h0a4.21,4.21,0,0,1-2.26-2.17h0a4.17,4.17,0,0,1,0-3.32h0a4,4,0,0,1,2.16-2.24h0a4.2,4.2,0,0,1,5.57,2.11h0a4.17,4.17,0,0,1,.06,3.3h0a4.25,4.25,0,0,1-5.5,2.32Zm-84.4-40.86h0a4.26,4.26,0,0,1-2.49-2.88h0a4.26,4.26,0,0,1,.21-2.65h0a4.2,4.2,0,0,1,2.84-2.47h0a4.23,4.23,0,0,1,5.12,3h0a4.28,4.28,0,0,1-.18,2.66h0a4.29,4.29,0,0,1-2.86,2.46A4.16,4.16,0,0,1,925.84,440.5Zm75.7,26.3h0a4.39,4.39,0,0,1-1.74-1.32h0a4.19,4.19,0,0,1-.52-4.19h0a4.14,4.14,0,0,1,1.32-1.73h0a4.22,4.22,0,0,1,5.9.78h0a4.3,4.3,0,0,1,.55,4.21h0a4.1,4.1,0,0,1-1.34,1.69A4.19,4.19,0,0,1,1001.54,466.8Zm-58.91-28.54h0a4.24,4.24,0,0,1-2.61-3.84h0a4,4,0,0,1,.31-1.63h0a4.25,4.25,0,0,1,3.84-2.64h0a4.24,4.24,0,0,1,4.27,4.16h0a4.15,4.15,0,0,1-.3,1.63h0a4.23,4.23,0,0,1-3.85,2.64A4.42,4.42,0,0,1,942.63,438.26Zm47.12,16.39h0a4.59,4.59,0,0,1-1-.62h0a4.27,4.27,0,0,1-1.25-4.85h0a4,4,0,0,1,.65-1.07h0a4.2,4.2,0,0,1,5.92-.6h0a4.18,4.18,0,0,1,1.24,4.82h0a4.06,4.06,0,0,1-.64,1.1A4.24,4.24,0,0,1,989.75,454.65ZM959.49,440h0a4.21,4.21,0,0,1-2.51-4.83h0a6.85,6.85,0,0,1,.22-.69h0A4.23,4.23,0,0,1,962,432h0a4.22,4.22,0,0,1,3.18,5h0c-.06.22-.13.46-.22.7h0a4.24,4.24,0,0,1-4.79,2.49h0A6.56,6.56,0,0,1,959.49,440Zm16,5.57h0l-.26-.11h0a4.24,4.24,0,0,1-2.05-5.42h0a.56.56,0,0,1,.11-.2h0a4.16,4.16,0,0,1,5.6-1.94h0a4.16,4.16,0,0,1,2.05,5.42h0l-.08.18A4.2,4.2,0,0,1,975.49,445.57Z"/><circle class="cls-1" cx="71.98" cy="354.88" r="22.65" transform="matrix(0.99, -0.11, 0.11, 0.99, -37.26, 9.65)"/><path class="cls-1" d="M56,400.63h0a2.67,2.67,0,0,1-1.5-3.32h0l.06-.13h0a2.62,2.62,0,0,1,3.3-1.5h0A2.65,2.65,0,0,1,59.52,399h0l-.06.13h0a2.64,2.64,0,0,1-3.31,1.5ZM46.42,396h0a2.65,2.65,0,0,1-.41-.21h0a2.7,2.7,0,0,1-1-3.23h0a4.36,4.36,0,0,1,.23-.42h0a2.63,2.63,0,0,1,3.63-.81h0a2.65,2.65,0,0,1,1.06,3.23h0a1.6,1.6,0,0,1-.23.4A2.64,2.64,0,0,1,46.42,396Zm20,6.9h0a2.66,2.66,0,0,1-1.63-2.71h0a2.32,2.32,0,0,1,.17-.7h0a2.67,2.67,0,0,1,2.72-1.67h0A2.67,2.67,0,0,1,70,400.75h0a2.25,2.25,0,0,1-.17.69h0a2.63,2.63,0,0,1-2.72,1.66A2.52,2.52,0,0,1,66.39,402.91Zm-28.23-13.6h0a2.62,2.62,0,0,1-.88-.59h0a2.68,2.68,0,0,1-.55-2.87h0a3.27,3.27,0,0,1,.6-.88h0a2.63,2.63,0,0,1,3.73.07h0a2.58,2.58,0,0,1,.54,2.85h0a2.48,2.48,0,0,1-.59.88A2.64,2.64,0,0,1,38.16,389.31ZM77,402.75h0a2.63,2.63,0,0,1-1.62-2.09h0a2.57,2.57,0,0,1,.18-1.36h0a2.64,2.64,0,0,1,2.09-1.62h0a2.64,2.64,0,0,1,3,2.27h0a2.61,2.61,0,0,1-.18,1.36h0a2.65,2.65,0,0,1-2.11,1.61h0A2.75,2.75,0,0,1,77,402.75ZM31.67,380.9h0a2.68,2.68,0,0,1-1.25-1.09h0a2.64,2.64,0,0,1-.17-2.36h0a2.56,2.56,0,0,1,1.08-1.27h0a2.62,2.62,0,0,1,3.62.92h0a2.58,2.58,0,0,1,.19,2.36h0a2.62,2.62,0,0,1-1.08,1.25A2.67,2.67,0,0,1,31.67,380.9Zm55.65,19.22h0a2.55,2.55,0,0,1-1.45-1.51h0a2.58,2.58,0,0,1,0-1.95h0a2.66,2.66,0,0,1,1.5-1.46h0a2.65,2.65,0,0,1,3.4,1.53h0a2.58,2.58,0,0,1,0,2h0a2.63,2.63,0,0,1-1.49,1.45A2.7,2.7,0,0,1,87.32,400.12Zm-60-28.92h0a2.63,2.63,0,0,1-1.51-1.63h0a2.67,2.67,0,0,1,.06-1.79h0a2.75,2.75,0,0,1,1.65-1.55h0A2.68,2.68,0,0,1,30.84,368h0a2.64,2.64,0,0,1-.07,1.78h0a2.64,2.64,0,0,1-1.66,1.53A2.53,2.53,0,0,1,27.31,371.2Zm69.45,24h0a2.64,2.64,0,0,1-1.19-1h0a2.6,2.6,0,0,1-.26-2.47h0a2.57,2.57,0,0,1,1-1.21v0a2.63,2.63,0,0,1,3.67.69h0a2.64,2.64,0,0,1,.27,2.47h0a2.58,2.58,0,0,1-1,1.2h0A2.6,2.6,0,0,1,96.76,395.2ZM25.28,360.76h0a2.64,2.64,0,0,1-1.64-2.23h0a2.67,2.67,0,0,1,.21-1.23h0a2.65,2.65,0,0,1,2.24-1.62h0a2.66,2.66,0,0,1,2.83,2.44h0a2.64,2.64,0,0,1-.2,1.22h0A2.62,2.62,0,0,1,26.48,361,2.43,2.43,0,0,1,25.28,360.76Zm79.51,27.49h0a2.39,2.39,0,0,1-.78-.51h0a2.63,2.63,0,0,1-.66-2.94h0a3,3,0,0,1,.5-.78h0a2.63,2.63,0,0,1,3.74-.16h0a2.65,2.65,0,0,1,.65,2.95h0a2.34,2.34,0,0,1-.49.77h0A2.64,2.64,0,0,1,104.79,388.25ZM25.72,350.14h0a2.63,2.63,0,0,1-1.61-2.85h0a2.46,2.46,0,0,1,.16-.58h0a2.63,2.63,0,0,1,2.86-1.63h0a2.66,2.66,0,0,1,2.2,3h0a2.84,2.84,0,0,1-.16.57h0a2.64,2.64,0,0,1-2.87,1.61A1.92,1.92,0,0,1,25.72,350.14ZM111,379.62h0l-.29-.13h0a2.64,2.64,0,0,1-1.16-3.3h0a2,2,0,0,1,.14-.3h0a2.63,2.63,0,0,1,3.59-1h0a2.67,2.67,0,0,1,1.18,3.29h0l-.14.3A2.64,2.64,0,0,1,111,379.62ZM28.59,339.91h0a2.64,2.64,0,0,1-1.44-3.45h0l0-.08h0l0-.1h0a2.67,2.67,0,0,1,3.47-1.43h0a2.65,2.65,0,0,1,1.42,3.46h0l-.06.13h0v0A2.64,2.64,0,0,1,28.59,339.91Zm86.48,29.88h0a2.66,2.66,0,0,1-1.54-3.17h0a2,2,0,0,1,.11-.32h0a2.65,2.65,0,0,1,3.15-1.5h0a2.64,2.64,0,0,1,1.82,3.28h0c0,.1-.07.2-.11.31h0a2.63,2.63,0,0,1-3.15,1.49A1.84,1.84,0,0,1,115.07,369.79ZM33.85,330.45h0a2.49,2.49,0,0,1-.55-.3h0a2.67,2.67,0,0,1-.89-3.16h0a3.44,3.44,0,0,1,.3-.53h0a2.66,2.66,0,0,1,3.69-.6h0a2.66,2.66,0,0,1,.89,3.17h0a2.18,2.18,0,0,1-.29.52A2.63,2.63,0,0,1,33.85,330.45Zm82.9,28.84h0a2.67,2.67,0,0,1-1.64-2.55h0a2.43,2.43,0,0,1,.22-.9h0a2.62,2.62,0,0,1,2.55-1.62h0a2.63,2.63,0,0,1,2.53,2.75h0a2.88,2.88,0,0,1-.19.89h0a2.72,2.72,0,0,1-2.56,1.64A2.75,2.75,0,0,1,116.75,359.29ZM41,322.63h0a2.77,2.77,0,0,1-1-.72h0a2.68,2.68,0,0,1-.44-2.73h0a2.61,2.61,0,0,1,.72-1h0a2.64,2.64,0,0,1,3.73.27h0a2.63,2.63,0,0,1,.44,2.74h0a2.48,2.48,0,0,1-.73,1A2.64,2.64,0,0,1,41,322.63ZM116,348.69h0a2.66,2.66,0,0,1-1.6-1.95h0a2.75,2.75,0,0,1,.15-1.48h0a2.65,2.65,0,0,1,2-1.62h0a2.64,2.64,0,0,1,3.09,2.11h0a2.61,2.61,0,0,1-.13,1.47h0a2.63,2.63,0,0,1-2,1.61A2.56,2.56,0,0,1,116,348.69Zm-66.14-32h0a2.62,2.62,0,0,1-1.33-1.22h0a2.62,2.62,0,0,1-.12-2.2h0a2.64,2.64,0,0,1,1.24-1.36h0A2.63,2.63,0,0,1,53.19,313h0a2.58,2.58,0,0,1,.11,2.2h0a2.51,2.51,0,0,1-1.23,1.36A2.65,2.65,0,0,1,49.84,316.66Zm62.93,21.9h0a2.75,2.75,0,0,1-1.42-1.37h0a2.68,2.68,0,0,1,0-2.08h0a2.57,2.57,0,0,1,1.36-1.41h0a2.64,2.64,0,0,1,3.5,1.32h0a2.64,2.64,0,0,1,0,2.08h0a2.58,2.58,0,0,1-1.38,1.41A2.64,2.64,0,0,1,112.77,338.56Zm-53-25.66h0a2.66,2.66,0,0,1-1.57-1.81h0a2.75,2.75,0,0,1,.13-1.66h0a2.64,2.64,0,0,1,1.78-1.55h0a2.66,2.66,0,0,1,3.22,1.91h0a2.78,2.78,0,0,1-.11,1.67h0a2.71,2.71,0,0,1-1.8,1.54A2.64,2.64,0,0,1,59.79,312.9Zm47.52,16.51h0a2.76,2.76,0,0,1-1.09-.82h0a2.66,2.66,0,0,1-.33-2.64h0a2.6,2.6,0,0,1,.83-1.08h0a2.64,2.64,0,0,1,3.7.49h0a2.66,2.66,0,0,1,.35,2.64h0a2.59,2.59,0,0,1-.84,1.06A2.63,2.63,0,0,1,107.31,329.41Zm-37-17.92h0a2.64,2.64,0,0,1-1.64-2.4h0a2.49,2.49,0,0,1,.19-1h0a2.67,2.67,0,0,1,2.41-1.66h0A2.67,2.67,0,0,1,74,309h0a2.7,2.7,0,0,1-.2,1h0a2.63,2.63,0,0,1-2.41,1.65A2.44,2.44,0,0,1,70.33,311.49Zm29.58,10.29h0a3,3,0,0,1-.66-.38h0a2.7,2.7,0,0,1-.79-3h0a2.63,2.63,0,0,1,.41-.67h0a2.64,2.64,0,0,1,3.72-.38h0a2.62,2.62,0,0,1,.78,3h0a2.82,2.82,0,0,1-.4.69A2.66,2.66,0,0,1,99.91,321.78Zm-19-9.2h0a2.64,2.64,0,0,1-1.58-3h0a4.28,4.28,0,0,1,.14-.43h0a2.66,2.66,0,0,1,3-1.56h0a2.64,2.64,0,0,1,2,3.16h0a4.43,4.43,0,0,1-.14.44h0a2.66,2.66,0,0,1-3,1.57h0A3,3,0,0,1,80.91,312.58Zm10,3.5h0l-.17-.06h0a2.66,2.66,0,0,1-1.28-3.41h0a.29.29,0,0,1,.07-.12h0a2.61,2.61,0,0,1,3.51-1.23h0a2.62,2.62,0,0,1,1.29,3.41h0l0,.11A2.63,2.63,0,0,1,91,316.08Z"/></svg>
