<svg xmlns="http://www.w3.org/2000/svg" width="419.03" height="198.65" viewBox="0 0 419.03 198.65"><defs><style>.cls-1{fill:#dee1e2;}.cls-2{fill:#fff;}.cls-3{fill:#9a1220;}.cls-4{fill:#8b9da1;}</style></defs><title>left-1</title><g id="Layer_2" data-name="Layer 2"><g id="Layer_1-2" data-name="Layer 1"><path class="cls-1" d="M419,186.22,169,109.45a85,85,0,1,0-3,12.68l249.27,76.52Z"/><circle class="cls-2" cx="85" cy="36.49" r="33.26"/><path class="cls-3" d="M85,73a36.49,36.49,0,1,1,36.49-36.49A36.53,36.53,0,0,1,85,73ZM85,6.46a30,30,0,1,0,30,30A30.06,30.06,0,0,0,85,6.46Z"/><path class="cls-2" d="M85,81.54c-31.09,0-54.59,20.61-54.59,59.55v36H139.59v-36C139.59,102.15,116.09,81.54,85,81.54Z"/><path class="cls-3" d="M139.59,180.33H30.41v-3.18H27.18V141.09C27.18,103,49.88,78.31,85,78.31s57.82,24.64,57.82,62.78v36.06h-3.23ZM33.64,173.87H136.36V141.09c0-34.74-19.68-56.32-51.36-56.32s-51.36,21.58-51.36,56.32Z"/><path class="cls-2" d="M60.58,38.4l.32.94a73,73,0,0,1,3.85,26.31h0a72.24,72.24,0,0,0,19.32,2.58,73.24,73.24,0,0,0,19.4-2.58h0a73.14,73.14,0,0,1,3.78-26.34l.31-.92"/><path class="cls-4" d="M84.07,70.83A74.35,74.35,0,0,1,64,68.13l-1.92-.6.11-2a70.12,70.12,0,0,0-3.72-25.36l-.32-.94L63,37.56l.32.95a74.94,74.94,0,0,1,4,25.17,72.57,72.57,0,0,0,16.69,2,74,74,0,0,0,16.76-2,75.25,75.25,0,0,1,4-25.19l.31-.92L110,39.23l-.31.92a70.22,70.22,0,0,0-3.65,25.4l.09,2-1.91.59A75.18,75.18,0,0,1,84.07,70.83Z"/><path class="cls-4" d="M82.36,43.88c-19.48,0-31.41-5.66-32.15-6l2.27-4.64-1.13,2.32,1.13-2.33c.25.13,26,12.23,63.5-.13L117.6,38A112.42,112.42,0,0,1,82.36,43.88Z"/></g></g></svg>