<svg xmlns="http://www.w3.org/2000/svg" width="241.91" height="205.97" viewBox="0 0 241.91 205.97"><defs><style>.cls-1{fill:#dee1e2;}.cls-2{fill:#fff;}.cls-3{fill:#231f20;}.cls-4{fill:#8b9da1;}</style></defs><title>left-2</title><g id="Layer_2" data-name="Layer 2"><g id="Layer_1-2" data-name="Layer 1"><path class="cls-1" d="M241.91,10.19,233.84,0,117.14,92.39a65.05,65.05,0,1,0,13.68,39.83,64.73,64.73,0,0,0-6.72-28.76Z"/><circle class="cls-2" cx="65.41" cy="88.29" r="27.21"/><path class="cls-3" d="M65.41,118.14A29.85,29.85,0,1,1,95.26,88.29,29.88,29.88,0,0,1,65.41,118.14Zm0-54.42A24.57,24.57,0,1,0,90,88.29,24.6,24.6,0,0,0,65.41,63.72Z"/><path class="cls-2" d="M65.41,125.14C40,125.14,20.75,142,20.75,173.86v29.46h89.32V173.86C110.07,142,90.84,125.14,65.41,125.14Z"/><path class="cls-3" d="M110.07,206H20.75v-2.61H18.11v-29.5c0-31.2,18.57-51.36,47.3-51.36s47.3,20.16,47.3,51.36v29.5h-2.64ZM23.4,200.68h84V173.86c0-28.42-16.1-46.07-42-46.07s-42,17.65-42,46.07Z"/><path class="cls-2" d="M45.43,89.85l.26.77a59.62,59.62,0,0,1,3.15,21.52h0a58.85,58.85,0,0,0,15.81,2.12,59.69,59.69,0,0,0,15.87-2.12h0A59.76,59.76,0,0,1,83.61,90.6l.26-.75"/><path class="cls-4" d="M64.65,116.38a60.86,60.86,0,0,1-16.44-2.21l-1.58-.49.1-1.66a57.13,57.13,0,0,0-3-20.72l-.26-.77,4-1.36.26.77a61.47,61.47,0,0,1,3.3,20.6,59,59,0,0,0,27.37,0,61.74,61.74,0,0,1,3.25-20.61l.26-.76,4,1.36-.25.75a57.34,57.34,0,0,0-3,20.79l.07,1.62-1.56.48A61.37,61.37,0,0,1,64.65,116.38Z"/><path class="cls-4" d="M63.25,94.34c-15.93,0-25.69-4.63-26.3-4.93l1.85-3.8c.21.1,21.28,10,52-.11l1.32,4A91.9,91.9,0,0,1,63.25,94.34Z"/></g></g></svg>