<svg id="Layer_1" data-name="Layer 1" xmlns="http://www.w3.org/2000/svg" xmlns:xlink="http://www.w3.org/1999/xlink" viewBox="0 0 842 250"><defs><style>.cls-1{fill:#007c91;}.cls-2{fill:#004568;}</style><symbol id="logo_wide" data-name="logo wide" viewBox="0 0 341.52 100.08"><path class="cls-1" d="M275,37.34V60.08h-2.29V49.89h-10.6V60.08h-2.32V37.34h2.32V47.56h10.6V37.34Z"/><path class="cls-1" d="M282.36,59.09a8.58,8.58,0,0,1-3.16-3.17A8.38,8.38,0,0,1,278,51.6a8.47,8.47,0,0,1,1.16-4.36,8.76,8.76,0,0,1,3.16-3.18,8.57,8.57,0,0,1,8.68,0,8.81,8.81,0,0,1,3.18,3.18,8.4,8.4,0,0,1,1.18,4.36,8.31,8.31,0,0,1-1.18,4.32A8.63,8.63,0,0,1,291,59.09a8.7,8.7,0,0,1-8.68,0Zm7.52-2a6.35,6.35,0,0,0,2.31-2.32A6.21,6.21,0,0,0,293,51.6a6.33,6.33,0,0,0-.85-3.22,6.42,6.42,0,0,0-2.31-2.32,6.37,6.37,0,0,0-6.36,0,6.36,6.36,0,0,0-3.16,5.54,6.36,6.36,0,0,0,3.16,5.5,6.31,6.31,0,0,0,6.36,0Z"/><path class="cls-1" d="M318.1,43.82a6.09,6.09,0,0,1,2.27,2.29,6.2,6.2,0,0,1,.84,3.16V60.08h-2.32V49.27a3.94,3.94,0,0,0-7.87,0V60.08h-2.35V49.24a3.71,3.71,0,0,0-1.17-2.75,3.86,3.86,0,0,0-5.53,0,3.88,3.88,0,0,0-1.17,2.82V60.08h-2.32V43.43h2.32v1.33a4.84,4.84,0,0,1,1.76-1.3,5.29,5.29,0,0,1,2.17-.48,6,6,0,0,1,2.89.72,6.32,6.32,0,0,1,2.21,1.92,6.61,6.61,0,0,1,2.24-1.92A6,6,0,0,1,315,43,6.1,6.1,0,0,1,318.1,43.82Z"/><path class="cls-1" d="M326.75,52.8A6.29,6.29,0,0,0,336,57.1,6.21,6.21,0,0,0,338.24,55l2,1.16a8.63,8.63,0,0,1-3.11,3,8.53,8.53,0,0,1-8.54,0,8.73,8.73,0,0,1-3.15-3.15,8.61,8.61,0,0,1,0-8.63,8.75,8.75,0,0,1,3.15-3.13,8.57,8.57,0,0,1,8.61,0,8.83,8.83,0,0,1,3.15,3.13,8.37,8.37,0,0,1,1.16,4.32c0,.28,0,.66-.07,1.17ZM330,46A6.24,6.24,0,0,0,327.64,48a4.35,4.35,0,0,0-.89,2.61h12.31a4.35,4.35,0,0,0-.89-2.61A6.29,6.29,0,0,0,335.86,46a6.57,6.57,0,0,0-5.9,0Z"/><path class="cls-1" d="M14,39.85H8.17V60.29H5.85V39.85H0V37.56H14Z"/><path class="cls-1" d="M20.27,45.39a4,4,0,0,0-3.93,3.93v11H14v-11a6.23,6.23,0,0,1,3.52-5.64l.06,0a6.48,6.48,0,0,1,2.67-.58,6.22,6.22,0,0,1,3.9,1.33l-2.33,1.34A3.83,3.83,0,0,0,20.27,45.39Z"/><path class="cls-1" d="M41.09,43.64V60.29H38.73V57.15a7.35,7.35,0,0,1-6.29,3.31,8.6,8.6,0,1,1,0-17.19,7.18,7.18,0,0,1,4,1,7.62,7.62,0,0,1,2.31,2.18V43.64ZM35.59,57.3A6.33,6.33,0,0,0,37.86,55a6.14,6.14,0,0,0,.84-3.15,6.3,6.3,0,0,0-3.11-5.45,6.14,6.14,0,0,0-3.15-.84,6.2,6.2,0,0,0-3.16.84A6.14,6.14,0,0,0,27,48.72a6.2,6.2,0,0,0-.84,3.16A6.14,6.14,0,0,0,27,55a6.3,6.3,0,0,0,5.45,3.11A6.14,6.14,0,0,0,35.59,57.3Z"/><path class="cls-1" d="M58.66,57.42a8.75,8.75,0,0,1-2.92,2.24,8.63,8.63,0,0,1-8-.36,8.55,8.55,0,0,1-3.14-3.15,8.51,8.51,0,0,1,0-8.61,8.7,8.7,0,0,1,3.14-3.15,8.42,8.42,0,0,1,4.31-1.16,8.32,8.32,0,0,1,3.64.81,8.62,8.62,0,0,1,2.92,2.24l-2.08,1.19a6.05,6.05,0,0,0-2-1.38,6.22,6.22,0,0,0-2.46-.5,6.14,6.14,0,0,0-3.15.84,6.39,6.39,0,0,0-2.29,2.27,6.05,6.05,0,0,0-.85,3.15A6,6,0,0,0,46.66,55,6.41,6.41,0,0,0,49,57.27a6.4,6.4,0,0,0,5.61.34,5.93,5.93,0,0,0,2-1.39Z"/><path class="cls-1" d="M70.32,60.29,64.1,53v7.28H61.74V37.39H64.1V48.26l5.6-5.06h3.53l-8.18,7.35,8.38,9.74Z"/><path class="cls-2" d="M87.46,59a11.58,11.58,0,0,1-4.17-4.17,11.64,11.64,0,0,1,0-11.57A11.51,11.51,0,0,1,87.48,39a11.17,11.17,0,0,1,5.76-1.56,11.43,11.43,0,0,1,4.82,1,10.68,10.68,0,0,1,3.9,3L100.18,43a9.16,9.16,0,0,0-3.13-2.34,9,9,0,0,0-3.81-.84,8.79,8.79,0,0,0-4.56,1.25,9.3,9.3,0,0,0-3.34,3.37A9,9,0,0,0,84.11,49a8.86,8.86,0,0,0,1.23,4.56,9.14,9.14,0,0,0,3.34,3.34,8.86,8.86,0,0,0,4.56,1.23,9,9,0,0,0,3.81-.84A9.16,9.16,0,0,0,100.18,55l1.78,1.5a11.1,11.1,0,0,1-3.9,3,11.44,11.44,0,0,1-4.82,1.06A11.31,11.31,0,0,1,87.46,59Z"/><path class="cls-2" d="M109.68,58.92a11.51,11.51,0,0,1-4.13-4.13,11.39,11.39,0,0,1,0-11.44,11.47,11.47,0,0,1,4.15-4.15,11.32,11.32,0,0,1,11.4,0,11.27,11.27,0,0,1,4.17,4.17,11.32,11.32,0,0,1,0,11.4,11.47,11.47,0,0,1-4.15,4.15,11.39,11.39,0,0,1-11.44,0Zm10.26-2a9.1,9.1,0,0,0,3.3-12.39,9,9,0,0,0-3.3-3.3,9.14,9.14,0,0,0-9.09,0,9,9,0,0,0-3.3,3.3,9.07,9.07,0,0,0,12.39,12.39Z"/><path class="cls-2" d="M135.08,60.26l-7.93-22.74h2.5l6.94,19.87,6.94-19.87H146l-7.93,22.74Z"/><path class="cls-2" d="M151.39,37.56V60.29h-2.32V37.56Z"/><path class="cls-2" d="M154.81,60.29V37.52h5.74a11,11,0,0,1,5.71,1.54,11.73,11.73,0,0,1,4.14,4.14,11.36,11.36,0,0,1,0,11.42,11.62,11.62,0,0,1-4.14,4.13,10.94,10.94,0,0,1-5.71,1.54ZM160.55,58a8.89,8.89,0,0,0,4.55-1.22,9,9,0,0,0,3.3-3.3,9.14,9.14,0,0,0,0-9.09,9,9,0,0,0-3.3-3.3,8.88,8.88,0,0,0-4.55-1.21h-3.38V58Z"/><path class="cls-2" d="M242.39,48.15V60.29h-1.72V58a5.37,5.37,0,0,1-4.59,2.42,6.28,6.28,0,0,1-3.16-11.71,6.27,6.27,0,0,1,3.16-.83,5.28,5.28,0,0,1,2.91.73,5.5,5.5,0,0,1,1.68,1.59V48.15Zm-4,10a4.54,4.54,0,0,0,2.27-4,4.64,4.64,0,0,0-.61-2.31,4.6,4.6,0,0,0-6.26-1.67,4.56,4.56,0,0,0-2.28,4,4.44,4.44,0,0,0,.61,2.29,4.58,4.58,0,0,0,4,2.27A4.45,4.45,0,0,0,238.38,58.11Z"/><path class="cls-2" d="M250.49,49.52h-2.07V60.29H246.7V49.52h-2.07V47.83h2.07V43.71h1.72v4.12h2.07Z"/><path class="cls-2" d="M184.79,65.78l-11.9,9.9a3.37,3.37,0,0,1,.21,2.77,3.66,3.66,0,1,1-2.31-4.62,2.17,2.17,0,0,1,.84.39L183.4,64.4C183.84,64.88,184.3,65.34,184.79,65.78Z"/><path class="cls-2" d="M230,27.71a4.65,4.65,0,0,0,4,.87,4.9,4.9,0,1,0-5.84-3.73,2.57,2.57,0,0,0,.49,1.42l-9.77,8.47c.36.48.7,1,1,1.46Z"/><path class="cls-2" d="M246.13,82.73a3.57,3.57,0,0,0-4.71-2.13,1.93,1.93,0,0,0-.78.45L218.47,63.12c-.4.5-.83,1-1.27,1.45l22.2,18.05a3.49,3.49,0,0,0-.11,2.81A3.57,3.57,0,0,0,244,87.56,3.73,3.73,0,0,0,246.13,82.73Z"/><path class="cls-2" d="M162,16.47a5,5,0,0,0,.34-4,4.9,4.9,0,1,0-2.92,6.28,3.87,3.87,0,0,0,1.35-.78l20.85,17.22q.54-.75,1.14-1.47Z"/><path class="cls-2" d="M208.88,7.34a2.17,2.17,0,0,0,.9-.23,3.55,3.55,0,0,0,2.13-4.71A3.55,3.55,0,0,0,207.2.27,3.55,3.55,0,0,0,205.07,5,3.4,3.4,0,0,0,207,7l-3.31,18.79c.65.09,1.29.2,1.92.34Z"/><path class="cls-2" d="M192.35,90.26a3.65,3.65,0,0,0-1.57.33,5.09,5.09,0,1,0,3.48.12l3.56-19c-.66-.07-1.3-.17-1.94-.29Z"/><path class="cls-2" d="M200.37,28.54A20.13,20.13,0,1,0,220.5,48.67,20.09,20.09,0,0,0,200.37,28.54Zm8.89,29.64h-7.11V51.07H198.6v7.11h-7.12V50l8.89-8.89L209.26,50ZM211.78,50,200.37,38.62,189,50l-1.26-1.26,12.66-12.66L213,48.77Z"/></symbol></defs><use width="341.52" height="100.08" transform="translate(2 2.21) scale(2.45 2.45)" xlink:href="#logo_wide"/></svg>