<svg xmlns="http://www.w3.org/2000/svg" width="361.74" height="361.74" viewBox="0 0 361.74 361.74"><defs><style>.cls-1{fill:#dee1e2;}.cls-2{fill:#fff;}.cls-3{fill:#231f20;}.cls-4{fill:#8b9da1;}</style></defs><title>middle</title><g id="Layer_2" data-name="Layer 2"><g id="Layer_1-2" data-name="Layer 1"><circle class="cls-1" cx="180.87" cy="180.87" r="180.87"/><circle class="cls-2" cx="180.87" cy="89.39" r="52.83"/><path class="cls-3" d="M180.87,146.66a57.27,57.27,0,1,1,57.27-57.27A57.32,57.32,0,0,1,180.87,146.66Zm0-105.67a48.4,48.4,0,1,0,48.4,48.4A48.46,48.46,0,0,0,180.87,41Z"/><path class="cls-2" d="M180.87,161c-49.38,0-86.71,32.74-86.71,94.6v57.2H267.58v-57.2C267.58,193.7,230.26,161,180.87,161Z"/><path class="cls-3" d="M267.58,317.2H94.16v-4.36H89.73V255.56c0-30.62,9-56.07,26.09-73.59,16.21-16.65,38.71-25.45,65.05-25.45s48.84,8.8,65,25.45c17.07,17.52,26.1,43,26.1,73.59v57.28h-4.44Zm-169-8.87H263.15V255.56c0-28.26-8.15-51.57-23.58-67.41-14.5-14.89-34.8-22.76-58.7-22.76s-44.19,7.87-58.7,22.76C106.75,204,98.59,227.3,98.59,255.56Z"/><path class="cls-2" d="M142.07,92.43l.51,1.49a115.69,115.69,0,0,1,6.12,41.79v0a114.73,114.73,0,0,0,30.69,4.1,116.39,116.39,0,0,0,30.83-4.1h0a115.65,115.65,0,0,1,6-41.84l.5-1.46"/><path class="cls-4" d="M179.39,143.16a117.37,117.37,0,0,1-31.68-4.25l-2.42-.75.08-2.54A112,112,0,0,0,139.44,95l-.51-1.5,6.29-2.15.51,1.5a118.39,118.39,0,0,1,6.36,40.35,116.27,116.27,0,0,0,27.3,3.31,117.22,117.22,0,0,0,27.42-3.31,118.79,118.79,0,0,1,6.26-40.38l.49-1.46,6.31,2.13-.5,1.46a112,112,0,0,0-5.83,40.64l.1,2.57-2.45.75A118.72,118.72,0,0,1,179.39,143.16Z"/><path class="cls-4" d="M176.66,100.36c-30.73,0-49.54-8.92-50.71-9.49l2.92-6c.41.2,41.56,19.58,101.47-.17L232.42,91A177.62,177.62,0,0,1,176.66,100.36Z"/></g></g></svg>