<svg xmlns="http://www.w3.org/2000/svg" width="1117.89" height="361.74" viewBox="0 0 1117.89 361.74"><defs><style>.cls-1{fill:#dee1e2;}.cls-2{fill:#fff;}.cls-3{fill:#231f20;}.cls-4{fill:#8b9da1;}.cls-5{fill:#9a1220;}</style></defs><title>covid-about-simple</title><g id="Layer_2" data-name="Layer 2"><g id="Layer_1-2" data-name="Layer 1"><polygon class="cls-1" points="884.42 257.16 650.6 137.64 572.94 222.37 239.23 119.92 69.44 254.34 61.37 244.14 236.51 105.49 568.91 207.53 647.7 121.56 882.01 241.32 1047.93 78.96 1057.03 88.25 884.42 257.16"/><circle class="cls-1" cx="569.6" cy="180.87" r="180.87"/><circle class="cls-1" cx="238.8" cy="118.71" r="85"/><circle class="cls-2" cx="569.6" cy="89.39" r="52.83"/><path class="cls-3" d="M569.6,146.66a57.27,57.27,0,1,1,57.27-57.27A57.33,57.33,0,0,1,569.6,146.66ZM569.6,41A48.4,48.4,0,1,0,618,89.39,48.46,48.46,0,0,0,569.6,41Z"/><path class="cls-2" d="M569.6,161c-49.38,0-86.71,32.74-86.71,94.6v57.2H656.31v-57.2C656.31,193.7,619,161,569.6,161Z"/><path class="cls-3" d="M656.31,317.2H482.89v-4.36h-4.43V255.56c0-30.62,9-56.07,26.09-73.59,16.21-16.65,38.71-25.45,65.05-25.45s48.84,8.8,65,25.45c17.08,17.52,26.1,43,26.1,73.59v57.28h-4.44Zm-169-8.87H651.88V255.56c0-28.26-8.15-51.57-23.58-67.41-14.5-14.89-34.8-22.76-58.7-22.76s-44.19,7.87-58.7,22.76c-15.42,15.84-23.58,39.15-23.58,67.41Z"/><path class="cls-2" d="M530.81,92.43l.51,1.49a115.9,115.9,0,0,1,6.11,41.79v0a114.76,114.76,0,0,0,30.7,4.1,116.36,116.36,0,0,0,30.82-4.1h0a115.65,115.65,0,0,1,6-41.84l.5-1.46"/><path class="cls-4" d="M568.13,143.16a117.29,117.29,0,0,1-31.68-4.25l-2.43-.75.09-2.54A112,112,0,0,0,528.17,95l-.51-1.5L534,91.35l.51,1.5a118.39,118.39,0,0,1,6.36,40.35,116.3,116.3,0,0,0,27.31,3.31,118.16,118.16,0,0,0,27.41-3.31,118.79,118.79,0,0,1,6.26-40.38l.5-1.46,6.3,2.13L608.1,95a112,112,0,0,0-5.83,40.64l.1,2.57-2.45.75A118.69,118.69,0,0,1,568.13,143.16Z"/><path class="cls-4" d="M565.39,100.36c-30.73,0-49.54-8.92-50.7-9.49l2.91-6c.41.2,41.56,19.58,101.47-.17L621.15,91A177.62,177.62,0,0,1,565.39,100.36Z"/><circle class="cls-2" cx="238.8" cy="59" r="33.26"/><path class="cls-5" d="M238.8,95.49A36.49,36.49,0,1,1,275.29,59,36.53,36.53,0,0,1,238.8,95.49Zm0-66.52a30,30,0,1,0,30,30A30.06,30.06,0,0,0,238.8,29Z"/><path class="cls-2" d="M238.8,104.05c-31.09,0-54.58,20.62-54.58,59.55v36H293.39v-36C293.39,124.67,269.89,104.05,238.8,104.05Z"/><path class="cls-5" d="M293.39,202.85H184.22v-3.18H181V163.61c0-38.14,22.69-62.79,57.81-62.79s57.82,24.65,57.82,62.79v36.06h-3.23Zm-105.94-6.46H290.16V163.61c0-34.75-19.68-56.33-51.36-56.33s-51.35,21.58-51.35,56.33Z"/><path class="cls-2" d="M214.38,60.91l.32.94a73,73,0,0,1,3.85,26.31h0a72,72,0,0,0,19.32,2.59,73,73,0,0,0,19.4-2.59h0a73.17,73.17,0,0,1,3.78-26.34l.32-.92"/><path class="cls-4" d="M237.87,93.34a74.35,74.35,0,0,1-20.09-2.7l-1.92-.59.11-2a69.86,69.86,0,0,0-3.72-25.35l-.32-.94,4.89-1.67.32.94a75,75,0,0,1,4,25.18,73.28,73.28,0,0,0,16.69,2,74,74,0,0,0,16.77-2,75,75,0,0,1,4-25.2l.31-.92,4.89,1.66-.31.92a70,70,0,0,0-3.64,25.41l.08,2-1.91.58A75.18,75.18,0,0,1,237.87,93.34Z"/><path class="cls-4" d="M236.16,66.4c-19.48,0-31.41-5.67-32.14-6l2.26-4.64-1.13,2.32,1.13-2.32c.25.12,26,12.22,63.51-.13l1.61,4.91A112.42,112.42,0,0,1,236.16,66.4Z"/><circle class="cls-1" cx="872.15" cy="245.83" r="85"/><circle class="cls-2" cx="872.15" cy="186.13" r="33.26"/><path class="cls-5" d="M872.15,222.62a36.49,36.49,0,1,1,36.49-36.49A36.53,36.53,0,0,1,872.15,222.62Zm0-66.52a30,30,0,1,0,30,30A30.06,30.06,0,0,0,872.15,156.1Z"/><path class="cls-2" d="M872.15,231.18c-31.09,0-54.58,20.61-54.58,59.55v36H926.74v-36C926.74,251.79,903.24,231.18,872.15,231.18Z"/><path class="cls-5" d="M926.74,330H817.57v-3.18h-3.23V290.73c0-38.14,22.69-62.78,57.81-62.78S930,252.59,930,290.73v36.06h-3.23ZM820.8,323.51H923.51V290.73c0-34.74-19.68-56.32-51.36-56.32S820.8,256,820.8,290.73Z"/><path class="cls-2" d="M847.73,188l.32.94a72.82,72.82,0,0,1,3.85,26.31h0a72.24,72.24,0,0,0,19.32,2.58,73.15,73.15,0,0,0,19.4-2.58h0A72.93,72.93,0,0,1,894.41,189l.31-.92"/><path class="cls-4" d="M871.22,220.47a74.35,74.35,0,0,1-20.09-2.7l-1.81-.57v-2a69.92,69.92,0,0,0-3.72-25.38l-.32-.94,4.9-1.66.32.94a75.18,75.18,0,0,1,4,25.17,71.67,71.67,0,0,0,33.46,0,75,75,0,0,1,4-25.19l.31-.92,4.89,1.66-.31.92a70,70,0,0,0-3.64,25.4l.08,2-1.91.59A75.18,75.18,0,0,1,871.22,220.47Z"/><path class="cls-4" d="M869.51,193.52c-19.48,0-31.41-5.66-32.14-6l2.26-4.64-1.13,2.32,1.13-2.33c.25.13,26,12.23,63.51-.13l1.61,4.91A112.37,112.37,0,0,1,869.51,193.52Z"/><ellipse class="cls-1" cx="1052.48" cy="92.26" rx="65.41" ry="65.13"/><circle class="cls-2" cx="1052.48" cy="48.33" r="27.21"/><path class="cls-3" d="M1052.48,78.18a29.85,29.85,0,1,1,29.85-29.85A29.88,29.88,0,0,1,1052.48,78.18Zm0-54.42a24.57,24.57,0,1,0,24.57,24.57A24.6,24.6,0,0,0,1052.48,23.76Z"/><path class="cls-2" d="M1052.48,85.18c-25.43,0-44.66,16.87-44.66,48.72v29.46h89.32V133.9C1097.14,102.05,1077.91,85.18,1052.48,85.18Z"/><path class="cls-3" d="M1097.14,166h-89.32v-2.6h-2.64V133.9c0-31.2,18.57-51.36,47.3-51.36s47.3,20.16,47.3,51.36v29.5h-2.64Zm-86.67-5.28h84V133.9c0-28.42-16.1-46.08-42-46.08s-42,17.66-42,46.08Z"/><path class="cls-2" d="M1032.5,49.89l.26.77a59.62,59.62,0,0,1,3.15,21.52h0a59.11,59.11,0,0,0,15.81,2.11,60,60,0,0,0,15.87-2.11h0a59.73,59.73,0,0,1,3.09-21.55l.26-.75"/><path class="cls-4" d="M1051.72,76.42a60.65,60.65,0,0,1-16.43-2.21l-1.49-.46V72.19a57.41,57.41,0,0,0-3-20.85l-.26-.77,4-1.36.26.77a61.74,61.74,0,0,1,3.31,20.6,59.75,59.75,0,0,0,13.65,1.61,60.32,60.32,0,0,0,13.71-1.61A61.74,61.74,0,0,1,1068.68,50l.26-.76,4,1.36-.25.75a57.28,57.28,0,0,0-3,20.78l.07,1.63-1.56.48A61.37,61.37,0,0,1,1051.72,76.42Z"/><path class="cls-4" d="M1050.32,54.38c-15.93,0-25.69-4.64-26.3-4.93l1.86-3.8-.93,1.9.92-1.9c.21.1,21.28,10,52-.11l1.32,4A91.9,91.9,0,0,1,1050.32,54.38Z"/><ellipse class="cls-1" cx="65.41" cy="239.83" rx="65.41" ry="65.13"/><circle class="cls-2" cx="65.41" cy="195.9" r="27.21"/><path class="cls-3" d="M65.41,225.75A29.85,29.85,0,1,1,95.26,195.9,29.88,29.88,0,0,1,65.41,225.75Zm0-54.42A24.57,24.57,0,1,0,90,195.9,24.6,24.6,0,0,0,65.41,171.33Z"/><path class="cls-2" d="M65.41,232.75c-25.43,0-44.66,16.87-44.66,48.72v29.46h89.32V281.47C110.07,249.62,90.84,232.75,65.41,232.75Z"/><path class="cls-3" d="M110.07,313.58H20.75V311H18.11v-29.5c0-31.2,18.57-51.36,47.3-51.36s47.3,20.16,47.3,51.36V311h-2.64ZM23.4,308.29h84V281.47c0-28.42-16.1-46.08-42-46.08s-42,17.66-42,46.08Z"/><path class="cls-2" d="M45.43,197.46l.26.77a59.62,59.62,0,0,1,3.15,21.52h0a59.11,59.11,0,0,0,15.81,2.11,60,60,0,0,0,15.87-2.11h0a59.73,59.73,0,0,1,3.09-21.55l.26-.75"/><path class="cls-4" d="M64.65,224a60.86,60.86,0,0,1-16.44-2.21l-1.48-.46v-1.56a57.41,57.41,0,0,0-3-20.85l-.26-.77,4-1.36.26.77a61.47,61.47,0,0,1,3.3,20.6,59,59,0,0,0,27.37,0,61.74,61.74,0,0,1,3.25-20.61l.26-.76,4,1.36-.25.75a57.28,57.28,0,0,0-3,20.78l.07,1.63-1.56.48A61.37,61.37,0,0,1,64.65,224Z"/><path class="cls-4" d="M63.25,202C47.32,202,37.56,197.31,37,197l1.86-3.8-.93,1.9.92-1.9c.21.1,21.28,10,52-.11l1.32,4A91.9,91.9,0,0,1,63.25,202Z"/></g></g></svg>