<svg id="Layer_1" data-name="Layer 1" xmlns="http://www.w3.org/2000/svg" viewBox="0 0 13.93 18.13"><defs><style>.cls-1{fill:#007c91;}</style></defs><path class="cls-1" d="M3.06,1.5H9.54A.49.49,0,0,1,10,2c0,2.31,0,2.85,0,4.79a.85.85,0,0,0,.32.59l1.33,1.37a.21.21,0,0,1-.34.26A18,18,0,0,0,9.05,7c-1-.75-1.6-.62-2-.23a1.25,1.25,0,0,0,.13,1.71L8.45,9.92a2.33,2.33,0,0,1,.66,1.18,2.87,2.87,0,0,1-.19,1.05,3.67,3.67,0,0,0-.33,2.4c.12.28-.24.44-.31.14a3.08,3.08,0,0,1-.14-.54,2.3,2.3,0,0,1,0-1.09c.1-.28-.06-.49-.4-.49H3.05c-.35,0-.49-.21-.49-.59V2A.48.48,0,0,1,3.06,1.5Zm0-1.44A1.36,1.36,0,0,0,1.72,1.41V2.78a1,1,0,0,0-.35.15,1.13,1.13,0,0,0-.51.89.84.84,0,0,0,.39.8l.47.27v.26L1.45,5a.86.86,0,0,0-.89.06A1.09,1.09,0,0,0,.05,6a.84.84,0,0,0,.39.8l1.27.74v.25a.88.88,0,0,0-.26.12A1,1,0,0,0,1,8.63a.73.73,0,0,0,.32.69l.39.22v3.84a1.35,1.35,0,0,0,1.34,1.35H6.24l.62,1a.64.64,0,0,0,.82.27l4.83-1.81c.71-.27.52-.83.53-1.33l.13-3.91a2.33,2.33,0,0,0-.43-1.44L10.88,5.35V1.42A1.35,1.35,0,0,0,9.54.07ZM13.69,14.61c.26.69.24,1.08,0,1.39a2.58,2.58,0,0,1-1.3.79l-2.6,1a2.71,2.71,0,0,1-1.5.26c-.35-.1-.62-.39-.88-1.08-.08-.18-.14-.38.24-.52l5.4-2C13.53,14.23,13.63,14.44,13.69,14.61Z"/></svg>