<svg id="Layer_1" data-name="Layer 1" xmlns="http://www.w3.org/2000/svg" viewBox="0 0 66.35 62.33"><defs><style>.cls-1{fill:#fff;}</style></defs><path class="cls-1" d="M50.9,23a1.24,1.24,0,0,0-1.32-.94l-5,.45a14.94,14.94,0,0,0-2.67-2.6l.38-5a1.23,1.23,0,0,0-.94-1.3l-6.3-1.76a1.24,1.24,0,0,0-1.45.65l-2.23,4.53a14.47,14.47,0,0,0-3.66.93l-4.18-2.81a1.27,1.27,0,0,0-1.59.15L17.36,20a1.23,1.23,0,0,0-.15,1.58L20,25.75a13.85,13.85,0,0,0-.94,3.75l-4.44,2.18A1.24,1.24,0,0,0,14,33.13l1.68,6.19a1.26,1.26,0,0,0,1.3.93l4.92-.36a11.92,11.92,0,0,0,1.23,1.51,14.06,14.06,0,0,0,1.43,1.25l-.32,4.85a1.23,1.23,0,0,0,.93,1.29l6.17,1.69a1.82,1.82,0,0,0,.33,0,1.3,1.3,0,0,0,1.12-.68l2.29-4.37a14.37,14.37,0,0,0,3.7-.94l4.17,2.81a1.25,1.25,0,0,0,1.57-.21l4.62-4.58a1.26,1.26,0,0,0,.16-1.59l-2.81-4.18a13.79,13.79,0,0,0,.93-3.69L52,30.74a1.23,1.23,0,0,0,.67-1.45ZM27,31.17a6.32,6.32,0,1,1,6.31,6.31h0A6.31,6.31,0,0,1,27,31.17Z"/><path class="cls-1" d="M14.11,50.29A27,27,0,0,1,7.9,21.61l.33,1.47a1.88,1.88,0,0,0,1.83,1.45,2,2,0,0,0,.42,0,1.88,1.88,0,0,0,1.41-2.25h0l-1.47-6.42a1.88,1.88,0,0,0-2.25-1.41h0L1.75,15.89a1.87,1.87,0,0,0,.83,3.65h0L5,19A30.78,30.78,0,0,0,48.76,57.75l-1.87-3.23A27,27,0,0,1,14.11,50.29Z"/><path class="cls-1" d="M63.76,42.78l-2.22.51A30.8,30.8,0,0,0,17.45,4.72l1.92,3.21A27.05,27.05,0,0,1,58.49,40.84l-.37-1.61a1.87,1.87,0,1,0-3.65.84l1.47,6.41a1.87,1.87,0,0,0,1.82,1.46,2,2,0,0,0,.43,0l6.41-1.47a1.88,1.88,0,0,0-.83-3.66Z"/></svg>