<svg xmlns="http://www.w3.org/2000/svg" width="239.22" height="235.41" viewBox="0 0 239.22 235.41"><defs><style>.cls-1{fill:#dee1e2;}.cls-2{fill:#fff;}.cls-3{fill:#231f20;}.cls-4{fill:#8b9da1;}</style></defs><title>right-2</title><g id="Layer_2" data-name="Layer 2"><g id="Layer_1-2" data-name="Layer 1"><path class="cls-1" d="M173.81,8.66a65.06,65.06,0,0,0-54.67,100.87L0,226.12l9.09,9.29,118.3-115.75a65.27,65.27,0,1,0,46.42-111Z"/><circle class="cls-2" cx="173.81" cy="29.85" r="27.21"/><path class="cls-3" d="M173.81,59.7a29.85,29.85,0,1,1,29.85-29.85A29.88,29.88,0,0,1,173.81,59.7Zm0-54.41a24.57,24.57,0,1,0,24.57,24.56A24.59,24.59,0,0,0,173.81,5.29Z"/><path class="cls-2" d="M173.81,66.71c-25.43,0-44.65,16.86-44.65,48.72v29.46h89.31V115.43C218.47,83.57,199.25,66.71,173.81,66.71Z"/><path class="cls-3" d="M218.47,147.53H129.16v-2.6h-2.65v-29.5c0-31.21,18.57-51.37,47.3-51.37s47.3,20.16,47.3,51.37v29.5h-2.64Zm-86.67-5.29h84V115.43c0-28.43-16.1-46.08-42-46.08s-42,17.65-42,46.08Z"/><path class="cls-2" d="M153.83,31.41l.26.77a59.64,59.64,0,0,1,3.15,21.53h0a58.94,58.94,0,0,0,15.81,2.12,59.6,59.6,0,0,0,15.87-2.12h0A59.47,59.47,0,0,1,192,32.17l.25-.76"/><path class="cls-4" d="M173.05,57.94a60.65,60.65,0,0,1-16.43-2.21L155,55.24l.1-1.66a57.07,57.07,0,0,0-3-20.71l-.26-.77,4-1.37.27.77a61.47,61.47,0,0,1,3.3,20.6,59.84,59.84,0,0,0,13.65,1.61,60.51,60.51,0,0,0,13.72-1.61A61.51,61.51,0,0,1,190,31.49l.26-.75,4,1.35-.25.75a57.36,57.36,0,0,0-3,20.79l.06,1.63-1.56.48A61.6,61.6,0,0,1,173.05,57.94Z"/><path class="cls-4" d="M171.65,35.9c-15.93,0-25.69-4.63-26.3-4.93l1.86-3.8c.2.1,21.27,10,51.95-.1l1.32,4A91.9,91.9,0,0,1,171.65,35.9Z"/></g></g></svg>