<svg xmlns="http://www.w3.org/2000/svg" width="310.96" height="207.02" viewBox="0 0 310.96 207.02"><defs><style>.cls-1{fill:#dee1e2;}.cls-2{fill:#fff;}.cls-3{fill:#9a1220;}.cls-4{fill:#8b9da1;}</style></defs><title>right-1</title><g id="Layer_2" data-name="Layer 2"><g id="Layer_1-2" data-name="Layer 1"><path class="cls-1" d="M226,37A84.92,84.92,0,0,0,154.53,76L5.92,0,0,11.58,148.33,87.39A85,85,0,1,0,226,37Z"/><circle class="cls-2" cx="225.96" cy="62.31" r="33.26"/><path class="cls-3" d="M226,98.8a36.49,36.49,0,1,1,36.49-36.49A36.53,36.53,0,0,1,226,98.8Zm0-66.51a30,30,0,1,0,30,30A30.06,30.06,0,0,0,226,32.29Z"/><path class="cls-2" d="M226,107.36c-31.09,0-54.59,20.62-54.59,59.56v36H280.55v-36C280.55,128,257.05,107.36,226,107.36Z"/><path class="cls-3" d="M280.55,206.16H171.37V203h-3.23V166.92c0-38.14,22.7-62.79,57.82-62.79s57.82,24.65,57.82,62.79V203h-3.23Zm-106-6.46H277.32V166.92c0-34.74-19.68-56.33-51.36-56.33s-51.36,21.59-51.36,56.33Z"/><path class="cls-2" d="M201.54,64.22l.32,1a73,73,0,0,1,3.85,26.3h0A72,72,0,0,0,225,94.07a73,73,0,0,0,19.4-2.59h0a73.21,73.21,0,0,1,3.78-26.34l.31-.92"/><path class="cls-4" d="M225,96.65A74.26,74.26,0,0,1,204.94,94L203,93.36l.11-2A70.29,70.29,0,0,0,199.41,66l-.32-.94L204,63.39l.32.94a75.21,75.21,0,0,1,4,25.18,73.28,73.28,0,0,0,16.69,2,73.79,73.79,0,0,0,16.76-2,75.49,75.49,0,0,1,4-25.19l.32-.92L251,65.05l-.31.92A70.27,70.27,0,0,0,247,91.38l.09,2-1.91.58A75.18,75.18,0,0,1,225,96.65Z"/><path class="cls-4" d="M223.32,69.71c-19.48,0-31.41-5.66-32.15-6L193.44,59c.25.12,26,12.23,63.5-.13l1.62,4.91A112.42,112.42,0,0,1,223.32,69.71Z"/></g></g></svg>