<svg id="Layer_1" data-name="Layer 1" xmlns="http://www.w3.org/2000/svg" viewBox="0 0 35 20"><defs>
  <style>
    .cls-1{
    fill:#004E74;

    }
  </style>
</defs><title>show_pw_icon</title><path class="cls-1" d="M33.72,9.34C33.43,9,26.13.5,17.36.5S1.42,8.92,1.09,9.29L1,9.53v.89l.09.24c.29.37,7.5,8.84,16.27,8.84s16.12-8.42,16.4-8.79l.24-.24V9.58ZM17.31,17.9C10.24,17.9,4,11.55,2.51,10,4,8.4,10.24,2.1,17.31,2.1S30.65,8.45,32.11,10C30.65,11.6,24.38,17.9,17.31,17.9Z"/><path class="cls-1" d="M11.7,10A5.77,5.77,0,1,0,17.47,4.2a4.61,4.61,0,0,0-1,.08,2.75,2.75,0,0,1-1.8,4.85,2.71,2.71,0,0,1-2.47-1.49A4.35,4.35,0,0,0,11.7,10Z"/></svg>
