<svg id="Layer_1" data-name="Layer 1" xmlns="http://www.w3.org/2000/svg" viewBox="0 0 21 17"><defs><style>.cls-1{fill-rule:evenodd;}</style></defs><title>show_pw_icon</title><path d="M19.79,10.34c-.16-.21-4.31-5-9.29-5s-9,4.79-9.24,5l-.05.13V11l.05.13c.17.22,4.26,5,9.24,5s9.15-4.79,9.32-5L20,11v-.51Zm-9.32,4.88c-4,0-7.57-3.62-8.4-4.53.83-.88,4.39-4.47,8.4-4.47s7.58,3.62,8.41,4.5C18.05,11.63,14.49,15.22,10.47,15.22Z"/><path d="M7.29,10.69a3.28,3.28,0,1,0,3.27-3.27,2.93,2.93,0,0,0-.59,0,1.57,1.57,0,0,1-1,2.77,1.55,1.55,0,0,1-1.41-.86A2.51,2.51,0,0,0,7.29,10.69Z"/><path class="cls-1" d="M20.1,5.81A.61.61,0,1,0,19.21,5L18,6.3a.62.62,0,0,0,0,.87.6.6,0,0,0,.86,0Z"/><path class="cls-1" d="M16.36,3.14a.61.61,0,1,0-1.06-.61L14.4,4.1a.61.61,0,0,0,.22.84.62.62,0,0,0,.83-.23Z"/><path class="cls-1" d="M9.89,1.49A.61.61,0,0,1,10.5.87a.62.62,0,0,1,.61.62V3.31a.61.61,0,0,1-1.22,0Z"/><path class="cls-1" d="M4.64,3.14A.61.61,0,1,1,5.7,2.53L6.6,4.1a.61.61,0,0,1-.22.84.62.62,0,0,1-.83-.23Z"/><path class="cls-1" d="M.9,5.81a.62.62,0,0,1,0-.87.63.63,0,0,1,.87,0L3,6.3a.62.62,0,0,1,0,.87.6.6,0,0,1-.86,0Z"/></svg>