<svg id="Layer_1" data-name="Layer 1" xmlns="http://www.w3.org/2000/svg" viewBox="0 0 376.35 186"><defs><style>.cls-1{fill:#409dad;}.cls-2{fill:#004568;}.cls-3{fill:#fff;}.cls-4{fill:#f7f6f5;}.cls-5{fill:#611c35;}.cls-6{isolation:isolate;}</style></defs><path class="cls-1" d="M318.69,159.81V84.5h20.77a8.15,8.15,0,0,0,5.78-2,2.76,2.76,0,0,0,.1-3.9.94.94,0,0,0-.1-.1l-84-75.76a8,8,0,0,0-5.46-2h-.68a8,8,0,0,0-5.41,2l-84,75.76a2.73,2.73,0,0,0-.14,3.86,1.85,1.85,0,0,0,.14.14,8.15,8.15,0,0,0,5.78,2h20.77v75.39h.54c-22,5.89-41.56,14.77-57.3,25.84,33.63-12.57,75.26-20,120.34-20s86.71,7.45,120.34,20C360.43,174.62,340.82,165.7,318.69,159.81Z"/><path class="cls-2" d="M300.38,12.5c5.48-2.69,11-3.65,16.36-2.62,5.85,1.13,9.46,4.34,10.47,9.57A14.29,14.29,0,0,1,326,28.23a30.44,30.44,0,0,1-5,7.64c-2,2.17-4.7,4.88-8.06,8-3.16,2.94-5.13,5.34-6,7.3a8.4,8.4,0,0,0-.9,5.09c.46,2.36-.1,3.57-1.65,3.63a2,2,0,0,1-1.78-.74,10.09,10.09,0,0,1-1.12-3.55,10.94,10.94,0,0,1,.57-5.86c.76-2.11,2.64-5,5.78-8.68,3.44-4.13,5.62-7.64,6.36-10.33a17.1,17.1,0,0,0,.43-7.82,9.07,9.07,0,0,0-4.77-6.55c-2.51-1.36-5.32-1.3-8.39.08a16.34,16.34,0,0,0-7.47,6,9.53,9.53,0,0,0-1.47,7.08,5.71,5.71,0,0,0,1.57,3.14,2.57,2.57,0,0,0,2.71.71,3.44,3.44,0,0,0,.87-.4,2.91,2.91,0,0,1,.79-.39,3.51,3.51,0,0,1,2.15.08A1.75,1.75,0,0,1,302,33.94a3.11,3.11,0,0,1-1.15,3,8,8,0,0,1-3.55,1.85,6.38,6.38,0,0,1-5.5-1.14c-1.65-1.21-2.74-3.25-3.3-6.14a14.54,14.54,0,0,1,1.9-10C292.36,17.82,295.63,14.83,300.38,12.5Zm6,52a6.91,6.91,0,0,1,3.75,1.24,5.2,5.2,0,0,1,2.33,3.42,2.66,2.66,0,0,1-1.07,2.75,4.72,4.72,0,0,1-3.39.91,6.84,6.84,0,0,1-3.72-1.48,4.88,4.88,0,0,1-2-2.92,2.87,2.87,0,0,1,.86-2.78,4.54,4.54,0,0,1,3.21-1.11Z"/><path class="cls-2" d="M.63,72.36a2.63,2.63,0,0,1,2.63-2.63h104a2.65,2.65,0,0,1,2.63,2.63v71.15a2.65,2.65,0,0,1-2.63,2.63H3.26a2.63,2.63,0,0,1-2.63-2.63h0Zm43.53,88.78a2.65,2.65,0,0,0,2.64,2.63h60.45a2.65,2.65,0,0,0,2.63-2.63v-6.26a2.65,2.65,0,0,0-2.63-2.63H46.8a2.65,2.65,0,0,0-2.64,2.63Zm90.42-7.2a15.82,15.82,0,1,0,15.81,15.83v0A15.82,15.82,0,0,0,134.58,153.94Zm-111.66,0a15.82,15.82,0,1,0,15.81,15.83v0A15.82,15.82,0,0,0,22.92,153.94ZM173,131.42v34.91a2.64,2.64,0,0,1-2.6,2.67h-8.19a4,4,0,0,1-3.65-2.43c-.93-2.74-2.79-20.5-22.45-20.5H119.2a2.64,2.64,0,0,1-2.64-2.64V91.58a2.65,2.65,0,0,1,2.64-2.64h27.72a5.11,5.11,0,0,1,4,2.28l20.8,35.3A11.33,11.33,0,0,1,173,131.42ZM157.21,117.7,146,98.53c-1-1.67-1.57-2.32-2.85-2.32H127.3a2.32,2.32,0,0,0-2.3,2.31v20.22a2.3,2.3,0,0,0,2.29,2.31h28.24C157.32,121.05,158.4,119.72,157.21,117.7Z"/><polygon class="cls-3" points="60.81 88.38 60.79 88.42 75.75 128 75.75 128 77.49 127.81 77.57 127.81 62.61 88.23 62.53 88.24 60.81 88.38"/><path class="cls-3" d="M60.35,87.26l1.74-.19s.43-7.07-3.43-6.67S60.35,87.26,60.35,87.26Z"/><path class="cls-3" d="M78,129l-1.75.18s-.42,7.08,3.43,6.68C83.38,135.48,78,129,78,129Z"/><polygon class="cls-4" points="64.36 87.23 64.33 87.26 72.2 128.84 72.2 128.84 73.95 128.96 74.02 128.97 66.16 87.39 66.08 87.39 64.36 87.23"/><path class="cls-4" d="M64.1,86l1.75.13s1.65-6.9-2.22-7.17S64.1,86,64.1,86Z"/><path class="cls-4" d="M74.25,130.19l-1.75-.13s-1.64,6.9,2.22,7.17C78.41,137.53,74.25,130.19,74.25,130.19Z"/><rect class="cls-3" x="45.09" y="126.09" width="2.6" height="2.6"/><rect class="cls-3" x="50.29" y="126.09" width="2.6" height="2.6"/><rect class="cls-2" x="64.58" y="94.9" width="2.6" height="5.2"/><path class="cls-3" d="M53.25,108.23l1.09,1.41c2.06,2.72,3.1,4.94,3.08,6.72a4.25,4.25,0,0,1-8.5-.08c0-1.79,1.11-4,3.22-6.66l.27-.34Z"/><path class="cls-4" d="M228,60.58c-1.91,0-5.17,1.68-5.62,3.62l-18.7,80.17c-.53,2.26,2.3,7.37,4.56,7.9l65.59,15.3c2.26.54,6.35-2.3,6.88-4.56l18.7-80.17c.53-2.26-2.7-6.34-5-6.87l-12.74-2.23s-1.69,9.89-4.13,11.41-2.31,1.72-5.11,1.07l-25.51-6c-5.78-1.35-6.9-5.68-5.56-11.46l1-4.1S228.29,60.58,228,60.58Z"/><path class="cls-5" d="M274,170.89a10.51,10.51,0,0,1-2.37-.27l-63.44-14.8a10.43,10.43,0,0,1-7.77-12.5L218.5,65.78A10.44,10.44,0,0,1,231,58l12.34,2.88a3.15,3.15,0,0,1,2.36,3.79v0l-1.64,7a4.08,4.08,0,0,0,3,4.89l24.67,5.76a4,4,0,0,0,3.07-.51,4.08,4.08,0,0,0,1.82-2.53l1.64-7a3.19,3.19,0,0,1,3.81-2.36l12.33,2.87h0a10.43,10.43,0,0,1,7.77,12.5l-18.09,77.54A10.43,10.43,0,0,1,274,170.89Zm-45.88-108a4.18,4.18,0,0,0-4.06,3.21l-18.51,79.35a4.16,4.16,0,0,0,3.11,5l64.92,15.15a4.16,4.16,0,0,0,5-3.11l18.51-79.35a4.16,4.16,0,0,0-3.11-5L284.5,76l-.94,4a10.66,10.66,0,0,1-12.78,8h0l-25.25-5.89a10.66,10.66,0,0,1-7.94-12.79l.94-4.06L229.06,63a3.78,3.78,0,0,0-.95-.09Zm-.11,72a3.6,3.6,0,0,0-2.67-4.33h0A3.62,3.62,0,1,0,228,134.9ZM233,113.75a3.63,3.63,0,0,0-2.7-4.35h0a3.62,3.62,0,1,0,2.74,4.36Zm4.93-21.15a3.62,3.62,0,0,0-2.7-4.35h0a3.62,3.62,0,1,0,2.74,4.36Zm32.36,52.14a3.45,3.45,0,0,0-2.78-4l-31.72-7.4a3.29,3.29,0,0,0-2.08,6.24,3,3,0,0,0,.59.14l31.72,7.4a3.46,3.46,0,0,0,4.26-2.38Zm4.93-21.14a3.51,3.51,0,0,0-2.75-4.13l-31.72-7.4a3.4,3.4,0,1,0-1.92,6.52,2.22,2.22,0,0,0,.37.09l31.72,7.4a3.52,3.52,0,0,0,4.29-2.48Zm4.93-21.15a3.51,3.51,0,0,0-2.75-4.13l-31.72-7.4a3.4,3.4,0,0,0-1.95,6.51,3.06,3.06,0,0,0,.41.1l31.72,7.4a3.49,3.49,0,0,0,4.28-2.48Zm-6.68-27.11,1.85-7.93a3.16,3.16,0,0,0-2.35-3.8h0L254.4,59.29a3.16,3.16,0,0,0-3.8,2.36h0l-1.85,7.93a3.16,3.16,0,0,0,2.35,3.8h0l18.51,4.32a3.18,3.18,0,0,0,3.79-2.37Z"/><path class="cls-4" d="M310.41,122l-2.6-4.25a5.2,5.2,0,0,0-7.1-1.75l-43.59,26.24L254.33,145,248,154.85a1.9,1.9,0,0,0,.08,1.78,1.86,1.86,0,0,0,.84.75,1.57,1.57,0,0,0,.71.16l11.72-1,3.69-1.2,43.58-26.27a5.21,5.21,0,0,0,1.77-7.1Z"/><path class="cls-2" d="M310.41,122l-2.6-4.25a5.2,5.2,0,0,0-7.1-1.75l-3.5,2.11,7.92,13.11,3.51-2.12A5.21,5.21,0,0,0,310.41,122Z"/><polygon class="cls-2" points="257.12 142.23 265.06 155.36 301.93 133.15 293.96 120.06 257.12 142.23"/><path class="cls-2" d="M248,154.85a1.88,1.88,0,0,0,.88,2.51l0,0a1.57,1.57,0,0,0,.71.16l11.72-1-7-11.6Z"/><path class="cls-5" d="M188.89,2.13,182.6,3.31l.3,1.62a6.39,6.39,0,0,1-2.12,11.75l-4.19.79A6.39,6.39,0,0,1,170.33,7.3L170,5.68l-24.24,4.57.3,1.61A6.39,6.39,0,0,1,144,23.62l-4.19.79a6.4,6.4,0,0,1-6.26-10.18l-.3-1.61L127,13.81a6.4,6.4,0,0,0-5.1,7.47l9.67,51.33A6.42,6.42,0,0,0,139,77.72L201,66a6.4,6.4,0,0,0,5.1-7.47L196.36,7.23A6.4,6.4,0,0,0,188.89,2.13Zm13,57.23a2.13,2.13,0,0,1-1.7,2.49h0l-62,11.68a2.14,2.14,0,0,1-2.49-1.71l-5.29-28.09,66.17-12.46Z"/><path class="cls-2" d="M139,20.21l4.19-.78a2.14,2.14,0,0,0-.79-4.2l-1.18-6.29a2.13,2.13,0,0,0-4.19.79L138.18,16a2.13,2.13,0,1,0,.79,4.19Z"/><path class="cls-2" d="M175.8,13.28l4.19-.79a2.14,2.14,0,0,0-.79-4.2L178,2a2.13,2.13,0,1,0-4.19.79L175,9.08a2.14,2.14,0,1,0,.56,4.24l.23,0Z"/><g class="cls-6"><g class="cls-6"><path class="cls-4" d="M149.58,33.28,148,24.84l2.13-.4a4.12,4.12,0,0,1,2.23.17,4.39,4.39,0,0,1,1.82,1.24,4.3,4.3,0,0,1,.8,4.24,4.41,4.41,0,0,1-1.25,1.82,4.2,4.2,0,0,1-2,1Zm2-1.26a3.37,3.37,0,0,0,1.6-.77A3.38,3.38,0,0,0,154.28,28a3.42,3.42,0,0,0-.77-1.6,3.4,3.4,0,0,0-3.22-1.12l-1.26.24,1.27,6.71Z"/></g><g class="cls-6"><path class="cls-4" d="M161.94,24.56l1.16,6.17-.87.17L162,29.73a2.77,2.77,0,0,1-2.1,1.67,3.22,3.22,0,0,1-1.69-.12,3.08,3.08,0,0,1-1.38-.94,3.17,3.17,0,0,1-.73-1.52,3.23,3.23,0,0,1,.12-1.69,3.28,3.28,0,0,1,.94-1.38A3.19,3.19,0,0,1,158.7,25a2.64,2.64,0,0,1,1.55.09,3,3,0,0,1,1,.64l-.2-1ZM160.85,30a2.38,2.38,0,0,0,.69-1,2.33,2.33,0,0,0,.09-1.23,2.39,2.39,0,0,0-.53-1.11,2.35,2.35,0,0,0-1-.69,2.37,2.37,0,0,0-3,1.45,2.34,2.34,0,0,0-.09,1.23,2.32,2.32,0,0,0,1.54,1.79,2.34,2.34,0,0,0,1.23.09A2.3,2.3,0,0,0,160.85,30Z"/></g><g class="cls-6"><path class="cls-4" d="M168.54,23.14l1.19,6.29a2.74,2.74,0,0,1-.11,1.45,2.64,2.64,0,0,1-.81,1.19,2.68,2.68,0,0,1-1.31.63,2.79,2.79,0,0,1-2.56-.83l.68-.57a1.92,1.92,0,0,0,1.71.54,1.89,1.89,0,0,0,.9-.43,1.91,1.91,0,0,0,.56-.82,1.9,1.9,0,0,0,.08-1l-.13-.67a2.74,2.74,0,0,1-.76.72,2.7,2.7,0,0,1-1,.39,2.84,2.84,0,0,1-2.61-.89,2.6,2.6,0,0,1-.64-1.27l-.7-3.69.86-.16.68,3.61a1.9,1.9,0,0,0,.44.9,1.8,1.8,0,0,0,.82.56,1.85,1.85,0,0,0,1,.07,1.8,1.8,0,0,0,.9-.43,1.88,1.88,0,0,0,.56-.82,1.85,1.85,0,0,0,.07-1l-.68-3.61Z"/></g><g class="cls-6"><path class="cls-4" d="M171.75,27.92a1.51,1.51,0,0,0,1.1.14,1.61,1.61,0,0,0,.91-.46.92.92,0,0,0,.24-.8,1,1,0,0,0-.29-.59.78.78,0,0,0-.47-.18,4.71,4.71,0,0,0-.73.07,5.59,5.59,0,0,1-1.1.06,1.6,1.6,0,0,1-.86-.35,1.83,1.83,0,0,1-.63-1.06,1.31,1.31,0,0,1,0-.23,1.74,1.74,0,0,1,.44-1.35,2.52,2.52,0,0,1,1.46-.71h0a2.26,2.26,0,0,1,1.2.05,2.1,2.1,0,0,1,.81.52,2.41,2.41,0,0,1,.48.81l-.89.17a1.47,1.47,0,0,0-.24-.39,1.3,1.3,0,0,0-1.2-.3,1.54,1.54,0,0,0-1,.47,1.1,1.1,0,0,0-.19.68.42.42,0,0,0,0,.14.77.77,0,0,0,.31.5.82.82,0,0,0,.51.2,5.18,5.18,0,0,0,.82,0l.73-.06a2,2,0,0,1,.6.09,1.58,1.58,0,0,1,1.11,1.35,1.8,1.8,0,0,1,0,.73,2.12,2.12,0,0,1-.3.67,2.32,2.32,0,0,1-1.53.89,2.38,2.38,0,0,1-1.75-.26,2.16,2.16,0,0,1-.84-1.08l.89-.17A1.17,1.17,0,0,0,171.75,27.92Z"/></g></g><path class="cls-3" d="M201.84,59.36a2.13,2.13,0,0,1-1.7,2.49h0l-62,11.68a2.14,2.14,0,0,1-2.49-1.71l-5.29-28.09,66.17-12.46Z"/><path class="cls-2" d="M153.67,65l-2.85-15.12-.88,2.39-2.95.56,2.49-6.76,3.1-.58,3.59,19Zm3.89-7.91L157.17,55l5.65-1,.39,2.06Zm10.09,5.28L164.8,47.28l-.89,2.39-2.94.55,2.49-6.75,3.09-.59,3.59,19Zm10.75-1.88a5.67,5.67,0,0,1-2.32,0A5.79,5.79,0,0,1,172.36,58a5.54,5.54,0,0,1-.86-2L170,48a5.38,5.38,0,0,1,0-2.26,5.82,5.82,0,0,1,.91-2.07,6.32,6.32,0,0,1,1.65-1.57,5.94,5.94,0,0,1,2.15-.87l1.09-.2a6.17,6.17,0,0,1,4.45.88,5.18,5.18,0,0,1,1.59,1.57,5.77,5.77,0,0,1,.85,2.12l1.51,8a5.88,5.88,0,0,1,0,2.29,5.67,5.67,0,0,1-.91,2,6.21,6.21,0,0,1-1.66,1.57,6.11,6.11,0,0,1-2.17.87ZM180.09,46a3,3,0,0,0-1.34-2,3.18,3.18,0,0,0-2.43-.5l-1.08.21a3.14,3.14,0,0,0-2.06,1.35,3,3,0,0,0-.54,2.34l1.51,8a3,3,0,0,0,1.35,2,3.17,3.17,0,0,0,2.41.51l1.08-.21a3.1,3.1,0,0,0,2.08-1.34,3,3,0,0,0,.52-2.35Z"/><path class="cls-3" d="M68.5,92.31H37.29A1.31,1.31,0,0,0,36,93.61v7.79a1.31,1.31,0,0,0,1.29,1.3h1.36L39.89,130a4,4,0,0,0,3.9,3.85H62a3.74,3.74,0,0,0,2.12-.66A4.08,4.08,0,0,0,65.9,130l1.24-27.35H68.5a1.3,1.3,0,0,0,1.3-1.3V93.61A1.3,1.3,0,0,0,68.5,92.31ZM62,94.9v5.2H59.4l0-5.2Zm-7.81,0h2.6v5.2h-2.6Zm-2.6,0v5.2H49V94.9Zm-7.8,0h2.6v5.2h-2.6Zm-2.6,5.2h-2.6V94.9h2.6Zm23.34,5h0L63.41,129.7a1.41,1.41,0,0,1-1.3,1.35H43.92a1.13,1.13,0,0,1-.48-.11,1.49,1.49,0,0,1-.82-1.25l-.18-4L41.5,105h0l-.11-2.56H64.65Zm2.65-5h-2.6V94.9h2.6Z"/></svg>