<svg id="Layer_1" data-name="Layer 1" xmlns="http://www.w3.org/2000/svg" viewBox="0 0 353 186"><defs><style>.cls-1{fill:#409dad;}.cls-2{fill:#004568;}.cls-3{fill:#f7f6f5;}.cls-4{fill:#fff;}.cls-5{fill:#611c35;}.cls-6,.cls-9{fill:#007c91;}.cls-7{fill:#bfdee3;}.cls-8{fill:none;stroke:#bfdee3;stroke-width:1.06px;}.cls-8,.cls-9{stroke-miterlimit:10;}.cls-9{stroke:#fff;stroke-width:0.76px;fill-rule:evenodd;}.cls-10{fill:#7fa2b3;}</style></defs><path class="cls-1" d="M197,109.67H232.3V156.1c-12,.13-23.89.78-35.33,1.93Z"/><path class="cls-1" d="M295,159.62V84.32h20.76a8.13,8.13,0,0,0,5.78-2,2.75,2.75,0,0,0,0-4.06L237.56,2.48a8,8,0,0,0-5.47-2h0c-.23,0-.44,0-.67,0a8,8,0,0,0-5.41,2L142,78.23a2.75,2.75,0,0,0,0,4.06,8.16,8.16,0,0,0,5.78,2h20.77V159.7h.55c-22,5.9-41.56,14.77-57.3,25.85,33.62-12.58,75.25-20,120.33-20s86.72,7.44,120.34,20C336.7,174.43,317.09,165.52,295,159.62Zm-98-49.95H232.3V156.1c-3,0-6,.1-9,.19-6,.2-11.87.52-17.69,1-2.91.23-5.8.48-8.66.77V109.67Z"/><path class="cls-2" d="M202.87,72a15.61,15.61,0,1,1,15.61-15.6A15.62,15.62,0,0,1,202.87,72Z"/><path class="cls-3" d="M202.87,42.53A13.85,13.85,0,1,1,189,56.38a13.85,13.85,0,0,1,13.84-13.85m0-3.52a17.37,17.37,0,1,0,17.37,17.37A17.38,17.38,0,0,0,202.87,39Z"/><path class="cls-2" d="M209.42,175.38a8.67,8.67,0,0,1-7.23-3.77,8.85,8.85,0,0,1-7.35,3.77,9,9,0,0,1-8.08-5.11l-.21-.39,0-28,1.06-.46c2.64-1.14,3.92-3.58,3.92-7.45l0-17.82c0-11.18-4.56-14.16-8-15.42l-2.3-.85L182.85,98a13.93,13.93,0,0,0-.67-18.27l-1.12-1.21,1.14-1.2C185.71,73.59,190.14,72,197,72h10.92c5.21,0,9.28.9,12.45,2.75L223,76.34l-2.72,1.49c-3,1.66-5,5-7,11.74-3.65,12.37-6.39,29.19-6.78,31.61.1,3,3.76,7.21,7,8.95l1.14.61-.23,1.26c-.1.51-.25,1.24-.42,2.07a60,60,0,0,0-1.16,6.86c-.11,2.93.7,3.61,1.69,4.14a16.73,16.73,0,0,0,2.28,1l1.47.24-.07,1.48,0,20,0,.19C217.19,172.44,213.74,175.38,209.42,175.38Z"/><path class="cls-3" d="M207.91,73.78c4.73,0,8.59.77,11.56,2.51-3.55,1.94-5.73,5.61-7.84,12.78-3.91,13.23-6.75,31.3-6.86,32,0,4,4.39,8.74,8,10.64a87.49,87.49,0,0,0-1.6,9.17c-.14,3.47.92,4.86,2.61,5.76a16.11,16.11,0,0,0,2.75,1.12l0,19.78c-.78,3.49-3.34,6.1-7.07,6.1-4.33,0-7.21-3.51-7.21-7.85,0,4.34-3,7.85-7.37,7.85a7.27,7.27,0,0,1-6.53-4.18l0-26.4c3.58-1.55,5-4.86,5-9.07l0-17.82c0-10.42-3.81-15.11-9.15-17.07a15.72,15.72,0,0,0-.74-20.58c3.15-3.32,7.11-4.72,13.51-4.72h10.92m0-3.52H197c-7.38,0-12.19,1.74-16.07,5.82l-2.27,2.39,2.24,2.43a12.18,12.18,0,0,1,.59,16l-3.07,3.82,4.6,1.69c2.94,1.08,6.84,3.69,6.84,13.77l0,17.81c0,4.09-1.53,5.27-2.86,5.85l-2.12.91V143l0,26.41v.88l.41.77a10.73,10.73,0,0,0,9.64,6,10.61,10.61,0,0,0,7.3-2.86,10.42,10.42,0,0,0,7.28,2.86c5.18,0,9.3-3.47,10.51-8.84l.08-.38v-.39l0-19.78v-3l-2.78-.46a14.8,14.8,0,0,1-1.84-.78c-.44-.24-.83-.44-.75-2.51a56.08,56.08,0,0,1,1.13-6.57c.17-.85.32-1.59.42-2.11l.46-2.54-2.27-1.2c-2.93-1.55-5.91-5.16-6.1-7.31.49-3.08,3.17-19.24,6.7-31.2,2.14-7.25,4-9.52,6.16-10.69l5.46-3-5.37-3.14c-3.45-2-7.81-3-13.34-3Z"/><path class="cls-2" d="M177.65,175.38a7.51,7.51,0,0,1-5.77-2.7,7.52,7.52,0,0,1-13.29-4.82V140.7a6.69,6.69,0,0,1-5.8-6.73l0-19.86,2.41,1a9.81,9.81,0,0,0,3.24.61h.11a8.79,8.79,0,0,0,8.07-12.31l-.86-2.37h12.49c8.66.65,12.88,5.6,12.88,15.14L191,134a6.63,6.63,0,0,1-5.82,6.74l-.05,27.15A7.53,7.53,0,0,1,177.65,175.38Z"/><path class="cls-3" d="M178.08,102.75c7.35.55,11.25,4.3,11.25,13.39L189.28,134c0,2.85-1.94,5.13-5.82,5.13l-.05,28.76a5.77,5.77,0,0,1-11.53,0,5.77,5.77,0,0,1-11.53,0V139.1c-3.78,0-5.8-2.28-5.8-5.13l0-17.27a11.65,11.65,0,0,0,3.86.73h.13a10.75,10.75,0,0,0,6.68-2.38c3.6-2.88,4.7-7.76,3-12.3h9.85m.13-3.52h-15l1.73,4.73a7,7,0,0,1-6.42,10h-.08a8.25,8.25,0,0,1-2.63-.49L151,111.53v5.18L151,134a8.23,8.23,0,0,0,5.79,8.09v25.79a9.28,9.28,0,0,0,15,7.26,9.28,9.28,0,0,0,15.05-7.26l0-25.79a8.24,8.24,0,0,0,5.83-8.1l0-17.82c0-10.5-4.88-16.19-14.51-16.91Z"/><path class="cls-2" d="M158.36,115.52a8.84,8.84,0,0,1-5.47-2,8.15,8.15,0,0,1-1.77-2.31L151,111c-2.93-4.87.27-7.43,3.1-9.68l.23-.19c2-1.62,4.11-3.29,6.38-3.29a4.74,4.74,0,0,1,3.16,1.27,7.08,7.08,0,0,1,1.36,1.82l.27.46c2.61,4.26,2,9.37-1.5,12.16a8.91,8.91,0,0,1-5.53,2Z"/><path class="cls-3" d="M160.7,99.61h0a2.93,2.93,0,0,1,1.93.8,7.71,7.71,0,0,1,1.32,1.9c2,3.24,1.93,7.45-1.1,9.87a7.09,7.09,0,0,1-4.43,1.58h-.08a7,7,0,0,1-4.35-1.55,7.84,7.84,0,0,1-1.54-2.11c-2.19-3.64-.1-5.16,2.93-7.59,1.88-1.5,3.67-2.9,5.28-2.9m0-3.52c-2.88,0-5.32,2-7.48,3.68L153,100c-2.88,2.3-7.24,5.78-3.51,12,0,.06.07.12.1.19a9.91,9.91,0,0,0,2.16,2.78,10.5,10.5,0,0,0,6.59,2.4h.13a10.67,10.67,0,0,0,6.63-2.35c4.18-3.34,5-9.42,1.9-14.45l-.26-.45a9.17,9.17,0,0,0-1.66-2.19,6.44,6.44,0,0,0-4.28-1.75h-.09Z"/><path class="cls-2" d="M171.92,101.86a12.65,12.65,0,1,1,12.65-12.64A12.65,12.65,0,0,1,171.92,101.86Z"/><path class="cls-3" d="M171.92,78.33A10.89,10.89,0,1,1,161,89.22a10.88,10.88,0,0,1,10.88-10.89m0-3.52a14.41,14.41,0,1,0,14.41,14.41,14.42,14.42,0,0,0-14.41-14.41Z"/><path class="cls-2" d="M240.84,175.46a7.54,7.54,0,0,1-6.34-3.22,8,8,0,0,1-6.5,3.22c-4.72,0-8-3.7-8-9V144.65a13.15,13.15,0,0,1-3.31-.63,3.64,3.64,0,0,1-2.07-3.92,242.28,242.28,0,0,1,6.08-29,.28.28,0,0,0-.18-.36h0a.29.29,0,0,0-.31.19c0,.09-3.33,12.06-4.13,15.69l-.5,2.28-2.05-1.11c-1.68-.91-5.58-3.34-5.58-6.36v-.14l0-.13a291.23,291.23,0,0,1,6.74-31.31c3.11-10.59,6-11.81,13.42-12.58H242.5l3.24.35-.87,2.16c-1.59,3.92-.73,8,2.21,10.5a8.8,8.8,0,0,0,3.5,1.78l2.64.71-1.75,2.11a12.36,12.36,0,0,0-2.85,7.88,12.21,12.21,0,0,0,1.92,6.56l1.07,1.69-1.81.85c-4.44,2.09-6.69,6.47-6.69,13l0,15.07a7.06,7.06,0,0,0,3.93,6.53l1,.49v24.2l-.26.42A8,8,0,0,1,240.84,175.46Z"/><path class="cls-3" d="M242.41,79l.82.09c-1.83,4.53-.86,9.51,2.71,12.51a10.92,10.92,0,0,0,4.18,2.13,14,14,0,0,0-1.07,16.51c-4.22,2-7.7,6.18-7.7,14.62l0,15.07a8.84,8.84,0,0,0,4.89,8.1v22.62a6.21,6.21,0,0,1-5.44,3c-4,0-6.25-3.24-6.25-7.24,0,4-2.6,7.24-6.59,7.24s-6.26-3.24-6.26-7.24c0,0,0-13,0-23.46a16.38,16.38,0,0,1-4.47-.63,1.93,1.93,0,0,1-.93-2,237.06,237.06,0,0,1,6-28.74,2.05,2.05,0,0,0-1.39-2.53,2.24,2.24,0,0,0-.57-.08,2.05,2.05,0,0,0-2,1.46c-.05.18-3.36,12.16-4.16,15.81-2.3-1.24-4.65-3.16-4.65-4.81a284.48,284.48,0,0,1,6.69-31.09c2.89-9.84,5.23-10.63,11.91-11.32h14.15m.19-3.52H228.08l-.18,0c-8.41.87-11.75,3-14.93,13.83a287.37,287.37,0,0,0-6.79,31.54l0,.27v.27c0,3.82,4.07,6.59,6.5,7.91l1.78,1c-.6,3.13-1.15,6.39-1.56,9.56a5.35,5.35,0,0,0,3.2,5.79,11.49,11.49,0,0,0,2.17.55v20.24c0,6.25,4.11,10.77,9.78,10.77a9.81,9.81,0,0,0,6.49-2.38,9.32,9.32,0,0,0,6.35,2.38,9.71,9.71,0,0,0,8.44-4.7l.52-.85V145.9l-1.93-1a5.35,5.35,0,0,1-3-5l0-15.08c0-5.89,1.86-9.63,5.68-11.43l3.61-1.7L252,108.38a10.46,10.46,0,0,1-1.65-5.62A10.61,10.61,0,0,1,252.82,96l3.51-4.22L251,90.36a7.43,7.43,0,0,1-2.82-1.42,7.28,7.28,0,0,1-1.71-8.5l1.75-4.33-4.64-.49-.29,0-.54-.06-.18,0Z"/><path class="cls-2" d="M265.79,175.46a6.62,6.62,0,0,1-4.87-2.13,6.64,6.64,0,0,1-11.51-4.49v-23a5.88,5.88,0,0,1-4.89-5.91l0-15c0-8.24,3.64-12.52,11.13-13.07h10.67c7.49.55,11.13,4.82,11.13,13.06l0,15.07a5.84,5.84,0,0,1-4.92,5.92l0,23A6.63,6.63,0,0,1,265.79,175.46Z"/><path class="cls-3" d="M266.16,113.58c6.21.46,9.5,3.63,9.5,11.31l0,15.06c0,2.41-1.64,4.34-4.92,4.34l0,24.55a4.87,4.87,0,0,1-9.74,0,4.88,4.88,0,0,1-9.75,0V144.29c-3.19,0-4.89-1.93-4.89-4.34l0-15.06c0-7.68,3.29-10.85,9.5-11.31h10.41m.13-3.52h-10.8c-8.47.63-12.76,5.62-12.76,14.82l0,15.07a7.56,7.56,0,0,0,4.89,7.2v21.68a8.4,8.4,0,0,0,13.27,6.82,8.39,8.39,0,0,0,13.26-6.82l0-21.65a7.47,7.47,0,0,0,4.92-7.24l0-15c0-9.21-4.29-14.2-12.76-14.83Z"/><path class="cls-2" d="M253,92.26a9,9,0,0,1-5.78-2.1c-3.4-2.85-3.92-8-1.21-12.19l.27-.42a7.14,7.14,0,0,1,1.41-1.8,4.49,4.49,0,0,1,3.05-1.21c2.34,0,4.52,1.83,6.44,3.44l.23.19c2.78,2.32,5.92,5,2.88,9.75l-.13.21A7.73,7.73,0,0,1,253,92.26Z"/><path class="cls-3" d="M250.69,76.3c1.64,0,3.43,1.45,5.31,3,3,2.49,5,4.07,2.75,7.64a7.32,7.32,0,0,1-1.59,2.08A6.62,6.62,0,0,1,253,90.5a7.22,7.22,0,0,1-4.64-1.68c-3-2.49-2.92-6.7-.87-9.89a7.45,7.45,0,0,1,1.37-1.87,2.77,2.77,0,0,1,1.88-.76m0-3.52a6.27,6.27,0,0,0-4.22,1.65,8.9,8.9,0,0,0-1.72,2.17l-.27.43c-3.19,5-2.53,11,1.56,14.48A10.75,10.75,0,0,0,253,94a10.18,10.18,0,0,0,6.44-2.24A9.7,9.7,0,0,0,261.62,89l.11-.17c3.87-6.09-.41-9.67-3.24-12l-.22-.19c-2.16-1.8-4.6-3.85-7.58-3.85Z"/><circle class="cls-2" cx="260.95" cy="101.92" r="10.96"/><path class="cls-3" d="M261,92.73a9.2,9.2,0,1,1-9.2,9.19,9.19,9.19,0,0,1,9.2-9.19m0-3.52a12.72,12.72,0,1,0,12.72,12.71A12.72,12.72,0,0,0,261,89.21Z"/><path class="cls-2" d="M234.87,77.64A14.6,14.6,0,1,1,249.47,63,14.62,14.62,0,0,1,234.87,77.64Z"/><path class="cls-3" d="M234.87,50.2A12.84,12.84,0,1,1,222,63,12.84,12.84,0,0,1,234.87,50.2m0-3.52A16.36,16.36,0,1,0,251.23,63a16.38,16.38,0,0,0-16.36-16.36Z"/><rect class="cls-4" x="4.14" y="54.86" width="135.09" height="70.61" rx="3.49"/><path class="cls-5" d="M142.87,58.6a9.11,9.11,0,0,0-9.11-9.11H9.6A9.1,9.1,0,0,0,.5,58.6v74.76a9.1,9.1,0,0,0,9.1,9.11H133.76a9.11,9.11,0,0,0,9.11-9.11Zm-7.26,61.68a3.31,3.31,0,0,1-3.31,3.3H11.06a3.3,3.3,0,0,1-3.3-3.3V60.05a3.3,3.3,0,0,1,3.3-3.3H132.3a3.31,3.31,0,0,1,3.31,3.3ZM75.82,133a4,4,0,1,1-4-4A4,4,0,0,1,75.82,133Z"/><path class="cls-5" d="M91.15,166.89a8.68,8.68,0,0,1-3.23-3.49c-.92-1.83-2.09-18-2.09-18H58.69s-1.17,16.2-2.09,18a8.36,8.36,0,0,1-3.23,3.43c-.71.51-.25,1.3,0,2s9,1.28,18.88,1.28h0c9.88,0,18.68-.7,18.88-1.25S91.86,167.39,91.15,166.89Z"/><path class="cls-6" d="M41.38,88.45a7.31,7.31,0,1,1,7.3-7.31A7.31,7.31,0,0,1,41.38,88.45Z"/><path class="cls-6" d="M41.38,66.05A19.46,19.46,0,1,0,60.84,85.5,19.48,19.48,0,0,0,41.38,66.05ZM53.86,97.72a13.42,13.42,0,0,0-25,0,17.48,17.48,0,1,1,25,0Z"/><rect class="cls-7" x="69.85" y="70.06" width="53.66" height="3.13"/><rect class="cls-7" x="69.85" y="78.92" width="38.67" height="3.13"/><rect class="cls-7" x="69.85" y="87.77" width="47.26" height="3.13"/><rect class="cls-8" x="70.06" y="97.61" width="14.13" height="14.13" rx="2.77"/><path class="cls-9" d="M78,104.74c-.88-.81-2.3-2.3-3.24-3.24s-1.55-.14-2.7,1.08,0,2,1.82,3.78l3.31,3.3c1.21,1.08,2.22-.54,3.84-2.09l6.62-6.68c2.09-2,2.56-2,.87-3.64-1.48-1.55-1.41-1.55-3.78.87C83.63,99.14,78.3,104.53,78,104.74Z"/><rect class="cls-10" x="102.63" y="101.87" width="13.69" height="4.49" rx="1.9"/></svg>