<svg id="Layer_1" data-name="Layer 1" xmlns="http://www.w3.org/2000/svg" viewBox="0 0 353 186"><defs><style>.cls-1{fill:#f7f6f5;}.cls-2{fill:#fff;}.cls-3{fill:#611c35;}.cls-4{fill:#007c91;}.cls-5{fill:#bfdee3;}.cls-6{fill:none;stroke:#bfdee3;stroke-miterlimit:10;stroke-width:1.09px;}.cls-7{fill:#7fa2b3;}.cls-8{fill:#004568;}.cls-9{fill:#7fbdc8;}</style></defs><circle class="cls-1" cx="227.03" cy="89.67" r="86.02"/><rect class="cls-2" x="41.83" y="40.42" width="146.61" height="76.64" rx="3.79"/><path class="cls-3" d="M192.4,44.48a9.88,9.88,0,0,0-9.88-9.89H47.77a9.89,9.89,0,0,0-9.89,9.89v81.14a9.88,9.88,0,0,0,9.89,9.88H182.52a9.88,9.88,0,0,0,9.88-9.88Zm-7.88,66.94a3.59,3.59,0,0,1-3.58,3.59H49.35a3.58,3.58,0,0,1-3.58-3.59V46.06a3.58,3.58,0,0,1,3.58-3.58H180.93a3.58,3.58,0,0,1,3.59,3.58Zm-64.88,13.85a4.31,4.31,0,1,1-4.31-4.31A4.3,4.3,0,0,1,119.64,125.27Z"/><path class="cls-3" d="M136.27,162a9.42,9.42,0,0,1-3.51-3.79c-1-2-2.27-19.56-2.27-19.56H101s-1.27,17.57-2.27,19.56a9.25,9.25,0,0,1-3.5,3.72c-.78.55-.27,1.41,0,2.13s9.77,1.39,20.49,1.39h0c10.72,0,20.27-.76,20.49-1.35S137,162.56,136.27,162Z"/><path class="cls-4" d="M216.61,3.92C223.4.59,230.21-.61,236.87.67c7.23,1.4,11.71,5.37,12.95,11.85a17.58,17.58,0,0,1-1.46,10.88,37.6,37.6,0,0,1-6.23,9.45c-2.45,2.69-5.82,6-10,9.93-3.91,3.64-6.35,6.61-7.46,9a10.48,10.48,0,0,0-1.11,6.3c.56,2.92-.13,4.42-2,4.49a2.45,2.45,0,0,1-2.21-.91,12.5,12.5,0,0,1-1.38-4.4,13.68,13.68,0,0,1,.7-7.26c.94-2.6,3.27-6.12,7.15-10.74,4.26-5.11,7-9.46,7.88-12.78a21.22,21.22,0,0,0,.54-9.69,11.26,11.26,0,0,0-5.91-8.11c-3.1-1.68-6.59-1.61-10.39.1-4.33,1.94-7.35,4.39-9.23,7.37A11.7,11.7,0,0,0,206.86,25a7.05,7.05,0,0,0,1.94,3.89,3.21,3.21,0,0,0,3.36.88,3.65,3.65,0,0,0,1.07-.5,3.87,3.87,0,0,1,1-.48,4.36,4.36,0,0,1,2.66.1,2.19,2.19,0,0,1,1.69,1.62,3.9,3.9,0,0,1-1.43,3.72,9.78,9.78,0,0,1-4.39,2.29,7.92,7.92,0,0,1-6.82-1.42c-2-1.49-3.39-4-4.08-7.59A18,18,0,0,1,204.19,15C206.68,10.5,210.73,6.8,216.61,3.92ZM224,68.34a8.35,8.35,0,0,1,4.64,1.53,6.4,6.4,0,0,1,2.88,4.24,3.28,3.28,0,0,1-1.31,3.4,5.82,5.82,0,0,1-4.2,1.12,8.46,8.46,0,0,1-4.61-1.83,6,6,0,0,1-2.48-3.61A3.5,3.5,0,0,1,220,69.75,5.54,5.54,0,0,1,224,68.34Z"/><path class="cls-4" d="M63,60.72A3.77,3.77,0,1,1,66.8,57,3.77,3.77,0,0,1,63,60.72Z"/><path class="cls-4" d="M63,49.16a10,10,0,1,0,10,10A10.05,10.05,0,0,0,63,49.16ZM69.47,65.5a6.92,6.92,0,0,0-12.87,0,9,9,0,1,1,12.87,0Z"/><rect class="cls-5" x="89.35" y="55.12" width="58.24" height="3.39" rx="1.09"/><rect class="cls-6" x="89.35" y="62.54" width="37.46" height="6.95" rx="0.93"/><rect class="cls-7" x="109.41" y="101.46" width="14.86" height="4.87" rx="2.06"/><circle class="cls-7" cx="83.25" cy="56.89" r="2.97"/><rect class="cls-5" x="89.35" y="78.83" width="54.27" height="3.39" rx="1.05"/><rect class="cls-6" x="89.35" y="86.25" width="37.46" height="6.95" rx="0.93"/><circle class="cls-7" cx="83.25" cy="80.6" r="2.97"/><path class="cls-1" d="M180.5,128.41a33.76,33.76,0,1,1,33.74-33.76A33.8,33.8,0,0,1,180.5,128.41Z"/><path class="cls-1" d="M180.5,185.83c-13.22,0-25.58-.44-34.83-1.24-13.25-1.15-19.56-2.63-19.56-7.91a54.4,54.4,0,0,1,39.83-52.39l.91-.25.89.34a34.79,34.79,0,0,0,25.49,0l.88-.35.92.26a54.55,54.55,0,0,1,39.85,52.37C234.88,181.68,230.79,185.83,180.5,185.83Z"/><path class="cls-8" d="M180.5,65.21a29.44,29.44,0,1,1-29.43,29.44A29.47,29.47,0,0,1,180.5,65.21"/><path class="cls-8" d="M167.36,128.37a35.77,35.77,0,0,0,26.25,0,49.14,49.14,0,0,1,36,47.26c0,1.48,0,6-49.08,6-12.52,0-24.22-.42-32.93-1.18-13.45-1.16-16.15-2.71-16.15-4.83a49.08,49.08,0,0,1,35.94-47.27"/><path class="cls-9" d="M278.33,103a5,5,0,0,0-1.11-1.75,1.28,1.28,0,0,0-1.8-.09,1.31,1.31,0,0,0-.4.69,6.71,6.71,0,0,0-.1,2.19,13,13,0,0,0,.36,1.78l-5.86,2.6c-.26-.64-.45-1.1-.61-1.57a11.89,11.89,0,0,0-6.69-7.32c-1.24-.54-2.44-1.15-3.77-1.79l4-8.39.73.32a20.7,20.7,0,0,0,2.66,1,1.59,1.59,0,0,0,1.29-.46,1.1,1.1,0,0,0-.1-1.51c-.15-.19-.34-.36-.51-.55a21.78,21.78,0,0,0-5.61-4,3.94,3.94,0,0,0-1.57-.45,1.46,1.46,0,0,0-1.63,1.27,1.4,1.4,0,0,0,.21,1,5.67,5.67,0,0,0,1.35,1.37,11.5,11.5,0,0,0,1.19.77l-4.5,9.27a27.54,27.54,0,0,0-9.18.73,16.92,16.92,0,0,1-1.16-5c1.16-.67,2.2-1.22,3.13-1.85a1.56,1.56,0,0,0,.68-1.85,1.53,1.53,0,0,0-1.46-1.08,14.37,14.37,0,0,0-7.39,1.59,1.58,1.58,0,0,0-1,1.68,1.52,1.52,0,0,0,1.43,1.33c.73.13,1.46.22,2.19.32.33,1.72.69,3.4,1.06,5.07a13,13,0,0,1-1.34.43,10.58,10.58,0,0,0-6.72,4.45c-1,1.32-2.11,2.5-3.25,3.82l-4-4.51a19.05,19.05,0,0,0,1.07-1.86,1.37,1.37,0,0,0-.5-1.87,1.39,1.39,0,0,0-.69-.18,3,3,0,0,0-1.68.41,9,9,0,0,0-3.07,4,1.11,1.11,0,0,0,.24,1.46,2.42,2.42,0,0,0,1.52.23,4.9,4.9,0,0,0,1.39-.65l4.54,5.12a25,25,0,0,0-2,9.31,9.26,9.26,0,0,0,.85,4.4l1.27,2.68-3.62,3.31c-1-.89-1.79-1.61-2.59-2.37a1.46,1.46,0,0,0-2.63,1,3.85,3.85,0,0,0,.73,2.56c.79,1.15,1.57,2.33,2.42,3.44a5.83,5.83,0,0,0,1.51,1.46,1.62,1.62,0,0,0,2.27-.27,1.59,1.59,0,0,0,.33-.83,5.11,5.11,0,0,0,0-1.91,7.36,7.36,0,0,0-.46-1.37l3.28-2.93,1,1.25A10.06,10.06,0,0,0,241,133a31.72,31.72,0,0,0,3.9,0h2v4.08c-.27.08-.6.19-.93.27a1.9,1.9,0,0,0-1.76,2.2,2.29,2.29,0,0,0,2,2.3,7.84,7.84,0,0,0,5-.41,2.47,2.47,0,0,0,1.82-2.2c0-.86-.74-1.46-2.11-1.81-1.67-.44-1.68-.44-1.72-2.19v-2.1c6.71-.22,12-3.11,16.58-7.78L269,128a17.13,17.13,0,0,0-.62,2.31,1.4,1.4,0,0,0,1.86,1.64,2.63,2.63,0,0,0,1.06-.52,9.31,9.31,0,0,0,2.81-6.45,1.1,1.1,0,0,0-1-1.22,1.11,1.11,0,0,0-.54.08,4,4,0,0,0-1.34.88,14.08,14.08,0,0,0-1.12,1.2l-3.28-2.63a21.08,21.08,0,0,0,2.93-12.45l5.63-2.5a18.68,18.68,0,0,0,.89,1.88c.51.85,1.16,1.18,1.85,1s1-.93,1-1.65A15.23,15.23,0,0,0,278.33,103Zm-35.61,12.26c-2.67,0-4.17-1.84-3.66-4.46a6.93,6.93,0,0,1,2.79-4.33,2,2,0,0,1,2.52-.14c.37.24.78.44,1.17.66a3.6,3.6,0,0,1,2,4.26A4.92,4.92,0,0,1,242.72,115.23Zm14.38,4.54a6.33,6.33,0,0,1-2.33,4.22,5.89,5.89,0,0,1-3.31,1.4c-3.15,0-4.56-1.69-4-4.22a7.06,7.06,0,0,1,4.27-5.25C254.68,114.7,257.53,116.76,257.1,119.77Zm3-5.28a2.07,2.07,0,0,1-2.84-.64,2,2,0,0,1-.31-1.23,3.2,3.2,0,0,1,3-3.22,1.73,1.73,0,0,1,1.9,1.54h0A4,4,0,0,1,260.11,114.49Zm-5.87-7.76a1.55,1.55,0,0,1-2.13-.47,1.53,1.53,0,0,1-.24-.93,2.4,2.4,0,0,1,2.25-2.42,1.29,1.29,0,0,1,1.42,1.16h0A2.93,2.93,0,0,1,254.24,106.73Zm-13,17a1.54,1.54,0,0,1-2.36-1.4,2.4,2.4,0,0,1,2.24-2.43,1.3,1.3,0,0,1,1.43,1.17h0A3,3,0,0,1,241.22,123.73Z"/><path class="cls-8" d="M314.74,109.64,304.45,99.37a1.29,1.29,0,1,0-1.83,1.83l1.55,1.55-8.53,8.53-5.44-5.43a1.29,1.29,0,1,0-1.84,1.82l3,3-25,25a1.29,1.29,0,0,0-.37.92,11.48,11.48,0,0,0,2.59,7.23l-10,10a1.3,1.3,0,0,0,.91,2.21,1.31,1.31,0,0,0,.92-.38l10-10a11.59,11.59,0,0,0,7.24,2.59,1.32,1.32,0,0,0,.92-.38l25-25,3,3a1.25,1.25,0,0,0,.91.38,1.23,1.23,0,0,0,.91-.38,1.27,1.27,0,0,0,0-1.82l-5.64-5.64,8.54-8.53,1.67,1.68a1.33,1.33,0,0,0,.92.38,1.31,1.31,0,0,0,.93-2.22Zm-40.13,29.1a1.28,1.28,0,0,1-1.82,0l-2.32-2.32a1.29,1.29,0,1,1,1.82-1.83l2.32,2.32A1.29,1.29,0,0,1,274.61,138.74Zm3.89-6.47a1.29,1.29,0,0,1-.91.38,1.33,1.33,0,0,1-.92-.38l-1-1a1.29,1.29,0,1,1,1.83-1.83l1,1A1.3,1.3,0,0,1,278.5,132.27Zm6.47-3.89a1.25,1.25,0,0,1-.91.38,1.29,1.29,0,0,1-.92-.38l-2.32-2.32a1.29,1.29,0,0,1,0-1.83,1.3,1.3,0,0,1,1.83,0l2.32,2.32A1.29,1.29,0,0,1,285,128.38Zm3.88-6.47a1.28,1.28,0,0,1-1.82,0l-1-1a1.29,1.29,0,1,1,1.83-1.83l1,1A1.29,1.29,0,0,1,288.85,121.91Z"/><path class="cls-3" d="M298.82,59.83l-5.6.43-.43-5.61a2.33,2.33,0,0,0-2.5-2.13l-3.32.26a2.31,2.31,0,0,0-2.13,2.49l.43,5.61-5.61.43a2.32,2.32,0,0,0-2.13,2.49l.26,3.32a2.32,2.32,0,0,0,2.49,2.14l5.6-.44.44,5.61a2.31,2.31,0,0,0,2.49,2.13l3.32-.25a2.33,2.33,0,0,0,2.14-2.49l-.44-5.61,5.61-.43a2.32,2.32,0,0,0,2.13-2.5L301.32,62A2.32,2.32,0,0,0,298.82,59.83Zm-22.73,7.42-.25-3.32a4,4,0,0,1,3.69-4.31l3.92-.31-.31-3.91a4,4,0,0,1,3.7-4.32l3.32-.25a4,4,0,0,1,4.32,3.69l.3,3.92.24,0,3.25-3.79a13.86,13.86,0,1,0-21-18l-1.39,1.62-1.62-1.39a13.86,13.86,0,1,0-18,21.05L278.85,77.3l5.49-6.41,0-.24-3.91.3A4,4,0,0,1,276.09,67.25Z"/></svg>