<svg id="Layer_1" data-name="Layer 1" xmlns="http://www.w3.org/2000/svg" viewBox="0 0 376.35 186"><defs><style>.cls-1{fill:#611c35;}.cls-2{fill:#409dad;}.cls-3{fill:#007c91;}.cls-4{fill:#dfddd9;}.cls-5,.cls-8{fill:#004568;}.cls-5,.cls-6{fill-rule:evenodd;}.cls-6,.cls-7{fill:#fff;}.cls-9{fill:#f7f6f5;}.cls-10{fill:#615440;}</style></defs><path class="cls-1" d="M299.6,108.41H272l-3.86,5.67c-3.78,5.53-1.64,10.09,4.77,10.09s14.73-4.54,18.51-10.09l1.4-2v42.35h7.66v-46Z"/><path class="cls-1" d="M294.77,89.55h0a1.72,1.72,0,0,0-.14-.46c-.05-.16,0,0,0-.08-.1-.3-.21-.59-.33-.88l-.15-.33c-.07-.15-.14-.3-.22-.45l-.24-.44c-.06-.09-.12-.18-.17-.27a9,9,0,0,0-.56-.81c-.06-.08-.12-.17-.19-.25l-.34-.41-.36-.37-.21-.23a11.16,11.16,0,0,0-3.65-2.37,11.37,11.37,0,0,0-8.54,0A11.24,11.24,0,0,0,276,84.57a2.39,2.39,0,0,0-.22.23c-.12.12-.24.24-.35.37l-.34.41-.2.25a8.87,8.87,0,0,0-.55.81c-.06.09-.12.18-.17.27a3.75,3.75,0,0,0-.24.44c-.08.15-.15.3-.22.45l-.16.33c-.12.29-.22.58-.32.88v.08c-.05.16-.1.31-.14.46h0a10.83,10.83,0,0,0-.35,2.65v14.45H295l.05-14.45A10.32,10.32,0,0,0,294.77,89.55Z"/><path class="cls-1" d="M307.14,80.71H305.2v9.88a3.06,3.06,0,1,1-4.1-1.4,3.12,3.12,0,0,1,1.37-.31h0a3.74,3.74,0,0,1,1,.17V80.71h0V78.1h5.45v-5H301.7v7.66H288.49A13,13,0,0,1,293,83.57a12.35,12.35,0,0,1,3.77,8.84V106.6h20.67l.07-15.22a10.53,10.53,0,0,0-10.39-10.67h0Z"/><circle class="cls-1" cx="302.47" cy="91.95" r="1.3"/><path class="cls-2" d="M186.23,146.25v-66h18.2a7.15,7.15,0,0,0,5.07-1.78,2.41,2.41,0,0,0,.14-3.41,1.85,1.85,0,0,0-.14-.14L135.89,8.48a7,7,0,0,0-4.79-1.77h-.59a7,7,0,0,0-4.75,1.77L52.15,74.9A2.39,2.39,0,0,0,52,78.28l.17.17a7.12,7.12,0,0,0,5.06,1.78H75.42v66.09h.48c-19.3,5.17-36.43,13-50.23,22.66,29.48-11,66-17.55,105.5-17.55s76,6.52,105.5,17.55C222.82,159.23,205.62,151.42,186.23,146.25Z"/><path class="cls-3" d="M145.83,153.3a7.39,7.39,0,0,1-4.89-1.84,6.12,6.12,0,0,1-2.1-4.57,6.7,6.7,0,0,1,6.31-6.39v-.23c0-4.06,3.63-7.37,8.11-7.37a8.65,8.65,0,0,1,5.29,1.8l.62.48-.5.61a4.68,4.68,0,0,0-1.08,3,5,5,0,0,0,.13,1.09l.14.54-.48.29a6.38,6.38,0,0,0-3.07,5.34,6.17,6.17,0,0,0,2.18,4.67,7.1,7.1,0,0,0,1.59,1l2,1-2.21.44a8.26,8.26,0,0,1-1.49.14Z"/><path class="cls-4" d="M153.31,133.66a7.75,7.75,0,0,1,4.78,1.64h0A5.43,5.43,0,0,0,157,140a7.18,7.18,0,0,0-3.44,6,6.92,6.92,0,0,0,2.45,5.25,7.78,7.78,0,0,0,1.75,1.15,6.7,6.7,0,0,1-1.34.14H145.83a6.62,6.62,0,0,1-4.39-1.66,5.39,5.39,0,0,1-1.85-4c0-3.13,2.83-5.66,6.31-5.66h.1a7.45,7.45,0,0,1-.07-.95c0-3.65,3.3-6.61,7.36-6.61h.05m0-1.51h-.06c-4.72,0-8.6,3.41-8.85,7.69a7.38,7.38,0,0,0-6.32,7,6.92,6.92,0,0,0,2.37,5.15,8.11,8.11,0,0,0,5.38,2h10.58a8.92,8.92,0,0,0,1.63-.16l4.43-.87-4.06-2A7,7,0,0,1,157,150a5.45,5.45,0,0,1-1.92-4.12,5.62,5.62,0,0,1,2.72-4.68l.94-.57-.26-1.08a3.49,3.49,0,0,1-.11-.91,3.93,3.93,0,0,1,.88-2.48l1-1.2-1.19-1a9.36,9.36,0,0,0-5.71-2Z"/><path class="cls-3" d="M161.77,153.71a9,9,0,0,1-3.08-.54,8.3,8.3,0,0,1-2.64-1.56,6.88,6.88,0,0,1-2.43-5.17,7.17,7.17,0,0,1,3.45-5.95,4.86,4.86,0,0,1-.19-1.26,5.43,5.43,0,0,1,1.22-3.41,6.74,6.74,0,0,1,5.19-2.43h.12a7,7,0,0,1,2.77.55,11.36,11.36,0,0,1,10.23-6.36h.13A11.2,11.2,0,0,1,188,138.48a10.36,10.36,0,0,1-.08,1.25,8.14,8.14,0,0,1,3.41,2.37,6.74,6.74,0,0,1,1.61,4.33,6.83,6.83,0,0,1-2.41,5.18,8.59,8.59,0,0,1-5.7,2.1Z"/><path class="cls-4" d="M176.41,128.34h.12a10.4,10.4,0,0,1,10.67,10.14,9.56,9.56,0,0,1-.17,1.77,7.4,7.4,0,0,1,3.68,2.34,6,6,0,0,1,1.44,3.84c0,3.61-3.3,6.53-7.36,6.53h-23a8.1,8.1,0,0,1-2.8-.5,7.63,7.63,0,0,1-2.41-1.42,6.15,6.15,0,0,1-2.16-4.61,6.41,6.41,0,0,1,3.61-5.58,4.43,4.43,0,0,1-.35-1.64,4.56,4.56,0,0,1,1-2.91,6,6,0,0,1,4.6-2.16h.16a6.21,6.21,0,0,1,3.09.82,10.68,10.68,0,0,1,9.87-6.62m0-1.51A12.14,12.14,0,0,0,165.82,133a8,8,0,0,0-2.37-.37h-.16a7.48,7.48,0,0,0-5.76,2.7,6.15,6.15,0,0,0-1.4,3.87,5.55,5.55,0,0,0,.09,1,7.87,7.87,0,0,0-3.35,6.24v.06a7.61,7.61,0,0,0,2.69,5.74,8.72,8.72,0,0,0,2.88,1.69,9.58,9.58,0,0,0,3.31.59h23c4.92,0,8.9-3.61,8.9-8a7.55,7.55,0,0,0-1.8-4.82,8.9,8.9,0,0,0-3.17-2.37v-.75a11.94,11.94,0,0,0-12.18-11.66Z"/><path class="cls-4" d="M127.93,143.16c-10.52.11-20.94.68-31,1.7V102.45h31Z"/><path class="cls-2" d="M204.53,173.06S253.4,142.8,350.68,157.7c0,0-43.28,4.65-57.71,13.5C293,171.2,250.15,166.54,204.53,173.06Z"/><path class="cls-5" d="M56.55,123.92c2-4.22,3.84-8.68,6.2-13.52,1.24-2.23,2.85-4.34,5.45-4.58H109c2.73.24,4.22,2.35,5.58,4.58,2.36,4.84,4.22,9.3,6.2,13.52ZM68.2,99.24c-4.34,0-7.07,1.62-10.66,6.7l-6.08,13.64h-9.3c-1.36,0-4,7.56,5.71,7.81l-3.23,7.93c0,9.92.13,20,.13,29.88a3.65,3.65,0,0,0,3.58,3.72H61a3.65,3.65,0,0,0,3.72-3.58V156.9h47.73v8.3a3.74,3.74,0,0,0,3.72,3.72h12.65a3.65,3.65,0,0,0,3.72-3.58v-.14c0-9.92.12-20,.12-29.88l-3.35-7.93c9.8-.25,7.07-7.81,5.71-7.81h-9.3l-6-13.64c-3.72-5.08-6.33-6.7-10.79-6.7Zm50.71,36.7A6.08,6.08,0,1,0,125,142h0A6.09,6.09,0,0,0,118.91,135.94Zm-60.63,0A6.08,6.08,0,1,1,52.21,142v0A6.1,6.1,0,0,1,58.28,135.94Z"/><path class="cls-6" d="M56.55,123.92c2-4.22,3.84-8.68,6.2-13.52,1.24-2.23,2.85-4.34,5.45-4.58H109c2.73.24,4.22,2.35,5.58,4.58,2.36,4.84,4.22,9.3,6.2,13.52Z"/><circle class="cls-7" cx="118.91" cy="142.02" r="6.08"/><circle class="cls-7" cx="58.28" cy="142.02" r="6.08"/><path class="cls-8" d="M219.6,75a14.48,14.48,0,0,1-14.54-13.79,14.27,14.27,0,0,1,3.81-10.4A14.58,14.58,0,0,1,219,46.1h.67a14.45,14.45,0,1,1,.6,28.9Z"/><path class="cls-9" d="M219.65,47.08A13.46,13.46,0,1,1,220.23,74h-.63a13.45,13.45,0,0,1-.6-26.9h.63m0-2h-.72a15.54,15.54,0,0,0-10.79,5A15.29,15.29,0,0,0,204,61.22,15.48,15.48,0,0,0,219.6,76h.72a15.44,15.44,0,0,0-.67-30.87Z"/><path class="cls-8" d="M232.15,178.3a7.49,7.49,0,0,1-7.49-6.56l-4.9-38.66-4.91,38.67a7.47,7.47,0,0,1-7.43,6.5h-.94a7.24,7.24,0,0,1-5-2.83,7.65,7.65,0,0,1-1.52-5.54l6.44-51.11V83.84a7.45,7.45,0,0,1,7.44-7.44h11.52a7.16,7.16,0,0,1,6.49,3.79c1.09,1.93,7,12.07,8.35,14.45h14a6.83,6.83,0,0,1,6.76,6.44,6.57,6.57,0,0,1-6.47,6.67H236.63a6.28,6.28,0,0,1-3.53-1.11v12.12l6.44,51.1a7.5,7.5,0,0,1-6.5,8.38A6.54,6.54,0,0,1,232.15,178.3Z"/><path class="cls-9" d="M225.38,77.4A6.16,6.16,0,0,1,231,80.69c1.23,2.19,8.64,15,8.64,15h14.54a5.85,5.85,0,0,1,5.76,5.49,5.56,5.56,0,0,1-5.5,5.62H236.63a5.68,5.68,0,0,1-4.53-2.47v14.54L238.55,170a6.5,6.5,0,0,1-5.62,7.27,6.81,6.81,0,0,1-.78,0,6.48,6.48,0,0,1-6.49-5.67l-5.9-46.5-5.9,46.5a6.5,6.5,0,0,1-6.44,5.62h-.83A6.49,6.49,0,0,1,201,170l6.45-51.16v-35a6.44,6.44,0,0,1,6.44-6.44h11.52m0-2H213.86a8.45,8.45,0,0,0-8.44,8.44v34.85l-6.44,51A8.66,8.66,0,0,0,200.7,176a8.3,8.3,0,0,0,5.66,3.22h1.06a8.48,8.48,0,0,0,8.43-7.37L219.76,141l3.91,30.86a8.55,8.55,0,0,0,9.49,7.36,8.3,8.3,0,0,0,5.66-3.22,8.66,8.66,0,0,0,1.72-6.27l-6.44-51.06V108.28a7,7,0,0,0,2.53.47h17.69A7.55,7.55,0,0,0,262,101.3V101a7.86,7.86,0,0,0-7.76-7.4H240.8c-1.77-3-7-12.13-8.05-13.93a8.15,8.15,0,0,0-7.37-4.31Z"/><path class="cls-10" d="M260.77,78.64H245a4.27,4.27,0,0,0-4.25,4.25v6.35A4.27,4.27,0,0,0,245,93.49h15.77A4.27,4.27,0,0,0,265,89.24V82.89A4.27,4.27,0,0,0,260.77,78.64Z"/><rect class="cls-4" x="97" y="57.58" width="26.26" height="29.72"/><rect class="cls-4" x="139.12" y="57.58" width="26.26" height="29.72"/></svg>