<svg id="Layer_1" data-name="Layer 1" xmlns="http://www.w3.org/2000/svg" viewBox="0 0 376.35 186"><defs><style>.cls-1{fill:#409dad;}.cls-2{fill:#007c91;}.cls-3{fill:#dfddd9;}.cls-4,.cls-9{fill:#004568;}.cls-5{fill:#611c35;}.cls-6{isolation:isolate;}.cls-7{fill:#f7f6f5;}.cls-8{fill:#fff;}.cls-9{stroke:#004568;stroke-miterlimit:10;}</style></defs><path class="cls-1" d="M318.44,159.81V84.5h20.77a8.13,8.13,0,0,0,5.77-2,2.74,2.74,0,0,0,.13-3.87L345,78.5,261,2.66a8,8,0,0,0-5.47-2h-.68a8,8,0,0,0-5.41,2l-84,75.76a2.73,2.73,0,0,0-.14,3.86,1.85,1.85,0,0,0,.14.14,8.13,8.13,0,0,0,5.77,2H192v75.39h.55c-22,5.89-41.56,14.77-57.3,25.84,33.63-12.57,75.26-20,120.34-20s86.71,7.45,120.33,20C360.17,174.62,340.56,165.7,318.44,159.81Z"/><path class="cls-2" d="M272.36,167.85a8.48,8.48,0,0,1-5.58-2.1,7,7,0,0,1-2.39-5.21c0-3.79,3.15-6.9,7.19-7.29V153c0-4.64,4.15-8.41,9.25-8.41a9.82,9.82,0,0,1,6,2.06l.71.54-.57.69a5.36,5.36,0,0,0-1.23,3.4,5.19,5.19,0,0,0,.15,1.24l.15.61-.54.33a7.3,7.3,0,0,0-3.51,6.1,7,7,0,0,0,2.49,5.32,7.82,7.82,0,0,0,1.82,1.19l2.31,1.13-2.52.5a8.82,8.82,0,0,1-1.7.16Z"/><path class="cls-3" d="M280.89,145.45a8.9,8.9,0,0,1,5.45,1.87h0a6.22,6.22,0,0,0-1.39,3.92,5.87,5.87,0,0,0,.17,1.45,8.18,8.18,0,0,0-3.92,6.81,7.93,7.93,0,0,0,2.79,6,9.45,9.45,0,0,0,2,1.31,7.86,7.86,0,0,1-1.53.15h-12.1a7.55,7.55,0,0,1-5-1.89,6.12,6.12,0,0,1-2.1-4.57c0-3.57,3.22-6.46,7.19-6.46h.09a6.56,6.56,0,0,1-.09-1.08c0-4.17,3.77-7.54,8.39-7.54h.06m0-1.73h-.07c-5.38,0-9.81,3.89-10.09,8.77a8.42,8.42,0,0,0-7.2,8,7.83,7.83,0,0,0,2.69,5.87,9.31,9.31,0,0,0,6.14,2.31h12.07a9.69,9.69,0,0,0,1.86-.18l5-1-4.63-2.25a8.33,8.33,0,0,1-1.63-1.07,6.19,6.19,0,0,1-2.19-4.69,6.41,6.41,0,0,1,3.1-5.34l1.07-.66-.3-1.22a4.21,4.21,0,0,1-.12-1,4.48,4.48,0,0,1,1-2.83l1.11-1.37-1.31-1a10.65,10.65,0,0,0-6.51-2.24Z"/><path class="cls-2" d="M290.54,168.32a10.22,10.22,0,0,1-3.51-.62,9.32,9.32,0,0,1-3-1.78,7.86,7.86,0,0,1-2.76-5.89,8.18,8.18,0,0,1,3.93-6.79,5.83,5.83,0,0,1-.21-1.44,6.13,6.13,0,0,1,1.39-3.89,7.69,7.69,0,0,1,5.92-2.78h.13a8.17,8.17,0,0,1,3.16.62,13,13,0,0,1,11.67-7.24h.15c7.18,0,13,5.57,13,12.43a11.28,11.28,0,0,1-.09,1.42,9.29,9.29,0,0,1,3.89,2.7,7.66,7.66,0,0,1,1.84,4.94,7.83,7.83,0,0,1-2.74,5.92,9.84,9.84,0,0,1-6.51,2.39Z"/><path class="cls-3" d="M307.24,139.38h.14c6.72,0,12.17,5.18,12.17,11.57a10.34,10.34,0,0,1-.19,2,8.55,8.55,0,0,1,4.2,2.66,6.86,6.86,0,0,1,1.63,4.39c0,4.11-3.75,7.44-8.39,7.44H290.52a9.13,9.13,0,0,1-3.19-.57,8.65,8.65,0,0,1-2.75-1.61,7.06,7.06,0,0,1-2.47-5.26,7.33,7.33,0,0,1,4.12-6.37,5,5,0,0,1-.4-1.87,5.22,5.22,0,0,1,1.2-3.32,6.83,6.83,0,0,1,5.25-2.46h.18a7.16,7.16,0,0,1,3.53.93,12.16,12.16,0,0,1,11.25-7.55m0-1.72a13.85,13.85,0,0,0-12.08,7,9.12,9.12,0,0,0-2.7-.42h-.18a8.5,8.5,0,0,0-6.58,3.08,7.13,7.13,0,0,0-1.6,4.42v.06a6.65,6.65,0,0,0,.11,1,9,9,0,0,0-3.82,7.12v.1a8.7,8.7,0,0,0,3.08,6.55,10.39,10.39,0,0,0,3.27,1.93,11.06,11.06,0,0,0,3.78.66h26.24c5.62,0,10.16-4.11,10.16-9.16a8.63,8.63,0,0,0-2.05-5.51,10.19,10.19,0,0,0-3.63-2.7v-.86c0-7.33-6.24-13.29-13.9-13.29Z"/><path class="cls-3" d="M251.94,156.29c-12,.12-23.89.77-35.33,1.93V109.85h35.33Z"/><rect class="cls-3" x="216.61" y="58.67" width="29.96" height="33.9"/><rect class="cls-3" x="264.7" y="58.67" width="29.96" height="33.9"/><path class="cls-4" d="M.37,72.36A2.65,2.65,0,0,1,3,69.73H107a2.63,2.63,0,0,1,2.63,2.63v71.15a2.63,2.63,0,0,1-2.63,2.63H3a2.65,2.65,0,0,1-2.64-2.63Zm43.54,88.78a2.65,2.65,0,0,0,2.63,2.63H107a2.63,2.63,0,0,0,2.63-2.63h0v-6.26a2.65,2.65,0,0,0-2.63-2.63H46.54a2.65,2.65,0,0,0-2.63,2.63Zm90.41-7.2a15.82,15.82,0,1,0,15.81,15.83v0A15.82,15.82,0,0,0,134.32,153.94Zm-111.65,0a15.82,15.82,0,1,0,15.81,15.83v0A15.81,15.81,0,0,0,22.67,153.94Zm150.11-22.52v34.91a2.64,2.64,0,0,1-2.64,2.64H162a4,4,0,0,1-3.65-2.43c-.93-2.74-2.8-20.5-22.45-20.5H119a2.64,2.64,0,0,1-2.64-2.64V91.58A2.65,2.65,0,0,1,119,88.94h27.71a5.14,5.14,0,0,1,4,2.28l20.8,35.3A11.32,11.32,0,0,1,172.78,131.42ZM157,117.7,145.7,98.53c-1-1.67-1.56-2.32-2.84-2.32H127a2.3,2.3,0,0,0-2.3,2.3h0v20.22a2.3,2.3,0,0,0,2.29,2.31h28.23C157.07,121.05,158.15,119.72,157,117.7Z"/><path class="cls-5" d="M188.63,2.13l-6.28,1.18.3,1.62a6.39,6.39,0,0,1-2.13,11.75l-4.19.79A6.39,6.39,0,0,1,170.07,7.3l-.3-1.62-24.25,4.57.31,1.61a6.39,6.39,0,0,1-2.13,11.76l-4.19.79a6.4,6.4,0,0,1-6.26-10.18l-.31-1.61-6.28,1.18a6.43,6.43,0,0,0-5.11,7.48l9.67,51.33a6.43,6.43,0,0,0,7.48,5.11L200.7,66a6.42,6.42,0,0,0,5.1-7.47L196.11,7.23A6.41,6.41,0,0,0,188.63,2.13Zm13,57.23a2.15,2.15,0,0,1-1.7,2.49l-62,11.68a2.14,2.14,0,0,1-2.49-1.71l-5.3-28.09L196.3,31.27Z"/><path class="cls-4" d="M138.72,20.21l4.19-.78a2.14,2.14,0,0,0-.79-4.2l-1.19-6.29a2.13,2.13,0,0,0-4.19.79L137.93,16a2.13,2.13,0,1,0,.79,4.19Z"/><path class="cls-4" d="M175.54,13.28l4.19-.79a2.14,2.14,0,0,0-.56-4.24l-.23,0L177.76,2a2.13,2.13,0,0,0-4.19.79l1.18,6.28a2.14,2.14,0,0,0,.79,4.2Z"/><g class="cls-6"><g class="cls-6"><path class="cls-7" d="M148,34.6l.65-4.34-1.7-2.9.92-.17,1.71,2.9,2.23,3.79,1.14-7.65.92-.17-1.35,9-.94.17-2.22-3.76-.64,4.3-1,.18-4.62-7.87.92-.17Z"/></g><g class="cls-6"><path class="cls-7" d="M155.58,31.68a2.37,2.37,0,0,0,2.63,1.46,2.34,2.34,0,0,0,1.09-.51,2.37,2.37,0,0,0,.69-1l.83.29a3.33,3.33,0,0,1-.95,1.34,3,3,0,0,1-1.49.71,3.1,3.1,0,0,1-1.68-.13,3.31,3.31,0,0,1-1.39-.94,3.23,3.23,0,0,1,.35-4.58,3.2,3.2,0,0,1,3.19-.61,3.34,3.34,0,0,1,1.39.94,3.16,3.16,0,0,1,.73,1.53c0,.1,0,.24.06.43ZM156.3,29a2.25,2.25,0,0,0-.73.87,1.7,1.7,0,0,0-.15,1L160,30a1.66,1.66,0,0,0-.52-.91,2.29,2.29,0,0,0-1-.55,2.32,2.32,0,0,0-1.14-.05A2.49,2.49,0,0,0,156.3,29Z"/></g><g class="cls-6"><path class="cls-7" d="M162.85,30.31a2.28,2.28,0,0,0,1.05,1.2,2.32,2.32,0,0,0,1.59.26,2.37,2.37,0,0,0,1.77-1.47l.83.29a3.33,3.33,0,0,1-1,1.34,3,3,0,0,1-1.49.71,3.11,3.11,0,0,1-1.68-.13,3.28,3.28,0,0,1-1.38-.94,3.22,3.22,0,0,1,.34-4.58,3.22,3.22,0,0,1,3.2-.61,3.37,3.37,0,0,1,1.38.94,3.16,3.16,0,0,1,.73,1.53c0,.1,0,.24.06.43Zm.72-2.73a2.34,2.34,0,0,0-.73.87,1.7,1.7,0,0,0-.15,1l4.57-.86a1.66,1.66,0,0,0-.52-.9,2.31,2.31,0,0,0-1-.55,2.37,2.37,0,0,0-1.15-.05A2.49,2.49,0,0,0,163.57,27.58Z"/></g><g class="cls-6"><path class="cls-7" d="M173.16,31.16l-2.81-2.26.51,2.7-.88.16-1.6-8.49.88-.17.75,4,1.73-2.26,1.31-.25-2.52,3.3,3.79,3Z"/></g><g class="cls-6"><path class="cls-7" d="M175.56,29.53a1.51,1.51,0,0,0,1.1.13,1.55,1.55,0,0,0,.91-.46.89.89,0,0,0,.24-.79,1,1,0,0,0-.29-.59.72.72,0,0,0-.47-.18,4.49,4.49,0,0,0-.73.06,5.65,5.65,0,0,1-1.11.06,1.58,1.58,0,0,1-.85-.34,1.86,1.86,0,0,1-.63-1.07,1.2,1.2,0,0,1,0-.23,1.76,1.76,0,0,1,.44-1.35,2.58,2.58,0,0,1,1.45-.71h0a2.26,2.26,0,0,1,1.2.05,2.08,2.08,0,0,1,.81.51,2.36,2.36,0,0,1,.48.82l-.89.17a1.21,1.21,0,0,0-.24-.39,1.3,1.3,0,0,0-1.2-.3,1.5,1.5,0,0,0-1,.47,1.07,1.07,0,0,0-.19.67.86.86,0,0,0,0,.15.83.83,0,0,0,.32.5.88.88,0,0,0,.51.2,5.18,5.18,0,0,0,.82,0,5.34,5.34,0,0,1,.73-.06,1.71,1.71,0,0,1,.6.08,1.58,1.58,0,0,1,1.11,1.35,1.84,1.84,0,0,1,0,.74,1.82,1.82,0,0,1-.31.66,2.24,2.24,0,0,1-1.52.89,2.42,2.42,0,0,1-1.76-.26,2.08,2.08,0,0,1-.83-1.07l.89-.17A1.24,1.24,0,0,0,175.56,29.53Z"/></g></g><path class="cls-8" d="M201.59,59.36a2.15,2.15,0,0,1-1.7,2.49l-62,11.68a2.14,2.14,0,0,1-2.49-1.71l-5.3-28.09,66.2-12.46Z"/><path class="cls-9" d="M170,54.65l2.5-.48.36,1.91-2.5.48.94,4.94-1.88.36-.94-4.94L161,58.34l3.15-14.83,2.08-.39L163.42,55.9l4.72-.9-.56-3,1.88-.35Z"/><path class="cls-4" d="M231.89,176.81a5.67,5.67,0,0,1-5.67-5.66V117.59l-19.16-17a4.15,4.15,0,1,1,5.84-5.89l14.63,12.47a14.25,14.25,0,0,1,4.88-.86h3.68a10,10,0,1,1,2.77,0h4.86a14.37,14.37,0,0,1,5.6,1.13,1.17,1.17,0,0,1,.3.19l12.55,11.73a5.8,5.8,0,0,1,1.31,6.26L259,136.89a4.13,4.13,0,0,1-3.87,2.62,4.25,4.25,0,0,1-1.54-.29,4.19,4.19,0,0,1-2.34-5.42l3.86-9.68L250,119.56v21.85l8.44,28.36a5.46,5.46,0,0,1-3.72,6.78,5.29,5.29,0,0,1-1.53.22,5.5,5.5,0,0,1-5.25-3.91L239,143.21a.73.73,0,0,0-.72-.53.76.76,0,0,0-.76.75v27.72A5.67,5.67,0,0,1,231.89,176.81Z"/><path class="cls-7" d="M237.48,87.33a9,9,0,1,1-9,9,9,9,0,0,1,9-9M210,94.5a3.15,3.15,0,0,1,2.23.92l15.15,12.92a13,13,0,0,1,5.08-1h11.31a13.26,13.26,0,0,1,5.2,1l12.55,11.72a4.76,4.76,0,0,1,1.06,5.14L258,136.51a3.15,3.15,0,1,1-5.86-2.29v0l4.12-10.34-7.38-6.54v24.26l8.48,28.5a4.46,4.46,0,0,1-8.52,2.65l0-.11L240,142.92a1.77,1.77,0,0,0-3.47.51v27.72a4.66,4.66,0,0,1-9.31,0v-54L207.72,99.9a3.17,3.17,0,0,1,0-4.46A3.14,3.14,0,0,1,210,94.5m27.52-9.2a11,11,0,0,0-6.43,20,15.37,15.37,0,0,0-3.29.67l-14.19-12.1a5.19,5.19,0,0,0-7.28,7.39l.09.09L225.24,118v53.1a6.69,6.69,0,0,0,13.37,0V145.23l8.34,28a6.5,6.5,0,0,0,12.73-1.82,6.7,6.7,0,0,0-.28-1.89L251,141.26v-2.81a5.19,5.19,0,0,0,4.15,2.08,5.15,5.15,0,0,0,4.82-3.27L264.43,126a6.8,6.8,0,0,0-1.51-7.34h-.05l-12.55-11.73a1.83,1.83,0,0,0-.6-.39,15.18,15.18,0,0,0-5.72-1.2,11.06,11.06,0,0,0-6.52-20ZM251,131.74v-9.92l2.92,2.59Z"/><rect class="cls-8" x="45.27" y="124.08" width="2.82" height="2.82"/><rect class="cls-8" x="50.9" y="124.08" width="2.82" height="2.82"/><path class="cls-8" d="M54.1,104.73l1.19,1.53c2.23,2.95,3.35,5.35,3.33,7.28a4.61,4.61,0,1,1-9.21-.09c0-1.94,1.21-4.33,3.49-7.21l.29-.37Z"/><path class="cls-8" d="M70.62,87.49H36.82a1.41,1.41,0,0,0-1.4,1.41v8.43a1.4,1.4,0,0,0,1.4,1.41h1.47l1.34,29.57a4.33,4.33,0,0,0,4.23,4.17H63.58a4.11,4.11,0,0,0,2.3-.71,4.43,4.43,0,0,0,1.93-3.45L69.15,98.7h1.47A1.41,1.41,0,0,0,72,97.29V88.9A1.41,1.41,0,0,0,70.62,87.49Zm-7,2.8v5.64H60.77l0-5.64Zm-8.46,0h2.82v5.64H55.12Zm-2.81,0v5.64H49.5V90.29Zm-8.45,0h2.81v5.64H43.86ZM41,95.93H38.23V90.29H41Zm25.28,5.37h0L65.1,128a1.51,1.51,0,0,1-1.4,1.46H44a1.2,1.2,0,0,1-.52-.12,1.61,1.61,0,0,1-.88-1.35l-.2-4.34-1-22.38h0l-.12-2.78H66.45Zm2.87-5.37H66.38V90.29h2.81Z"/></svg>