<svg id="Layer_1" data-name="Layer 1" xmlns="http://www.w3.org/2000/svg" xmlns:xlink="http://www.w3.org/1999/xlink" viewBox="0 0 500 291.1"><defs><style>.cls-1{fill:#004568;}.cls-2{fill:#007c91;}</style><symbol id="logo_stacked" data-name="logo_stacked" viewBox="0 0 160 92.32"><path class="cls-1" d="M5.56,50.58A11.13,11.13,0,0,1,1.5,46.52a11.33,11.33,0,0,1,0-11.27,11.22,11.22,0,0,1,4.08-4.1,10.88,10.88,0,0,1,5.61-1.51,11.3,11.3,0,0,1,4.69,1,10.54,10.54,0,0,1,3.8,2.92L17.94,35a8.67,8.67,0,0,0-3-2.28,8.9,8.9,0,0,0-3.71-.82,8.59,8.59,0,0,0-4.45,1.22A8.94,8.94,0,0,0,3.5,36.43a8.73,8.73,0,0,0-1.2,4.46,8.6,8.6,0,0,0,1.2,4.44,8.86,8.86,0,0,0,3.24,3.25,8.66,8.66,0,0,0,4.45,1.2A8.75,8.75,0,0,0,14.9,49a8.67,8.67,0,0,0,3-2.28l1.74,1.47A10.8,10.8,0,0,1,15.88,51a11,11,0,0,1-4.69,1A10.93,10.93,0,0,1,5.56,50.58Zm21.64,0a11.25,11.25,0,0,1-4-4,11.09,11.09,0,0,1,0-11.14,11.13,11.13,0,0,1,4-4,10.69,10.69,0,0,1,5.54-1.5,10.81,10.81,0,0,1,5.56,1.5,11.06,11.06,0,0,1,4.06,4.06,11,11,0,0,1,0,11.1,11.18,11.18,0,0,1-4,4,11.09,11.09,0,0,1-11.14,0Zm10-1.94a8.77,8.77,0,0,0,3.21-3.22,8.89,8.89,0,0,0,0-8.85,8.75,8.75,0,0,0-3.21-3.21,8.84,8.84,0,0,0-8.86,0,8.75,8.75,0,0,0-3.21,3.21,8.89,8.89,0,0,0,0,8.85,8.77,8.77,0,0,0,3.21,3.22,8.91,8.91,0,0,0,8.86,0Zm14.74,3.24L44.21,29.7h2.43L53.4,49.05,60.16,29.7h2.39L54.83,51.84Zm15.88-22.1V51.88H65.55V29.74Zm3.33,22.14V29.7h5.6a10.71,10.71,0,0,1,5.56,1.5,11.36,11.36,0,0,1,4,4,11.12,11.12,0,0,1,0,11.12,11.36,11.36,0,0,1-4,4,10.71,10.71,0,0,1-5.56,1.5Zm5.6-2.27a8.58,8.58,0,0,0,4.42-1.18,8.82,8.82,0,0,0,0-15.28A8.58,8.58,0,0,0,76.74,32h-3.3V49.61Z"/><path class="cls-2" d="M9,14.79H6V25.18H4.8V14.79h-3V13.62H9Zm3.18,2.81a2,2,0,0,0-2,2v5.58H9V19.6a3.21,3.21,0,0,1,1.79-2.87h0a3.21,3.21,0,0,1,3.33.38l-1.18.68A1.94,1.94,0,0,0,12.13,17.6Zm10.59-.88v8.46h-1.2v-1.6a3.73,3.73,0,0,1-3.2,1.69,4.37,4.37,0,1,1,0-8.74,3.7,3.7,0,0,1,2,.51,4,4,0,0,1,1.17,1.1V16.72Zm-2.8,6.94a3.15,3.15,0,0,0,1.16-1.16,3.1,3.1,0,0,0,.42-1.59,3.2,3.2,0,0,0-.42-1.61,3.25,3.25,0,0,0-1.16-1.17,3.16,3.16,0,0,0-1.6-.42,3.13,3.13,0,0,0-2.77,1.59,3.11,3.11,0,0,0-.43,1.61,3,3,0,0,0,.43,1.59,3.08,3.08,0,0,0,1.16,1.16,3.11,3.11,0,0,0,1.61.43A3.07,3.07,0,0,0,19.92,23.66Zm11.73.06a4.43,4.43,0,0,1-1.48,1.14,4.39,4.39,0,0,1-4.05-.18,4.54,4.54,0,0,1-1.6-1.6,4.36,4.36,0,0,1,0-4.38,4.46,4.46,0,0,1,1.6-1.6,4.33,4.33,0,0,1,2.19-.59,4.18,4.18,0,0,1,1.86.41,4.43,4.43,0,0,1,1.48,1.14l-1.06.6a3.15,3.15,0,0,0-1-.7,3.18,3.18,0,0,0-1.26-.25,3.1,3.1,0,0,0-1.59.42,3.25,3.25,0,0,0-1.17,1.16,3.19,3.19,0,0,0,0,3.2,3.22,3.22,0,0,0,1.17,1.15,3,3,0,0,0,1.59.43,3.18,3.18,0,0,0,1.26-.25,3,3,0,0,0,1-.71Zm5.93,1.46-3.16-3.7v3.7h-1.2V13.54h1.2v5.52l2.85-2.57h1.79L34.9,20.23l4.26,4.95Z"/><path class="cls-1" d="M137.27,31c-.27-.43-.57-.84-.88-1.25l8.38-7.25a2.18,2.18,0,0,1-.42-1.22,4.2,4.2,0,1,1,5,3.19,3.93,3.93,0,0,1-3.39-.75Zm22.5,39.86a3.05,3.05,0,0,0-4-1.82,1.53,1.53,0,0,0-.67.38l-19-15.36c-.34.43-.71.84-1.09,1.24l19,15.47a3,3,0,0,0-.09,2.4,3.06,3.06,0,0,0,4,1.83A3.2,3.2,0,0,0,159.77,70.87ZM87.68,14.11A4.35,4.35,0,0,0,88,10.65,4.19,4.19,0,1,0,85.47,16a3.26,3.26,0,0,0,1.15-.67l17.86,14.75c.31-.43.63-.85,1-1.25Zm40.18-7.83a1.78,1.78,0,0,0,.77-.19,3,3,0,0,0,1.82-4,3,3,0,0,0-4-1.83,3.06,3.06,0,0,0-1.83,4A2.94,2.94,0,0,0,126.22,6l-2.83,16.09c.55.08,1.1.17,1.64.3ZM112.43,83.9a3.06,3.06,0,0,0-1.34.29,4.35,4.35,0,1,0,3,.1l4.31-22.89c-.56-.06-1.11-.15-1.65-.25Zm25.38-42.2a17.24,17.24,0,1,1-17.24-17.25A17.2,17.2,0,0,1,137.81,41.7Zm-9.4,1.23-7.84-7.84-7.84,7.84v7.19H119V43.85h3.14v6.27h6.27Zm3.33-1.11L120.57,30.65,109.4,41.82l1.11,1.11,10.06-10.07,10.06,10.07Z"/><path class="cls-1" d="M10.47,59.8v8.39H9.29V66.6a3.7,3.7,0,0,1-3.17,1.67,4.27,4.27,0,0,1-2.19-.58,4.08,4.08,0,0,1-1.57-1.57A4.23,4.23,0,0,1,1.78,64a4.27,4.27,0,0,1,.58-2.19,4.15,4.15,0,0,1,1.57-1.57,4.27,4.27,0,0,1,2.19-.58,3.6,3.6,0,0,1,2,.51,3.88,3.88,0,0,1,1.17,1.09V59.8ZM7.7,66.68A3.14,3.14,0,0,0,9.27,64a3.15,3.15,0,0,0-.42-1.59A3.2,3.2,0,0,0,7.7,61.2a3.09,3.09,0,0,0-1.58-.42,3.16,3.16,0,0,0-1.6.42,3.2,3.2,0,0,0-1.15,1.16A3.15,3.15,0,0,0,3,64a3.14,3.14,0,0,0,1.57,2.73,3.16,3.16,0,0,0,1.6.42A3.09,3.09,0,0,0,7.7,66.68Zm8.37-5.93H14.64v7.44H13.45V60.75H12V59.58h1.43V56.74h1.19v2.84h1.43Z"/><path class="cls-2" d="M36.84,55.91V78.05H34.61V68.13H24.29v9.92H22V55.91h2.26v10H34.61v-10Zm8.52,20.81a11.25,11.25,0,0,1-4-4,11.07,11.07,0,0,1,0-11.13,11.13,11.13,0,0,1,4-4.05,11,11,0,0,1,11.1,0,11.16,11.16,0,0,1,4.07,4.06A10.9,10.9,0,0,1,62,67.13a10.78,10.78,0,0,1-1.49,5.54,11.23,11.23,0,0,1-4,4,11.09,11.09,0,0,1-11.14,0Zm10-2A8.83,8.83,0,0,0,46.5,59.49a8.77,8.77,0,0,0-3.22,3.21,8.91,8.91,0,0,0,0,8.86,8.77,8.77,0,0,0,3.22,3.21,8.89,8.89,0,0,0,8.85,0Zm31.1-18.86V78h-2.3V59.14L76.69,69.93H74.76L67.3,59.14V78.05H65V55.91h2.8l7.89,11.42,7.89-11.42ZM92,58.18v7.75h6.63v2.13H92v7.73h9.85v2.26H89.78V55.91h12.11v2.27Z"/></symbol></defs><use width="160" height="92.32" transform="translate(2.5 2.74) scale(3.09)" xlink:href="#logo_stacked"/></svg>