<svg id="Layer_1" data-name="Layer 1" xmlns="http://www.w3.org/2000/svg" viewBox="0 0 1518.86 942.92"><defs><style>.cls-1{fill:#f7f6f5;}</style></defs><polygon class="cls-1" points="275.93 634.38 432.11 436.35 257.09 317.76 557.31 210.64 801.58 473.65 801.82 473.75 1051.13 572.54 1051.63 571.73 1225.69 290.15 1451.93 135.64 1450.64 133.76 1224.01 288.54 1223.88 288.74 1050.2 569.72 802.9 471.72 557.95 207.99 557.25 208.24 252.09 317.12 428.8 436.86 275.86 630.79 78.6 398.64 67.56 620.59 69.84 620.7 80.59 404.51 275.93 634.38"/><polygon class="cls-1" points="1400.79 617.59 1401.08 615.33 1051.4 570.08 898.82 278.59 896.8 279.65 1049.93 572.19 1050.52 572.26 1400.79 617.59"/><polygon class="cls-1" points="344.95 838.86 557.27 642.48 761.48 764.16 762.65 762.21 556.97 639.65 556.35 640.23 343.4 837.18 344.95 838.86"/><rect class="cls-1" x="421.6" y="0.23" width="2.28" height="296.11" transform="translate(113.26 472.19) rotate(-65.63)"/><polygon class="cls-1" points="802.53 474.68 803.26 473.19 898.5 280.28 1224.81 290.48 1224.88 288.2 897.11 277.96 896.79 278.61 801.95 470.7 559.94 210.12 769.03 179 769.13 178.97 1044.53 80.2 1043.76 78.05 768.47 176.78 555.32 208.5 556.79 210.09 802.53 474.68"/><path class="cls-1" d="M428.27,435.25l377.19,36.61L556.78,642.68Zm4.37,2.71L557.46,639.45,799,473.52Z"/><rect class="cls-1" x="363.82" y="321.82" width="260.45" height="2.28" transform="translate(-29.03 596.4) rotate(-60.77)"/><rect class="cls-1" x="415.37" y="496.15" width="2.28" height="281.35" transform="translate(-232.77 1033.64) rotate(-88.25)"/><path class="cls-1" d="M1019.94,203.74l136.79-68.26,67.38,151.59Zm8.29-.31,189.3,77.26-62.47-140.55Z"/><path class="cls-1" d="M898.79,274.55l4,115.11,0,.55L798.83,477Zm-2,9.13L805.65,468.36l94.82-79.18Z"/><path class="cls-1" d="M704.18,654.56,737,578.66l110.74,62.8.49-.17,203-69.14.15-.11,112.57-84.79,89.57,45.43,79.29-76.92,92-77.48-.16-.68-27.86-115.44c12,.74,90.53,5.74,102.47,10.65l.86-2.11c-13.21-5.43-101-10.68-104.73-10.91l-1.53-.09,28.41,117.75-91,76.62-78.18,75.84-89.38-45.34-113.57,85.54L847.93,639,735.86,575.42,703.65,650,608.29,521.81l-84-28.88L584,381l152-67.5.13-.11L858.62,206.18l-.68-132.1h-2.28l.67,131.06L734.7,311.56,582.33,379.24l-.19.34L521,494.21l85.89,29.52Z"/><polygon class="cls-1" points="1221.75 284.54 1317.53 149.26 1276.45 48.54 1274.34 49.4 1314.95 148.97 1219.89 283.22 1221.75 284.54"/><rect class="cls-1" x="1405.09" y="391.87" width="2.28" height="150.47" transform="translate(718.51 1779.63) rotate(-80.72)"/><polygon class="cls-1" points="254.2 318.51 254.98 316.37 175.4 287.35 138.94 164.41 52.53 252.68 54.16 254.27 137.85 168.77 173.53 289.09 254.2 318.51"/><rect class="cls-1" x="135.84" y="66.18" width="2.28" height="100.42" transform="translate(-3.21 3.89) rotate(-1.61)"/><polygon class="cls-1" points="287.26 88.5 395.64 70.88 395.28 68.63 288.44 86 245.02 11.59 243.05 12.74 287.26 88.5"/><polygon class="cls-1" points="559.92 211.25 528.67 94.48 525.37 95.37 555.34 207.37 389.13 191.16 389 191.16 275.76 197.38 275.94 200.8 389.06 194.58 559.92 211.25"/><polygon class="cls-1" points="215.02 840.33 218.44 840.13 211.91 727.9 357.59 723.83 406.02 574.64 555.37 642.15 551.69 738.96 632.99 753.83 704.85 653.93 847.25 641.98 946.55 725.59 946.9 725.69 1075.37 762.15 1191.61 657.03 1289.48 768.67 1292.06 766.42 1191.89 652.16 1074.48 758.34 948.19 722.5 848.37 638.45 702.99 650.65 631.48 750.08 555.22 736.13 558.87 639.98 403.95 569.95 403.36 571.77 355.08 720.48 208.3 724.58 215.02 840.33"/><polygon class="cls-1" points="808.21 925.74 809.81 924.11 726.72 842.31 762.58 764.77 864.28 821.21 865.38 819.22 761.55 761.59 723.98 842.81 808.21 925.74"/><rect class="cls-1" x="1011.53" y="6.07" width="2.28" height="86.62" transform="translate(281.21 751.45) rotate(-46.62)"/><rect class="cls-1" x="-14.91" y="450.78" width="121.93" height="3.42" transform="translate(-357.16 242.05) rotate(-56.63)"/><polygon class="cls-1" points="268.06 541.64 281.5 464.6 430.75 438.29 430.16 434.92 278.54 461.65 264.69 541.05 268.06 541.64"/><rect class="cls-1" x="624.24" y="351.69" width="3.42" height="92.87" transform="translate(16.26 820.73) rotate(-67.19)"/><rect class="cls-1" x="1042.64" y="372.1" width="3.42" height="199.24" transform="translate(-27.71 66.91) rotate(-3.62)"/><rect class="cls-1" x="842.73" y="770.42" width="126.73" height="3.42" transform="translate(-269.95 956.8) rotate(-49.36)"/><path class="cls-1" d="M884.62,273.7a14.26,14.26,0,1,0,18.61-7.77A14.25,14.25,0,0,0,884.62,273.7Z"/><path class="cls-1" d="M843.61,68.66a14.26,14.26,0,1,0,18.61-7.77A14.25,14.25,0,0,0,843.61,68.66Z"/><circle class="cls-1" cx="1024.08" cy="203.58" r="14.26" transform="translate(363.41 1012.1) rotate(-61.99)"/><path class="cls-1" d="M1486.45,266.33a14.26,14.26,0,1,0,18.61-7.77A14.26,14.26,0,0,0,1486.45,266.33Z"/><circle class="cls-1" cx="809.01" cy="924.93" r="14.26" transform="translate(-370.85 581.52) rotate(-32.6)"/><path class="cls-1" d="M723.22,571.62a14.26,14.26,0,1,0,18.61-7.77A14.25,14.25,0,0,0,723.22,571.62Z"/><circle class="cls-1" cx="557.12" cy="641.07" r="33.79" transform="translate(-288.08 557.52) rotate(-43.36)"/><path class="cls-1" d="M1010.08,360.81a30.22,30.22,0,1,0,39.44-16.47A30.23,30.23,0,0,0,1010.08,360.81Z"/><circle class="cls-1" cx="947.37" cy="724.05" r="30.22" transform="matrix(1, -0.08, 0.08, 1, -56.77, 81.04)"/><circle class="cls-1" cx="1253.28" cy="531.3" r="30.22" transform="translate(-64.6 872.15) rotate(-37.47)"/><path class="cls-1" d="M381.49,64a15.11,15.11,0,1,0,19.71-8.23A15.1,15.1,0,0,0,381.49,64Z"/><path class="cls-1" d="M241.4,312A14.26,14.26,0,1,0,260,304.25,14.25,14.25,0,0,0,241.4,312Z"/><path class="cls-1" d="M122.38,60.78A14.26,14.26,0,1,0,141,53,14.26,14.26,0,0,0,122.38,60.78Z"/><path class="cls-1" d="M540.26,732.13a14.26,14.26,0,1,0,18.61-7.77A14.27,14.27,0,0,0,540.26,732.13Z"/><path class="cls-1" d="M661,413a8.35,8.35,0,1,0,10.9-4.55A8.34,8.34,0,0,0,661,413Z"/><path class="cls-1" d="M514.9,490.4a8.35,8.35,0,1,0,10.9-4.56A8.35,8.35,0,0,0,514.9,490.4Z"/><path class="cls-1" d="M258.65,538.17a8.36,8.36,0,1,0,10.9-4.55A8.36,8.36,0,0,0,258.65,538.17Z"/><path class="cls-1" d="M4.79,500.23a8.36,8.36,0,1,0,10.91-4.55A8.36,8.36,0,0,0,4.79,500.23Z"/><path class="cls-1" d="M751.3,758.76a11.64,11.64,0,1,0,15.19-6.34A11.64,11.64,0,0,0,751.3,758.76Z"/><path class="cls-1" d="M1440.53,130.28a11.63,11.63,0,1,0,15.18-6.34A11.62,11.62,0,0,0,1440.53,130.28Z"/><path class="cls-1" d="M419.26,432a12.1,12.1,0,1,0,15.79-6.59A12.11,12.11,0,0,0,419.26,432Z"/><path class="cls-1" d="M406.93,426.94a25.43,25.43,0,1,1,13.86,33.18A25.46,25.46,0,0,1,406.93,426.94Zm1.75.72a23.54,23.54,0,1,0,30.72-12.83A23.56,23.56,0,0,0,408.68,427.66Z"/><path class="cls-1" d="M268.82,458.53a12.1,12.1,0,1,0,15.8-6.6A12.1,12.1,0,0,0,268.82,458.53Z"/><path class="cls-1" d="M256.5,453.46a25.43,25.43,0,1,1,13.85,33.19A25.45,25.45,0,0,1,256.5,453.46Zm1.74.72A23.54,23.54,0,1,0,289,441.35,23.56,23.56,0,0,0,258.24,454.18Z"/><path class="cls-1" d="M198.91,721.64a12.1,12.1,0,1,0,15.8-6.6A12.11,12.11,0,0,0,198.91,721.64Z"/><path class="cls-1" d="M186.59,716.58a25.43,25.43,0,1,1,13.85,33.18A25.45,25.45,0,0,1,186.59,716.58Zm1.74.71a23.54,23.54,0,1,0,30.72-12.83A23.57,23.57,0,0,0,188.33,717.29Z"/><path class="cls-1" d="M1184.8,651.74a7.51,7.51,0,1,0,9.8-4.09A7.51,7.51,0,0,0,1184.8,651.74Z"/><path class="cls-1" d="M1177.15,648.6a15.78,15.78,0,1,1,8.6,20.59A15.8,15.8,0,0,1,1177.15,648.6Zm1.08.44a14.62,14.62,0,1,0,19.07-8A14.63,14.63,0,0,0,1178.23,649Z"/><path class="cls-1" d="M861.35,818.79a3.76,3.76,0,1,0,4.91-2A3.76,3.76,0,0,0,861.35,818.79Z"/><path class="cls-1" d="M857.53,817.22a7.89,7.89,0,1,1,4.3,10.29A7.89,7.89,0,0,1,857.53,817.22Zm.54.22a7.31,7.31,0,1,0,9.54-4A7.32,7.32,0,0,0,858.07,817.44Z"/><path class="cls-1" d="M213.26,838.8a3.75,3.75,0,1,0,4.9-2A3.75,3.75,0,0,0,213.26,838.8Z"/><path class="cls-1" d="M209.43,837.23a7.89,7.89,0,1,1,4.3,10.3A7.91,7.91,0,0,1,209.43,837.23Zm.54.22a7.31,7.31,0,1,0,9.54-4A7.32,7.32,0,0,0,210,837.45Z"/><path class="cls-1" d="M1307.49,145.52a9.46,9.46,0,1,0,12.35-5.16A9.46,9.46,0,0,0,1307.49,145.52Z"/><path class="cls-1" d="M1297.85,141.56a19.89,19.89,0,1,1,10.83,25.95A19.91,19.91,0,0,1,1297.85,141.56Zm1.36.56a18.41,18.41,0,1,0,24-10A18.43,18.43,0,0,0,1299.21,142.12Z"/><path class="cls-1" d="M846.28,201.06a12.1,12.1,0,1,0,15.8-6.59A12.11,12.11,0,0,0,846.28,201.06Z"/><path class="cls-1" d="M834,196a25.43,25.43,0,1,1,13.86,33.18A25.46,25.46,0,0,1,834,196Zm1.75.72a23.54,23.54,0,1,0,30.72-12.83A23.56,23.56,0,0,0,835.7,196.72Z"/><path class="cls-1" d="M713,837.47a13.39,13.39,0,1,0,17.48-7.3A13.39,13.39,0,0,0,713,837.47Z"/><path class="cls-1" d="M699.33,831.87a28.13,28.13,0,1,1,15.33,36.7A28.17,28.17,0,0,1,699.33,831.87Zm1.93.79a26,26,0,1,0,34-14.19A26.08,26.08,0,0,0,701.26,832.66Z"/><circle class="cls-1" cx="703.92" cy="652.29" r="19.81" transform="translate(-214.06 932.12) rotate(-59.77)"/><path class="cls-1" d="M704.18,693.91A41.62,41.62,0,1,1,745.54,652,41.66,41.66,0,0,1,704.18,693.91Zm0-3.08a38.54,38.54,0,1,0-38.78-38.3A38.59,38.59,0,0,0,704.16,690.83Z"/><path class="cls-1" d="M1062.94,755.32a13,13,0,1,0,16.92-7.07A13,13,0,0,0,1062.94,755.32Z"/><path class="cls-1" d="M1049.74,749.9a27.23,27.23,0,1,1,14.84,35.54A27.26,27.26,0,0,1,1049.74,749.9Zm1.86.76a25.22,25.22,0,1,0,32.91-13.74A25.25,25.25,0,0,0,1051.6,750.66Z"/><path class="cls-1" d="M890.43,385.1a12.1,12.1,0,1,0,15.79-6.6A12.1,12.1,0,0,0,890.43,385.1Z"/><path class="cls-1" d="M878.1,380A25.43,25.43,0,1,1,892,413.22,25.46,25.46,0,0,1,878.1,380Zm1.74.72a23.55,23.55,0,1,0,30.73-12.83A23.57,23.57,0,0,0,879.84,380.75Z"/><path class="cls-1" d="M61.88,617.84a7.37,7.37,0,1,0,9.62-4A7.38,7.38,0,0,0,61.88,617.84Z"/><path class="cls-1" d="M54.37,614.76A15.49,15.49,0,1,1,62.81,635,15.51,15.51,0,0,1,54.37,614.76Zm1.07.44a14.34,14.34,0,1,0,18.71-7.82A14.35,14.35,0,0,0,55.44,615.2Z"/><path class="cls-1" d="M131.57,163.79a7.38,7.38,0,1,0,9.63-4A7.39,7.39,0,0,0,131.57,163.79Z"/><path class="cls-1" d="M124.07,160.7a15.49,15.49,0,1,1,8.44,20.21A15.5,15.5,0,0,1,124.07,160.7Zm1.06.44a14.34,14.34,0,1,0,18.72-7.82A14.35,14.35,0,0,0,125.13,161.14Z"/><circle class="cls-1" cx="557.63" cy="209.31" r="29.07" transform="translate(63.62 542.06) rotate(-54.54)"/><path class="cls-1" d="M501.15,186.11a61.06,61.06,0,1,1,33.27,79.68A61.12,61.12,0,0,1,501.15,186.11Zm4.19,1.72A56.53,56.53,0,1,0,579.12,157,56.6,56.6,0,0,0,505.34,187.83Z"/><path class="cls-1" d="M386.23,564.59a20.28,20.28,0,1,0,26.46-11.05A20.27,20.27,0,0,0,386.23,564.59Z"/><path class="cls-1" d="M365.59,556.11a42.59,42.59,0,1,1,23.21,55.58A42.64,42.64,0,0,1,365.59,556.11Zm2.92,1.2A39.44,39.44,0,1,0,420,535.82,39.47,39.47,0,0,0,368.51,557.31Z"/><path class="cls-1" d="M260.13,192.63a17,17,0,1,0,22.18-9.26A17,17,0,0,0,260.13,192.63Z"/><path class="cls-1" d="M242.83,185.52a35.7,35.7,0,1,1,19.45,46.59A35.74,35.74,0,0,1,242.83,185.52Zm2.44,1a33.06,33.06,0,1,0,43.14-18A33.1,33.1,0,0,0,245.27,186.53Z"/><circle class="cls-1" cx="583.15" cy="380.12" r="20.12" transform="translate(-112.47 406.01) rotate(-35.23)"/><path class="cls-1" d="M544.05,364.06a42.27,42.27,0,1,1,23,55.16A42.33,42.33,0,0,1,544.05,364.06Zm2.9,1.19A39.14,39.14,0,1,0,598,343.92,39.18,39.18,0,0,0,547,365.25Z"/><path class="cls-1" d="M381.7,189.83a8,8,0,1,0,10.44-4.36A8,8,0,0,0,381.7,189.83Z"/><path class="cls-1" d="M373.55,186.48a16.81,16.81,0,1,1,9.16,21.93A16.83,16.83,0,0,1,373.55,186.48Zm1.16.48a15.56,15.56,0,1,0,20.3-8.48A15.57,15.57,0,0,0,374.71,187Z"/><path class="cls-1" d="M45.94,250.43a8,8,0,1,0,10.44-4.35A8,8,0,0,0,45.94,250.43Z"/><path class="cls-1" d="M37.8,247.09A16.8,16.8,0,1,1,47,269,16.83,16.83,0,0,1,37.8,247.09Zm1.15.47a15.56,15.56,0,1,0,20.3-8.48A15.57,15.57,0,0,0,39,247.56Z"/><path class="cls-1" d="M1381.38,608.42A21.14,21.14,0,1,0,1409,596.9,21.14,21.14,0,0,0,1381.38,608.42Z"/><path class="cls-1" d="M1359.86,599.58a44.41,44.41,0,1,1,24.2,57.95A44.45,44.45,0,0,1,1359.86,599.58Zm3,1.25a41.12,41.12,0,1,0,53.66-22.41A41.16,41.16,0,0,0,1362.9,600.83Z"/><path class="cls-1" d="M1403.93,369.83a21.15,21.15,0,1,0,27.6-11.52A21.15,21.15,0,0,0,1403.93,369.83Z"/><path class="cls-1" d="M1382.41,361a44.41,44.41,0,1,1,24.2,57.95A44.46,44.46,0,0,1,1382.41,361Zm3,1.25a41.12,41.12,0,1,0,53.67-22.41A41.18,41.18,0,0,0,1385.45,362.24Z"/><path class="cls-1" d="M762.22,175.21a7.06,7.06,0,1,0,9.21-3.85A7.06,7.06,0,0,0,762.22,175.21Z"/><path class="cls-1" d="M755,172.26a14.83,14.83,0,1,1,8.08,19.35A14.84,14.84,0,0,1,755,172.26Zm1,.41A13.73,13.73,0,1,0,774,165.19,13.74,13.74,0,0,0,756.05,172.67Z"/><path class="cls-1" d="M1388.75,258.25a7.06,7.06,0,1,0,9.21-3.85A7,7,0,0,0,1388.75,258.25Z"/><path class="cls-1" d="M1381.56,255.3a14.83,14.83,0,1,1,8.08,19.35A14.84,14.84,0,0,1,1381.56,255.3Zm1,.41a13.73,13.73,0,1,0,17.92-7.48A13.75,13.75,0,0,0,1382.57,255.71Z"/><path class="cls-1" d="M1264.32,44.42A12,12,0,1,1,1270.84,60,12,12,0,0,1,1264.32,44.42Zm.82.34a11.08,11.08,0,1,0,14.46-6A11.1,11.1,0,0,0,1265.14,44.76Z"/><path class="cls-1" d="M1158.53,483.74a5.7,5.7,0,1,0,7.44-3.1A5.71,5.71,0,0,0,1158.53,483.74Z"/><path class="cls-1" d="M1152.73,481.36a12,12,0,1,1,6.53,15.62A12,12,0,0,1,1152.73,481.36Zm.82.34a11.08,11.08,0,1,0,14.47-6A11.1,11.1,0,0,0,1153.55,481.7Z"/><circle class="cls-1" cx="1480.48" cy="479.27" r="7.06" transform="translate(867.6 1909.62) rotate(-84.74)"/><path class="cls-1" d="M1466.76,473.64a14.83,14.83,0,1,1,8.09,19.35A14.85,14.85,0,0,1,1466.76,473.64Zm1,.41a13.73,13.73,0,1,0,17.92-7.48A13.74,13.74,0,0,0,1467.78,474.05Z"/><path class="cls-1" d="M1032.81,74.47a12.25,12.25,0,1,0,16-6.68A12.25,12.25,0,0,0,1032.81,74.47Z"/><path class="cls-1" d="M1020.33,69.34a25.75,25.75,0,1,1,14,33.6A25.78,25.78,0,0,1,1020.33,69.34Zm1.77.73a23.83,23.83,0,1,0,31.11-13A23.87,23.87,0,0,0,1022.1,70.07Z"/><circle class="cls-1" cx="802.24" cy="472.69" r="29.29" transform="translate(241.06 1215.72) rotate(-83.44)"/><path class="cls-1" d="M781.59,531.85h0a3.43,3.43,0,0,1-1.93-4.29h0s0-.11.06-.17h0a3.4,3.4,0,0,1,4.28-1.94h0a3.44,3.44,0,0,1,2.13,4.35h0l-.07.17h0a3.44,3.44,0,0,1-4.3,1.93A.48.48,0,0,1,781.59,531.85Zm-12.4-6h0a2.65,2.65,0,0,1-.53-.27h0a3.46,3.46,0,0,1-1.34-4.17h0a2.86,2.86,0,0,1,.3-.54h0a3.38,3.38,0,0,1,4.69-1h0a3.42,3.42,0,0,1,1.36,4.18h0a2.65,2.65,0,0,1-.29.52A3.41,3.41,0,0,1,769.19,525.87ZM795,534.8h0a3.45,3.45,0,0,1-2.11-3.5h0a3.38,3.38,0,0,1,.23-.91h0a3.44,3.44,0,0,1,3.52-2.15h0A3.42,3.42,0,0,1,799.7,532h0a3,3,0,0,1-.22.9h0a3.41,3.41,0,0,1-3.52,2.15A3.69,3.69,0,0,1,795,534.8Zm-36.5-17.58h0a3.67,3.67,0,0,1-1.14-.76h0a3.47,3.47,0,0,1-.72-3.72h0a4.19,4.19,0,0,1,.79-1.13h0a3.38,3.38,0,0,1,4.82.08h0a3.37,3.37,0,0,1,.7,3.69h0a3.33,3.33,0,0,1-.77,1.14A3.42,3.42,0,0,1,758.51,517.22Zm50.25,17.37h0a3.44,3.44,0,0,1-2.09-2.7h0a3.55,3.55,0,0,1,.23-1.76h0a3.44,3.44,0,0,1,2.71-2.09h0a3.41,3.41,0,0,1,3.84,2.94h0a3.47,3.47,0,0,1-.22,1.75h0a3.42,3.42,0,0,1-2.73,2.08h0A3.56,3.56,0,0,1,808.76,534.59Zm-58.64-28.25h0a3.44,3.44,0,0,1-1.62-1.41h0a3.41,3.41,0,0,1-.22-3.05h0a3.22,3.22,0,0,1,1.39-1.64h0a3.41,3.41,0,0,1,4.69,1.18h0a3.36,3.36,0,0,1,.24,3.06h0a3.45,3.45,0,0,1-4.48,1.86Zm72,24.86h0a3.34,3.34,0,0,1-1.88-2h0a3.33,3.33,0,0,1,0-2.52h0a3.39,3.39,0,0,1,1.93-1.89h0a3.43,3.43,0,0,1,4.41,2h0a3.36,3.36,0,0,1,0,2.55h0a3.4,3.4,0,0,1-1.92,1.87A3.5,3.5,0,0,1,822.08,531.2Zm-77.6-37.41h0a3.42,3.42,0,0,1-2-2.11h0a3.47,3.47,0,0,1,.08-2.3h0a3.5,3.5,0,0,1,2.13-2h0a3.46,3.46,0,0,1,4.31,2.24h0a3.35,3.35,0,0,1-.09,2.3h0a3.4,3.4,0,0,1-2.14,2A3.33,3.33,0,0,1,744.48,493.79Zm89.8,31h0a3.32,3.32,0,0,1-1.53-1.25h0a3.35,3.35,0,0,1-.34-3.19h0a3.33,3.33,0,0,1,1.25-1.55v0a3.39,3.39,0,0,1,4.73.88h0a3.46,3.46,0,0,1,.36,3.21h0a3.47,3.47,0,0,1-1.25,1.55h0A3.39,3.39,0,0,1,834.28,524.83ZM741.85,480.3h0a3.39,3.39,0,0,1-2.11-2.89h0a3.51,3.51,0,0,1,.26-1.59h0a3.41,3.41,0,0,1,2.9-2.09h0a3.4,3.4,0,0,1,3.65,3.15h0a3.36,3.36,0,0,1-.25,1.58h0a3.38,3.38,0,0,1-2.9,2.08A3.27,3.27,0,0,1,741.85,480.3Zm102.82,35.55h0a3.26,3.26,0,0,1-1-.66h0a3.42,3.42,0,0,1-.85-3.8h0a3.79,3.79,0,0,1,.64-1h0a3.43,3.43,0,0,1,4.84-.21h0a3.44,3.44,0,0,1,.84,3.82h0a3.23,3.23,0,0,1-.63,1h0A3.43,3.43,0,0,1,844.67,515.85ZM742.42,466.56h0a3.4,3.4,0,0,1-2.08-3.68h0a3,3,0,0,1,.21-.76h0a3.39,3.39,0,0,1,3.69-2.1h0a3.43,3.43,0,0,1,2.85,3.93h0a4.36,4.36,0,0,1-.2.73h0a3.44,3.44,0,0,1-3.72,2.09A2.69,2.69,0,0,1,742.42,466.56Zm110.29,38.13h0c-.13-.05-.25-.13-.37-.18h0a3.39,3.39,0,0,1-1.5-4.26h0a2.26,2.26,0,0,1,.18-.39h0a3.39,3.39,0,0,1,4.63-1.33h0a3.43,3.43,0,0,1,1.53,4.25h0c-.06.15-.13.27-.18.39A3.42,3.42,0,0,1,852.71,504.69ZM746.13,453.33h0a3.41,3.41,0,0,1-1.86-4.46h0l0-.1h0l.05-.13h0a3.45,3.45,0,0,1,4.49-1.85h0a3.41,3.41,0,0,1,1.83,4.47h0s0,.11-.07.17h0l0,0A3.41,3.41,0,0,1,746.13,453.33ZM858,492h0a3.42,3.42,0,0,1-2-4.1h0a2.7,2.7,0,0,1,.14-.4h0a3.43,3.43,0,0,1,4.08-2h0a3.42,3.42,0,0,1,2.35,4.24h0c0,.13-.09.26-.15.41h0a3.39,3.39,0,0,1-4.07,1.92A2.53,2.53,0,0,1,858,492Zm-105-50.87h0a2.87,2.87,0,0,1-.7-.39h0a3.44,3.44,0,0,1-1.15-4.09h0a3.8,3.8,0,0,1,.38-.68h0a3.44,3.44,0,0,1,4.77-.77h0a3.42,3.42,0,0,1,1.15,4.09h0a2.65,2.65,0,0,1-.38.68A3.41,3.41,0,0,1,752.93,441.1Zm107.2,37.3h0a3.44,3.44,0,0,1-2.11-3.31h0a3,3,0,0,1,.28-1.16h0a3.4,3.4,0,0,1,3.3-2.1h0a3.43,3.43,0,0,1,3.27,3.56h0a3.44,3.44,0,0,1-.26,1.16h0a3.49,3.49,0,0,1-3.3,2.11A3.56,3.56,0,0,1,860.13,478.4ZM762.24,431h0a3.44,3.44,0,0,1-1.3-.92h0a3.46,3.46,0,0,1-.57-3.54h0a3.52,3.52,0,0,1,.93-1.29h0a3.44,3.44,0,0,1,4.83.36h0a3.41,3.41,0,0,1,.57,3.53h0a3.21,3.21,0,0,1-1,1.29A3.39,3.39,0,0,1,762.24,431Zm96.9,33.71h0a3.44,3.44,0,0,1-2.07-2.52h0a3.46,3.46,0,0,1,.2-1.92h0a3.39,3.39,0,0,1,2.51-2.1h0a3.42,3.42,0,0,1,4,2.73h0a3.62,3.62,0,0,1-.16,1.91h0a3.46,3.46,0,0,1-2.54,2.08A3.34,3.34,0,0,1,859.14,464.69Zm-85.53-41.42h0a3.32,3.32,0,0,1-1.72-1.57h0a3.44,3.44,0,0,1-.16-2.85h0a3.44,3.44,0,0,1,1.61-1.76h0a3.38,3.38,0,0,1,4.6,1.45h0a3.34,3.34,0,0,1,.14,2.84h0a3.31,3.31,0,0,1-1.59,1.77A3.46,3.46,0,0,1,773.61,423.27ZM855,451.58h0a3.42,3.42,0,0,1-1.83-1.76h0a3.38,3.38,0,0,1,0-2.7h0a3.19,3.19,0,0,1,1.76-1.81h0a3.39,3.39,0,0,1,4.52,1.7h0a3.4,3.4,0,0,1,.05,2.69h0a3.45,3.45,0,0,1-4.47,1.88ZM786.47,418.4h0a3.44,3.44,0,0,1-2-2.33h0a3.42,3.42,0,0,1,.17-2.15h0a3.39,3.39,0,0,1,2.3-2h0a3.44,3.44,0,0,1,4.16,2.47h0a3.45,3.45,0,0,1-.15,2.16h0a3.48,3.48,0,0,1-2.32,2A3.39,3.39,0,0,1,786.47,418.4Zm61.46,21.36h0a3.63,3.63,0,0,1-1.41-1.07h0a3.39,3.39,0,0,1-.43-3.4h0a3.39,3.39,0,0,1,1.08-1.41h0a3.42,3.42,0,0,1,4.78.64h0a3.45,3.45,0,0,1,.45,3.41h0a3.35,3.35,0,0,1-1.08,1.38A3.45,3.45,0,0,1,847.93,439.76ZM800.1,416.59h0a3.47,3.47,0,0,1-2.12-3.12h0a3.6,3.6,0,0,1,.25-1.32h0a3.42,3.42,0,0,1,3.12-2.14h0a3.44,3.44,0,0,1,3.47,3.37h0a3.37,3.37,0,0,1-.25,1.32h0a3.44,3.44,0,0,1-4.47,1.89Zm38.26,13.3h0a3.38,3.38,0,0,1-.85-.5h0a3.46,3.46,0,0,1-1-3.94h0a3,3,0,0,1,.53-.86h0a3.4,3.4,0,0,1,4.8-.49h0a3.38,3.38,0,0,1,1,3.91h0a3.1,3.1,0,0,1-.52.89A3.42,3.42,0,0,1,838.36,429.89ZM813.79,418h0a3.42,3.42,0,0,1-2-3.92h0a4.52,4.52,0,0,1,.18-.56h0a3.44,3.44,0,0,1,3.91-2h0a3.43,3.43,0,0,1,2.58,4.09h0a4.66,4.66,0,0,1-.18.57h0a3.44,3.44,0,0,1-3.89,2h0A4.26,4.26,0,0,1,813.79,418Zm13,4.52h0l-.21-.08h0A3.46,3.46,0,0,1,824.9,418h0a.7.7,0,0,1,.1-.16h0a3.38,3.38,0,0,1,4.54-1.58h0a3.39,3.39,0,0,1,1.66,4.41h0l-.06.14A3.4,3.4,0,0,1,826.78,422.52Z"/><circle class="cls-1" cx="735.32" cy="312.53" r="23.53" transform="translate(-63.65 307.45) rotate(-22.66)"/><path class="cls-1" d="M718.73,360.05h0a2.75,2.75,0,0,1-1.55-3.44h0l.05-.14h0a2.73,2.73,0,0,1,3.43-1.56h0a2.78,2.78,0,0,1,1.72,3.5h0l-.06.13h0a2.75,2.75,0,0,1-3.45,1.55A.33.33,0,0,1,718.73,360.05Zm-10-4.8h0a2.06,2.06,0,0,1-.42-.21h0a2.78,2.78,0,0,1-1.08-3.35h0a1.88,1.88,0,0,1,.24-.44h0a2.73,2.73,0,0,1,3.77-.85h0a2.76,2.76,0,0,1,1.09,3.36h0a1.92,1.92,0,0,1-.23.42A2.74,2.74,0,0,1,708.77,355.25Zm20.74,7.17h0a2.76,2.76,0,0,1-1.69-2.81h0a2.24,2.24,0,0,1,.18-.73h0a2.78,2.78,0,0,1,2.83-1.73h0a2.77,2.77,0,0,1,2.45,3h0a2.45,2.45,0,0,1-.17.72h0a2.75,2.75,0,0,1-2.83,1.72A2.82,2.82,0,0,1,729.51,362.42ZM700.19,348.3h0a2.7,2.7,0,0,1-.91-.61h0a2.78,2.78,0,0,1-.58-3h0a3.53,3.53,0,0,1,.63-.91h0a2.73,2.73,0,0,1,3.87.07h0a2.69,2.69,0,0,1,.57,3h0a2.82,2.82,0,0,1-.62.92A2.76,2.76,0,0,1,700.19,348.3Zm40.37,14h0a2.77,2.77,0,0,1-1.68-2.18h0a2.77,2.77,0,0,1,.18-1.41h0a2.76,2.76,0,0,1,2.18-1.67h0a2.74,2.74,0,0,1,3.09,2.35h0a2.94,2.94,0,0,1-.19,1.41h0a2.71,2.71,0,0,1-2.19,1.67h0A3,3,0,0,1,740.56,362.26Zm-47.1-22.7h0a2.73,2.73,0,0,1-1.3-1.13h0A2.7,2.7,0,0,1,692,336h0a2.6,2.6,0,0,1,1.11-1.32h0a2.74,2.74,0,0,1,3.77.95h0a2.72,2.72,0,0,1,.19,2.46h0a2.76,2.76,0,0,1-3.59,1.49Zm57.8,20h0a2.66,2.66,0,0,1-1.51-1.57h0a2.64,2.64,0,0,1,0-2h0a2.76,2.76,0,0,1,1.55-1.52h0a2.77,2.77,0,0,1,3.54,1.59h0a2.69,2.69,0,0,1,0,2.05h0a2.71,2.71,0,0,1-1.54,1.5A2.74,2.74,0,0,1,751.26,359.53Zm-62.33-30h0a2.75,2.75,0,0,1-1.58-1.7h0a2.72,2.72,0,0,1,.07-1.85h0a2.76,2.76,0,0,1,1.71-1.61h0a2.77,2.77,0,0,1,3.46,1.79h0a2.78,2.78,0,0,1-.07,1.85h0a2.75,2.75,0,0,1-1.72,1.59A2.72,2.72,0,0,1,688.93,329.49Zm72.13,24.92h0a2.63,2.63,0,0,1-1.24-1h0a2.7,2.7,0,0,1-.27-2.56h0a2.7,2.7,0,0,1,1-1.25v0a2.74,2.74,0,0,1,3.81.71h0a2.76,2.76,0,0,1,.28,2.57h0a2.75,2.75,0,0,1-1,1.25h0A2.72,2.72,0,0,1,761.06,354.41Zm-74.25-35.76h0a2.75,2.75,0,0,1-1.7-2.32h0a2.88,2.88,0,0,1,.21-1.28h0a2.75,2.75,0,0,1,2.33-1.68h0a2.74,2.74,0,0,1,2.94,2.53h0a2.83,2.83,0,0,1-.2,1.27h0a2.72,2.72,0,0,1-2.33,1.67A2.65,2.65,0,0,1,686.81,318.65ZM769.4,347.2h0a2.64,2.64,0,0,1-.81-.53h0a2.73,2.73,0,0,1-.68-3.05h0a2.73,2.73,0,0,1,.51-.82h0a2.75,2.75,0,0,1,3.89-.17h0a2.76,2.76,0,0,1,.67,3.07h0a2.5,2.5,0,0,1-.5.8h0A2.77,2.77,0,0,1,769.4,347.2Zm-82.13-39.59h0a2.73,2.73,0,0,1-1.67-3h0a2.21,2.21,0,0,1,.17-.6h0a2.71,2.71,0,0,1,3-1.69h0a2.75,2.75,0,0,1,2.28,3.15h0a2.85,2.85,0,0,1-.16.59h0a2.76,2.76,0,0,1-3,1.68A2.16,2.16,0,0,1,687.27,307.61Zm88.58,30.63h0l-.29-.15h0a2.72,2.72,0,0,1-1.21-3.42h0a2.89,2.89,0,0,1,.15-.31h0a2.72,2.72,0,0,1,3.72-1.07h0a2.76,2.76,0,0,1,1.23,3.42h0c-.05.11-.11.21-.15.31A2.76,2.76,0,0,1,775.85,338.24ZM690.25,297h0a2.75,2.75,0,0,1-1.49-3.59h0l0-.08h0l0-.1h0a2.77,2.77,0,0,1,3.6-1.49h0a2.73,2.73,0,0,1,1.47,3.59h0l0,.14h0l0,0A2.74,2.74,0,0,1,690.25,297Zm89.82,31h0a2.74,2.74,0,0,1-1.59-3.29h0a1.83,1.83,0,0,1,.11-.33h0a2.76,2.76,0,0,1,3.28-1.56h0a2.74,2.74,0,0,1,1.88,3.4h0a1.66,1.66,0,0,1-.12.33h0a2.72,2.72,0,0,1-3.26,1.55Zm-84.36-40.86h0a2.24,2.24,0,0,1-.56-.31h0a2.78,2.78,0,0,1-.93-3.29h0a4.17,4.17,0,0,1,.31-.54h0a2.77,2.77,0,0,1,3.83-.63h0a2.76,2.76,0,0,1,.93,3.29h0a2.25,2.25,0,0,1-.31.55A2.74,2.74,0,0,1,695.71,287.16Zm86.11,30h0a2.77,2.77,0,0,1-1.7-2.66h0a2.4,2.4,0,0,1,.23-.93h0a2.73,2.73,0,0,1,2.65-1.68h0a2.74,2.74,0,0,1,2.62,2.86h0a2.57,2.57,0,0,1-.2.92h0a2.79,2.79,0,0,1-2.66,1.7A2.93,2.93,0,0,1,781.82,317.12ZM703.19,279h0a2.69,2.69,0,0,1-1-.74h0a2.77,2.77,0,0,1-.46-2.84h0a2.8,2.8,0,0,1,.75-1h0a2.75,2.75,0,0,1,3.87.29h0a2.74,2.74,0,0,1,.46,2.84h0a2.52,2.52,0,0,1-.76,1A2.71,2.71,0,0,1,703.19,279ZM781,306.11h0a2.76,2.76,0,0,1-1.66-2h0a2.78,2.78,0,0,1,.16-1.54h0a2.72,2.72,0,0,1,2-1.68h0a2.74,2.74,0,0,1,3.21,2.19h0a2.82,2.82,0,0,1-.13,1.53h0a2.78,2.78,0,0,1-2,1.68A2.83,2.83,0,0,1,781,306.11Zm-68.7-33.28h0a2.66,2.66,0,0,1-1.38-1.25h0a2.79,2.79,0,0,1-.13-2.29h0a2.78,2.78,0,0,1,1.3-1.41h0A2.71,2.71,0,0,1,715.8,269h0a2.69,2.69,0,0,1,.11,2.28h0a2.63,2.63,0,0,1-1.27,1.42A2.77,2.77,0,0,1,712.32,272.83Zm65.37,22.75h0a2.76,2.76,0,0,1-1.47-1.42h0a2.71,2.71,0,0,1,0-2.16h0a2.56,2.56,0,0,1,1.41-1.46h0a2.73,2.73,0,0,1,3.63,1.37h0a2.75,2.75,0,0,1,0,2.16h0a2.79,2.79,0,0,1-3.59,1.51Zm-55-26.65h0a2.77,2.77,0,0,1-1.62-1.88h0a2.72,2.72,0,0,1,.14-1.72h0a2.68,2.68,0,0,1,1.85-1.61h0a2.76,2.76,0,0,1,3.34,2h0a2.82,2.82,0,0,1-.12,1.73h0a2.8,2.8,0,0,1-1.87,1.61A2.72,2.72,0,0,1,722.65,268.93ZM772,286.09h0a2.87,2.87,0,0,1-1.13-.87h0a2.73,2.73,0,0,1-.35-2.73h0a2.82,2.82,0,0,1,.86-1.13h0a2.76,2.76,0,0,1,3.85.51h0a2.78,2.78,0,0,1,.36,2.74h0a2.6,2.6,0,0,1-.87,1.11A2.74,2.74,0,0,1,772,286.09ZM733.6,267.47h0a2.76,2.76,0,0,1-1.7-2.5h0a2.82,2.82,0,0,1,.2-1.06h0a2.76,2.76,0,0,1,2.51-1.72h0a2.76,2.76,0,0,1,2.78,2.7h0a2.87,2.87,0,0,1-.2,1.07h0a2.74,2.74,0,0,1-2.51,1.72A2.85,2.85,0,0,1,733.6,267.47Zm30.73,10.69h0a3.24,3.24,0,0,1-.69-.4h0a2.81,2.81,0,0,1-.81-3.17h0a2.66,2.66,0,0,1,.42-.69h0a2.74,2.74,0,0,1,3.86-.4h0a2.71,2.71,0,0,1,.81,3.15h0a2.73,2.73,0,0,1-.41.72A2.78,2.78,0,0,1,764.33,278.16Zm-19.74-9.56h0a2.73,2.73,0,0,1-1.63-3.14h0c0-.14.08-.3.14-.46h0a2.76,2.76,0,0,1,3.14-1.61h0a2.75,2.75,0,0,1,2.08,3.28h0c0,.14-.09.3-.15.46h0a2.76,2.76,0,0,1-3.12,1.62h0A3.73,3.73,0,0,1,744.59,268.6ZM755,272.24h0l-.17-.07h0a2.77,2.77,0,0,1-1.34-3.54h0a.91.91,0,0,1,.08-.13h0a2.71,2.71,0,0,1,3.64-1.27h0a2.72,2.72,0,0,1,1.34,3.54h0l-.05.12A2.74,2.74,0,0,1,755,272.24Z"/><path class="cls-1" d="M1145.87,133.61a10.87,10.87,0,1,0,14.18-5.92A10.88,10.88,0,0,0,1145.87,133.61Z"/><path class="cls-1" d="M1148.26,159.7h0a1.28,1.28,0,0,1-.72-1.6h0l0-.06h0a1.25,1.25,0,0,1,1.58-.72h0a1.27,1.27,0,0,1,.79,1.61h0l0,.07h0a1.28,1.28,0,0,1-1.6.71Zm-4.6-2.22h0l-.2-.1h0a1.29,1.29,0,0,1-.5-1.55h0a1.28,1.28,0,0,1,.11-.2h0a1.26,1.26,0,0,1,1.75-.39h0a1.27,1.27,0,0,1,.5,1.55h0a.72.72,0,0,1-.11.19A1.26,1.26,0,0,1,1143.66,157.48Zm9.58,3.31h0a1.27,1.27,0,0,1-.78-1.3h0a1.3,1.3,0,0,1,.08-.34h0a1.29,1.29,0,0,1,1.31-.8h0a1.28,1.28,0,0,1,1.13,1.4h0a1.14,1.14,0,0,1-.08.33h0a1.27,1.27,0,0,1-1.31.8A1.06,1.06,0,0,1,1153.24,160.79Zm-13.55-6.52h0a1.27,1.27,0,0,1-.42-.29h0a1.29,1.29,0,0,1-.26-1.38h0a1.44,1.44,0,0,1,.29-.42h0a1.26,1.26,0,0,1,1.79,0h0a1.25,1.25,0,0,1,.26,1.36h0a1.36,1.36,0,0,1-.29.43A1.28,1.28,0,0,1,1139.69,154.27Zm18.65,6.44h0a1.26,1.26,0,0,1-.77-1h0a1.18,1.18,0,0,1,.08-.65h0a1.28,1.28,0,0,1,1-.78h0a1.27,1.27,0,0,1,1.42,1.09h0a1.3,1.3,0,0,1-.08.65h0a1.27,1.27,0,0,1-1,.77h0A1.41,1.41,0,0,1,1158.34,160.71Zm-21.76-10.48h0a1.31,1.31,0,0,1-.6-.52h0a1.29,1.29,0,0,1-.08-1.13h0a1.15,1.15,0,0,1,.52-.61h0a1.24,1.24,0,0,1,1.73.44h0a1.26,1.26,0,0,1,.1,1.13h0a1.31,1.31,0,0,1-.52.6A1.27,1.27,0,0,1,1136.58,150.23Zm26.7,9.22h0a1.23,1.23,0,0,1-.69-.72h0a1.22,1.22,0,0,1,0-.94h0a1.25,1.25,0,0,1,.71-.7h0a1.29,1.29,0,0,1,1.64.73h0a1.3,1.3,0,0,1,0,1h0a1.23,1.23,0,0,1-.72.69A1.27,1.27,0,0,1,1163.28,159.45Zm-28.79-13.87h0a1.3,1.3,0,0,1-.73-.79h0a1.3,1.3,0,0,1,0-.85h0a1.3,1.3,0,0,1,.79-.75h0a1.28,1.28,0,0,1,1.6.83h0a1.27,1.27,0,0,1,0,.86h0a1.29,1.29,0,0,1-.8.73A1.27,1.27,0,0,1,1134.49,145.58Zm33.32,11.51h0a1.22,1.22,0,0,1-.57-.46h0a1.26,1.26,0,0,1-.12-1.19h0a1.2,1.2,0,0,1,.46-.57h0a1.26,1.26,0,0,1,1.75.33h0a1.28,1.28,0,0,1,.14,1.19h0a1.26,1.26,0,0,1-.47.58h0A1.27,1.27,0,0,1,1167.81,157.09Zm-34.3-16.52h0a1.27,1.27,0,0,1-.78-1.07h0a1.21,1.21,0,0,1,.1-.6h0a1.26,1.26,0,0,1,1.07-.77h0a1.27,1.27,0,0,1,1.36,1.17h0a1.24,1.24,0,0,1-.09.58h0a1.28,1.28,0,0,1-1.08.78A1.27,1.27,0,0,1,1133.51,140.57Zm38.16,13.19h0a1.19,1.19,0,0,1-.38-.25h0a1.27,1.27,0,0,1-.32-1.41h0a1.73,1.73,0,0,1,.24-.38h0a1.28,1.28,0,0,1,1.8-.07h0a1.27,1.27,0,0,1,.31,1.42h0a1.33,1.33,0,0,1-.23.37h0A1.29,1.29,0,0,1,1171.67,153.76Zm-37.94-18.29h0a1.27,1.27,0,0,1-.78-1.37h0a2.29,2.29,0,0,1,.08-.28h0a1.27,1.27,0,0,1,1.37-.78h0a1.28,1.28,0,0,1,1.06,1.46h0a1.2,1.2,0,0,1-.08.27h0a1.27,1.27,0,0,1-1.38.78A.84.84,0,0,1,1133.73,135.47Zm40.92,14.15h0l-.14-.07h0A1.25,1.25,0,0,1,1174,148h0l.07-.15h0a1.26,1.26,0,0,1,1.72-.49h0a1.28,1.28,0,0,1,.57,1.58h0l-.07.15A1.27,1.27,0,0,1,1174.65,149.62Zm-39.55-19.06h0a1.26,1.26,0,0,1-.69-1.65h0l0,0h0l0-.05h0a1.29,1.29,0,0,1,1.66-.69h0a1.27,1.27,0,0,1,.68,1.66h0l0,.07h0A1.27,1.27,0,0,1,1135.1,130.56Zm41.5,14.34h0a1.27,1.27,0,0,1-.74-1.52h0a.66.66,0,0,1,.05-.15h0a1.28,1.28,0,0,1,1.51-.73h0a1.27,1.27,0,0,1,.87,1.58h0a1.31,1.31,0,0,1,0,.15h0a1.25,1.25,0,0,1-1.51.71Zm-39-18.88h0a1.16,1.16,0,0,1-.27-.14h0a1.28,1.28,0,0,1-.42-1.52h0a1.57,1.57,0,0,1,.14-.25h0a1.29,1.29,0,0,1,1.77-.29h0a1.28,1.28,0,0,1,.43,1.52h0a1,1,0,0,1-.14.25A1.26,1.26,0,0,1,1137.63,126Zm39.77,13.84h0a1.27,1.27,0,0,1-.78-1.22h0a1.23,1.23,0,0,1,.1-.44h0a1.27,1.27,0,0,1,1.23-.77h0a1.27,1.27,0,0,1,1.21,1.32h0a1.28,1.28,0,0,1-.1.43h0a1.28,1.28,0,0,1-1.22.78A1.34,1.34,0,0,1,1177.4,139.86Zm-36.32-17.59h0a1.32,1.32,0,0,1-.48-.34h0a1.28,1.28,0,0,1-.21-1.32h0a1.21,1.21,0,0,1,.34-.48h0a1.28,1.28,0,0,1,1.79.14h0a1.24,1.24,0,0,1,.21,1.31h0a1.15,1.15,0,0,1-.35.48A1.27,1.27,0,0,1,1141.08,122.27Zm36,12.51h0a1.27,1.27,0,0,1-.76-.94h0a1.22,1.22,0,0,1,.07-.71h0a1.26,1.26,0,0,1,.93-.78h0a1.27,1.27,0,0,1,1.49,1h0a1.31,1.31,0,0,1-.07.71h0a1.26,1.26,0,0,1-.93.77A1.28,1.28,0,0,1,1177,134.78Zm-31.73-15.37h0a1.22,1.22,0,0,1-.64-.59h0a1.25,1.25,0,0,1-.06-1h0a1.23,1.23,0,0,1,.6-.65h0a1.26,1.26,0,0,1,1.71.53h0a1.27,1.27,0,0,1,0,1.06h0a1.24,1.24,0,0,1-.59.65A1.29,1.29,0,0,1,1145.3,119.41Zm30.2,10.5h0a1.29,1.29,0,0,1-.69-.65h0a1.33,1.33,0,0,1,0-1h0a1.19,1.19,0,0,1,.66-.68h0a1.26,1.26,0,0,1,1.67.64h0a1.22,1.22,0,0,1,0,1h0a1.25,1.25,0,0,1-.66.68A1.22,1.22,0,0,1,1175.5,129.91Zm-25.43-12.31h0a1.3,1.3,0,0,1-.75-.86h0a1.28,1.28,0,0,1,.06-.8h0a1.27,1.27,0,0,1,.86-.75h0a1.28,1.28,0,0,1,1.54.92h0a1.28,1.28,0,0,1,0,.8h0a1.3,1.3,0,0,1-.87.74A1.25,1.25,0,0,1,1150.07,117.6Zm22.8,7.93h0a1.4,1.4,0,0,1-.52-.4h0a1.28,1.28,0,0,1-.16-1.26h0a1.27,1.27,0,0,1,.4-.53h0a1.27,1.27,0,0,1,1.78.24h0a1.29,1.29,0,0,1,.16,1.27h0a1.29,1.29,0,0,1-1.66.68Zm-17.74-8.6h0a1.27,1.27,0,0,1-.79-1.16h0a1.33,1.33,0,0,1,.09-.49h0a1.28,1.28,0,0,1,1.16-.79h0a1.28,1.28,0,0,1,1.29,1.25h0a1.33,1.33,0,0,1-.09.49h0a1.27,1.27,0,0,1-1.16.79A1.35,1.35,0,0,1,1155.13,116.93Zm14.19,4.94h0a1.44,1.44,0,0,1-.31-.19h0a1.28,1.28,0,0,1-.38-1.46h0a1,1,0,0,1,.2-.32h0a1.26,1.26,0,0,1,1.78-.19h0a1.26,1.26,0,0,1,.37,1.46h0a1.23,1.23,0,0,1-.19.33A1.29,1.29,0,0,1,1169.32,121.87Zm-9.11-4.42h0a1.25,1.25,0,0,1-.76-1.45h0a1.72,1.72,0,0,1,.07-.21h0A1.27,1.27,0,0,1,1161,115h0a1.27,1.27,0,0,1,1,1.52h0c0,.06,0,.14-.07.21h0a1.28,1.28,0,0,1-1.45.75h0Zm4.82,1.68h0l-.08,0h0a1.29,1.29,0,0,1-.62-1.64h0l0,0h0a1.26,1.26,0,0,1,1.69-.59h0a1.25,1.25,0,0,1,.62,1.63h0l0,.06A1.27,1.27,0,0,1,1165,119.13Z"/><path class="cls-1" d="M596,518a12.58,12.58,0,1,0,16.42-6.86A12.59,12.59,0,0,0,596,518Z"/><path class="cls-1" d="M598.72,548.18h0a1.46,1.46,0,0,1-.83-1.84h0l0-.07h0a1.45,1.45,0,0,1,1.83-.84h0a1.48,1.48,0,0,1,.91,1.87h0l0,.07h0a1.48,1.48,0,0,1-1.85.83Zm-5.33-2.57h0a1.58,1.58,0,0,1-.23-.11h0a1.48,1.48,0,0,1-.57-1.79h0a1.08,1.08,0,0,1,.12-.24h0a1.46,1.46,0,0,1,2-.45h0a1.48,1.48,0,0,1,.59,1.8h0a1.59,1.59,0,0,1-.13.22A1.47,1.47,0,0,1,593.39,545.61Zm11.09,3.84h0a1.48,1.48,0,0,1-.91-1.5h0a1.67,1.67,0,0,1,.1-.4h0a1.49,1.49,0,0,1,1.51-.92h0a1.48,1.48,0,0,1,1.32,1.62h0a1.64,1.64,0,0,1-.1.38h0a1.47,1.47,0,0,1-1.92.82ZM588.8,541.9h0a1.69,1.69,0,0,1-.49-.33h0a1.49,1.49,0,0,1-.3-1.6h0a1.58,1.58,0,0,1,.33-.48h0a1.45,1.45,0,0,1,2.07,0h0a1.43,1.43,0,0,1,.3,1.59h0a1.54,1.54,0,0,1-.32.49A1.51,1.51,0,0,1,588.8,541.9Zm21.59,7.46h0a1.47,1.47,0,0,1-.9-1.16h0a1.48,1.48,0,0,1,.1-.76h0a1.44,1.44,0,0,1,1.16-.89h0a1.45,1.45,0,0,1,1.65,1.26h0a1.6,1.6,0,0,1-.09.75h0a1.48,1.48,0,0,1-1.18.89h0A1.58,1.58,0,0,1,610.39,549.36ZM585.2,537.22h0a1.43,1.43,0,0,1-.69-.6h0a1.45,1.45,0,0,1-.1-1.31h0a1.38,1.38,0,0,1,.6-.71h0a1.46,1.46,0,0,1,2,.51h0a1.44,1.44,0,0,1,.1,1.32h0a1.43,1.43,0,0,1-.6.69A1.47,1.47,0,0,1,585.2,537.22Zm30.91,10.68h0a1.43,1.43,0,0,1-.81-.84h0a1.49,1.49,0,0,1,0-1.08h0a1.49,1.49,0,0,1,.83-.82h0a1.48,1.48,0,0,1,1.9.86h0a1.47,1.47,0,0,1,0,1.09h0a1.42,1.42,0,0,1-.83.8A1.44,1.44,0,0,1,616.11,547.9Zm-33.33-16.07h0a1.46,1.46,0,0,1-.85-.9h0a1.52,1.52,0,0,1,0-1h0a1.48,1.48,0,0,1,.92-.86h0a1.46,1.46,0,0,1,1.84,1h0a1.46,1.46,0,0,1,0,1h0a1.47,1.47,0,0,1-.92.85A1.43,1.43,0,0,1,582.78,531.83Zm38.57,13.34h0a1.44,1.44,0,0,1-.66-.54h0a1.43,1.43,0,0,1-.14-1.37h0a1.37,1.37,0,0,1,.53-.67h0a1.45,1.45,0,0,1,2,.38h0a1.49,1.49,0,0,1,.16,1.38h0a1.5,1.5,0,0,1-.54.66h0A1.49,1.49,0,0,1,621.35,545.17ZM581.65,526h0a1.47,1.47,0,0,1-.91-1.24h0a1.59,1.59,0,0,1,.11-.69h0a1.46,1.46,0,0,1,1.25-.89h0a1.46,1.46,0,0,1,1.57,1.35h0a1.42,1.42,0,0,1-.11.68h0a1.44,1.44,0,0,1-1.25.89A1.48,1.48,0,0,1,581.65,526Zm44.16,15.27h0a1.48,1.48,0,0,1-.43-.29h0a1.48,1.48,0,0,1-.37-1.63h0a1.91,1.91,0,0,1,.28-.44h0a1.47,1.47,0,0,1,2.08-.08h0a1.47,1.47,0,0,1,.36,1.64h0a1.58,1.58,0,0,1-.27.42h0A1.48,1.48,0,0,1,625.81,541.31Zm-43.92-21.17h0a1.46,1.46,0,0,1-.89-1.58h0a1.59,1.59,0,0,1,.09-.33h0a1.45,1.45,0,0,1,1.59-.9h0A1.47,1.47,0,0,1,583.9,519h0a1.81,1.81,0,0,1-.09.31h0a1.48,1.48,0,0,1-1.6.9A1.17,1.17,0,0,1,581.89,520.14Zm47.37,16.37h0l-.16-.07h0a1.46,1.46,0,0,1-.64-1.83h0a.65.65,0,0,1,.08-.17h0a1.45,1.45,0,0,1,2-.57h0a1.49,1.49,0,0,1,.66,1.83h0c0,.06-.06.11-.08.16A1.47,1.47,0,0,1,629.26,536.51Zm-45.77-22h0a1.47,1.47,0,0,1-.8-1.92h0l0,0h0l0,0h0a1.48,1.48,0,0,1,1.92-.8h0a1.47,1.47,0,0,1,.79,1.93h0l0,.07h0v0A1.47,1.47,0,0,1,583.49,514.46Zm48,16.59h0a1.48,1.48,0,0,1-.86-1.76h0a.87.87,0,0,1,.07-.17h0a1.47,1.47,0,0,1,1.75-.84h0a1.48,1.48,0,0,1,1,1.82h0l-.07.18h0a1.45,1.45,0,0,1-1.74.82ZM586.41,509.2h0a1.24,1.24,0,0,1-.3-.16h0a1.48,1.48,0,0,1-.5-1.76h0a2.19,2.19,0,0,1,.16-.3h0a1.49,1.49,0,0,1,2.06-.33h0a1.48,1.48,0,0,1,.49,1.76h0a1.57,1.57,0,0,1-.16.29A1.45,1.45,0,0,1,586.41,509.2Zm46,16h0a1.47,1.47,0,0,1-.9-1.42h0a1.08,1.08,0,0,1,.12-.5h0a1.46,1.46,0,0,1,1.41-.9h0a1.48,1.48,0,0,1,1.41,1.53h0a1.65,1.65,0,0,1-.11.5h0a1.49,1.49,0,0,1-1.42.9A1.26,1.26,0,0,1,632.45,525.22ZM590.4,504.86h0a1.62,1.62,0,0,1-.55-.4h0a1.49,1.49,0,0,1-.25-1.52h0a1.56,1.56,0,0,1,.4-.56h0a1.49,1.49,0,0,1,2.08.16h0a1.48,1.48,0,0,1,.24,1.52h0a1.53,1.53,0,0,1-.41.55A1.47,1.47,0,0,1,590.4,504.86ZM632,519.33h0a1.45,1.45,0,0,1-.89-1.08h0a1.51,1.51,0,0,1,.08-.82h0a1.48,1.48,0,0,1,1.08-.9h0A1.47,1.47,0,0,1,634,517.7h0a1.63,1.63,0,0,1-.07.82h0a1.48,1.48,0,0,1-1.09.89A1.36,1.36,0,0,1,632,519.33Zm-36.74-17.79h0a1.46,1.46,0,0,1-.74-.67h0a1.52,1.52,0,0,1-.07-1.23h0a1.48,1.48,0,0,1,.69-.75h0a1.46,1.46,0,0,1,2,.62h0a1.42,1.42,0,0,1,.06,1.22h0a1.44,1.44,0,0,1-.68.76A1.5,1.5,0,0,1,595.29,501.54Zm35,12.16h0a1.45,1.45,0,0,1-.79-.75h0a1.46,1.46,0,0,1,0-1.16h0a1.37,1.37,0,0,1,.75-.78h0a1.46,1.46,0,0,1,1.94.73h0a1.48,1.48,0,0,1,0,1.15h0a1.49,1.49,0,0,1-.77.79A1.44,1.44,0,0,1,630.25,513.7Zm-29.44-14.25h0a1.47,1.47,0,0,1-.86-1h0a1.44,1.44,0,0,1,.07-.92h0a1.47,1.47,0,0,1,1-.87h0a1.47,1.47,0,0,1,1.78,1.07h0a1.44,1.44,0,0,1-.06.92h0a1.52,1.52,0,0,1-1,.86A1.44,1.44,0,0,1,600.81,499.45Zm26.4,9.18h0a1.59,1.59,0,0,1-.6-.46h0a1.48,1.48,0,0,1-.19-1.47h0a1.64,1.64,0,0,1,.46-.6h0a1.47,1.47,0,0,1,2.06.27h0a1.48,1.48,0,0,1,.19,1.47h0a1.38,1.38,0,0,1-.46.59A1.49,1.49,0,0,1,627.21,508.63Zm-20.54-10h0a1.46,1.46,0,0,1-.91-1.34h0a1.47,1.47,0,0,1,.1-.56h0a1.48,1.48,0,0,1,1.35-.92h0a1.48,1.48,0,0,1,1.49,1.44h0a1.48,1.48,0,0,1-.11.57h0a1.46,1.46,0,0,1-1.34.92A1.43,1.43,0,0,1,606.67,498.67Zm16.43,5.72h0a1.8,1.8,0,0,1-.37-.22h0a1.5,1.5,0,0,1-.43-1.69h0a1.29,1.29,0,0,1,.22-.37h0a1.47,1.47,0,0,1,2.07-.21h0a1.45,1.45,0,0,1,.43,1.68h0a1.45,1.45,0,0,1-.22.38A1.48,1.48,0,0,1,623.1,504.39Zm-10.55-5.11h0a1.46,1.46,0,0,1-.88-1.68h0a2.41,2.41,0,0,1,.08-.25h0a1.47,1.47,0,0,1,1.68-.86h0a1.47,1.47,0,0,1,1.11,1.75h0a2.41,2.41,0,0,1-.08.25h0a1.48,1.48,0,0,1-1.67.87h0Zm5.58,1.94h0l-.09,0h0a1.48,1.48,0,0,1-.72-1.89h0l0-.07h0a1.45,1.45,0,0,1,1.95-.67h0a1.45,1.45,0,0,1,.72,1.89h0l0,.06A1.46,1.46,0,0,1,618.13,501.22Z"/><path class="cls-1" d="M623.69,748.44a9.23,9.23,0,1,0,12-5A9.23,9.23,0,0,0,623.69,748.44Z"/><path class="cls-1" d="M625.72,770.6h0a1.09,1.09,0,0,1-.61-1.35h0l0,0h0a1.06,1.06,0,0,1,1.34-.61h0a1.08,1.08,0,0,1,.67,1.37h0l0,0h0a1.07,1.07,0,0,1-1.35.61Zm-3.91-1.88h0l-.16-.08h0a1.1,1.1,0,0,1-.43-1.32h0a1,1,0,0,1,.1-.17h0a1.07,1.07,0,0,1,1.48-.33h0a1.1,1.1,0,0,1,.43,1.32h0l-.09.16A1.08,1.08,0,0,1,621.81,768.72Zm8.14,2.82h0a1.09,1.09,0,0,1-.66-1.11h0a1,1,0,0,1,.07-.29h0a1.08,1.08,0,0,1,1.11-.67h0a1.08,1.08,0,0,1,1,1.18h0a1,1,0,0,1-.07.29h0a1.05,1.05,0,0,1-1.1.67A1.55,1.55,0,0,1,630,771.54ZM618.45,766h0a1,1,0,0,1-.36-.24h0a1.09,1.09,0,0,1-.23-1.17h0a1.23,1.23,0,0,1,.25-.36h0a1.07,1.07,0,0,1,1.52,0h0a1.07,1.07,0,0,1,.22,1.16h0a1.26,1.26,0,0,1-.24.36A1.07,1.07,0,0,1,618.45,766Zm15.84,5.48h0a1.1,1.1,0,0,1-.66-.85h0a1.16,1.16,0,0,1,.07-.56h0a1.12,1.12,0,0,1,.86-.66h0a1.08,1.08,0,0,1,1.21.93h0a1.13,1.13,0,0,1-.07.55h0a1.08,1.08,0,0,1-.86.66h0A1.13,1.13,0,0,1,634.29,771.47Zm-18.49-8.91h0a1.13,1.13,0,0,1-.51-.44h0a1.09,1.09,0,0,1-.07-1h0a1,1,0,0,1,.44-.52h0a1.08,1.08,0,0,1,1.48.37h0a1.08,1.08,0,0,1,.07,1h0a1.08,1.08,0,0,1-1.41.58Zm22.69,7.84h0a1,1,0,0,1-.59-.62h0a1,1,0,0,1,0-.79h0a1.12,1.12,0,0,1,.61-.6h0a1.07,1.07,0,0,1,1.39.63h0a1,1,0,0,1,0,.8h0a1.06,1.06,0,0,1-.6.59A1.1,1.1,0,0,1,638.49,770.4ZM614,758.61h0a1.07,1.07,0,0,1-.61-.67h0a1.07,1.07,0,0,1,0-.73h0a1.13,1.13,0,0,1,.67-.63h0a1.09,1.09,0,0,1,1.36.71h0a1,1,0,0,1,0,.72h0a1.05,1.05,0,0,1-.67.63A1.1,1.1,0,0,1,614,758.61Zm28.32,9.78h0a1,1,0,0,1-.49-.39h0a1,1,0,0,1-.1-1h0a1,1,0,0,1,.39-.49h0a1.06,1.06,0,0,1,1.49.28h0a1.08,1.08,0,0,1,.11,1h0a1.08,1.08,0,0,1-.39.49h0A1.08,1.08,0,0,1,642.34,768.39Zm-29.15-14h0a1.07,1.07,0,0,1-.66-.91h0a1.17,1.17,0,0,1,.08-.5h0a1.08,1.08,0,0,1,.91-.66h0a1.08,1.08,0,0,1,1.16,1h0a1.15,1.15,0,0,1-.08.49h0a1.07,1.07,0,0,1-.92.66A1.18,1.18,0,0,1,613.19,754.35Zm32.42,11.21h0a1.26,1.26,0,0,1-.32-.21h0a1.08,1.08,0,0,1-.27-1.2h0a1.26,1.26,0,0,1,.21-.32h0a1.07,1.07,0,0,1,1.52-.06h0A1.09,1.09,0,0,1,647,765h0a1.07,1.07,0,0,1-.2.32h0A1.08,1.08,0,0,1,645.61,765.56ZM613.37,750h0a1.07,1.07,0,0,1-.65-1.16h0a.94.94,0,0,1,.06-.24h0A1.08,1.08,0,0,1,614,748h0a1.09,1.09,0,0,1,.9,1.24h0a1.55,1.55,0,0,1-.07.23h0a1.07,1.07,0,0,1-1.41.59Zm34.77,12h0l-.11,0h0a1.09,1.09,0,0,1-.48-1.35h0l.06-.12h0a1.07,1.07,0,0,1,1.46-.42h0a1.09,1.09,0,0,1,.49,1.34h0a1.33,1.33,0,0,0-.06.12A1.08,1.08,0,0,1,648.14,762Zm-33.6-16.19h0a1.07,1.07,0,0,1-.58-1.41h0v0h0l0,0h0a1.08,1.08,0,0,1,1.41-.58h0a1.08,1.08,0,0,1,.58,1.41h0l0,0h0A1.07,1.07,0,0,1,614.54,745.85ZM649.8,758h0a1.07,1.07,0,0,1-.63-1.29h0a.69.69,0,0,1,.05-.13h0a1.07,1.07,0,0,1,1.28-.61h0a1.06,1.06,0,0,1,.74,1.33h0a.5.5,0,0,1,0,.13h0a1.08,1.08,0,0,1-1.28.61Zm-33.11-16h0a.68.68,0,0,1-.22-.12h0a1.09,1.09,0,0,1-.37-1.29h0a1.43,1.43,0,0,1,.12-.21h0a1.1,1.1,0,0,1,1.51-.25h0a1.09,1.09,0,0,1,.36,1.29h0a.94.94,0,0,1-.12.22A1.07,1.07,0,0,1,616.69,742Zm33.8,11.76h0a1.08,1.08,0,0,1-.67-1h0a.92.92,0,0,1,.09-.37h0a1.07,1.07,0,0,1,1-.66h0a1.08,1.08,0,0,1,1,1.13h0a1.35,1.35,0,0,1-.08.36h0a1.05,1.05,0,0,1-1.41.58Zm-30.87-15h0a1,1,0,0,1-.41-.29h0a1.08,1.08,0,0,1-.18-1.11h0a1.17,1.17,0,0,1,.3-.41h0a1.09,1.09,0,0,1,1.52.11h0a1.09,1.09,0,0,1,.18,1.12h0a1,1,0,0,1-.3.4A1.06,1.06,0,0,1,619.62,738.8Zm30.55,10.63h0a1.07,1.07,0,0,1-.65-.79h0a1.14,1.14,0,0,1,.06-.61h0a1.07,1.07,0,0,1,.79-.66h0a1.08,1.08,0,0,1,1.27.86h0a1.21,1.21,0,0,1-.06.6h0a1.07,1.07,0,0,1-.79.66A1.08,1.08,0,0,1,650.17,749.43Zm-27-13.06h0a1,1,0,0,1-.54-.49h0a1.06,1.06,0,0,1,0-.9h0a1.07,1.07,0,0,1,.5-.55h0a1.05,1.05,0,0,1,1.45.45h0a1.06,1.06,0,0,1,0,.9h0a1.08,1.08,0,0,1-1.41.59Zm25.66,8.93h0a1.09,1.09,0,0,1-.58-.56h0a1,1,0,0,1,0-.85h0a1,1,0,0,1,.55-.57h0a1.08,1.08,0,0,1,1.43.54h0a1.07,1.07,0,0,1,0,.84h0a1,1,0,0,1-.56.58A1.07,1.07,0,0,1,648.87,745.3Zm-21.61-10.46h0a1.1,1.1,0,0,1-.63-.74h0a1.05,1.05,0,0,1,0-.68h0a1.08,1.08,0,0,1,.72-.63h0a1.1,1.1,0,0,1,1.32.78h0a1.21,1.21,0,0,1-.05.68h0a1.1,1.1,0,0,1-1.41.59Zm19.38,6.73h0a1.12,1.12,0,0,1-.45-.34h0a1.06,1.06,0,0,1-.13-1.07h0a1.09,1.09,0,0,1,.34-.44h0a1.08,1.08,0,0,1,1.51.2h0a1.09,1.09,0,0,1,.14,1.07h0a1.12,1.12,0,0,1-.34.44A1.09,1.09,0,0,1,646.64,741.57Zm-15.08-7.3h0a1.09,1.09,0,0,1-.67-1h0a1.11,1.11,0,0,1,.08-.41h0a1.08,1.08,0,0,1,1-.68h0a1.09,1.09,0,0,1,1.1,1.06h0a1.12,1.12,0,0,1-.08.42h0a1.1,1.1,0,0,1-1,.68A1.2,1.2,0,0,1,631.56,734.27Zm12.06,4.19h0a1.28,1.28,0,0,1-.27-.16h0a1.09,1.09,0,0,1-.32-1.24h0a.87.87,0,0,1,.17-.27h0a1.07,1.07,0,0,1,1.51-.16h0a1.07,1.07,0,0,1,.32,1.24h0a1.12,1.12,0,0,1-.16.28A1.09,1.09,0,0,1,643.62,738.46Zm-7.75-3.75h0a1.09,1.09,0,0,1-.64-1.23h0a1.27,1.27,0,0,1,.06-.18h0a1.09,1.09,0,0,1,1.23-.64h0a1.07,1.07,0,0,1,.81,1.29h0a1.21,1.21,0,0,1-.05.18h0a1.09,1.09,0,0,1-1.23.64h0Zm4.1,1.43h0l-.07,0h0a1.09,1.09,0,0,1-.52-1.39h0a.13.13,0,0,1,0-.05h0a1.06,1.06,0,0,1,1.43-.5h0a1.06,1.06,0,0,1,.52,1.39h0v.05A1.09,1.09,0,0,1,640,736.14Z"/><path class="cls-1" d="M332.73,833.32a12.37,12.37,0,1,0,16.15-6.74A12.37,12.37,0,0,0,332.73,833.32Z"/><path class="cls-1" d="M335.45,863h0a1.46,1.46,0,0,1-.81-1.82h0l0-.07h0a1.44,1.44,0,0,1,1.8-.82h0a1.45,1.45,0,0,1,.9,1.84h0l0,.07h0a1.46,1.46,0,0,1-1.81.82Zm-5.23-2.53h0a1,1,0,0,1-.23-.11h0a1.46,1.46,0,0,1-.56-1.77h0a.94.94,0,0,1,.12-.22h0a1.43,1.43,0,0,1,2-.45h0a1.45,1.45,0,0,1,.58,1.77h0a1.19,1.19,0,0,1-.12.22A1.45,1.45,0,0,1,330.22,860.49Zm10.9,3.77h0a1.45,1.45,0,0,1-.89-1.48h0a1.51,1.51,0,0,1,.1-.38h0a1.45,1.45,0,0,1,1.48-.91h0a1.46,1.46,0,0,1,1.3,1.59h0a1.64,1.64,0,0,1-.1.38h0a1.44,1.44,0,0,1-1.48.91A1.91,1.91,0,0,1,341.12,864.26Zm-15.42-7.42h0a1.53,1.53,0,0,1-.48-.33h0a1.46,1.46,0,0,1-.3-1.57h0a1.71,1.71,0,0,1,.33-.48h0a1.44,1.44,0,0,1,2,0h0a1.42,1.42,0,0,1,.29,1.56h0a1.39,1.39,0,0,1-.32.48A1.46,1.46,0,0,1,325.7,856.84Zm21.23,7.34h0a1.49,1.49,0,0,1-.88-1.15h0a1.41,1.41,0,0,1,.1-.74h0a1.44,1.44,0,0,1,1.14-.88h0a1.44,1.44,0,0,1,1.63,1.24h0a1.55,1.55,0,0,1-.1.74h0a1.45,1.45,0,0,1-1.15.88h0A1.56,1.56,0,0,1,346.93,864.18Zm-24.77-11.94h0a1.41,1.41,0,0,1-.68-.6h0a1.42,1.42,0,0,1-.1-1.28h0a1.39,1.39,0,0,1,.59-.7h0a1.45,1.45,0,0,1,2,.5h0a1.41,1.41,0,0,1,.1,1.29h0a1.41,1.41,0,0,1-.59.69A1.46,1.46,0,0,1,322.16,852.24Zm30.4,10.5h0a1.38,1.38,0,0,1-.79-.83h0a1.34,1.34,0,0,1,0-1.06h0a1.42,1.42,0,0,1,.81-.8h0a1.46,1.46,0,0,1,1.87.84h0a1.41,1.41,0,0,1,0,1.07h0a1.44,1.44,0,0,1-1.88.78Zm-32.78-15.8h0a1.44,1.44,0,0,1-.83-.89h0a1.43,1.43,0,0,1,0-1h0a1.44,1.44,0,0,1,.9-.84h0a1.45,1.45,0,0,1,1.82.94h0a1.46,1.46,0,0,1,0,1h0a1.46,1.46,0,0,1-.91.84A1.43,1.43,0,0,1,319.78,846.94Zm37.93,13.11h0a1.42,1.42,0,0,1-.64-.53h0a1.45,1.45,0,0,1-.15-1.35h0a1.5,1.5,0,0,1,.53-.65h0a1.43,1.43,0,0,1,2,.37h0a1.43,1.43,0,0,1,.15,1.35h0a1.41,1.41,0,0,1-.53.66h0A1.42,1.42,0,0,1,357.71,860.05Zm-39-18.81h0a1.45,1.45,0,0,1-.9-1.22h0a1.55,1.55,0,0,1,.11-.68h0a1.45,1.45,0,0,1,1.23-.88h0a1.44,1.44,0,0,1,1.54,1.33h0a1.5,1.5,0,0,1-.1.67h0a1.45,1.45,0,0,1-1.23.88A1.41,1.41,0,0,1,318.67,841.24Zm43.43,15h0a1.47,1.47,0,0,1-.42-.28h0a1.43,1.43,0,0,1-.36-1.61h0a1.41,1.41,0,0,1,.27-.43h0a1.44,1.44,0,0,1,2-.09h0a1.46,1.46,0,0,1,.36,1.62h0a1.37,1.37,0,0,1-.27.42h0A1.46,1.46,0,0,1,362.1,856.26Zm-43.19-20.83h0a1.42,1.42,0,0,1-.88-1.55h0a1.07,1.07,0,0,1,.08-.32h0a1.44,1.44,0,0,1,1.57-.89h0a1.45,1.45,0,0,1,1.2,1.66h0a1.58,1.58,0,0,1-.09.31h0a1.45,1.45,0,0,1-1.57.88A1,1,0,0,1,318.91,835.43Zm46.59,16.11h0l-.16-.07h0a1.43,1.43,0,0,1-.63-1.8h0a.65.65,0,0,1,.08-.17h0a1.42,1.42,0,0,1,1.95-.56h0a1.45,1.45,0,0,1,.65,1.8h0l-.08.16A1.44,1.44,0,0,1,365.5,851.54Zm-45-21.69h0a1.44,1.44,0,0,1-.78-1.89h0l0,0h0l0-.06h0a1.46,1.46,0,0,1,1.89-.78h0a1.43,1.43,0,0,1,.77,1.89h0l0,.07h0v0A1.45,1.45,0,0,1,320.47,829.85Zm47.25,16.32h0a1.45,1.45,0,0,1-.84-1.73h0a1.27,1.27,0,0,1,.06-.18h0a1.45,1.45,0,0,1,1.72-.82h0a1.44,1.44,0,0,1,1,1.79h0a.76.76,0,0,1-.06.18h0a1.43,1.43,0,0,1-1.72.81Zm-44.37-21.49h0a1.28,1.28,0,0,1-.3-.17h0a1.46,1.46,0,0,1-.49-1.73h0c0-.09.11-.19.16-.28h0a1.46,1.46,0,0,1,2-.33h0a1.46,1.46,0,0,1,.49,1.73h0a2,2,0,0,1-.16.29A1.45,1.45,0,0,1,323.35,824.68Zm45.29,15.76h0a1.46,1.46,0,0,1-.9-1.4h0a1.26,1.26,0,0,1,.12-.49h0a1.43,1.43,0,0,1,1.4-.89h0a1.45,1.45,0,0,1,1.38,1.51h0a1.53,1.53,0,0,1-.11.48h0a1.48,1.48,0,0,1-1.4.9A1.59,1.59,0,0,1,368.64,840.44Zm-41.36-20h0a1.39,1.39,0,0,1-.55-.39h0a1.46,1.46,0,0,1-.24-1.49h0a1.39,1.39,0,0,1,.39-.55h0a1.45,1.45,0,0,1,2,.15h0a1.45,1.45,0,0,1,.24,1.5h0a1.3,1.3,0,0,1-.4.54A1.42,1.42,0,0,1,327.28,820.4Zm40.94,14.24h0a1.46,1.46,0,0,1-.88-1.06h0a1.39,1.39,0,0,1,.09-.81h0a1.44,1.44,0,0,1,1.06-.89h0a1.45,1.45,0,0,1,1.69,1.15h0a1.57,1.57,0,0,1-.07.81h0a1.46,1.46,0,0,1-1.07.88A1.33,1.33,0,0,1,368.22,834.64Zm-36.14-17.5h0a1.36,1.36,0,0,1-.72-.66h0a1.41,1.41,0,0,1-.07-1.2h0a1.46,1.46,0,0,1,.68-.75h0a1.43,1.43,0,0,1,1.94.62h0a1.41,1.41,0,0,1,.06,1.2h0a1.38,1.38,0,0,1-.67.74A1.45,1.45,0,0,1,332.08,817.14Zm34.38,12h0a1.48,1.48,0,0,1-.77-.75h0a1.41,1.41,0,0,1,0-1.14h0a1.36,1.36,0,0,1,.74-.77h0a1.44,1.44,0,0,1,1.91.73h0a1.39,1.39,0,0,1,0,1.13h0a1.41,1.41,0,0,1-.75.77A1.46,1.46,0,0,1,366.46,829.11Zm-28.94-14h0a1.46,1.46,0,0,1-.86-1h0a1.48,1.48,0,0,1,.07-.91h0a1.41,1.41,0,0,1,1-.84h0a1.43,1.43,0,0,1,1.75,1h0a1.48,1.48,0,0,1-.06.91h0a1.49,1.49,0,0,1-1,.85A1.52,1.52,0,0,1,337.52,815.09Zm26,9h0a1.61,1.61,0,0,1-.6-.45h0a1.45,1.45,0,0,1-.17-1.44h0a1.42,1.42,0,0,1,.45-.59h0a1.44,1.44,0,0,1,2,.27h0a1.44,1.44,0,0,1,.19,1.44h0a1.35,1.35,0,0,1-.46.58A1.45,1.45,0,0,1,363.48,824.11Zm-20.21-9.79h0a1.45,1.45,0,0,1-.89-1.31h0a1.43,1.43,0,0,1,.1-.56h0a1.45,1.45,0,0,1,1.32-.91h0a1.46,1.46,0,0,1,1.47,1.42h0a1.43,1.43,0,0,1-.11.56h0a1.44,1.44,0,0,1-1.32.91A1.6,1.6,0,0,1,343.27,814.32Zm16.17,5.62h0a1.47,1.47,0,0,1-.36-.21h0a1.45,1.45,0,0,1-.43-1.66h0a1.29,1.29,0,0,1,.22-.37h0a1.45,1.45,0,0,1,2-.21h0a1.45,1.45,0,0,1,.43,1.66h0a1.39,1.39,0,0,1-.22.37A1.45,1.45,0,0,1,359.44,819.94Zm-10.38-5h0a1.44,1.44,0,0,1-.86-1.66h0c0-.07,0-.16.07-.24h0a1.46,1.46,0,0,1,1.65-.85h0A1.44,1.44,0,0,1,351,813.9h0c0,.07,0,.16-.07.24h0a1.46,1.46,0,0,1-1.65.85h0Zm5.49,1.91h0l-.09,0h0a1.45,1.45,0,0,1-.71-1.86h0a.25.25,0,0,1,0-.07h0a1.42,1.42,0,0,1,1.92-.66h0a1.42,1.42,0,0,1,.7,1.86h0l0,.06A1.45,1.45,0,0,1,354.55,816.83Z"/><circle class="cls-1" cx="1224.88" cy="289.25" r="30.54" transform="translate(-16.88 494.29) rotate(-22.66)"/><path class="cls-1" d="M1203.35,350.94h0a3.59,3.59,0,0,1-2-4.48h0l.07-.17h0a3.53,3.53,0,0,1,4.45-2h0a3.59,3.59,0,0,1,2.22,4.54h0l-.07.17h0a3.57,3.57,0,0,1-4.47,2A1.05,1.05,0,0,1,1203.35,350.94Zm-12.92-6.24h0a2.44,2.44,0,0,1-.56-.28h0a3.6,3.6,0,0,1-1.39-4.35h0a2.82,2.82,0,0,1,.31-.56h0a3.52,3.52,0,0,1,4.89-1.1h0a3.58,3.58,0,0,1,1.42,4.36h0a2.86,2.86,0,0,1-.3.54A3.56,3.56,0,0,1,1190.43,344.7Zm26.91,9.31h0a3.59,3.59,0,0,1-2.19-3.65h0a3.39,3.39,0,0,1,.23-.95h0a3.6,3.6,0,0,1,3.67-2.24h0a3.57,3.57,0,0,1,3.19,3.93h0a3.25,3.25,0,0,1-.23.93h0a3.55,3.55,0,0,1-3.67,2.24A3.78,3.78,0,0,1,1217.34,354Zm-38-18.33h0a3.67,3.67,0,0,1-1.19-.8h0a3.61,3.61,0,0,1-.75-3.87h0a4.38,4.38,0,0,1,.82-1.18h0a3.53,3.53,0,0,1,5,.09h0a3.51,3.51,0,0,1,.73,3.84h0a3.62,3.62,0,0,1-.8,1.19A3.56,3.56,0,0,1,1179.29,335.68Zm52.4,18.12h0a3.58,3.58,0,0,1-2.18-2.83h0a3.46,3.46,0,0,1,.24-1.82h0a3.55,3.55,0,0,1,2.82-2.18h0a3.55,3.55,0,0,1,4,3.06h0a3.75,3.75,0,0,1-.24,1.82h0a3.58,3.58,0,0,1-2.85,2.18h0A4,4,0,0,1,1231.69,353.8Zm-61.15-29.47h0a3.54,3.54,0,0,1-1.68-1.46h0a3.56,3.56,0,0,1-.24-3.18h0a3.46,3.46,0,0,1,1.45-1.72h0a3.55,3.55,0,0,1,4.89,1.24h0a3.52,3.52,0,0,1,.26,3.19h0a3.5,3.5,0,0,1-1.47,1.68A3.56,3.56,0,0,1,1170.54,324.33Zm75,25.93h0a3.52,3.52,0,0,1-2-2h0a3.54,3.54,0,0,1,0-2.64h0a3.59,3.59,0,0,1,2-2h0a3.59,3.59,0,0,1,4.59,2.07h0a3.5,3.5,0,0,1,0,2.66h0a3.55,3.55,0,0,1-2,1.94A3.59,3.59,0,0,1,1245.57,350.26Zm-80.9-39h0a3.55,3.55,0,0,1-2.05-2.21h0a3.52,3.52,0,0,1,.09-2.4h0a3.6,3.6,0,0,1,2.22-2.09h0a3.6,3.6,0,0,1,4.49,2.33h0a3.58,3.58,0,0,1-.09,2.4h0a3.6,3.6,0,0,1-2.24,2.07A3.46,3.46,0,0,1,1164.67,311.26Zm93.62,32.36h0a3.53,3.53,0,0,1-1.59-1.3h0a3.49,3.49,0,0,1-.36-3.33h0a3.41,3.41,0,0,1,1.31-1.62v0a3.54,3.54,0,0,1,4.94.92h0a3.61,3.61,0,0,1,.37,3.34h0a3.55,3.55,0,0,1-1.31,1.62h0A3.54,3.54,0,0,1,1258.29,343.62Zm-96.37-46.43h0a3.55,3.55,0,0,1-2.2-3h0a3.59,3.59,0,0,1,.27-1.67h0a3.57,3.57,0,0,1,3-2.17h0a3.58,3.58,0,0,1,3.82,3.29h0a3.62,3.62,0,0,1-.27,1.64h0a3.51,3.51,0,0,1-3,2.17A3.56,3.56,0,0,1,1161.92,297.19Zm107.21,37.06h0a3.23,3.23,0,0,1-1.06-.69h0a3.55,3.55,0,0,1-.88-4h0a3.82,3.82,0,0,1,.66-1.06h0a3.56,3.56,0,0,1,5.05-.21h0a3.58,3.58,0,0,1,.88,4h0a3.73,3.73,0,0,1-.66,1h0A3.57,3.57,0,0,1,1269.13,334.25Zm-106.62-51.38h0a3.57,3.57,0,0,1-2.17-3.85h0a3.56,3.56,0,0,1,.22-.78h0a3.53,3.53,0,0,1,3.86-2.19h0a3.56,3.56,0,0,1,3,4.09h0a3.88,3.88,0,0,1-.21.76h0a3.57,3.57,0,0,1-4.66,2Zm115,39.75h0l-.38-.19h0a3.55,3.55,0,0,1-1.57-4.44h0a3.07,3.07,0,0,1,.2-.41h0a3.54,3.54,0,0,1,4.83-1.38h0a3.57,3.57,0,0,1,1.59,4.43h0c-.06.15-.14.28-.19.41A3.58,3.58,0,0,1,1277.5,322.62Zm-111.11-53.55h0a3.55,3.55,0,0,1-2-4.65h0l0-.11h0l0-.13h0a3.59,3.59,0,0,1,4.67-1.93h0a3.56,3.56,0,0,1,1.92,4.66h0l-.08.18h0v0A3.56,3.56,0,0,1,1166.39,269.07ZM1283,309.35h0a3.56,3.56,0,0,1-2.07-4.27h0a2.1,2.1,0,0,1,.15-.42h0a3.57,3.57,0,0,1,4.25-2h0a3.56,3.56,0,0,1,2.44,4.42h0a2.22,2.22,0,0,1-.15.43h0a3.54,3.54,0,0,1-4.24,2A1.88,1.88,0,0,1,1283,309.35Zm-109.51-53h0a3.36,3.36,0,0,1-.73-.41h0a3.59,3.59,0,0,1-1.2-4.26h0a3.81,3.81,0,0,1,.4-.71h0a3.6,3.6,0,0,1,5-.81h0a3.59,3.59,0,0,1,1.2,4.27h0a2.9,2.9,0,0,1-.4.71A3.58,3.58,0,0,1,1173.47,256.32Zm111.78,38.89h0a3.61,3.61,0,0,1-2.21-3.45h0a3.13,3.13,0,0,1,.3-1.22h0a3.53,3.53,0,0,1,3.44-2.18h0a3.56,3.56,0,0,1,3.4,3.71h0a3.62,3.62,0,0,1-.26,1.2h0a3.63,3.63,0,0,1-3.45,2.21A3.75,3.75,0,0,1,1285.25,295.21Zm-102.07-49.44h0a3.56,3.56,0,0,1-1.35-1h0a3.58,3.58,0,0,1-.6-3.68h0a3.56,3.56,0,0,1,1-1.35h0a3.59,3.59,0,0,1,5,.37h0a3.59,3.59,0,0,1,.59,3.69h0a3.45,3.45,0,0,1-1,1.34A3.53,3.53,0,0,1,1183.18,245.77Zm101,35.14h0a3.56,3.56,0,0,1-2.15-2.63h0a3.57,3.57,0,0,1,.2-2h0a3.54,3.54,0,0,1,2.62-2.18h0a3.56,3.56,0,0,1,4.17,2.84h0a3.71,3.71,0,0,1-.17,2h0a3.57,3.57,0,0,1-2.64,2.17A3.47,3.47,0,0,1,1284.21,280.91ZM1195,237.72h0a3.48,3.48,0,0,1-1.8-1.63h0a3.56,3.56,0,0,1-.16-3h0a3.54,3.54,0,0,1,1.67-1.83h0a3.52,3.52,0,0,1,4.8,1.51h0a3.5,3.5,0,0,1,.15,3h0a3.46,3.46,0,0,1-1.66,1.84A3.59,3.59,0,0,1,1195,237.72Zm84.85,29.53h0a3.67,3.67,0,0,1-1.92-1.84h0a3.56,3.56,0,0,1,0-2.81h0a3.37,3.37,0,0,1,1.83-1.9h0a3.55,3.55,0,0,1,4.71,1.78h0a3.54,3.54,0,0,1,.06,2.8h0a3.61,3.61,0,0,1-4.66,2Zm-71.44-34.6h0a3.57,3.57,0,0,1-2.11-2.43h0a3.55,3.55,0,0,1,.17-2.24h0a3.58,3.58,0,0,1,2.41-2.1h0a3.59,3.59,0,0,1,4.33,2.58h0a3.59,3.59,0,0,1-.15,2.25h0a3.63,3.63,0,0,1-2.43,2.08A3.49,3.49,0,0,1,1208.45,232.65Zm64.07,22.27h0a3.76,3.76,0,0,1-1.47-1.12h0a3.53,3.53,0,0,1-.44-3.54h0a3.51,3.51,0,0,1,1.12-1.47h0a3.57,3.57,0,0,1,5,.66h0a3.62,3.62,0,0,1,.46,3.56h0a3.34,3.34,0,0,1-1.13,1.44A3.56,3.56,0,0,1,1272.52,254.92Zm-49.86-24.16h0a3.58,3.58,0,0,1-2.21-3.25h0a3.33,3.33,0,0,1,.26-1.38h0a3.56,3.56,0,0,1,3.25-2.23h0a3.58,3.58,0,0,1,3.62,3.51h0a3.65,3.65,0,0,1-.26,1.38h0a3.58,3.58,0,0,1-3.26,2.24A3.67,3.67,0,0,1,1222.66,230.76Zm39.89,13.87h0a4,4,0,0,1-.9-.52h0a3.65,3.65,0,0,1-1.06-4.11h0a3.35,3.35,0,0,1,.56-.9h0a3.55,3.55,0,0,1,5-.51h0a3.53,3.53,0,0,1,1,4.08h0a3.2,3.2,0,0,1-.53.93A3.58,3.58,0,0,1,1262.55,244.63Zm-25.63-12.4h0a3.56,3.56,0,0,1-2.12-4.08h0a4.49,4.49,0,0,1,.19-.59h0a3.57,3.57,0,0,1,4.07-2.1h0a3.57,3.57,0,0,1,2.7,4.26h0a4.11,4.11,0,0,1-.2.59h0a3.59,3.59,0,0,1-4,2.11h0C1237.31,232.36,1237.1,232.3,1236.92,232.23Zm13.55,4.72h0l-.22-.09h0a3.58,3.58,0,0,1-1.73-4.59h0a.4.4,0,0,1,.09-.17h0a3.53,3.53,0,0,1,4.74-1.65h0a3.52,3.52,0,0,1,1.73,4.59h0s0,.11-.06.16A3.57,3.57,0,0,1,1250.47,237Z"/><circle class="cls-1" cx="847.81" cy="640.21" r="26.58" transform="translate(-181.22 376.1) rotate(-22.66)"/><path class="cls-1" d="M829.07,693.9h0a3.11,3.11,0,0,1-1.75-3.89h0l.06-.16h0a3.08,3.08,0,0,1,3.88-1.76h0a3.12,3.12,0,0,1,1.93,3.95h0l-.06.15h0a3.11,3.11,0,0,1-3.9,1.75A.47.47,0,0,1,829.07,693.9Zm-11.25-5.43h0a2.39,2.39,0,0,1-.48-.24h0a3.13,3.13,0,0,1-1.22-3.78h0a2.42,2.42,0,0,1,.27-.5h0a3.07,3.07,0,0,1,4.26-1h0a3.12,3.12,0,0,1,1.24,3.79h0a2.49,2.49,0,0,1-.26.48A3.11,3.11,0,0,1,817.82,688.47Zm23.43,8.11h0a3.14,3.14,0,0,1-1.92-3.18h0a3.26,3.26,0,0,1,.21-.83h0a3.14,3.14,0,0,1,3.2-2h0a3.12,3.12,0,0,1,2.77,3.42h0a3.1,3.1,0,0,1-.2.81h0a3.08,3.08,0,0,1-3.19,1.95A3.18,3.18,0,0,1,841.25,696.58Zm-33.12-16h0a3.2,3.2,0,0,1-1-.69h0a3.16,3.16,0,0,1-.65-3.37h0a3.48,3.48,0,0,1,.72-1h0a3.08,3.08,0,0,1,4.37.07h0a3.07,3.07,0,0,1,.64,3.35h0a3.29,3.29,0,0,1-.7,1A3.09,3.09,0,0,1,808.13,680.62Zm45.6,15.77h0a3.1,3.1,0,0,1-1.89-2.46h0a3.12,3.12,0,0,1,.2-1.59h0a3.13,3.13,0,0,1,2.46-1.9h0a3.1,3.1,0,0,1,3.49,2.67h0a3.31,3.31,0,0,1-.21,1.59h0a3.1,3.1,0,0,1-2.48,1.89h0A3.37,3.37,0,0,1,853.73,696.39Zm-53.21-25.64h0a3.08,3.08,0,0,1-1.47-1.28h0a3,3,0,0,1-.2-2.76h0a2.92,2.92,0,0,1,1.26-1.5h0a3.08,3.08,0,0,1,4.25,1.08h0a3,3,0,0,1,.22,2.77h0a3.06,3.06,0,0,1-1.27,1.47A3.11,3.11,0,0,1,800.52,670.75Zm65.3,22.56h0a3,3,0,0,1-1.71-1.78h0a3,3,0,0,1,0-2.29h0a3.1,3.1,0,0,1,1.75-1.71h0a3.11,3.11,0,0,1,4,1.79h0a3.05,3.05,0,0,1,0,2.32h0a3.12,3.12,0,0,1-4,1.67ZM795.4,659.37h0a3.14,3.14,0,0,1-1.78-1.92h0a3.11,3.11,0,0,1,.07-2.09h0a3.18,3.18,0,0,1,1.94-1.82h0a3.12,3.12,0,0,1,3.9,2h0a3.12,3.12,0,0,1-.07,2.09h0a3.11,3.11,0,0,1-2,1.79A3.05,3.05,0,0,1,795.4,659.37Zm81.49,28.16h0a3,3,0,0,1-1.39-1.13h0a3,3,0,0,1-.31-2.9h0a3,3,0,0,1,1.14-1.41v0a3.08,3.08,0,0,1,4.3.8h0a3.13,3.13,0,0,1,.32,2.91h0a3.15,3.15,0,0,1-1.13,1.41h0A3.1,3.1,0,0,1,876.89,687.53ZM793,647.12h0a3.09,3.09,0,0,1-1.92-2.62h0a3.33,3.33,0,0,1,.24-1.45h0a3.1,3.1,0,0,1,2.63-1.89h0a3.09,3.09,0,0,1,3.32,2.86h0a3.1,3.1,0,0,1-.23,1.43h0a3.11,3.11,0,0,1-4,1.67Zm93.31,32.26h0a3,3,0,0,1-.92-.6h0a3.1,3.1,0,0,1-.77-3.45h0a3.14,3.14,0,0,1,.58-.93h0a3.1,3.1,0,0,1,4.39-.18h0a3.13,3.13,0,0,1,.76,3.47h0a3.1,3.1,0,0,1-.57.9h0A3.09,3.09,0,0,1,886.32,679.38Zm-92.79-44.72h0a3.1,3.1,0,0,1-1.89-3.35h0a2.83,2.83,0,0,1,.19-.68h0a3.07,3.07,0,0,1,3.35-1.91h0a3.12,3.12,0,0,1,2.59,3.56h0a3.69,3.69,0,0,1-.19.67h0a3.11,3.11,0,0,1-4.05,1.71Zm100.08,34.59h0l-.34-.16h0a3.09,3.09,0,0,1-1.36-3.87h0a2.23,2.23,0,0,1,.17-.35h0a3.07,3.07,0,0,1,4.2-1.2h0a3.1,3.1,0,0,1,1.39,3.85h0c0,.14-.12.24-.17.36A3.1,3.1,0,0,1,893.61,669.25Zm-96.71-46.6h0a3.09,3.09,0,0,1-1.69-4h0l0-.09h0l0-.12h0a3.13,3.13,0,0,1,4.07-1.68h0a3.1,3.1,0,0,1,1.66,4.06h0l-.06.15h0l0,0A3.09,3.09,0,0,1,796.9,622.65Zm101.47,35.06h0a3.11,3.11,0,0,1-1.8-3.72h0a2.72,2.72,0,0,1,.13-.37h0a3.12,3.12,0,0,1,3.7-1.77h0a3.1,3.1,0,0,1,2.13,3.85h0a2.72,2.72,0,0,1-.13.37h0a3.07,3.07,0,0,1-3.69,1.75A2.27,2.27,0,0,1,898.37,657.71Zm-95.3-46.16h0a3.1,3.1,0,0,1-.64-.35h0a3.14,3.14,0,0,1-1-3.72h0a3.7,3.7,0,0,1,.35-.61h0a3.13,3.13,0,0,1,4.33-.71h0a3.12,3.12,0,0,1,1.05,3.72h0a2.68,2.68,0,0,1-.35.62A3.11,3.11,0,0,1,803.07,611.55Zm97.28,33.85h0a3.13,3.13,0,0,1-1.92-3h0a2.79,2.79,0,0,1,.25-1h0a3.08,3.08,0,0,1,3-1.9h0a3.09,3.09,0,0,1,3,3.23h0a3,3,0,0,1-.23,1h0a3.16,3.16,0,0,1-3,1.92A3.34,3.34,0,0,1,900.35,645.4Zm-88.84-43h0a3.09,3.09,0,0,1-1.17-.84h0a3.11,3.11,0,0,1-.52-3.21h0a3.09,3.09,0,0,1,.84-1.17h0a3.11,3.11,0,0,1,4.38.32h0a3.1,3.1,0,0,1,.52,3.21h0a2.85,2.85,0,0,1-.86,1.16A3.1,3.1,0,0,1,811.51,602.37ZM899.44,633h0a3.15,3.15,0,0,1-1.87-2.3h0a3.07,3.07,0,0,1,.18-1.73h0A3.07,3.07,0,0,1,900,627h0a3.11,3.11,0,0,1,3.63,2.48h0a3.27,3.27,0,0,1-.15,1.73h0a3.13,3.13,0,0,1-2.3,1.89A3.1,3.1,0,0,1,899.44,633Zm-77.61-37.6h0a3,3,0,0,1-1.56-1.42h0a3.12,3.12,0,0,1-.14-2.58h0a3.11,3.11,0,0,1,1.46-1.6h0a3.07,3.07,0,0,1,4.17,1.32h0a3,3,0,0,1,.13,2.57h0a3,3,0,0,1-1.44,1.6A3.09,3.09,0,0,1,821.83,595.36Zm73.85,25.7h0a3.16,3.16,0,0,1-1.66-1.6h0a3.11,3.11,0,0,1,0-2.45h0a3,3,0,0,1,1.6-1.65h0a3.09,3.09,0,0,1,4.1,1.55h0a3.14,3.14,0,0,1,0,2.44h0a3.14,3.14,0,0,1-4.06,1.71ZM833.5,591h0a3.11,3.11,0,0,1-1.83-2.12h0a3.16,3.16,0,0,1,.15-2h0a3.09,3.09,0,0,1,2.09-1.82h0a3.13,3.13,0,0,1,3.78,2.24h0a3.1,3.1,0,0,1-.14,2h0a3.17,3.17,0,0,1-2.11,1.82A3.05,3.05,0,0,1,833.5,591Zm55.77,19.38h0a3.21,3.21,0,0,1-1.28-1h0a3.09,3.09,0,0,1-.38-3.09h0a3,3,0,0,1,1-1.27h0a3.1,3.1,0,0,1,4.34.57h0a3.14,3.14,0,0,1,.41,3.1h0a3,3,0,0,1-1,1.25A3.11,3.11,0,0,1,889.27,610.33Zm-43.4-21h0a3.1,3.1,0,0,1-1.92-2.82h0a3,3,0,0,1,.22-1.2h0a3.14,3.14,0,0,1,2.84-1.95h0a3.12,3.12,0,0,1,3.14,3.06h0a3,3,0,0,1-.22,1.2h0a3.12,3.12,0,0,1-2.84,1.95A3.2,3.2,0,0,1,845.87,589.3Zm34.72,12.08h0a3.32,3.32,0,0,1-.78-.46h0a3.17,3.17,0,0,1-.92-3.57h0a3,3,0,0,1,.48-.79h0a3.09,3.09,0,0,1,4.36-.44h0a3.05,3.05,0,0,1,.91,3.55h0a3,3,0,0,1-.46.81A3.13,3.13,0,0,1,880.59,601.38Zm-22.3-10.8h0a3.09,3.09,0,0,1-1.85-3.55h0a3.81,3.81,0,0,1,.17-.51h0a3.1,3.1,0,0,1,3.54-1.83h0a3.1,3.1,0,0,1,2.34,3.71h0a3.72,3.72,0,0,1-.16.51h0a3.12,3.12,0,0,1-3.53,1.84h0A2.81,2.81,0,0,1,858.29,590.58Zm11.79,4.11h0l-.19-.08h0a3.12,3.12,0,0,1-1.51-4h0a.44.44,0,0,1,.08-.15h0a3.06,3.06,0,0,1,4.12-1.43h0a3.05,3.05,0,0,1,1.51,4h0l-.05.14A3.1,3.1,0,0,1,870.08,594.69Z"/><path class="cls-1" d="M367.44,323.65a21.47,21.47,0,1,0,28-11.7A21.46,21.46,0,0,0,367.44,323.65Z"/><path class="cls-1" d="M372.16,375.17h0a2.53,2.53,0,0,1-1.42-3.15h0l.06-.12h0a2.47,2.47,0,0,1,3.13-1.42h0a2.52,2.52,0,0,1,1.56,3.18h0l-.05.13h0a2.51,2.51,0,0,1-3.15,1.41A.31.31,0,0,1,372.16,375.17Zm-9.09-4.39h0a1.69,1.69,0,0,1-.38-.19h0a2.55,2.55,0,0,1-1-3.06h0a2.24,2.24,0,0,1,.22-.4h0a2.49,2.49,0,0,1,3.44-.77h0a2.53,2.53,0,0,1,1,3.07h0a2.4,2.4,0,0,1-.21.38A2.51,2.51,0,0,1,363.07,370.78ZM382,377.33h0a2.55,2.55,0,0,1-1.54-2.57h0a2.54,2.54,0,0,1,.17-.67h0a2.52,2.52,0,0,1,2.58-1.57h0a2.52,2.52,0,0,1,2.24,2.76h0a2.29,2.29,0,0,1-.16.65h0a2.51,2.51,0,0,1-2.58,1.58A2.85,2.85,0,0,1,382,377.33Zm-26.74-12.89h0a2.43,2.43,0,0,1-.84-.56h0a2.53,2.53,0,0,1-.52-2.72h0a2.92,2.92,0,0,1,.57-.83h0a2.48,2.48,0,0,1,3.53.06h0a2.46,2.46,0,0,1,.52,2.7h0a2.63,2.63,0,0,1-.56.84A2.51,2.51,0,0,1,355.25,364.44Zm36.83,12.74h0a2.49,2.49,0,0,1-1.53-2h0a2.37,2.37,0,0,1,.16-1.28h0a2.51,2.51,0,0,1,2-1.53h0a2.49,2.49,0,0,1,2.81,2.15h0a2.54,2.54,0,0,1-.16,1.28h0a2.52,2.52,0,0,1-2,1.53h0A2.71,2.71,0,0,1,392.08,377.18Zm-43-20.71h0a2.57,2.57,0,0,1-1.19-1h0a2.51,2.51,0,0,1-.16-2.24h0a2.38,2.38,0,0,1,1-1.2h0a2.48,2.48,0,0,1,3.43.87h0a2.45,2.45,0,0,1,.18,2.24h0a2.48,2.48,0,0,1-1,1.18A2.52,2.52,0,0,1,349.1,356.47Zm52.74,18.22h0a2.45,2.45,0,0,1-1.38-1.44h0a2.42,2.42,0,0,1,0-1.85h0A2.54,2.54,0,0,1,401.9,370h0a2.52,2.52,0,0,1,3.23,1.45h0a2.47,2.47,0,0,1,0,1.87h0a2.5,2.5,0,0,1-1.41,1.37A2.56,2.56,0,0,1,401.84,374.69ZM345,347.28h0a2.52,2.52,0,0,1-1.44-1.55h0a2.5,2.5,0,0,1,.06-1.69h0a2.55,2.55,0,0,1,1.56-1.47h0a2.54,2.54,0,0,1,3.16,1.64h0a2.51,2.51,0,0,1-.07,1.69h0a2.52,2.52,0,0,1-1.57,1.45A2.47,2.47,0,0,1,345,347.28ZM410.78,370h0a2.37,2.37,0,0,1-1.12-.91h0a2.46,2.46,0,0,1-.25-2.34h0a2.41,2.41,0,0,1,.92-1.14h0a2.49,2.49,0,0,1,3.47.65h0a2.51,2.51,0,0,1,.26,2.35h0a2.48,2.48,0,0,1-.92,1.14h0A2.45,2.45,0,0,1,410.78,370ZM343,337.38h0a2.47,2.47,0,0,1-1.55-2.11h0a2.56,2.56,0,0,1,.19-1.17h0a2.51,2.51,0,0,1,2.13-1.53h0a2.5,2.5,0,0,1,2.67,2.31h0a2.33,2.33,0,0,1-.18,1.15h0a2.47,2.47,0,0,1-2.13,1.53A2.29,2.29,0,0,1,343,337.38Zm75.35,26.06h0a2.33,2.33,0,0,1-.74-.49h0a2.5,2.5,0,0,1-.62-2.78h0a2.85,2.85,0,0,1,.47-.75h0a2.5,2.5,0,0,1,3.54-.15h0a2.51,2.51,0,0,1,.62,2.8h0a2.56,2.56,0,0,1-.46.73h0A2.52,2.52,0,0,1,418.39,363.44Zm-74.94-36.12h0a2.49,2.49,0,0,1-1.52-2.7h0a2.21,2.21,0,0,1,.15-.55h0a2.47,2.47,0,0,1,2.71-1.54h0a2.51,2.51,0,0,1,2.09,2.87h0a3.06,3.06,0,0,1-.15.54h0a2.52,2.52,0,0,1-2.72,1.53A2.11,2.11,0,0,1,343.45,327.32Zm80.83,27.94h0l-.27-.13h0a2.48,2.48,0,0,1-1.1-3.12h0a1.92,1.92,0,0,1,.14-.29h0a2.48,2.48,0,0,1,3.39-1h0a2.5,2.5,0,0,1,1.12,3.11h0c0,.11-.09.2-.13.29A2.52,2.52,0,0,1,424.28,355.26Zm-78.1-37.64h0a2.49,2.49,0,0,1-1.37-3.27h0l0-.07h0l0-.09h0a2.52,2.52,0,0,1,3.28-1.36h0a2.5,2.5,0,0,1,1.35,3.27h0l-.05.13h0l0,0A2.49,2.49,0,0,1,346.18,317.62Zm81.95,28.32h0a2.51,2.51,0,0,1-1.46-3h0a2.65,2.65,0,0,1,.11-.3h0a2.51,2.51,0,0,1,3-1.43h0a2.51,2.51,0,0,1,1.72,3.11h0a2.22,2.22,0,0,1-.11.3h0a2.49,2.49,0,0,1-3,1.41A1.71,1.71,0,0,1,428.13,345.94Zm-77-37.28h0a2.26,2.26,0,0,1-.52-.29h0a2.54,2.54,0,0,1-.84-3h0a3.53,3.53,0,0,1,.28-.5h0a2.54,2.54,0,0,1,3.5-.56h0a2.5,2.5,0,0,1,.84,3h0a2.22,2.22,0,0,1-.28.5A2.5,2.5,0,0,1,351.16,308.66ZM429.72,336h0a2.5,2.5,0,0,1-1.54-2.42h0a2.17,2.17,0,0,1,.2-.85h0a2.49,2.49,0,0,1,2.42-1.54h0a2.5,2.5,0,0,1,2.39,2.61h0a2.34,2.34,0,0,1-.18.84h0a2.54,2.54,0,0,1-2.42,1.55A2.51,2.51,0,0,1,429.72,336ZM358,301.24h0a2.42,2.42,0,0,1-1-.68h0a2.51,2.51,0,0,1-.42-2.59h0a2.49,2.49,0,0,1,.68-.94h0a2.51,2.51,0,0,1,3.54.26h0a2.49,2.49,0,0,1,.42,2.59h0a2.35,2.35,0,0,1-.7.94A2.46,2.46,0,0,1,358,301.24ZM429,326h0a2.52,2.52,0,0,1-1.52-1.85h0a2.5,2.5,0,0,1,.15-1.41h0a2.45,2.45,0,0,1,1.84-1.53h0a2.5,2.5,0,0,1,2.93,2h0a2.62,2.62,0,0,1-.12,1.39h0a2.53,2.53,0,0,1-1.86,1.53A2.5,2.5,0,0,1,429,326Zm-62.69-30.36h0a2.47,2.47,0,0,1-1.26-1.15h0a2.55,2.55,0,0,1-.11-2.09h0a2.51,2.51,0,0,1,1.18-1.29h0a2.48,2.48,0,0,1,3.37,1.06h0a2.44,2.44,0,0,1,.1,2.09h0a2.43,2.43,0,0,1-1.16,1.29A2.54,2.54,0,0,1,366.31,295.59ZM426,316.34h0a2.54,2.54,0,0,1-1.35-1.29h0a2.52,2.52,0,0,1,0-2h0a2.37,2.37,0,0,1,1.29-1.33h0a2.49,2.49,0,0,1,3.31,1.25h0a2.46,2.46,0,0,1,0,2h0a2.53,2.53,0,0,1-3.27,1.38ZM375.74,292h0a2.51,2.51,0,0,1-1.48-1.71h0a2.54,2.54,0,0,1,.12-1.57h0a2.46,2.46,0,0,1,1.69-1.47h0a2.51,2.51,0,0,1,3.05,1.81h0a2.5,2.5,0,0,1-.11,1.58h0a2.57,2.57,0,0,1-1.7,1.46A2.46,2.46,0,0,1,375.74,292Zm45,15.66h0a2.69,2.69,0,0,1-1-.79h0a2.46,2.46,0,0,1-.31-2.49h0a2.42,2.42,0,0,1,.78-1h0a2.51,2.51,0,0,1,3.51.46h0a2.55,2.55,0,0,1,.33,2.5h0a2.3,2.3,0,0,1-.8,1A2.49,2.49,0,0,1,420.78,307.68Zm-35-17h0a2.5,2.5,0,0,1-1.55-2.28h0a2.39,2.39,0,0,1,.18-1h0a2.52,2.52,0,0,1,2.29-1.57h0a2.53,2.53,0,0,1,2.54,2.47h0a2.58,2.58,0,0,1-.19,1h0a2.5,2.5,0,0,1-2.28,1.57A2.53,2.53,0,0,1,385.73,290.69Zm28,9.75h0a3.09,3.09,0,0,1-.63-.36h0a2.56,2.56,0,0,1-.74-2.89h0a2.12,2.12,0,0,1,.38-.64h0a2.51,2.51,0,0,1,3.53-.35h0a2.47,2.47,0,0,1,.73,2.86h0a2.31,2.31,0,0,1-.38.66A2.5,2.5,0,0,1,413.77,300.44Zm-18-8.72h0a2.49,2.49,0,0,1-1.49-2.86h0a2.25,2.25,0,0,1,.13-.42h0a2.51,2.51,0,0,1,2.86-1.48h0a2.51,2.51,0,0,1,1.89,3h0a2.51,2.51,0,0,1-.13.42h0a2.52,2.52,0,0,1-2.85,1.48h0A1.87,1.87,0,0,1,395.76,291.72Zm9.52,3.32h0l-.15-.06h0a2.52,2.52,0,0,1-1.22-3.23h0a.67.67,0,0,1,.06-.12h0a2.47,2.47,0,0,1,3.33-1.15h0a2.46,2.46,0,0,1,1.22,3.22h0l0,.11A2.5,2.5,0,0,1,405.28,295Z"/><path class="cls-1" d="M1280.09,763.07a11.58,11.58,0,1,0,15.11-6.31A11.58,11.58,0,0,0,1280.09,763.07Z"/><path class="cls-1" d="M1282.64,790.86h0a1.36,1.36,0,0,1-.77-1.7h0l0-.06h0a1.34,1.34,0,0,1,1.69-.77h0a1.36,1.36,0,0,1,.84,1.72h0l0,.07h0a1.35,1.35,0,0,1-1.69.76Zm-4.9-2.36h0a.84.84,0,0,1-.21-.11h0a1.35,1.35,0,0,1-.53-1.65h0a1.39,1.39,0,0,1,.11-.21h0a1.35,1.35,0,0,1,1.86-.42h0a1.36,1.36,0,0,1,.54,1.65h0a.88.88,0,0,1-.12.21A1.36,1.36,0,0,1,1277.74,788.5Zm10.2,3.53h0a1.37,1.37,0,0,1-.83-1.39h0a1.12,1.12,0,0,1,.09-.36h0a1.38,1.38,0,0,1,1.39-.85h0a1.36,1.36,0,0,1,1.21,1.49h0a1.12,1.12,0,0,1-.09.36h0a1.36,1.36,0,0,1-1.39.85A1.64,1.64,0,0,1,1287.94,792Zm-14.43-6.95h0a1.35,1.35,0,0,1-.45-.31h0a1.36,1.36,0,0,1-.28-1.47h0a1.67,1.67,0,0,1,.31-.44h0a1.33,1.33,0,0,1,1.9,0h0a1.31,1.31,0,0,1,.28,1.46h0a1.48,1.48,0,0,1-.3.45A1.39,1.39,0,0,1,1273.51,785.08Zm19.87,6.86h0a1.32,1.32,0,0,1-.82-1.07h0a1.24,1.24,0,0,1,.09-.69h0a1.32,1.32,0,0,1,1.07-.82h0a1.34,1.34,0,0,1,1.52,1.16h0a1.63,1.63,0,0,1-.09.69h0a1.37,1.37,0,0,1-1.08.82h0A1.48,1.48,0,0,1,1293.38,791.94Zm-23.18-11.17h0a1.27,1.27,0,0,1-.64-.55h0a1.34,1.34,0,0,1-.09-1.21h0a1.29,1.29,0,0,1,.55-.65h0a1.34,1.34,0,0,1,1.85.47h0a1.34,1.34,0,0,1,.1,1.21h0a1.38,1.38,0,0,1-.56.64A1.33,1.33,0,0,1,1270.2,780.77Zm28.45,9.83h0a1.3,1.3,0,0,1-.75-.77h0a1.38,1.38,0,0,1,0-1h0a1.42,1.42,0,0,1,.77-.75h0a1.37,1.37,0,0,1,1.74.79h0a1.28,1.28,0,0,1,0,1h0a1.35,1.35,0,0,1-.76.74A1.33,1.33,0,0,1,1298.65,790.6ZM1268,775.81h0a1.34,1.34,0,0,1-.78-.83h0a1.35,1.35,0,0,1,0-.91h0a1.38,1.38,0,0,1,.85-.8h0a1.37,1.37,0,0,1,1.7.89h0a1.35,1.35,0,0,1,0,.91h0a1.31,1.31,0,0,1-.84.78A1.26,1.26,0,0,1,1268,775.81Zm35.5,12.27h0a1.26,1.26,0,0,1-.61-.49h0a1.32,1.32,0,0,1-.13-1.26h0a1.28,1.28,0,0,1,.5-.61h0a1.35,1.35,0,0,1,1.88.35h0a1.41,1.41,0,0,1,.14,1.27h0a1.35,1.35,0,0,1-.5.61h0A1.32,1.32,0,0,1,1303.47,788.08Zm-36.54-17.6h0a1.35,1.35,0,0,1-.84-1.14h0a1.31,1.31,0,0,1,.1-.63h0a1.37,1.37,0,0,1,1.15-.83h0a1.37,1.37,0,0,1,1.45,1.25h0a1.58,1.58,0,0,1-.1.62h0a1.33,1.33,0,0,1-1.15.82A1.26,1.26,0,0,1,1266.93,770.48Zm40.65,14h0a1.25,1.25,0,0,1-.4-.26h0a1.35,1.35,0,0,1-.34-1.5h0a1.45,1.45,0,0,1,.26-.4h0a1.35,1.35,0,0,1,1.91-.08h0a1.36,1.36,0,0,1,.33,1.51h0a1.36,1.36,0,0,1-.25.39h0A1.35,1.35,0,0,1,1307.58,784.53Zm-40.43-19.48h0a1.34,1.34,0,0,1-.82-1.46h0a1,1,0,0,1,.08-.3h0a1.35,1.35,0,0,1,1.46-.83h0A1.37,1.37,0,0,1,1269,764h0a1.47,1.47,0,0,1-.08.28h0a1.36,1.36,0,0,1-1.47.83A1,1,0,0,1,1267.15,765.05Zm43.61,15.07h0l-.15-.07h0a1.33,1.33,0,0,1-.59-1.68h0l.07-.16h0a1.33,1.33,0,0,1,1.83-.52h0a1.36,1.36,0,0,1,.61,1.68h0c0,.06-.06.1-.08.15A1.34,1.34,0,0,1,1310.76,780.12Zm-42.14-20.3h0a1.36,1.36,0,0,1-.74-1.77h0l0,0h0l0,0h0a1.36,1.36,0,0,1,1.77-.73h0a1.35,1.35,0,0,1,.73,1.77h0l0,.06h0v0A1.35,1.35,0,0,1,1268.62,759.82Zm44.21,15.27h0a1.35,1.35,0,0,1-.78-1.62h0a1,1,0,0,1,0-.16h0a1.37,1.37,0,0,1,1.61-.77h0a1.35,1.35,0,0,1,.93,1.68h0a.64.64,0,0,1-.06.16h0a1.33,1.33,0,0,1-1.6.76ZM1271.31,755h0a1.91,1.91,0,0,1-.28-.15h0a1.37,1.37,0,0,1-.46-1.62h0a2.34,2.34,0,0,1,.15-.27h0a1.37,1.37,0,0,1,1.89-.31h0a1.36,1.36,0,0,1,.46,1.62h0a1.17,1.17,0,0,1-.15.27A1.36,1.36,0,0,1,1271.31,755Zm42.38,14.75h0a1.35,1.35,0,0,1-.83-1.31h0a1,1,0,0,1,.11-.46h0a1.35,1.35,0,0,1,1.3-.83h0a1.35,1.35,0,0,1,1.29,1.41h0a1.34,1.34,0,0,1-.1.45h0a1.37,1.37,0,0,1-1.3.84A1.4,1.4,0,0,1,1313.69,769.73ZM1275,751h0a1.35,1.35,0,0,1-.52-.37h0a1.34,1.34,0,0,1-.22-1.39h0a1.31,1.31,0,0,1,.37-.51h0a1.36,1.36,0,0,1,1.91.14h0a1.34,1.34,0,0,1,.22,1.39h0a1.24,1.24,0,0,1-.37.51A1.32,1.32,0,0,1,1275,751Zm38.31,13.33h0a1.36,1.36,0,0,1-.82-1h0a1.32,1.32,0,0,1,.08-.76h0a1.35,1.35,0,0,1,1-.83h0a1.35,1.35,0,0,1,1.58,1.08h0a1.35,1.35,0,0,1-.06.75h0a1.36,1.36,0,0,1-1,.83A1.41,1.41,0,0,1,1313.3,764.31Zm-33.82-16.38h0a1.32,1.32,0,0,1-.68-.62h0a1.36,1.36,0,0,1-.06-1.13h0a1.34,1.34,0,0,1,.64-.69h0a1.34,1.34,0,0,1,1.82.57h0a1.33,1.33,0,0,1,0,1.12h0a1.27,1.27,0,0,1-.63.7A1.34,1.34,0,0,1,1279.48,747.93Zm32.18,11.19h0a1.37,1.37,0,0,1-.73-.69h0a1.42,1.42,0,0,1,0-1.07h0a1.3,1.3,0,0,1,.7-.72h0a1.34,1.34,0,0,1,1.78.68h0a1.35,1.35,0,0,1,0,1.06h0a1.37,1.37,0,0,1-1.77.74ZM1284.57,746h0a1.37,1.37,0,0,1-.8-.93h0a1.37,1.37,0,0,1,.07-.85h0a1.32,1.32,0,0,1,.91-.79h0a1.36,1.36,0,0,1,1.64,1h0a1.37,1.37,0,0,1-.06.85h0a1.36,1.36,0,0,1-.92.79A1.33,1.33,0,0,1,1284.57,746Zm24.3,8.44h0a1.34,1.34,0,0,1-.56-.42h0a1.35,1.35,0,0,1-.17-1.35h0a1.4,1.4,0,0,1,.42-.55h0a1.35,1.35,0,0,1,1.9.25h0a1.37,1.37,0,0,1,.17,1.35h0a1.28,1.28,0,0,1-.42.54A1.36,1.36,0,0,1,1308.87,754.45ZM1290,745.29h0a1.35,1.35,0,0,1-.84-1.23h0a1.32,1.32,0,0,1,.1-.53h0a1.35,1.35,0,0,1,1.23-.84h0a1.35,1.35,0,0,1,1.37,1.33h0a1.24,1.24,0,0,1-.1.52h0a1.35,1.35,0,0,1-1.76.75Zm15.12,5.26h0a1.46,1.46,0,0,1-.33-.2h0a1.37,1.37,0,0,1-.41-1.56h0a1.57,1.57,0,0,1,.21-.34h0a1.35,1.35,0,0,1,1.9-.19h0a1.34,1.34,0,0,1,.4,1.55h0a1.33,1.33,0,0,1-1.77.74Zm-9.71-4.7h0a1.36,1.36,0,0,1-.81-1.55h0c0-.07,0-.15.07-.23h0a1.37,1.37,0,0,1,1.55-.79h0a1.35,1.35,0,0,1,1,1.61h0c0,.07,0,.15-.07.23h0a1.37,1.37,0,0,1-1.54.8h0Zm5.13,1.79h0l-.08,0h0a1.36,1.36,0,0,1-.66-1.74h0l0-.06h0a1.33,1.33,0,0,1,1.79-.63h0a1.33,1.33,0,0,1,.66,1.74h0l0,.06A1.37,1.37,0,0,1,1300.5,747.64Z"/><circle class="cls-1" cx="356.33" cy="722.15" r="26.58" transform="translate(-406.27 463.48) rotate(-45)"/><path class="cls-1" d="M337.59,775.84h0a3.12,3.12,0,0,1-1.75-3.89h0l.06-.16h0a3.08,3.08,0,0,1,3.88-1.76h0a3.12,3.12,0,0,1,1.93,4h0l-.06.15h0a3.09,3.09,0,0,1-3.89,1.75A.47.47,0,0,1,337.59,775.84Zm-11.24-5.43h0a2.22,2.22,0,0,1-.49-.24h0a3.13,3.13,0,0,1-1.21-3.78h0a2.42,2.42,0,0,1,.27-.5h0a3.07,3.07,0,0,1,4.26-.95h0a3.11,3.11,0,0,1,1.23,3.79h0a2.49,2.49,0,0,1-.26.48A3.09,3.09,0,0,1,326.35,770.41Zm23.42,8.11h0a3.13,3.13,0,0,1-1.91-3.18h0a2.89,2.89,0,0,1,.21-.83h0a3.13,3.13,0,0,1,3.19-2h0A3.12,3.12,0,0,1,354,776h0a2.47,2.47,0,0,1-.2.81h0a3.08,3.08,0,0,1-3.19,2A3.18,3.18,0,0,1,349.77,778.52Zm-33.12-16h0a3.27,3.27,0,0,1-1-.69h0a3.12,3.12,0,0,1-.65-3.37h0a3.45,3.45,0,0,1,.71-1h0a3.08,3.08,0,0,1,4.37.07h0a3.07,3.07,0,0,1,.64,3.35h0a3.37,3.37,0,0,1-.69,1A3.11,3.11,0,0,1,316.65,762.56Zm45.61,15.77h0a3.11,3.11,0,0,1-1.9-2.46h0a3,3,0,0,1,.21-1.59h0a3.11,3.11,0,0,1,2.45-1.9h0a3.1,3.1,0,0,1,3.49,2.67h0a3.08,3.08,0,0,1-.21,1.59h0a3.1,3.1,0,0,1-2.47,1.89h0A3.37,3.37,0,0,1,362.26,778.33ZM309,752.69h0a3.13,3.13,0,0,1-1.47-1.28h0a3.11,3.11,0,0,1-.2-2.76h0a3,3,0,0,1,1.26-1.5h0a3.08,3.08,0,0,1,4.25,1.08h0a3,3,0,0,1,.23,2.77h0a3.15,3.15,0,0,1-4.07,1.69Zm65.3,22.56h0a3,3,0,0,1-1.7-1.78h0a3,3,0,0,1,0-2.29h0a3.13,3.13,0,0,1,1.75-1.71h0a3.11,3.11,0,0,1,4,1.79h0a3.05,3.05,0,0,1,0,2.32h0a3.12,3.12,0,0,1-4,1.67Zm-70.42-33.94h0a3.14,3.14,0,0,1-1.78-1.92h0a3.11,3.11,0,0,1,.08-2.09h0a3.16,3.16,0,0,1,1.93-1.82h0a3.13,3.13,0,0,1,3.91,2h0a3.08,3.08,0,0,1-.08,2.1h0a3.11,3.11,0,0,1-1.94,1.79A3.08,3.08,0,0,1,303.92,741.31Zm81.49,28.16h0a3.11,3.11,0,0,1-1.39-1.13h0a3.07,3.07,0,0,1-.31-2.9h0a3,3,0,0,1,1.14-1.41v0a3.07,3.07,0,0,1,4.29.8h0a3.14,3.14,0,0,1,.33,2.91h0a3.17,3.17,0,0,1-1.14,1.41h0A3.09,3.09,0,0,1,385.41,769.47Zm-83.87-40.41h0a3.07,3.07,0,0,1-1.92-2.62h0a3.19,3.19,0,0,1,.23-1.45h0a3.12,3.12,0,0,1,2.64-1.89h0A3.08,3.08,0,0,1,305.8,726h0a3.1,3.1,0,0,1-.22,1.43h0a3.1,3.1,0,0,1-2.64,1.89A3,3,0,0,1,301.54,729.06Zm93.3,32.26h0a3.12,3.12,0,0,1-.91-.6h0a3.09,3.09,0,0,1-.78-3.45h0a3.14,3.14,0,0,1,.58-.93h0a3.1,3.1,0,0,1,4.39-.18h0a3.11,3.11,0,0,1,.77,3.47h0a3.33,3.33,0,0,1-.57.9h0A3.11,3.11,0,0,1,394.84,761.32ZM302.05,716.6h0a3.11,3.11,0,0,1-1.89-3.35h0a3.38,3.38,0,0,1,.19-.68h0a3.08,3.08,0,0,1,3.36-1.91h0a3.11,3.11,0,0,1,2.58,3.56h0a4.7,4.7,0,0,1-.18.67h0a3.12,3.12,0,0,1-4.06,1.71Zm100.08,34.59h0l-.33-.16h0a3.08,3.08,0,0,1-1.37-3.87h0a3.7,3.7,0,0,1,.17-.35h0a3.08,3.08,0,0,1,4.21-1.2h0a3.09,3.09,0,0,1,1.38,3.85h0c-.05.14-.12.24-.16.36A3.11,3.11,0,0,1,402.13,751.19Zm-96.71-46.6h0a3.1,3.1,0,0,1-1.69-4.05h0l0-.09h0l.05-.12h0a3.12,3.12,0,0,1,4.06-1.68h0a3.1,3.1,0,0,1,1.67,4.06h0l-.07.15h0v0A3.1,3.1,0,0,1,305.42,704.59ZM406.9,739.65h0a3.11,3.11,0,0,1-1.81-3.72h0c0-.12.09-.25.13-.37h0a3.12,3.12,0,0,1,3.7-1.77h0a3.1,3.1,0,0,1,2.13,3.85h0a1.82,1.82,0,0,1-.13.37h0a3.07,3.07,0,0,1-3.69,1.75A2.12,2.12,0,0,1,406.9,739.65Zm-95.31-46.16h0a3.38,3.38,0,0,1-.64-.35h0a3.14,3.14,0,0,1-1-3.72h0a3.65,3.65,0,0,1,.34-.61h0a3.14,3.14,0,0,1,4.34-.71h0a3.13,3.13,0,0,1,1,3.72h0a2.65,2.65,0,0,1-.34.62A3.13,3.13,0,0,1,311.59,693.49Zm97.28,33.85h0a3.13,3.13,0,0,1-1.92-3h0a2.8,2.8,0,0,1,.26-1.05h0a3.07,3.07,0,0,1,3-1.9h0a3.11,3.11,0,0,1,3,3.23h0a3.22,3.22,0,0,1-.23,1h0a3.17,3.17,0,0,1-3,1.92A3.4,3.4,0,0,1,408.87,727.34Zm-88.83-43h0a3.13,3.13,0,0,1-1.18-.84h0a3.11,3.11,0,0,1-.51-3.21h0a3,3,0,0,1,.84-1.17h0a3.11,3.11,0,0,1,4.38.32h0a3.1,3.1,0,0,1,.51,3.21h0a2.76,2.76,0,0,1-.86,1.16A3.08,3.08,0,0,1,320,684.31ZM408,714.9h0a3.14,3.14,0,0,1-1.88-2.3h0a3.07,3.07,0,0,1,.18-1.73h0a3.09,3.09,0,0,1,2.28-1.91h0a3.11,3.11,0,0,1,3.63,2.48h0a3.27,3.27,0,0,1-.15,1.73h0a3.13,3.13,0,0,1-2.3,1.89A3.07,3.07,0,0,1,408,714.9Zm-77.61-37.6h0a3,3,0,0,1-1.56-1.42h0a3.08,3.08,0,0,1-.15-2.58h0a3.15,3.15,0,0,1,1.46-1.6h0a3.08,3.08,0,0,1,4.18,1.32h0a3,3,0,0,1,.12,2.57h0a2.93,2.93,0,0,1-1.44,1.6A3.07,3.07,0,0,1,330.36,677.3ZM404.21,703h0a3.14,3.14,0,0,1-1.67-1.6h0a3.07,3.07,0,0,1,0-2.45h0a3,3,0,0,1,1.59-1.65h0a3.09,3.09,0,0,1,4.1,1.55h0a3.05,3.05,0,0,1,.05,2.44h0a3.13,3.13,0,0,1-4.05,1.71ZM342,672.89h0a3.12,3.12,0,0,1-1.84-2.12h0a3.09,3.09,0,0,1,.16-1.95h0a3.07,3.07,0,0,1,2.09-1.82h0a3.12,3.12,0,0,1,3.77,2.24h0a3.17,3.17,0,0,1-.13,2h0A3.21,3.21,0,0,1,344,673,3.11,3.11,0,0,1,342,672.89Zm55.76,19.38h0a3.18,3.18,0,0,1-1.27-1h0a3.07,3.07,0,0,1-.39-3.09h0a3.12,3.12,0,0,1,1-1.27h0a3.11,3.11,0,0,1,4.35.57h0a3.14,3.14,0,0,1,.4,3.1h0a2.88,2.88,0,0,1-1,1.25A3.1,3.1,0,0,1,397.79,692.27Zm-43.39-21h0a3.11,3.11,0,0,1-1.93-2.82h0a3.13,3.13,0,0,1,.23-1.2h0a3.12,3.12,0,0,1,2.83-2h0a3.13,3.13,0,0,1,3.15,3.06h0a3.13,3.13,0,0,1-.23,1.2h0a3.07,3.07,0,0,1-4.05,1.71Zm34.71,12.08h0a3.08,3.08,0,0,1-.77-.46h0a3.15,3.15,0,0,1-.93-3.57h0a3,3,0,0,1,.48-.79h0a3.1,3.1,0,0,1,4.37-.44h0a3.08,3.08,0,0,1,.91,3.55h0a3,3,0,0,1-.47.81A3.12,3.12,0,0,1,389.11,683.32Zm-22.3-10.8h0A3.09,3.09,0,0,1,365,669h0a3.72,3.72,0,0,1,.16-.51h0a3.11,3.11,0,0,1,3.55-1.83h0a3.11,3.11,0,0,1,2.34,3.71h0c0,.16-.1.34-.17.51h0a3.11,3.11,0,0,1-3.52,1.84h0A3.22,3.22,0,0,1,366.81,672.52Zm11.79,4.11h0l-.19-.08h0a3.12,3.12,0,0,1-1.51-4h0a.46.46,0,0,1,.09-.15h0a3.06,3.06,0,0,1,4.12-1.43h0a3.07,3.07,0,0,1,1.51,4h0l-.06.14A3.1,3.1,0,0,1,378.6,676.63Z"/><path class="cls-1" d="M149.88,278.12a26.58,26.58,0,1,0,34.69-14.48A26.58,26.58,0,0,0,149.88,278.12Z"/><path class="cls-1" d="M155.73,341.91h0A3.12,3.12,0,0,1,154,338h0l.07-.15h0a3.07,3.07,0,0,1,3.87-1.76h0a3.11,3.11,0,0,1,1.93,3.94h0l-.06.16h0a3.1,3.1,0,0,1-3.89,1.75A.38.38,0,0,1,155.73,341.91Zm-11.25-5.43h0a2.22,2.22,0,0,1-.49-.24h0a3.14,3.14,0,0,1-1.21-3.79h0a2.62,2.62,0,0,1,.27-.49h0a3.07,3.07,0,0,1,4.26-.95h0a3.11,3.11,0,0,1,1.23,3.79h0a2.16,2.16,0,0,1-.26.47A3.09,3.09,0,0,1,144.48,336.48Zm23.42,8.1h0a3.12,3.12,0,0,1-1.91-3.17h0a2.81,2.81,0,0,1,.21-.83h0a3.12,3.12,0,0,1,3.19-1.95h0a3.12,3.12,0,0,1,2.78,3.41h0a3.08,3.08,0,0,1-.2.82h0a3.11,3.11,0,0,1-3.2,1.95A3.19,3.19,0,0,1,167.9,344.58Zm-33.12-15.95h0a3.27,3.27,0,0,1-1-.69h0a3.14,3.14,0,0,1-.65-3.38h0a3.74,3.74,0,0,1,.71-1h0a3.06,3.06,0,0,1,4.37.07h0a3,3,0,0,1,.64,3.35h0a3.22,3.22,0,0,1-.69,1A3.13,3.13,0,0,1,134.78,328.63Zm45.61,15.76h0a3.08,3.08,0,0,1-1.9-2.45h0a3,3,0,0,1,.21-1.59h0a3.11,3.11,0,0,1,2.45-1.9h0a3.09,3.09,0,0,1,3.49,2.66h0a3.16,3.16,0,0,1-.2,1.59h0a3.15,3.15,0,0,1-2.48,1.9h0A3.25,3.25,0,0,1,180.39,344.39Zm-53.22-25.64h0a3.11,3.11,0,0,1-1.47-1.27h0a3.13,3.13,0,0,1-.2-2.77h0a3,3,0,0,1,1.26-1.49h0A3.08,3.08,0,0,1,131,314.3h0a3,3,0,0,1,.23,2.77h0a3.13,3.13,0,0,1-4.07,1.68Zm65.3,22.56h0a3,3,0,0,1-1.7-1.77h0a3,3,0,0,1,0-2.29h0a3.11,3.11,0,0,1,1.75-1.72h0a3.13,3.13,0,0,1,4,1.8h0a3.07,3.07,0,0,1,0,2.31h0a3,3,0,0,1-1.75,1.7A3.12,3.12,0,0,1,192.47,341.31Zm-70.41-33.94h0a3.1,3.1,0,0,1-1.79-1.92h0a3.11,3.11,0,0,1,.08-2.09h0a3.19,3.19,0,0,1,1.93-1.82h0a3.14,3.14,0,0,1,3.91,2h0a3.05,3.05,0,0,1-.08,2.09h0a3.1,3.1,0,0,1-1.94,1.8A3,3,0,0,1,122.06,307.37Zm81.48,28.16h0a3,3,0,0,1-1.39-1.13h0a3,3,0,0,1-.3-2.89h0A3,3,0,0,1,203,330.1v0a3.07,3.07,0,0,1,4.29.8h0a3.11,3.11,0,0,1,.33,2.91h0a3.23,3.23,0,0,1-1.14,1.41h0A3.09,3.09,0,0,1,203.54,335.53Zm-83.87-40.41h0a3.09,3.09,0,0,1-1.92-2.62h0a3.17,3.17,0,0,1,.23-1.44h0a3.12,3.12,0,0,1,2.64-1.89h0a3.08,3.08,0,0,1,3.31,2.86h0a3.08,3.08,0,0,1-.22,1.42h0a3.07,3.07,0,0,1-2.64,1.89A2.8,2.8,0,0,1,119.67,295.12ZM213,327.38h0a2.77,2.77,0,0,1-.91-.6h0a3.07,3.07,0,0,1-.78-3.44h0a3.36,3.36,0,0,1,.58-.93h0a3.1,3.1,0,0,1,4.39-.18h0a3.1,3.1,0,0,1,.77,3.46h0a3,3,0,0,1-.57.91h0A3.12,3.12,0,0,1,213,327.38Zm-92.79-44.72h0a3.09,3.09,0,0,1-1.89-3.34h0a3.3,3.3,0,0,1,.19-.69h0a3.08,3.08,0,0,1,3.36-1.9h0a3.1,3.1,0,0,1,2.58,3.56h0a4.57,4.57,0,0,1-.18.66h0a3.11,3.11,0,0,1-3.38,1.9A2.64,2.64,0,0,1,120.18,282.66Zm100.08,34.6h0c-.11-.05-.22-.12-.33-.16h0a3.09,3.09,0,0,1-1.37-3.87h0a3.82,3.82,0,0,1,.17-.36h0a3.1,3.1,0,0,1,4.21-1.2h0a3.11,3.11,0,0,1,1.38,3.86h0c0,.13-.12.24-.16.35A3.1,3.1,0,0,1,220.26,317.26Zm-96.71-46.6h0a3.1,3.1,0,0,1-1.69-4.05h0l0-.1h0l0-.11h0a3.12,3.12,0,0,1,4.06-1.68h0a3.1,3.1,0,0,1,1.67,4.06h0s0,.09-.07.15h0v0A3.11,3.11,0,0,1,123.55,270.66Zm101.48,35h0a3.1,3.1,0,0,1-1.81-3.71h0c0-.12.09-.26.13-.37h0a3.12,3.12,0,0,1,3.7-1.77h0a3.1,3.1,0,0,1,2.13,3.85h0a2.05,2.05,0,0,1-.13.37h0a3.08,3.08,0,0,1-3.69,1.75A2.09,2.09,0,0,1,225,305.71Zm-95.31-46.15h0a3,3,0,0,1-.64-.36h0a3.12,3.12,0,0,1-1-3.71h0a5.36,5.36,0,0,1,.34-.62h0a3.14,3.14,0,0,1,4.34-.7h0a3.11,3.11,0,0,1,1,3.71h0a2.47,2.47,0,0,1-.34.62A3.12,3.12,0,0,1,129.72,259.56ZM227,293.4h0a3.12,3.12,0,0,1-1.92-3h0a2.9,2.9,0,0,1,.26-1.06h0a3.1,3.1,0,0,1,3-1.9h0a3.1,3.1,0,0,1,3,3.23h0a3.28,3.28,0,0,1-.23,1.05h0A3.1,3.1,0,0,1,227,293.4Zm-88.83-43h0a3.09,3.09,0,0,1-1.18-.84h0a3.09,3.09,0,0,1-.51-3.2h0a3.09,3.09,0,0,1,.84-1.18h0a3.11,3.11,0,0,1,4.38.33h0a3.06,3.06,0,0,1,.51,3.2h0a2.85,2.85,0,0,1-.86,1.17A3.05,3.05,0,0,1,138.17,250.37ZM226.1,281h0a3.07,3.07,0,0,1-1.87-2.29h0a3.11,3.11,0,0,1,.17-1.74h0a3.1,3.1,0,0,1,2.28-1.9h0a3.1,3.1,0,0,1,3.63,2.48h0a3.22,3.22,0,0,1-.15,1.72h0a3.12,3.12,0,0,1-2.3,1.9A3.07,3.07,0,0,1,226.1,281Zm-77.61-37.59h0a3,3,0,0,1-1.56-1.42h0a3.1,3.1,0,0,1-.15-2.59h0a3.13,3.13,0,0,1,1.46-1.59h0a3.07,3.07,0,0,1,4.18,1.31h0a3,3,0,0,1,.12,2.58h0a3,3,0,0,1-1.44,1.6A3.1,3.1,0,0,1,148.49,243.37Zm73.85,25.7h0a3.13,3.13,0,0,1-1.67-1.61h0a3,3,0,0,1,0-2.44h0a3,3,0,0,1,1.59-1.65h0a3.08,3.08,0,0,1,4.1,1.55h0a3.05,3.05,0,0,1,0,2.44h0a3.13,3.13,0,0,1-4,1.71ZM160.16,239h0a3.12,3.12,0,0,1-1.84-2.12h0a3.07,3.07,0,0,1,.16-2h0a3,3,0,0,1,2.09-1.82h0a3.12,3.12,0,0,1,3.77,2.24h0a3.19,3.19,0,0,1-.13,2h0a3.17,3.17,0,0,1-2.11,1.81A3.11,3.11,0,0,1,160.16,239Zm55.76,19.38h0a3.46,3.46,0,0,1-1.27-1h0a3.07,3.07,0,0,1-.39-3.09h0a3.15,3.15,0,0,1,1-1.28h0a3.11,3.11,0,0,1,4.35.58h0a3.14,3.14,0,0,1,.4,3.1h0a2.94,2.94,0,0,1-1,1.25A3.13,3.13,0,0,1,215.92,258.34Zm-43.39-21h0a3.13,3.13,0,0,1-1.93-2.83h0a3.17,3.17,0,0,1,.23-1.2h0a3.11,3.11,0,0,1,2.83-1.94h0a3.12,3.12,0,0,1,3.15,3.06h0a3.17,3.17,0,0,1-.23,1.2h0a3.09,3.09,0,0,1-2.83,1.94A3,3,0,0,1,172.53,237.31Zm34.71,12.07h0a3.22,3.22,0,0,1-.77-.45h0a3.13,3.13,0,0,1-.92-3.57h0a2.75,2.75,0,0,1,.48-.79h0a3.09,3.09,0,0,1,4.36-.44h0a3.08,3.08,0,0,1,.91,3.55h0a3.16,3.16,0,0,1-.47.81A3.1,3.1,0,0,1,207.24,249.38Zm-22.3-10.79h0A3.1,3.1,0,0,1,183.1,235h0a3.45,3.45,0,0,1,.16-.52h0a3.14,3.14,0,0,1,3.55-1.83h0a3.11,3.11,0,0,1,2.34,3.72h0a3.81,3.81,0,0,1-.17.51h0a3.12,3.12,0,0,1-3.52,1.84h0Zm11.8,4.11h0l-.2-.08h0a3.13,3.13,0,0,1-1.51-4h0a.42.42,0,0,1,.09-.14h0a3.06,3.06,0,0,1,4.12-1.44h0a3.07,3.07,0,0,1,1.51,4h0l-.06.13A3.09,3.09,0,0,1,196.74,242.7Z"/><path class="cls-1" d="M259.23,625.74a18,18,0,1,0,23.51-9.82A18,18,0,0,0,259.23,625.74Z"/><path class="cls-1" d="M263.19,669h0a2.12,2.12,0,0,1-1.19-2.64h0l0-.1h0a2.08,2.08,0,0,1,2.63-1.19h0a2.11,2.11,0,0,1,1.31,2.67h0l0,.11h0A2.1,2.1,0,0,1,263.3,669,.2.2,0,0,1,263.19,669Zm-7.63-3.67h0a2.48,2.48,0,0,1-.32-.17h0a2.13,2.13,0,0,1-.83-2.57h0a2.68,2.68,0,0,1,.18-.33h0a2.09,2.09,0,0,1,2.89-.65h0a2.13,2.13,0,0,1,.84,2.57h0a1.52,1.52,0,0,1-.18.33A2.11,2.11,0,0,1,255.56,665.31Zm15.89,5.49h0a2.12,2.12,0,0,1-1.3-2.15h0a1.77,1.77,0,0,1,.14-.57h0a2.11,2.11,0,0,1,2.16-1.32h0a2.13,2.13,0,0,1,1.89,2.32h0a2,2,0,0,1-.14.55h0A2.1,2.1,0,0,1,272,671,2.22,2.22,0,0,1,271.45,670.8ZM249,660h0a2,2,0,0,1-.7-.47h0a2.11,2.11,0,0,1-.44-2.28h0a2.42,2.42,0,0,1,.48-.7h0a2.08,2.08,0,0,1,3,.05h0a2.07,2.07,0,0,1,.43,2.27h0a2.21,2.21,0,0,1-.47.7A2.11,2.11,0,0,1,249,660Zm30.92,10.69h0a2.12,2.12,0,0,1-1.29-1.66h0a2.14,2.14,0,0,1,.14-1.08h0a2.12,2.12,0,0,1,1.67-1.29h0a2.09,2.09,0,0,1,2.36,1.81h0a2.11,2.11,0,0,1-.14,1.08h0a2.12,2.12,0,0,1-1.67,1.28h0A2.27,2.27,0,0,1,279.91,670.67Zm-36.08-17.38h0a2.13,2.13,0,0,1-1-.87h0a2.07,2.07,0,0,1-.14-1.87h0a2,2,0,0,1,.85-1h0a2.1,2.1,0,0,1,2.89.73h0a2.09,2.09,0,0,1,.15,1.88h0a2.06,2.06,0,0,1-.87,1A2.11,2.11,0,0,1,243.83,653.29Zm44.27,15.29h0a2,2,0,0,1-1.15-1.2h0a2.07,2.07,0,0,1,0-1.55h0a2.17,2.17,0,0,1,1.19-1.17h0a2.13,2.13,0,0,1,2.72,1.22h0a2.08,2.08,0,0,1,0,1.57h0a2.1,2.1,0,0,1-2.74,1.13Zm-47.74-23h0a2.14,2.14,0,0,1-1.21-1.3h0a2.15,2.15,0,0,1,0-1.42h0a2.15,2.15,0,0,1,1.32-1.23h0a2.11,2.11,0,0,1,2.64,1.37h0a2.09,2.09,0,0,1,0,1.42h0a2.11,2.11,0,0,1-1.32,1.22A2.06,2.06,0,0,1,240.36,645.57Zm55.25,19.09h0a2,2,0,0,1-.94-.76h0a2.07,2.07,0,0,1-.21-2h0a2,2,0,0,1,.77-.95h0a2.08,2.08,0,0,1,2.91.55h0a2.14,2.14,0,0,1,.22,2h0a2.15,2.15,0,0,1-.77,1h0A2.07,2.07,0,0,1,295.61,664.66Zm-56.87-27.39h0a2.12,2.12,0,0,1-1.3-1.78h0a2.27,2.27,0,0,1,.16-1h0a2.1,2.1,0,0,1,1.79-1.28h0a2.1,2.1,0,0,1,2.25,1.94h0a2.18,2.18,0,0,1-.16,1h0a2.11,2.11,0,0,1-2.74,1.14ZM302,659.14h0a1.91,1.91,0,0,1-.62-.41h0a2.09,2.09,0,0,1-.52-2.34h0a2.15,2.15,0,0,1,.39-.62h0a2.11,2.11,0,0,1,3-.13h0a2.13,2.13,0,0,1,.52,2.35h0a2,2,0,0,1-.39.61h0A2.11,2.11,0,0,1,302,659.14Zm-62.91-30.32h0a2.1,2.1,0,0,1-1.28-2.27h0a2.06,2.06,0,0,1,.13-.46h0a2.09,2.09,0,0,1,2.27-1.3h0a2.11,2.11,0,0,1,1.75,2.42h0a2.3,2.3,0,0,1-.12.45h0a2.12,2.12,0,0,1-2.29,1.29A1.86,1.86,0,0,1,239.09,628.82ZM307,652.27h0l-.23-.11h0a2.09,2.09,0,0,1-.93-2.62h0c0-.08.07-.16.12-.24h0a2.08,2.08,0,0,1,2.85-.81h0a2.1,2.1,0,0,1,.94,2.61h0c0,.09-.08.16-.11.24A2.11,2.11,0,0,1,307,652.27Zm-65.57-31.59h0a2.11,2.11,0,0,1-1.15-2.75h0l0-.06h0l0-.08h0a2.12,2.12,0,0,1,2.76-1.14h0a2.09,2.09,0,0,1,1.12,2.75h0l0,.11h0v0A2.1,2.1,0,0,1,241.38,620.68Zm68.8,23.77h0a2.11,2.11,0,0,1-1.23-2.52h0a1.45,1.45,0,0,1,.09-.25h0a2.11,2.11,0,0,1,2.51-1.2h0a2.09,2.09,0,0,1,1.44,2.61h0a1.52,1.52,0,0,1-.09.25h0a2.08,2.08,0,0,1-2.5,1.18Zm-64.62-31.3h0a1.86,1.86,0,0,1-.43-.24h0a2.12,2.12,0,0,1-.71-2.52h0a4.36,4.36,0,0,1,.23-.42h0a2.13,2.13,0,0,1,2.94-.47h0a2.12,2.12,0,0,1,.71,2.52h0a2.18,2.18,0,0,1-.24.42A2.1,2.1,0,0,1,245.56,613.15Zm66,23h0a2.13,2.13,0,0,1-1.31-2h0a1.86,1.86,0,0,1,.18-.71h0a2.09,2.09,0,0,1,2-1.29h0a2.1,2.1,0,0,1,2,2.19h0a2.37,2.37,0,0,1-.16.71h0a2.16,2.16,0,0,1-2,1.3A2.11,2.11,0,0,1,311.52,636.1Zm-60.24-29.17h0a2.19,2.19,0,0,1-.79-.57h0a2.13,2.13,0,0,1-.35-2.18h0a2.11,2.11,0,0,1,.57-.8h0a2.12,2.12,0,0,1,3,.23h0a2.08,2.08,0,0,1,.35,2.17h0a1.93,1.93,0,0,1-.58.79A2.12,2.12,0,0,1,251.28,606.93Zm59.62,20.73h0a2.1,2.1,0,0,1-1.27-1.55h0a2.15,2.15,0,0,1,.12-1.18h0a2.09,2.09,0,0,1,1.55-1.29h0a2.1,2.1,0,0,1,2.46,1.68h0a2.31,2.31,0,0,1-.1,1.17h0a2.14,2.14,0,0,1-1.56,1.29A2.11,2.11,0,0,1,310.9,627.66Zm-52.62-25.48h0a2.08,2.08,0,0,1-1.06-1h0a2.11,2.11,0,0,1-.09-1.75h0a2.08,2.08,0,0,1,1-1.08h0a2.08,2.08,0,0,1,2.83.89h0A2,2,0,0,1,261,601h0a2,2,0,0,1-1,1.08A2.1,2.1,0,0,1,258.28,602.18Zm50.07,17.42h0a2.11,2.11,0,0,1-1.13-1.09h0a2.08,2.08,0,0,1,0-1.66h0a2,2,0,0,1,1.08-1.11h0a2.09,2.09,0,0,1,2.78,1h0a2.06,2.06,0,0,1,0,1.65h0a2.14,2.14,0,0,1-2.75,1.16ZM266.2,599.19h0a2.13,2.13,0,0,1-1.25-1.44h0a2.11,2.11,0,0,1,.11-1.32h0a2.07,2.07,0,0,1,1.41-1.24h0a2.11,2.11,0,0,1,2.56,1.52h0a2.07,2.07,0,0,1-.09,1.33h0a2.16,2.16,0,0,1-1.43,1.23A2.08,2.08,0,0,1,266.2,599.19ZM304,612.33h0a2.37,2.37,0,0,1-.86-.66h0a2.11,2.11,0,0,1-.26-2.1h0a2,2,0,0,1,.66-.86h0a2.1,2.1,0,0,1,2.94.39h0a2.13,2.13,0,0,1,.28,2.1h0a2.19,2.19,0,0,1-.67.85A2.14,2.14,0,0,1,304,612.33Zm-29.42-14.26h0a2.11,2.11,0,0,1-1.3-1.92h0a2,2,0,0,1,.15-.81h0a2.11,2.11,0,0,1,1.92-1.32h0a2.11,2.11,0,0,1,2.13,2.07h0a2,2,0,0,1-.15.82h0a2.11,2.11,0,0,1-1.92,1.32A2.31,2.31,0,0,1,274.58,598.07Zm23.54,8.18h0a2.37,2.37,0,0,1-.53-.3h0a2.15,2.15,0,0,1-.62-2.43h0a2,2,0,0,1,.32-.53h0a2.1,2.1,0,0,1,3-.3h0a2.09,2.09,0,0,1,.62,2.41h0a2.19,2.19,0,0,1-.32.55A2.11,2.11,0,0,1,298.12,606.25ZM283,598.94h0a2.1,2.1,0,0,1-1.25-2.41h0a2.79,2.79,0,0,1,.11-.35h0a2.11,2.11,0,0,1,2.4-1.24h0a2.1,2.1,0,0,1,1.59,2.51h0a2.35,2.35,0,0,1-.11.35h0a2.12,2.12,0,0,1-2.39,1.25h0Zm8,2.78h0l-.12-.05h0a2.11,2.11,0,0,1-1-2.71h0a.33.33,0,0,1,.06-.1h0a2.07,2.07,0,0,1,2.79-1h0a2.07,2.07,0,0,1,1,2.71h0l0,.09A2.1,2.1,0,0,1,291,601.72Z"/><path class="cls-1" d="M1321.86,450.78a11,11,0,1,0,14.29-6A10.95,10.95,0,0,0,1321.86,450.78Z"/><path class="cls-1" d="M1324.27,477.06h0a1.27,1.27,0,0,1-.73-1.6h0l0-.06h0a1.26,1.26,0,0,1,1.6-.73h0a1.28,1.28,0,0,1,.79,1.63h0l0,.06h0a1.28,1.28,0,0,1-1.61.72Zm-4.64-2.23h0l-.2-.1h0a1.3,1.3,0,0,1-.5-1.56h0a1.28,1.28,0,0,1,.11-.2h0a1.27,1.27,0,0,1,1.76-.4h0a1.3,1.3,0,0,1,.51,1.57h0a1.18,1.18,0,0,1-.11.19A1.29,1.29,0,0,1,1319.63,474.83Zm9.65,3.34h0a1.28,1.28,0,0,1-.78-1.31h0a1.3,1.3,0,0,1,.08-.34h0a1.3,1.3,0,0,1,1.32-.81h0a1.29,1.29,0,0,1,1.14,1.41h0a1.3,1.3,0,0,1-.08.34h0a1.28,1.28,0,0,1-1.32.8A1.46,1.46,0,0,1,1329.28,478.17Zm-13.64-6.58h0a1.33,1.33,0,0,1-.43-.28h0a1.31,1.31,0,0,1-.27-1.39h0a1.4,1.4,0,0,1,.3-.42h0a1.25,1.25,0,0,1,1.8,0h0a1.25,1.25,0,0,1,.26,1.38h0a1.25,1.25,0,0,1-1.66.68Zm18.79,6.5h0a1.27,1.27,0,0,1-.78-1h0a1.21,1.21,0,0,1,.08-.66h0a1.3,1.3,0,0,1,1-.78h0a1.27,1.27,0,0,1,1.44,1.1h0a1.3,1.3,0,0,1-.08.65h0a1.28,1.28,0,0,1-1,.78h0A1.41,1.41,0,0,1,1334.43,478.09Zm-21.93-10.57h0a1.26,1.26,0,0,1-.6-.52h0a1.29,1.29,0,0,1-.09-1.14h0a1.26,1.26,0,0,1,.52-.62h0a1.27,1.27,0,0,1,1.75.45h0a1.22,1.22,0,0,1,.1,1.14h0a1.23,1.23,0,0,1-.53.6A1.27,1.27,0,0,1,1312.5,467.52Zm26.91,9.3h0a1.2,1.2,0,0,1-.7-.73h0a1.25,1.25,0,0,1,0-.95h0a1.27,1.27,0,0,1,.72-.7h0a1.29,1.29,0,0,1,1.65.74h0a1.25,1.25,0,0,1,0,.95h0a1.24,1.24,0,0,1-.72.7A1.27,1.27,0,0,1,1339.41,476.82Zm-29-14h0a1.23,1.23,0,0,1-.73-.79h0a1.27,1.27,0,0,1,0-.86h0a1.32,1.32,0,0,1,.8-.75h0a1.3,1.3,0,0,1,1.61.84h0a1.27,1.27,0,0,1,0,.86h0a1.28,1.28,0,0,1-.8.74A1.24,1.24,0,0,1,1310.39,462.83ZM1344,474.44h0a1.18,1.18,0,0,1-.57-.47h0a1.24,1.24,0,0,1-.13-1.19h0a1.24,1.24,0,0,1,.47-.58h0a1.26,1.26,0,0,1,1.77.33h0a1.29,1.29,0,0,1,.13,1.2h0a1.31,1.31,0,0,1-.47.58h0A1.29,1.29,0,0,1,1344,474.44Zm-34.56-16.65h0a1.27,1.27,0,0,1-.79-1.08h0a1.21,1.21,0,0,1,.1-.6h0a1.29,1.29,0,0,1,1.08-.78h0a1.28,1.28,0,0,1,1.37,1.18h0a1.29,1.29,0,0,1-.1.59h0a1.28,1.28,0,0,1-1.08.78A1.27,1.27,0,0,1,1309.41,457.79Zm38.45,13.29h0a1,1,0,0,1-.38-.25h0a1.27,1.27,0,0,1-.32-1.42h0a1.42,1.42,0,0,1,.24-.38h0a1.27,1.27,0,0,1,1.81-.07h0a1.27,1.27,0,0,1,.31,1.42h0a1.25,1.25,0,0,1-.23.38h0A1.27,1.27,0,0,1,1347.86,471.08Zm-38.24-18.43h0a1.29,1.29,0,0,1-.78-1.38h0a2.29,2.29,0,0,1,.08-.28h0a1.27,1.27,0,0,1,1.38-.78h0a1.29,1.29,0,0,1,1.07,1.47h0a1.38,1.38,0,0,1-.08.27h0a1.28,1.28,0,0,1-1.39.78A1,1,0,0,1,1309.62,452.65Zm41.24,14.26h0l-.14-.07h0a1.27,1.27,0,0,1-.56-1.59h0a1,1,0,0,1,.07-.15h0a1.26,1.26,0,0,1,1.73-.49h0a1.27,1.27,0,0,1,.57,1.59h0l-.07.14A1.28,1.28,0,0,1,1350.86,466.91ZM1311,447.71h0a1.28,1.28,0,0,1-.7-1.67h0l0,0h0l0-.05h0a1.28,1.28,0,0,1,1.67-.69h0a1.27,1.27,0,0,1,.69,1.67h0l0,.06h0v0A1.29,1.29,0,0,1,1311,447.71Zm41.81,14.44h0a1.27,1.27,0,0,1-.74-1.53h0a.66.66,0,0,1,.05-.15h0a1.29,1.29,0,0,1,1.53-.73h0a1.29,1.29,0,0,1,.88,1.59h0l-.06.15h0a1.27,1.27,0,0,1-1.52.72Zm-39.27-19h0a1.1,1.1,0,0,1-.26-.14h0a1.29,1.29,0,0,1-.43-1.53h0a1.3,1.3,0,0,1,.14-.26h0a1.29,1.29,0,0,1,1.79-.29h0a1.3,1.3,0,0,1,.43,1.53h0a1.1,1.1,0,0,1-.15.26A1.27,1.27,0,0,1,1313.55,443.13Zm40.09,13.95h0a1.29,1.29,0,0,1-.79-1.24h0a1,1,0,0,1,.1-.43h0a1.27,1.27,0,0,1,1.24-.79h0a1.28,1.28,0,0,1,1.22,1.33h0a1.18,1.18,0,0,1-.1.43h0a1.3,1.3,0,0,1-1.23.8A1.49,1.49,0,0,1,1353.64,457.08ZM1317,439.35h0a1.35,1.35,0,0,1-.48-.35h0a1.31,1.31,0,0,1-.22-1.32h0a1.27,1.27,0,0,1,.35-.48h0a1.29,1.29,0,0,1,1.81.13h0a1.28,1.28,0,0,1,.21,1.32h0a1.27,1.27,0,0,1-.35.48A1.28,1.28,0,0,1,1317,439.35Zm36.24,12.6h0a1.29,1.29,0,0,1-.78-.94h0a1.34,1.34,0,0,1,.08-.72h0a1.24,1.24,0,0,1,.94-.78h0a1.27,1.27,0,0,1,1.49,1h0a1.31,1.31,0,0,1-.06.71h0a1.31,1.31,0,0,1-1,.78A1.24,1.24,0,0,1,1353.27,452Zm-32-15.49h0a1.24,1.24,0,0,1-.64-.58h0a1.3,1.3,0,0,1-.06-1.07h0a1.28,1.28,0,0,1,.6-.66h0a1.27,1.27,0,0,1,1.72.55h0a1.24,1.24,0,0,1,.06,1.06h0a1.27,1.27,0,0,1-1.68.7Zm30.43,10.59h0a1.29,1.29,0,0,1-.68-.66h0a1.27,1.27,0,0,1,0-1h0a1.23,1.23,0,0,1,.65-.68h0a1.29,1.29,0,0,1,1.7.64h0a1.31,1.31,0,0,1,0,1h0a1.34,1.34,0,0,1-.67.68A1.27,1.27,0,0,1,1351.71,447.05Zm-25.62-12.41h0a1.27,1.27,0,0,1-.75-.87h0a1.28,1.28,0,0,1,.06-.8h0a1.25,1.25,0,0,1,.86-.75h0a1.29,1.29,0,0,1,1.56.92h0a1.31,1.31,0,0,1-.06.81h0a1.3,1.3,0,0,1-.87.74A1.21,1.21,0,0,1,1326.09,434.64Zm23,8h0a1.33,1.33,0,0,1-.52-.4h0a1.25,1.25,0,0,1-.16-1.27h0a1.21,1.21,0,0,1,.4-.53h0a1.28,1.28,0,0,1,1.79.24h0a1.3,1.3,0,0,1,.17,1.27h0a1.3,1.3,0,0,1-1.68.69ZM1331.19,434h0a1.26,1.26,0,0,1-.79-1.16h0a1.3,1.3,0,0,1,.09-.49h0a1.3,1.3,0,0,1,1.17-.81h0a1.29,1.29,0,0,1,1.29,1.26h0a1.17,1.17,0,0,1-.09.5h0a1.26,1.26,0,0,1-1.17.8A1.24,1.24,0,0,1,1331.19,434Zm14.31,5h0a1.29,1.29,0,0,1-.32-.19h0a1.29,1.29,0,0,1-.38-1.47h0a1.18,1.18,0,0,1,.19-.32h0a1.28,1.28,0,0,1,1.8-.19h0a1.29,1.29,0,0,1,.38,1.47h0a1.12,1.12,0,0,1-.2.33A1.27,1.27,0,0,1,1345.5,438.94Zm-9.19-4.45h0a1.27,1.27,0,0,1-.76-1.46h0a.83.83,0,0,1,.06-.21h0a1.29,1.29,0,0,1,1.46-.76h0a1.28,1.28,0,0,1,1,1.53h0a1.72,1.72,0,0,1-.07.21h0a1.28,1.28,0,0,1-1.45.76h0Zm4.86,1.69h0l-.08,0h0a1.28,1.28,0,0,1-.63-1.64h0a.13.13,0,0,1,0-.06h0a1.27,1.27,0,0,1,1.7-.6h0a1.27,1.27,0,0,1,.62,1.65h0l0,.06A1.27,1.27,0,0,1,1341.17,436.18Z"/><circle class="cls-1" cx="1050.66" cy="571.13" r="40.11" transform="translate(-145.18 577.5) rotate(-28.83)"/><path class="cls-1" d="M1022.38,652.16h0a4.72,4.72,0,0,1-2.65-5.88h0l.1-.23h0a4.65,4.65,0,0,1,5.85-2.66h0a4.73,4.73,0,0,1,2.92,6h0l-.1.23h0a4.7,4.7,0,0,1-5.88,2.65A.67.67,0,0,1,1022.38,652.16Zm-17-8.19h0a3.35,3.35,0,0,1-.73-.37h0a4.73,4.73,0,0,1-1.83-5.71h0a4.06,4.06,0,0,1,.4-.74h0a4.64,4.64,0,0,1,6.43-1.44h0a4.7,4.7,0,0,1,1.87,5.72h0a3.65,3.65,0,0,1-.4.72A4.67,4.67,0,0,1,1005.4,644Zm35.36,12.23h0a4.73,4.73,0,0,1-2.89-4.79h0a4.84,4.84,0,0,1,.31-1.26h0a4.76,4.76,0,0,1,4.83-2.94h0a4.7,4.7,0,0,1,4.18,5.16h0a4.18,4.18,0,0,1-.3,1.23h0a4.67,4.67,0,0,1-4.82,2.94A4.77,4.77,0,0,1,1040.76,656.2Zm-50-24.08h0a4.79,4.79,0,0,1-1.56-1h0a4.76,4.76,0,0,1-1-5.1h0a5.61,5.61,0,0,1,1.07-1.54h0a4.63,4.63,0,0,1,6.6.11h0a4.59,4.59,0,0,1,1,5.05h0a4.5,4.5,0,0,1-1,1.56A4.7,4.7,0,0,1,990.77,632.12Zm68.83,23.8h0a4.69,4.69,0,0,1-2.86-3.71h0a4.67,4.67,0,0,1,.31-2.4h0a4.69,4.69,0,0,1,3.71-2.86h0a4.66,4.66,0,0,1,5.26,4h0a4.81,4.81,0,0,1-.31,2.41h0a4.69,4.69,0,0,1-3.74,2.85h0A5,5,0,0,1,1059.6,655.92Zm-80.32-38.7h0a4.68,4.68,0,0,1-2.21-1.93h0a4.65,4.65,0,0,1-.31-4.17h0a4.47,4.47,0,0,1,1.91-2.26h0a4.65,4.65,0,0,1,6.41,1.63h0a4.59,4.59,0,0,1,.34,4.19h0a4.65,4.65,0,0,1-1.92,2.21A4.72,4.72,0,0,1,979.28,617.22Zm98.56,34h0a4.56,4.56,0,0,1-2.57-2.68h0a4.55,4.55,0,0,1,0-3.46h0a4.72,4.72,0,0,1,2.65-2.59h0a4.72,4.72,0,0,1,6,2.72h0a4.6,4.6,0,0,1,0,3.48h0a4.59,4.59,0,0,1-2.64,2.56A4.69,4.69,0,0,1,1077.84,651.27ZM971.56,600h0a4.71,4.71,0,0,1-2.69-2.89h0A4.73,4.73,0,0,1,969,594h0a4.77,4.77,0,0,1,2.92-2.75h0a4.73,4.73,0,0,1,5.89,3.06h0a4.62,4.62,0,0,1-.12,3.16h0a4.7,4.7,0,0,1-2.93,2.71A4.59,4.59,0,0,1,971.56,600Zm123,42.51h0a4.6,4.6,0,0,1-2.1-1.71h0a4.61,4.61,0,0,1-.46-4.38h0a4.55,4.55,0,0,1,1.72-2.12l0,0a4.65,4.65,0,0,1,6.49,1.21h0a4.74,4.74,0,0,1,.49,4.39h0a4.7,4.7,0,0,1-1.72,2.12h0A4.67,4.67,0,0,1,1094.55,642.55ZM968,581.55h0a4.66,4.66,0,0,1-2.9-3.95h0a4.67,4.67,0,0,1,.36-2.18h0a4.69,4.69,0,0,1,4-2.86h0a4.67,4.67,0,0,1,5,4.32h0a4.56,4.56,0,0,1-.35,2.15h0a4.65,4.65,0,0,1-4,2.86A4.36,4.36,0,0,1,968,581.55Zm140.82,48.69h0a4.32,4.32,0,0,1-1.38-.9h0a4.69,4.69,0,0,1-1.17-5.21h0a4.79,4.79,0,0,1,.88-1.39h0a4.67,4.67,0,0,1,6.62-.28h0a4.69,4.69,0,0,1,1.16,5.23h0a4.85,4.85,0,0,1-.86,1.37h0A4.69,4.69,0,0,1,1108.78,630.24Zm-140-67.5h0a4.65,4.65,0,0,1-2.86-5h0a4.52,4.52,0,0,1,.29-1h0a4.64,4.64,0,0,1,5.07-2.87h0a4.69,4.69,0,0,1,3.89,5.38h0a5.68,5.68,0,0,1-.27,1h0a4.7,4.7,0,0,1-5.1,2.86A3.86,3.86,0,0,1,968.74,562.74Zm151,52.22h0c-.18-.07-.34-.17-.51-.24h0a4.66,4.66,0,0,1-2.06-5.84h0a4.37,4.37,0,0,1,.26-.54h0a4.64,4.64,0,0,1,6.34-1.81h0a4.7,4.7,0,0,1,2.1,5.82h0c-.09.2-.19.36-.26.54A4.68,4.68,0,0,1,1119.79,615Zm-146-70.34h0a4.67,4.67,0,0,1-2.55-6.11h0l.06-.14h0l.07-.17h0a4.72,4.72,0,0,1,6.14-2.54h0a4.68,4.68,0,0,1,2.51,6.13h0c0,.05-.06.14-.1.23h0l0,.05A4.67,4.67,0,0,1,973.82,544.62ZM1127,597.54h0a4.69,4.69,0,0,1-2.73-5.61h0a5.31,5.31,0,0,1,.2-.56h0a4.71,4.71,0,0,1,5.58-2.67h0a4.68,4.68,0,0,1,3.22,5.81h0a3.44,3.44,0,0,1-.2.56h0a4.64,4.64,0,0,1-5.57,2.64A4.15,4.15,0,0,1,1127,597.54ZM983.13,527.87h0a4.59,4.59,0,0,1-1-.53h0a4.74,4.74,0,0,1-1.58-5.61h0a6.1,6.1,0,0,1,.52-.93h0a4.73,4.73,0,0,1,6.54-1.06h0a4.69,4.69,0,0,1,1.58,5.61h0a3.84,3.84,0,0,1-.52.93A4.69,4.69,0,0,1,983.13,527.87ZM1130,579h0a4.72,4.72,0,0,1-2.9-4.53h0a4.23,4.23,0,0,1,.39-1.59h0A4.64,4.64,0,0,1,1132,570h0a4.68,4.68,0,0,1,4.47,4.88h0a4.61,4.61,0,0,1-.35,1.58h0A4.67,4.67,0,0,1,1130,579ZM995.88,514h0a4.57,4.57,0,0,1-1.77-1.27h0a4.66,4.66,0,0,1-.78-4.84h0a4.65,4.65,0,0,1,1.27-1.77h0a4.7,4.7,0,0,1,6.61.49h0a4.67,4.67,0,0,1,.78,4.84h0a4.35,4.35,0,0,1-1.3,1.76A4.63,4.63,0,0,1,995.88,514Zm132.72,46.17h0a4.69,4.69,0,0,1-2.83-3.46h0a4.65,4.65,0,0,1,.26-2.62h0a4.65,4.65,0,0,1,3.45-2.87h0A4.68,4.68,0,0,1,1135,555h0a5,5,0,0,1-.23,2.61h0a4.74,4.74,0,0,1-3.47,2.86A4.65,4.65,0,0,1,1128.6,560.18Zm-117.14-56.74h0a4.52,4.52,0,0,1-2.36-2.15h0a4.69,4.69,0,0,1-.22-3.9h0a4.71,4.71,0,0,1,2.2-2.4h0a4.64,4.64,0,0,1,6.31,2h0a4.62,4.62,0,0,1,.19,3.89h0a4.52,4.52,0,0,1-2.18,2.42A4.69,4.69,0,0,1,1011.46,503.44Zm111.46,38.78h0a4.74,4.74,0,0,1-2.52-2.41h0a4.64,4.64,0,0,1,0-3.69h0a4.44,4.44,0,0,1,2.4-2.49h0A4.64,4.64,0,0,1,1129,536h0a4.64,4.64,0,0,1,.08,3.67h0a4.66,4.66,0,0,1-2.45,2.51A4.6,4.6,0,0,1,1122.92,542.22Zm-93.85-45.44h0a4.67,4.67,0,0,1-2.77-3.19h0a4.84,4.84,0,0,1,.23-2.95h0a4.65,4.65,0,0,1,3.16-2.75h0a4.71,4.71,0,0,1,5.69,3.39h0a4.7,4.7,0,0,1-.2,3h0A4.76,4.76,0,0,1,1032,497,4.63,4.63,0,0,1,1029.07,496.78ZM1113.24,526h0a4.91,4.91,0,0,1-1.93-1.46h0a4.64,4.64,0,0,1-.58-4.66h0a4.69,4.69,0,0,1,1.47-1.93h0a4.69,4.69,0,0,1,6.55.87h0a4.74,4.74,0,0,1,.62,4.67h0a4.46,4.46,0,0,1-1.49,1.89A4.68,4.68,0,0,1,1113.24,526Zm-65.5-31.74h0a4.7,4.7,0,0,1-2.91-4.26h0a4.86,4.86,0,0,1,.34-1.81h0a4.74,4.74,0,0,1,4.28-2.94h0a4.71,4.71,0,0,1,4.75,4.62h0a4.75,4.75,0,0,1-.34,1.82h0a4.7,4.7,0,0,1-4.28,2.93A4.79,4.79,0,0,1,1047.74,494.29Zm52.4,18.23h0a4.86,4.86,0,0,1-1.17-.69h0a4.76,4.76,0,0,1-1.4-5.39h0a4.55,4.55,0,0,1,.73-1.19h0a4.66,4.66,0,0,1,6.58-.67h0a4.64,4.64,0,0,1,1.38,5.36h0a4.62,4.62,0,0,1-.71,1.23A4.71,4.71,0,0,1,1100.14,512.52Zm-33.66-16.29h0a4.69,4.69,0,0,1-2.79-5.37h0a6.86,6.86,0,0,1,.25-.77h0a4.7,4.7,0,0,1,5.35-2.76h0a4.69,4.69,0,0,1,3.54,5.6h0c-.07.24-.15.51-.25.78h0a4.72,4.72,0,0,1-5.33,2.77h0C1067,496.4,1066.71,496.32,1066.48,496.23Zm17.8,6.19h0l-.29-.11h0a4.71,4.71,0,0,1-2.28-6h0a.59.59,0,0,1,.12-.22h0a4.62,4.62,0,0,1,6.22-2.17h0a4.62,4.62,0,0,1,2.28,6h0l-.08.2A4.67,4.67,0,0,1,1084.28,502.42Z"/><circle class="cls-1" cx="79.59" cy="401.58" r="25.19" transform="translate(-42.18 10.72) rotate(-6.09)"/><path class="cls-1" d="M61.83,452.45h0a3,3,0,0,1-1.66-3.69h0l.06-.14h0A2.91,2.91,0,0,1,63.91,447h0a3,3,0,0,1,1.83,3.74h0l-.06.14h0A2.94,2.94,0,0,1,62,452.49.42.42,0,0,1,61.83,452.45Zm-10.66-5.14h0a2.74,2.74,0,0,1-.45-.23h0a3,3,0,0,1-1.15-3.59h0a2.05,2.05,0,0,1,.25-.46h0a2.91,2.91,0,0,1,4-.91h0a3,3,0,0,1,1.17,3.6h0a2.38,2.38,0,0,1-.25.44A2.94,2.94,0,0,1,51.17,447.31ZM73.37,455h0a3,3,0,0,1-1.81-3h0a2.55,2.55,0,0,1,.2-.79h0a3,3,0,0,1,3-1.85h0a3,3,0,0,1,2.63,3.24h0a2.42,2.42,0,0,1-.19.77h0a2.92,2.92,0,0,1-3,1.85A3.26,3.26,0,0,1,73.37,455ZM42,439.87h0a2.88,2.88,0,0,1-1-.66h0a3,3,0,0,1-.62-3.19h0a3.45,3.45,0,0,1,.68-1h0a2.91,2.91,0,0,1,4.14.07h0a2.89,2.89,0,0,1,.6,3.18h0a3,3,0,0,1-.65,1A3,3,0,0,1,42,439.87ZM85.2,454.81h0a2.94,2.94,0,0,1-1.79-2.33h0A2.93,2.93,0,0,1,83.6,451h0a2.94,2.94,0,0,1,2.33-1.79h0a2.93,2.93,0,0,1,3.31,2.52h0a3.1,3.1,0,0,1-.2,1.51h0A3,3,0,0,1,86.69,455h0A3.17,3.17,0,0,1,85.2,454.81Zm-50.42-24.3h0a2.85,2.85,0,0,1-1.39-1.21h0a2.91,2.91,0,0,1-.2-2.62h0a2.75,2.75,0,0,1,1.2-1.41h0a2.92,2.92,0,0,1,4,1h0a2.89,2.89,0,0,1,.21,2.63h0a2.88,2.88,0,0,1-1.21,1.38A2.92,2.92,0,0,1,34.78,430.51Zm61.88,21.38h0A2.89,2.89,0,0,1,95,450.21h0a2.9,2.9,0,0,1,0-2.17h0a3,3,0,0,1,1.66-1.63h0a3,3,0,0,1,3.8,1.71h0a2.86,2.86,0,0,1,0,2.19h0a2.94,2.94,0,0,1-3.82,1.58ZM29.93,419.73h0a2.94,2.94,0,0,1-1.69-1.82h0a3,3,0,0,1,.07-2h0a3,3,0,0,1,1.83-1.73h0a3,3,0,0,1,3.7,1.92h0a3,3,0,0,1-.07,2h0a3,3,0,0,1-1.84,1.7A2.91,2.91,0,0,1,29.93,419.73Zm77.22,26.68h0a2.81,2.81,0,0,1-1.32-1.07h0a2.87,2.87,0,0,1-.29-2.74h0a2.79,2.79,0,0,1,1.08-1.34v0a2.92,2.92,0,0,1,4.07.76h0a3,3,0,0,1,.31,2.75h0a3,3,0,0,1-1.08,1.34h0A2.91,2.91,0,0,1,107.15,446.41ZM27.66,408.12h0a2.93,2.93,0,0,1-1.81-2.48h0a3,3,0,0,1,.22-1.37h0a3,3,0,0,1,2.49-1.8h0a2.94,2.94,0,0,1,3.15,2.71h0a3.07,3.07,0,0,1-.22,1.36h0a2.95,2.95,0,0,1-3.83,1.58Zm88.42,30.57h0a2.85,2.85,0,0,1-.87-.57h0a3,3,0,0,1-.73-3.27h0A3.35,3.35,0,0,1,115,434h0a2.94,2.94,0,0,1,4.16-.18h0a3,3,0,0,1,.73,3.29h0a3,3,0,0,1-.55.85h0A2.93,2.93,0,0,1,116.08,438.69ZM28.15,396.31h0a2.94,2.94,0,0,1-1.79-3.17h0a3.09,3.09,0,0,1,.18-.65h0a2.93,2.93,0,0,1,3.18-1.81h0a3,3,0,0,1,2.45,3.38h0a4.16,4.16,0,0,1-.17.63h0a3,3,0,0,1-3.2,1.8A2.84,2.84,0,0,1,28.15,396.31ZM123,429.09h0c-.11,0-.21-.1-.32-.15h0a2.93,2.93,0,0,1-1.29-3.67h0c.05-.1.09-.21.16-.33h0a2.92,2.92,0,0,1,4-1.14h0a3,3,0,0,1,1.31,3.66h0c0,.12-.11.22-.16.33A2.94,2.94,0,0,1,123,429.09ZM31.35,384.93h0a2.94,2.94,0,0,1-1.61-3.83h0l0-.09h0l0-.11h0a3,3,0,0,1,3.85-1.6h0a2.94,2.94,0,0,1,1.58,3.85h0l-.06.15h0l0,0A2.92,2.92,0,0,1,31.35,384.93Zm96.16,33.22h0a2.93,2.93,0,0,1-1.71-3.52h0a2.42,2.42,0,0,1,.12-.35h0a3,3,0,0,1,3.51-1.67h0a2.92,2.92,0,0,1,2,3.64h0a1.9,1.9,0,0,1-.12.36h0a2.92,2.92,0,0,1-3.5,1.65A1.42,1.42,0,0,1,127.51,418.15ZM37.19,374.41h0a2.37,2.37,0,0,1-.6-.33h0a3,3,0,0,1-1-3.52h0a4.08,4.08,0,0,1,.32-.58h0a3,3,0,0,1,4.11-.67h0a2.94,2.94,0,0,1,1,3.52h0a2.42,2.42,0,0,1-.33.59A2.94,2.94,0,0,1,37.19,374.41Zm92.19,32.08h0a3,3,0,0,1-1.82-2.85h0a2.77,2.77,0,0,1,.24-1h0a2.94,2.94,0,0,1,2.84-1.8h0a2.94,2.94,0,0,1,2.81,3.06h0a2.87,2.87,0,0,1-.22,1h0a3,3,0,0,1-2.84,1.82A3.31,3.31,0,0,1,129.38,406.49ZM45.19,365.71h0a3,3,0,0,1-1.11-.79h0a3,3,0,0,1-.49-3h0a3,3,0,0,1,.8-1.12h0a3,3,0,0,1,4.15.31h0a2.93,2.93,0,0,1,.49,3h0a2.73,2.73,0,0,1-.81,1.11A2.94,2.94,0,0,1,45.19,365.71Zm83.33,29h0a2.94,2.94,0,0,1-1.77-2.17h0a2.88,2.88,0,0,1,.16-1.65h0a2.94,2.94,0,0,1,2.16-1.8h0a2.94,2.94,0,0,1,3.45,2.34h0a3.12,3.12,0,0,1-.15,1.64h0a3,3,0,0,1-3.85,1.64ZM55,359.08h0a2.9,2.9,0,0,1-1.48-1.35h0a2.93,2.93,0,0,1-.14-2.45h0a2.94,2.94,0,0,1,1.38-1.51h0a2.91,2.91,0,0,1,4,1.24h0a2.89,2.89,0,0,1,.12,2.45h0A2.8,2.8,0,0,1,57.45,359,2.93,2.93,0,0,1,55,359.08Zm70,24.35h0a3,3,0,0,1-1.58-1.52h0a2.92,2.92,0,0,1,0-2.32h0a2.76,2.76,0,0,1,1.5-1.56h0a2.92,2.92,0,0,1,3.89,1.47h0a2.9,2.9,0,0,1,.05,2.31h0a3,3,0,0,1-3.84,1.62ZM66,354.9h0a2.94,2.94,0,0,1-1.74-2h0a3,3,0,0,1,.14-1.85h0a2.94,2.94,0,0,1,2-1.73h0A3,3,0,0,1,70,351.44h0a3,3,0,0,1-.13,1.85h0a3,3,0,0,1-2,1.72A2.92,2.92,0,0,1,66,354.9Zm52.84,18.36h0a3.13,3.13,0,0,1-1.21-.92h0a2.91,2.91,0,0,1-.36-2.93h0a2.86,2.86,0,0,1,.92-1.21h0a2.94,2.94,0,0,1,4.11.55h0a3,3,0,0,1,.39,2.94h0a2.86,2.86,0,0,1-.93,1.18A3,3,0,0,1,118.88,373.26ZM77.76,353.33h0a2.94,2.94,0,0,1-1.83-2.67h0a2.83,2.83,0,0,1,.22-1.14h0a3,3,0,0,1,2.68-1.85h0a3,3,0,0,1,3,2.9h0a2.82,2.82,0,0,1-.21,1.14h0a2.92,2.92,0,0,1-2.69,1.84A2.81,2.81,0,0,1,77.76,353.33Zm32.89,11.45h0a3.67,3.67,0,0,1-.73-.43h0A3,3,0,0,1,109,361h0a3,3,0,0,1,.46-.75h0a2.93,2.93,0,0,1,4.13-.42h0a2.93,2.93,0,0,1,.87,3.37h0a2.87,2.87,0,0,1-.45.77A3,3,0,0,1,110.65,364.78ZM89.52,354.55h0a2.94,2.94,0,0,1-1.75-3.37h0a4,4,0,0,1,.16-.49h0A3,3,0,0,1,91.29,349h0a3,3,0,0,1,2.22,3.52h0a3.38,3.38,0,0,1-.16.48h0A3,3,0,0,1,90,354.7h0C89.84,354.65,89.67,354.61,89.52,354.55Zm11.18,3.89h0l-.18-.08h0a3,3,0,0,1-1.44-3.78h0a.64.64,0,0,1,.08-.14h0a2.91,2.91,0,0,1,3.91-1.36h0a2.91,2.91,0,0,1,1.43,3.79h0l0,.12A2.93,2.93,0,0,1,100.7,358.44Z"/><path class="cls-1" d="M520.75,92.64A7.06,7.06,0,1,0,530,88.79,7.05,7.05,0,0,0,520.75,92.64Z"/><path class="cls-1" d="M513.57,89.69A14.83,14.83,0,1,1,521.65,109,14.84,14.84,0,0,1,513.57,89.69Zm1,.42a13.73,13.73,0,1,0,17.92-7.49A13.73,13.73,0,0,0,514.58,90.11Z"/><path class="cls-1" d="M974.72,16.87A7.06,7.06,0,1,0,983.93,13,7.06,7.06,0,0,0,974.72,16.87Z"/><path class="cls-1" d="M237.62,9.43a7.06,7.06,0,1,0,9.21-3.85A7.05,7.05,0,0,0,237.62,9.43Z"/><path class="cls-1" d="M1269.08,46.38a7.06,7.06,0,1,0,9.21-3.85A7.05,7.05,0,0,0,1269.08,46.38Z"/></svg>